<?xml version="1.0" standalone="no"?>
<!DOCTYPE svg PUBLIC "-//W3C//DTD SVG 1.1//EN" "http://www.w3.org/Graphics/SVG/1.1/DTD/svg11.dtd" >
<svg xmlns="http://www.w3.org/2000/svg" xmlns:xlink="http://www.w3.org/1999/xlink" version="1.1">
<metadata>
Created by FontForge 20161003 at Fri Oct 20 09:50:34 2017
 By www-data
(c) 2013 Klim Type Foundry. All Rights Reserved.
</metadata>
<defs>
<font id="DomaineTextLight" horiz-adv-x="640" >
  <font-face 
    font-family="DomaineTextLight"
    font-weight="300"
    font-stretch="normal"
    units-per-em="1000"
    panose-1="2 10 3 6 8 5 5 6 2 4"
    ascent="780"
    descent="-220"
    x-height="484"
    cap-height="700"
    bbox="-150 -245 1291 976"
    underline-thickness="36"
    underline-position="-129"
    unicode-range="U+0020-FB04"
  />
<missing-glyph horiz-adv-x="500" 
 />
    <glyph glyph-name="ff" unicode="ff" horiz-adv-x="678" 
d="M172 484h266v78q0 26 4 45q-18 41 -52.5 68.5t-82.5 27.5q-66 0 -100.5 -48t-34.5 -129v-42zM273 8v-8h-225v6q26 16 35.5 24t16 26.5t6.5 50.5v339h-70v24l70 20v33q0 92 54 153.5t148 61.5q97 0 160 -63q49 77 150 77q56 0 94.5 -26.5t38.5 -63.5q0 -25 -15 -38
t-40 -13q-10 0 -21 3q7 15 7 43q0 27 -19.5 44t-54.5 17q-47 0 -75.5 -37t-28.5 -103v-94h144l-5 -38h-139v-349q0 -40 20 -56t81 -33v-8h-225v6q26 16 35.5 24t16 26.5t6.5 50.5v339h-266v-349q0 -40 20 -56t81 -33z" />
    <glyph glyph-name="fi" unicode="fi" horiz-adv-x="596" 
d="M172 446v-349q0 -40 20 -56t81 -33v-8h-225v6q26 16 35.5 24t16 26.5t6.5 50.5v339h-70v24l70 20v40q0 101 56.5 161.5t156.5 60.5q70 0 112.5 -30.5t42.5 -70.5q0 -25 -18.5 -41t-47.5 -16q-18 0 -31 5q15 18 15 45q0 33 -21.5 53.5t-67.5 20.5q-66 0 -98.5 -47.5
t-32.5 -133.5v-53h332v-377q0 -32 6.5 -50.5t16 -26.5t35.5 -24v-6h-182v6q26 16 35.5 24t16 26.5t6.5 50.5v339h-266z" />
    <glyph glyph-name="fl" unicode="fl" horiz-adv-x="596" 
d="M504 749v-642q0 -32 6.5 -50.5t16 -26.5t35.5 -24v-6h-182v6q26 16 35.5 24t16 26.5t6.5 50.5v478q0 50 -41.5 91t-102.5 41q-60 0 -91 -42t-31 -117v-74h144l-5 -38h-139v-349q0 -40 20 -56t81 -33v-8h-225v6q26 16 35.5 24t16 26.5t6.5 50.5v339h-70v24l70 20v67
q0 93 51 144t130 51q92 0 146 -58z" />
    <glyph glyph-name="ffi" unicode="ffi" horiz-adv-x="928" 
d="M172 484h266v46q0 34 8 68q-17 43 -53 74t-86 31q-66 0 -100.5 -48t-34.5 -129v-42zM273 8v-8h-225v6q26 16 35.5 24t16 26.5t6.5 50.5v339h-70v24l70 20v33q0 92 54 153.5t148 61.5q106 0 167 -71q57 85 176 85q70 0 112.5 -30.5t42.5 -70.5q0 -25 -18.5 -41t-47.5 -16
q-18 0 -31 5q15 18 15 45q0 33 -21.5 53.5t-67.5 20.5q-66 0 -98.5 -47.5t-32.5 -133.5v-53h332v-377q0 -32 6.5 -50.5t16 -26.5t35.5 -24v-6h-182v6q26 16 35.5 24t16 26.5t6.5 50.5v339h-266v-349q0 -40 20 -56t81 -33v-8h-225v6q26 16 35.5 24t16 26.5t6.5 50.5v339h-266
v-349q0 -40 20 -56t81 -33z" />
    <glyph glyph-name="ffl" unicode="ffl" horiz-adv-x="928" 
d="M172 484h266v73q0 19 4 49q-18 41 -52.5 69t-82.5 28q-66 0 -100.5 -48t-34.5 -129v-42zM273 8v-8h-225v6q26 16 35.5 24t16 26.5t6.5 50.5v339h-70v24l70 20v33q0 92 54 153.5t148 61.5q98 0 161 -63q48 77 150 77q92 0 146 -58l71 55v-642q0 -32 6.5 -50.5t16 -26.5
t35.5 -24v-6h-182v6q26 16 35.5 24t16 26.5t6.5 50.5v478q0 50 -41.5 91t-102.5 41q-60 0 -91 -42t-31 -117v-74h144l-5 -38h-139v-349q0 -40 20 -56t81 -33v-8h-225v6q26 16 35.5 24t16 26.5t6.5 50.5v339h-266v-349q0 -40 20 -56t81 -33z" />
    <glyph glyph-name="f_b" unicode="fb" horiz-adv-x="943" 
d="M504 259v-65q0 -78 48 -117.5t108 -39.5q74 0 120.5 57.5t46.5 155.5q0 88 -44.5 142t-119.5 54q-70 0 -114.5 -55.5t-44.5 -131.5zM438 585q0 50 -41.5 91t-102.5 41q-60 0 -91 -42t-31 -117v-74h144l-5 -38h-139v-349q0 -40 20 -56t81 -33v-8h-225v6q26 16 35.5 24
t16 26.5t6.5 50.5v339h-70v24l70 20v67q0 93 51 144t130 51q92 0 146 -58l71 55v-386q18 57 65.5 94t114.5 37q95 0 155.5 -66t60.5 -178q0 -115 -66.5 -187.5t-158.5 -72.5q-65 0 -112.5 29.5t-67.5 72.5q-6 -59 -58 -102h-13q14 59 14 222v373z" />
    <glyph glyph-name="f_f_b" unicode="ffb" horiz-adv-x="1275" 
d="M172 484h266v73q0 19 4 49q-18 41 -52.5 69t-82.5 28q-66 0 -100.5 -48t-34.5 -129v-42zM836 259v-65q0 -78 48 -117.5t108 -39.5q74 0 120.5 57.5t46.5 155.5q0 88 -44.5 142t-119.5 54q-70 0 -114.5 -55.5t-44.5 -131.5zM827 92q-6 -59 -58 -102h-13q14 59 14 222v373
q0 50 -41.5 91t-102.5 41q-60 0 -91 -42t-31 -117v-74h144l-5 -38h-139v-349q0 -40 20 -56t81 -33v-8h-225v6q26 16 35.5 24t16 26.5t6.5 50.5v339h-266v-349q0 -40 20 -56t81 -33v-8h-225v6q26 16 35.5 24t16 26.5t6.5 50.5v339h-70v24l70 20v33q0 92 54 153.5t148 61.5
q98 0 161 -63q48 77 150 77q92 0 146 -58l71 55v-386q18 57 65.5 94t114.5 37q95 0 155.5 -66t60.5 -178q0 -115 -66.5 -187.5t-158.5 -72.5q-65 0 -112.5 29.5t-67.5 72.5z" />
    <glyph glyph-name="f_f_h" unicode="ffh" horiz-adv-x="1264" 
d="M172 484h266v73q0 19 4 49q-18 41 -52.5 69t-82.5 28q-66 0 -100.5 -48t-34.5 -129v-42zM273 8v-8h-225v6q26 16 35.5 24t16 26.5t6.5 50.5v339h-70v24l70 20v33q0 92 54 153.5t148 61.5q98 0 161 -63q48 77 150 77q92 0 146 -58l71 55v-385q21 62 67 96t110 34
q74 0 114.5 -45.5t40.5 -128.5v-213q0 -32 6.5 -50.5t16 -26.5t35.5 -24v-6h-182v6q26 16 35.5 24t16 26.5t6.5 50.5v198q0 60 -26.5 99t-86.5 39q-64 0 -108.5 -51t-44.5 -138v-147q0 -32 6.5 -50.5t16 -26.5t35.5 -24v-6h-182v6q26 16 35.5 24t16 26.5t6.5 50.5v478
q0 50 -41.5 91t-102.5 41q-60 0 -91 -42t-31 -117v-74h144l-5 -38h-139v-349q0 -40 20 -56t81 -33v-8h-225v6q26 16 35.5 24t16 26.5t6.5 50.5v339h-266v-349q0 -40 20 -56t81 -33z" />
    <glyph glyph-name="f_f_idieresis" unicode="ff&#xef;" horiz-adv-x="928" 
d="M172 484h266v78q0 26 4 45q-18 41 -52.5 68.5t-82.5 27.5q-66 0 -100.5 -48t-34.5 -129v-42zM891 692q22 0 37.5 -15.5t15.5 -37.5t-15.5 -37.5t-37.5 -15.5t-37.5 15.5t-15.5 37.5t15.5 37.5t37.5 15.5zM273 8v-8h-225v6q26 16 35.5 24t16 26.5t6.5 50.5v339h-70v24
l70 20v33q0 92 54 153.5t148 61.5q97 0 160 -63q49 77 150 77q57 0 97.5 -29t40.5 -70q0 -27 -19.5 -43t-47.5 -16q-17 0 -30 5q18 23 18 49q0 31 -17.5 50.5t-51.5 19.5q-47 0 -75.5 -37t-28.5 -103v-94h332v-377q0 -32 6.5 -50.5t16 -26.5t35.5 -24v-6h-182v6
q26 16 35.5 24t16 26.5t6.5 50.5v339h-266v-349q0 -40 20 -56t81 -33v-8h-225v6q26 16 35.5 24t16 26.5t6.5 50.5v339h-266v-349q0 -40 20 -56t81 -33z" />
    <glyph glyph-name="f_f_j" unicode="ffj" horiz-adv-x="924" 
d="M172 484h266v46q0 34 8 68q-17 43 -53 74t-86 31q-66 0 -100.5 -48t-34.5 -129v-42zM681 -225q-53 0 -85 24t-32 61q0 25 15 38t40 13q11 0 20 -3q-6 -16 -6 -41q0 -26 16.5 -43t41.5 -17q79 0 79 142v497h-266v-349q0 -40 20 -56t81 -33v-8h-225v6q26 16 35.5 24
t16 26.5t6.5 50.5v339h-266v-349q0 -40 20 -56t81 -33v-8h-225v6q26 16 35.5 24t16 26.5t6.5 50.5v339h-70v24l70 20v33q0 92 54 153.5t148 61.5q106 0 167 -71q57 85 176 85q70 0 112.5 -30.5t42.5 -70.5q0 -25 -18.5 -41t-47.5 -16q-18 0 -31 5q15 18 15 45
q0 33 -21.5 53.5t-67.5 20.5q-66 0 -98.5 -47.5t-32.5 -133.5v-53h332v-519q0 -90 -40 -140t-115 -50z" />
    <glyph glyph-name="f_f_k" unicode="ffk" horiz-adv-x="1231" 
d="M172 484h266v73q0 19 4 49q-18 41 -52.5 69t-82.5 28q-66 0 -100.5 -48t-34.5 -129v-42zM273 8v-8h-225v6q26 16 35.5 24t16 26.5t6.5 50.5v339h-70v24l70 20v33q0 92 54 153.5t148 61.5q98 0 161 -63q48 77 150 77q92 0 146 -58l71 55v-462h27q35 0 51 16l119 112
q18 17 18 29q0 15 -31 34v6h185v-6q-80 -26 -130 -74l-126 -119l168 -201q17 -21 39.5 -36.5t33.5 -20.5t47 -20v-7h-153q-9 30 -41 70l-133 162q-16 21 -38 21h-36v-146q0 -32 6.5 -50.5t16 -26.5t35.5 -24v-6h-182v6q26 16 35.5 24t16 26.5t6.5 50.5v478q0 50 -41.5 91
t-102.5 41q-60 0 -91 -42t-31 -117v-74h144l-5 -38h-139v-349q0 -40 20 -56t81 -33v-8h-225v6q26 16 35.5 24t16 26.5t6.5 50.5v339h-266v-349q0 -40 20 -56t81 -33z" />
    <glyph glyph-name="f_h" unicode="fh" horiz-adv-x="932" 
d="M438 585q0 50 -41.5 91t-102.5 41q-60 0 -91 -42t-31 -117v-74h144l-5 -38h-139v-349q0 -40 20 -56t81 -33v-8h-225v6q26 16 35.5 24t16 26.5t6.5 50.5v339h-70v24l70 20v67q0 93 51 144t130 51q92 0 146 -58l71 55v-385q21 62 67 96t110 34q74 0 114.5 -45.5
t40.5 -128.5v-213q0 -32 6.5 -50.5t16 -26.5t35.5 -24v-6h-182v6q26 16 35.5 24t16 26.5t6.5 50.5v198q0 60 -26.5 99t-86.5 39q-64 0 -108.5 -51t-44.5 -138v-147q0 -32 6.5 -50.5t16 -26.5t35.5 -24v-6h-182v6q26 16 35.5 24t16 26.5t6.5 50.5v478z" />
    <glyph glyph-name="f_idieresis" unicode="f&#xef;" horiz-adv-x="596" 
d="M612 639q0 -22 -15.5 -37.5t-37.5 -15.5t-37.5 15.5t-15.5 37.5t15.5 37.5t37.5 15.5t37.5 -15.5t15.5 -37.5zM172 446v-349q0 -40 20 -56t81 -33v-8h-225v6q26 16 35.5 24t16 26.5t6.5 50.5v339h-70v24l70 20v72q0 88 49.5 139t130.5 51q57 0 97.5 -29t40.5 -70
q0 -27 -19.5 -43t-47.5 -16q-17 0 -30 5q18 23 18 49q0 31 -17.5 50.5t-51.5 19.5q-47 0 -75.5 -37t-28.5 -103v-94h332v-377q0 -32 6.5 -50.5t16 -26.5t35.5 -24v-6h-182v6q26 16 35.5 24t16 26.5t6.5 50.5v339h-266z" />
    <glyph glyph-name="f_j" unicode="fj" horiz-adv-x="592" 
d="M438 446h-266v-349q0 -40 20 -56t81 -33v-8h-225v6q26 16 35.5 24t16 26.5t6.5 50.5v339h-70v24l70 20v40q0 101 56.5 161.5t156.5 60.5q70 0 112.5 -30.5t42.5 -70.5q0 -25 -18.5 -41t-47.5 -16q-18 0 -31 5q15 18 15 45q0 33 -21.5 53.5t-67.5 20.5q-66 0 -98.5 -47.5
t-32.5 -133.5v-53h332v-519q0 -90 -40 -140t-115 -50q-53 0 -85 24t-32 61q0 25 15 38t40 13q11 0 20 -3q-6 -16 -6 -41q0 -26 16.5 -43t41.5 -17q79 0 79 142v497z" />
    <glyph glyph-name="f_k" unicode="fk" horiz-adv-x="899" 
d="M273 8v-8h-225v6q26 16 35.5 24t16 26.5t6.5 50.5v339h-70v24l70 20v67q0 93 51 144t130 51q92 0 146 -58l71 55v-462h27q35 0 51 16l119 112q18 17 18 29q0 15 -31 34v6h185v-6q-80 -26 -130 -74l-126 -119l168 -201q17 -21 39.5 -36.5t33.5 -20.5t47 -20v-7h-153
q-9 30 -41 70l-133 162q-16 21 -38 21h-36v-146q0 -32 6.5 -50.5t16 -26.5t35.5 -24v-6h-182v6q26 16 35.5 24t16 26.5t6.5 50.5v478q0 50 -41.5 91t-102.5 41q-60 0 -91 -42t-31 -117v-74h144l-5 -38h-139v-349q0 -40 20 -56t81 -33z" />
    <glyph glyph-name=".notdef" horiz-adv-x="500" 
 />
    <glyph glyph-name=".null" horiz-adv-x="0" 
 />
    <glyph glyph-name="nonmarkingreturn" horiz-adv-x="333" 
 />
    <glyph glyph-name="space" unicode=" " horiz-adv-x="200" 
 />
    <glyph glyph-name="exclam" unicode="!" horiz-adv-x="258" 
d="M79 700h100l-45 -512h-10zM188 50q0 -25 -17.5 -42t-41.5 -17t-41.5 17t-17.5 42t17.5 42t41.5 17t41.5 -17t17.5 -42z" />
    <glyph glyph-name="quotedbl" unicode="&#x22;" horiz-adv-x="382" 
d="M275 441h-12l-37 244q16 25 43 25t43 -25zM119 441h-12l-37 244q16 25 43 25t43 -25z" />
    <glyph glyph-name="numbersign" unicode="#" horiz-adv-x="641" 
d="M379 241l31 216h-147l-31 -216h147zM345 0l30 207h-147l-30 -207h-35l30 207h-153l7 34h150l31 216h-170l7 34h168l30 209h35l-30 -209h147l30 209h35l-30 -209h151l-7 -34h-149l-31 -216h169l-7 -34h-166l-30 -207h-35z" />
    <glyph glyph-name="dollar" unicode="$" horiz-adv-x="583" 
d="M139 544q0 -55 31.5 -85t103.5 -53v264q-59 -5 -97 -38.5t-38 -87.5zM337 317l-26 8v-295q69 8 109.5 47t40.5 105q0 52 -28.5 83.5t-95.5 51.5zM311 -124h-37v114q-96 1 -162 42.5t-66 99.5q0 33 19 49.5t44 16.5q14 0 23 -3q-9 -19 -9 -42q0 -56 42.5 -90.5
t108.5 -34.5v308l-13 4q-93 28 -140.5 70t-47.5 118q0 78 55.5 127.5t145.5 54.5v110h37v-110q85 -4 141 -38t56 -86q0 -63 -65 -63q-12 0 -18 2q10 22 10 45q0 40 -33 68t-91 32v-276l42 -13q85 -26 130.5 -70.5t45.5 -122.5q0 -86 -63 -137t-155 -59v-116z" />
    <glyph glyph-name="percent" unicode="%" horiz-adv-x="911" 
d="M358 639q41 -40 41 -109q0 -82 -51 -131t-129 -49q-77 0 -128 49.5t-51 130.5t51 130.5t128 49.5q36 0 104 -29.5t134 -29.5q127 0 184 68l17 -9l-375 -710h-31l349 660q-16 -14 -61.5 -23t-82.5 -9q-48 0 -99 11zM332 530q0 72 -32.5 110t-80.5 38q-47 0 -79.5 -38
t-32.5 -110t32.5 -110t79.5 -38q48 0 80.5 38t32.5 110zM692 -10q-77 0 -128 49.5t-51 130.5t51 130.5t128 49.5t128 -49.5t51 -130.5t-51 -130.5t-128 -49.5zM692 22q47 0 79.5 38t32.5 110t-32.5 110t-79.5 38t-79.5 -38t-32.5 -110t32.5 -110t79.5 -38z" />
    <glyph glyph-name="ampersand" unicode="&#x26;" horiz-adv-x="716" 
d="M233 450l61 -62q120 53 120 169q0 51 -32.5 83.5t-84.5 32.5q-57 0 -89.5 -31t-32.5 -81q0 -53 58 -111zM291 33q113 0 189 74l-236 236q-121 -59 -121 -171q0 -60 48.5 -99.5t119.5 -39.5zM587 0l-82 82q-90 -92 -230 -92q-98 0 -161 47.5t-63 133.5q0 124 174 191
l-40 40q-75 75 -75 147q0 76 53.5 118.5t133.5 42.5q90 0 137.5 -43.5t47.5 -109.5q0 -63 -47.5 -112t-121.5 -76l208 -209q30 49 39 119q4 36 -7.5 49t-64.5 42v7h186v-7q-44 -25 -54 -39t-17 -52q-17 -82 -57 -145l50 -50q27 -29 52.5 -44.5t66.5 -32.5v-7h-128z" />
    <glyph glyph-name="quotesingle" unicode="'" horiz-adv-x="226" 
d="M119 441h-12l-37 244q16 25 43 25t43 -25z" />
    <glyph glyph-name="parenleft" unicode="(" horiz-adv-x="342" 
d="M70 297q0 148 56.5 266t155.5 186h20q-80 -70 -125 -189t-45 -263t45 -262.5t125 -189.5h-20q-99 68 -155.5 186.5t-56.5 265.5z" />
    <glyph glyph-name="parenright" unicode=")" horiz-adv-x="342" 
d="M60 749q99 -68 155.5 -186t56.5 -266q0 -147 -56.5 -265.5t-155.5 -186.5h-20q80 71 125 189.5t45 262.5t-45 263t-125 189h20z" />
    <glyph glyph-name="asterisk" unicode="*" horiz-adv-x="482" 
d="M241 513l-106 -126l-19 15l86 138l-152 63l9 22l158 -39l12 163h24l12 -163l158 39l9 -22l-152 -63l86 -138l-19 -15z" />
    <glyph glyph-name="plus" unicode="+" horiz-adv-x="598" 
d="M527 319h-207v-206h-42v206h-207v43h207v207h42v-207h207v-43z" />
    <glyph glyph-name="comma" unicode="," horiz-adv-x="247" 
d="M147 12q-15 -9 -34 -9q-21 0 -35 14.5t-14 34.5q0 24 15 38.5t40 14.5q33 0 52 -24.5t19 -67.5q0 -63 -40 -107.5t-106 -48.5v26q55 12 81.5 46t21.5 83z" />
    <glyph glyph-name="hyphen" unicode="-" horiz-adv-x="349" 
d="M50 249v43h249v-43h-249z" />
    <glyph glyph-name="period" unicode="." horiz-adv-x="248" 
d="M183 50q0 -25 -17.5 -42t-41.5 -17t-41.5 17t-17.5 42t17.5 42t41.5 17t41.5 -17t17.5 -42z" />
    <glyph glyph-name="slash" unicode="/" horiz-adv-x="392" 
d="M10 -153l300 902h42l-300 -902h-42z" />
    <glyph glyph-name="zero" unicode="0" horiz-adv-x="636" 
d="M585 350q0 -157 -73 -258.5t-194 -101.5t-194 101.5t-73 258.5t73 258.5t194 101.5t194 -101.5t73 -258.5zM508 350q0 143 -48.5 229.5t-141.5 86.5t-141.5 -86.5t-48.5 -229.5t48.5 -229.5t141.5 -86.5t141.5 86.5t48.5 229.5z" />
    <glyph glyph-name="one" unicode="1" horiz-adv-x="356" 
d="M319 0h-275v11q71 22 87.5 33.5t16.5 47.5v516q0 31 -16 42.5t-76 31.5l-7.5 3t-7 2.5t-8.5 2.5v10h182v-608q0 -33 16 -45t69 -30q12 -4 19 -6v-11z" />
    <glyph glyph-name="two" unicode="2" horiz-adv-x="558" 
d="M112 61h209q79 0 110 16t70 83h10l-22 -160h-468v6l116 123q11 11 47.5 49t53 56t47.5 53.5t46.5 59.5t34 55.5t26.5 60t8 56.5q0 70 -37.5 110.5t-105.5 40.5q-64 0 -97.5 -37t-33.5 -93q0 -58 26 -87q-5 -1 -18 -1q-36 0 -58 25t-22 67q0 67 56.5 116.5t146.5 49.5
q102 0 160 -54.5t58 -136.5q0 -24 -3.5 -45t-14 -44t-20 -40.5t-32 -43.5t-38 -43.5t-50 -51t-57 -54t-70.5 -64.5t-78 -72z" />
    <glyph glyph-name="three" unicode="3" horiz-adv-x="572" 
d="M280 -10q-101 0 -165 45.5t-64 110.5q0 39 20 62t54 23q13 0 27 -4q-23 -31 -23 -67q0 -61 40.5 -96t110.5 -35q75 0 120.5 40.5t45.5 122.5q0 80 -51 125.5t-150 45.5v29q93 2 135.5 41.5t42.5 102.5q0 62 -37 98.5t-101 36.5q-63 0 -96.5 -32.5t-33.5 -86.5
q0 -53 26 -82q-5 -1 -18 -1q-36 0 -58.5 23t-22.5 65q0 61 54.5 107t148.5 46q93 0 150.5 -45t57.5 -129q0 -66 -50.5 -109t-117.5 -47v-2q93 -5 145 -59.5t52 -126.5q0 -98 -68 -150t-174 -52z" />
    <glyph glyph-name="four" unicode="4" horiz-adv-x="625" 
d="M370 232v397l-283 -397h283zM480 194h-44v-87q0 -32 6.5 -50.5t16 -26.5t35.5 -24v-6h-182v6q26 16 35.5 24t16 26.5t6.5 50.5v87h-355v4l364 502h57v-468h44q47 0 62 9.5t37 44.5h6v-146h-6q-22 35 -37 44.5t-62 9.5z" />
    <glyph glyph-name="five" unicode="5" horiz-adv-x="549" 
d="M250 29q80 0 127.5 53.5t47.5 140.5q0 84 -40 131t-116 47q-93 0 -165 -70h-4l44 370q123 -19 191 -19q54 0 86.5 9t61.5 36h4q0 -62 -30.5 -91t-102.5 -29q-69 0 -180 20l-27 -225q54 41 133 41q91 0 155.5 -56t64.5 -164q0 -103 -73 -168t-177 -65q-99 0 -157.5 45
t-58.5 111q0 39 20 62t54 23q13 0 27 -4q-23 -31 -23 -67q0 -61 38 -96t100 -35z" />
    <glyph glyph-name="six" unicode="6" horiz-adv-x="575" 
d="M327 671q-101 0 -154.5 -96t-53.5 -267q16 54 67 92t119 38q99 0 159.5 -59.5t60.5 -164.5q0 -97 -64.5 -160.5t-164.5 -63.5q-122 0 -183.5 92.5t-61.5 240.5q0 169 73 278t203 109q85 0 136 -38.5t51 -94.5q0 -36 -20 -54t-51 -18q-9 0 -14 1q13 18 15 58
q2 46 -29.5 76.5t-87.5 30.5zM141 213q0 -83 42 -133t113 -50q72 0 114 50t42 133q0 82 -42 132t-114 50q-71 0 -113 -50t-42 -132z" />
    <glyph glyph-name="seven" unicode="7" horiz-adv-x="526" 
d="M40 541v159h483v-4l-80 -112q-169 -240 -181 -578l-85 -16q17 176 75.5 320.5t164.5 290.5l26 36h-268q-51 0 -78 -22t-47 -74h-10z" />
    <glyph glyph-name="eight" unicode="8" horiz-adv-x="582" 
d="M348 375q96 -35 139.5 -81t43.5 -118q0 -79 -65 -132.5t-170 -53.5q-107 0 -175.5 50.5t-68.5 138.5q0 63 47 112t119 70q-125 57 -125 174q0 76 57.5 125.5t144.5 49.5q85 0 141.5 -46t56.5 -118q0 -122 -145 -171zM161 542q0 -50 26 -81t77 -52l65 -27q94 55 94 161
q0 57 -36 92.5t-92 35.5q-60 0 -97 -35t-37 -94zM335 313l-99 40q-111 -64 -111 -170q0 -72 47.5 -113t123.5 -41q69 0 117.5 37.5t48.5 101.5q0 94 -127 145z" />
    <glyph glyph-name="nine" unicode="9" horiz-adv-x="575" 
d="M434 487q0 83 -42 133t-113 50q-72 0 -114 -50t-42 -133q0 -82 42 -132t114 -50q71 0 113 50t42 132zM248 29q101 0 154.5 96t53.5 267q-16 -54 -67 -92t-119 -38q-99 0 -159.5 59.5t-60.5 164.5q0 97 64.5 160.5t164.5 63.5q122 0 183.5 -92.5t61.5 -240.5
q0 -169 -73 -278t-203 -109q-85 0 -136 38.5t-51 94.5q0 36 20 54t51 18q9 0 14 -1q-13 -18 -15 -58q-2 -46 29.5 -76.5t87.5 -30.5z" />
    <glyph glyph-name="colon" unicode=":" horiz-adv-x="248" 
d="M183 375q0 -25 -17.5 -42t-41.5 -17t-41.5 17t-17.5 42t17.5 42t41.5 17t41.5 -17t17.5 -42zM183 50q0 -25 -17.5 -42t-41.5 -17t-41.5 17t-17.5 42t17.5 42t41.5 17t41.5 -17t17.5 -42z" />
    <glyph glyph-name="semicolon" unicode=";" horiz-adv-x="247" 
d="M183 375q0 -25 -17.5 -42t-41.5 -17t-41.5 17t-17.5 42t17.5 42t41.5 17t41.5 -17t17.5 -42zM147 12q-15 -9 -34 -9q-21 0 -35 14.5t-14 34.5q0 24 15 38.5t40 14.5q33 0 52 -24.5t19 -67.5q0 -63 -40 -107.5t-106 -48.5v26q55 12 81.5 46t21.5 83z" />
    <glyph glyph-name="less" unicode="&#x3c;" horiz-adv-x="474" 
d="M69 315v49l347 197v-51l-305 -171l305 -170v-52z" />
    <glyph glyph-name="equal" unicode="=" horiz-adv-x="628" 
d="M86 383v43h456v-43h-456zM86 253v43h456v-43h-456z" />
    <glyph glyph-name="greater" unicode="&#x3e;" horiz-adv-x="474" 
d="M405 364v-49l-347 -198v52l305 170l-305 171v51z" />
    <glyph glyph-name="question" unicode="?" horiz-adv-x="491" 
d="M245 672q-60 0 -93 -34t-33 -86q0 -38 17 -62q-12 -2 -17 -2q-32 0 -50.5 20t-18.5 58q0 56 53.5 100t141.5 44q92 0 144 -51.5t52 -124.5q0 -83 -54.5 -139.5t-145.5 -82.5v-121h-37v181q79 15 129 57.5t50 111.5q0 56 -37 93.5t-101 37.5zM281 50q0 -25 -17.5 -42
t-41.5 -17t-41.5 17t-17.5 42t17.5 42t41.5 17t41.5 -17t17.5 -42z" />
    <glyph glyph-name="at" unicode="@" horiz-adv-x="968" 
d="M699 428l-67 -274q-12 -47 7 -71t58 -24q61 0 110 59.5t49 178.5q0 145 -99 227t-248 82q-155 0 -267.5 -114t-112.5 -286q0 -162 105.5 -264.5t270.5 -102.5q96 0 171.5 23.5t145.5 78.5l14 -21q-115 -118 -331 -118q-192 0 -313.5 111.5t-121.5 293.5q0 191 128.5 314
t310.5 123q164 0 279 -94t115 -253q0 -72 -19.5 -128t-51 -87.5t-66.5 -47t-70 -15.5q-54 0 -88.5 27.5t-34.5 79.5q-21 -46 -61.5 -76.5t-88.5 -30.5q-59 0 -97 40t-38 107q0 107 66.5 184.5t157.5 77.5q46 0 76.5 -23t36.5 -55q9 17 30.5 42t34.5 36h9zM577 207l12 50
q16 66 -6.5 98.5t-67.5 32.5q-64 0 -111 -66t-47 -155q0 -48 22 -77.5t57 -29.5q49 0 86.5 40t54.5 107z" />
    <glyph glyph-name="A" unicode="A" horiz-adv-x="753" 
d="M362 589l-139 -308h282zM194 7v-7h-188v7q37 26 54 44.5t37 60.5l277 598h5l277 -598q21 -44 36 -62.5t50 -42.5v-7h-196v7q33 14 45 24t12 26q0 15 -14 44l-66 141h-318l-64 -141q-13 -27 -13 -44q0 -15 14.5 -25t51.5 -25z" />
    <glyph glyph-name="B" unicode="B" horiz-adv-x="644" 
d="M349 0h-300v7q38 20 50.5 38t12.5 65v480q0 47 -12.5 65t-50.5 38v7h273q251 0 251 -178q0 -67 -50 -112t-125 -48v-2q91 -3 147.5 -47t56.5 -124q0 -95 -67.5 -142t-185.5 -47zM180 663v-286h143q177 0 177 145q0 71 -46 106t-129 35h-145zM332 341h-152v-304h169
q84 0 132 37t48 115q0 152 -197 152z" />
    <glyph glyph-name="C" unicode="C" horiz-adv-x="711" 
d="M397 667q-121 0 -196 -87t-75 -230t79.5 -226t193.5 -83q86 0 144.5 39.5t98.5 126.5l17 -7q-24 -97 -95 -153.5t-176 -56.5q-151 0 -245.5 101t-94.5 259q0 157 98.5 258.5t250.5 101.5q103 0 174 -55l50 55h7v-202h-7q-44 76 -96.5 117.5t-127.5 41.5z" />
    <glyph glyph-name="D" unicode="D" horiz-adv-x="743" 
d="M48 0v7q39 21 51.5 39t12.5 64v480q0 46 -12.5 64t-51.5 39v7h261q179 0 282.5 -95.5t103.5 -254.5t-103.5 -254.5t-282.5 -95.5h-261zM617 350q0 143 -81.5 227.5t-231.5 84.5h-124v-624h124q150 0 231.5 84.5t81.5 227.5z" />
    <glyph glyph-name="E" unicode="E" horiz-adv-x="645" 
d="M470 474v-229h-8q-24 64 -45 80t-82 16h-155v-304h206q81 0 122 25.5t92 99.5h7l-32 -162h-527v7q39 21 51.5 39t12.5 64v480q0 46 -12.5 64t-51.5 39v7h435q30 0 60 6l34 -150h-7q-39 45 -58 63t-55.5 31t-91.5 13h-185v-285h155q61 0 82 16t45 80h8z" />
    <glyph glyph-name="F" unicode="F" horiz-adv-x="607" 
d="M269 0h-221v7q39 21 51.5 39t12.5 64v480q0 46 -12.5 64t-51.5 39v7h435q30 0 60 6l34 -150h-7q-39 45 -58 63t-55.5 31t-91.5 13h-185v-297h155q61 0 82 16t45 80h8v-229h-8q-24 64 -45 80t-82 16h-155v-219q0 -46 18 -64t71 -39v-7z" />
    <glyph glyph-name="G" unicode="G" horiz-adv-x="769" 
d="M614 133v89q0 47 -13 65t-52 38v7h196v-7q-40 -21 -53 -39t-13 -64v-232h-23l-39 104q-29 -46 -87.5 -75t-132.5 -29q-152 0 -250.5 100t-98.5 257q0 158 101.5 260.5t259.5 102.5q109 0 184 -55l53 55h6v-200h-6q-46 76 -102 117.5t-135 41.5q-126 0 -204 -89t-78 -233
q0 -142 80 -225.5t208 -83.5q130 0 199 95z" />
    <glyph glyph-name="H" unicode="H" horiz-adv-x="807" 
d="M48 0v7q39 21 51.5 39t12.5 64v480q0 46 -12.5 64t-51.5 39v7h196v-7q-39 -21 -51.5 -39t-12.5 -64v-211h447v211q0 46 -12.5 64t-51.5 39v7h196v-7q-39 -21 -51.5 -39t-12.5 -64v-480q0 -46 12.5 -64t51.5 -39v-7h-196v7q39 21 51.5 39t12.5 64v230h-447v-230
q0 -46 12.5 -64t51.5 -39v-7h-196z" />
    <glyph glyph-name="I" unicode="I" horiz-adv-x="292" 
d="M112 590q0 46 -12.5 64t-51.5 39v7h196v-7q-39 -21 -51.5 -39t-12.5 -64v-480q0 -46 12.5 -64t51.5 -39v-7h-196v7q39 21 51.5 39t12.5 64v480z" />
    <glyph glyph-name="J" unicode="J" horiz-adv-x="560" 
d="M395 223v367q0 46 -12.5 64t-51.5 39v7h196v-7q-39 -21 -51.5 -39t-12.5 -64v-380q0 -99 -59.5 -159.5t-156.5 -60.5q-95 0 -155 52t-60 126q0 41 24.5 67.5t58.5 26.5q30 0 45 -17q-51 -30 -51 -91q0 -56 38.5 -91t99.5 -35q148 0 148 195z" />
    <glyph glyph-name="K" unicode="K" horiz-adv-x="712" 
d="M244 0h-196v7q39 21 51.5 39t12.5 64v480q0 46 -12.5 64t-51.5 39v7h196v-7q-39 -21 -51.5 -39t-12.5 -64v-261l309 284q21 21 21 40q0 17 -45 40v7h204v-7q-84 -39 -154 -105l-206 -189l260 -287q73 -81 129 -105v-7h-199v7q33 17 33 32q0 14 -23 40l-249 277l-80 -70
v-176q0 -46 12.5 -64t51.5 -39v-7z" />
    <glyph glyph-name="L" unicode="L" horiz-adv-x="613" 
d="M180 590v-553h181q82 0 123.5 28.5t94.5 114.5h7l-36 -180h-502v7q39 21 51.5 39t12.5 64v480q0 46 -12.5 64t-51.5 39v7h196v-7q-39 -21 -51.5 -39t-12.5 -64z" />
    <glyph glyph-name="M" unicode="M" horiz-adv-x="908" 
d="M461 119l247 581h152v-7q-39 -21 -51.5 -39t-12.5 -64v-480q0 -46 12.5 -64t51.5 -39v-7h-196v7q39 21 51.5 39t12.5 64v533l-283 -654h-4l-283 654v-533q0 -24 4 -39.5t16.5 -28t21 -17.5t32.5 -18v-7h-194v7q24 13 32.5 18t21 17.5t16.5 28t4 39.5v480q0 46 -12.5 64
t-51.5 39v7h163z" />
    <glyph glyph-name="N" unicode="N" horiz-adv-x="778" 
d="M625 152v438q0 24 -4 39.5t-16.5 28t-21 17.5t-32.5 18v7h194v-7q-24 -13 -32.5 -18t-21 -17.5t-16.5 -28t-4 -39.5v-599h-4l-509 640v-521q0 -24 4 -39.5t16.5 -28t21 -17.5t32.5 -18v-7h-194v7q24 13 32.5 18t21 17.5t16.5 28t4 39.5v480q0 46 -12.5 64t-51.5 39v7h143
z" />
    <glyph glyph-name="O" unicode="O" horiz-adv-x="778" 
d="M48 350q0 158 96 259t245 101t245 -101t96 -259t-96 -259t-245 -101t-245 101t-96 259zM652 350q0 141 -72 228.5t-191 87.5t-191 -87.5t-72 -228.5t72 -228.5t191 -87.5t191 87.5t72 228.5z" />
    <glyph glyph-name="P" unicode="P" horiz-adv-x="625" 
d="M334 300h-154v-190q0 -46 18 -64t71 -39v-7h-221v7q39 21 51.5 39t12.5 64v480q0 46 -12.5 64t-51.5 39v7h286q125 0 193 -50t68 -150q0 -99 -69 -149.5t-192 -50.5zM180 337h152q190 0 190 163t-190 163h-152v-326z" />
    <glyph glyph-name="Q" unicode="Q" horiz-adv-x="778" 
d="M647 -112q-46 0 -78 32t-61 90q-55 -20 -119 -20q-149 0 -245 101t-96 259t96 259t245 101t245 -101t96 -259q0 -104 -43.5 -185.5t-120.5 -127.5q24 -48 47.5 -73.5t56.5 -25.5q48 0 72 50h12q-8 -50 -37.5 -75t-69.5 -25zM126 350q0 -90 31 -160.5t87 -111.5
q7 65 44 108t102 43q55 0 88.5 -37.5t64.5 -105.5q52 41 80.5 109.5t28.5 154.5q0 141 -72 228.5t-191 87.5t-191 -87.5t-72 -228.5zM389 34q52 0 98 19q-16 33 -26 50.5t-25.5 39.5t-33 32t-37.5 10q-39 0 -64 -34.5t-27 -90.5q52 -26 115 -26z" />
    <glyph glyph-name="R" unicode="R" horiz-adv-x="705" 
d="M180 663v-303h164q186 0 186 156q0 147 -186 147h-164zM180 321v-211q0 -46 12.5 -64t51.5 -39v-7h-196v7q39 21 51.5 39t12.5 64v480q0 46 -12.5 64t-51.5 39v7h298q117 0 188 -44t71 -140q0 -89 -59 -132.5t-143 -43.5v-3q64 -9 98 -40.5t53 -87.5l28 -84
q17 -50 44 -74.5t76 -43.5v-7h-141q-24 51 -43 108l-31 90q-24 67 -55.5 95t-104.5 28h-147z" />
    <glyph glyph-name="S" unicode="S" horiz-adv-x="590" 
d="M281 670q-64 0 -106.5 -34t-42.5 -92q0 -57 36 -89.5t107 -50.5l83 -21q87 -22 129.5 -66.5t42.5 -128.5q0 -95 -68.5 -146.5t-166.5 -51.5q-54 0 -103 16.5t-78 38.5l-45 -55h-7l-12 215h12q80 -174 233 -174q78 0 123.5 40t45.5 111q0 104 -122 135l-91 23
q-91 23 -137.5 67t-46.5 121q0 82 59.5 132t154.5 50q76 0 163 -45l45 45h6v-195h-9q-46 82 -89 118.5t-116 36.5z" />
    <glyph glyph-name="T" unicode="T" horiz-adv-x="716" 
d="M124 700h468q30 0 60 6l34 -177h-8q-24 36 -32.5 48.5t-28 35.5t-33.5 31t-36 15t-49 7h-107v-556q0 -47 14 -65t60 -38v-7h-216v7q46 20 60 38t14 65v556h-107q-27 0 -49 -7t-36 -15t-33.5 -31t-28 -35.5t-32.5 -48.5h-8l34 177q30 -6 60 -6z" />
    <glyph glyph-name="U" unicode="U" horiz-adv-x="752" 
d="M607 590q0 24 -4 39.5t-16.5 28t-21 17.5t-32.5 18v7h194v-7q-30 -16 -41.5 -24t-21 -27.5t-9.5 -51.5v-323q0 -131 -76.5 -204t-196.5 -73q-146 0 -215.5 74t-69.5 203v323q0 46 -12.5 64t-51.5 39v7h196v-7q-39 -21 -51.5 -39t-12.5 -64v-310q0 -120 56 -182t157 -62
q107 0 168 60t61 183v311z" />
    <glyph glyph-name="V" unicode="V" horiz-adv-x="733" 
d="M378 112l213 487q11 26 11 38q0 15 -14 26.5t-50 29.5v7h184v-7q-35 -24 -50.5 -42.5t-35.5 -62.5l-267 -598h-5l-267 598q-20 44 -35.5 62.5t-50.5 42.5v7h196v-7q-33 -14 -45 -24t-12 -26q0 -11 14 -44z" />
    <glyph glyph-name="W" unicode="W" horiz-adv-x="974" 
d="M672 -10l-187 570l-179 -570h-9l-201 598q-15 42 -30.5 60t-54.5 45v7h195v-7q-33 -14 -45.5 -24t-12.5 -26q0 -11 11 -46l153 -455l149 483q-10 22 -23.5 35.5t-41.5 32.5v7h194v-7q-35 -14 -48.5 -24.5t-13.5 -25.5q0 -11 11 -46l147 -462l148 462q8 25 8 40
q0 18 -32 37q-7 5 -27 15l-6 4v7h186v-7q-27 -19 -39 -29t-24.5 -28.5t-21.5 -47.5l-197 -598h-9z" />
    <glyph glyph-name="X" unicode="X" horiz-adv-x="716" 
d="M184 7v-7h-174v7q58 35 112 105l197 253l-172 223q-54 70 -112 105v7h190v-7q-30 -19 -30 -44q0 -21 23 -50l142 -184l141 184q21 27 21 48q0 12 -7.5 20.5t-30.5 25.5v7h173v-7q-58 -35 -112 -105l-159 -206l208 -270q54 -70 112 -105v-7h-190v7q30 19 30 44
q0 21 -23 50l-178 231l-178 -231q-20 -25 -20 -45q0 -22 37 -49z" />
    <glyph glyph-name="Y" unicode="Y" horiz-adv-x="651" 
d="M337 335l169 270q13 20 13 39q0 12 -11 22t-39 27v7h171v-7q-31 -23 -49.5 -43.5t-43.5 -59.5l-188 -299v-181q0 -47 14 -65t60 -38v-7h-215v7q46 20 60 38t14 65v181l-188 299q-25 39 -43.5 59.5t-49.5 43.5v7h174v-7q-32 -17 -32 -44q0 -23 15 -46z" />
    <glyph glyph-name="Z" unicode="Z" horiz-adv-x="684" 
d="M607 0h-558v4l473 658h-248q-28 0 -49 -2.5t-39.5 -12.5t-28.5 -16t-25.5 -27t-21.5 -30t-25 -40h-10l21 172q30 -6 60 -6h468v-4l-472 -658h266q81 0 120.5 25t90.5 100h10z" />
    <glyph glyph-name="bracketleft" unicode="[" horiz-adv-x="304" 
d="M80 -154v903h184v-14l-136 -29v-816l136 -30v-14h-184z" />
    <glyph glyph-name="backslash" unicode="\" horiz-adv-x="392" 
d="M82 749l300 -902h-42l-300 902h42z" />
    <glyph glyph-name="bracketright" unicode="]" horiz-adv-x="304" 
d="M224 749v-903h-184v14l136 30v816l-136 29v14h184z" />
    <glyph glyph-name="asciicircum" unicode="^" horiz-adv-x="510" 
d="M253 710h4l203 -358h-47l-158 278l-158 -278h-47z" />
    <glyph glyph-name="underscore" unicode="_" horiz-adv-x="480" 
d="M50 -113v41h380v-41h-380z" />
    <glyph glyph-name="grave" unicode="`" horiz-adv-x="500" 
d="M168 749h94l70 -188h-16z" />
    <glyph glyph-name="a" unicode="a" horiz-adv-x="530" 
d="M364 254l-79 -15q-85 -16 -124.5 -42.5t-39.5 -78.5q0 -42 25 -63t70 -21q55 0 101.5 45.5t46.5 125.5v49zM532 22v-13q-44 -16 -81 -16q-85 0 -85 108q-17 -48 -66 -79.5t-109 -31.5q-63 0 -103 32.5t-40 91.5q0 38 18.5 65.5t54.5 45.5t73 28t90 20l80 14v31
q0 75 -27.5 106t-90.5 31q-47 0 -74.5 -21.5t-27.5 -58.5q0 -24 14 -46q-14 -11 -40 -11q-22 0 -35 13.5t-13 39.5q0 49 52 86t136 37q176 0 176 -164q0 -55 -1.5 -131t-1.5 -99q0 -40 24.5 -58t76.5 -20z" />
    <glyph glyph-name="b" unicode="b" horiz-adv-x="600" 
d="M161 259v-65q0 -78 48 -117.5t108 -39.5q74 0 120.5 57.5t46.5 155.5q0 88 -44.5 142t-119.5 54q-70 0 -114.5 -55.5t-44.5 -131.5zM152 92q-6 -59 -58 -102h-13q14 59 14 222v436q0 24 -11 43t-22.5 28t-35.5 24v6h135v-386q18 57 65.5 94t114.5 37q95 0 155.5 -66
t60.5 -178q0 -115 -66.5 -187.5t-158.5 -72.5q-65 0 -112.5 29.5t-67.5 72.5z" />
    <glyph glyph-name="c" unicode="c" horiz-adv-x="502" 
d="M281 454q-75 0 -119.5 -59.5t-44.5 -149.5q0 -96 45.5 -151.5t121.5 -55.5q56 0 98.5 30.5t62.5 89.5l19 -8q-16 -76 -66 -118t-130 -42q-98 0 -161.5 65.5t-63.5 178.5q0 117 68.5 188.5t169.5 71.5q75 0 123.5 -34.5t48.5 -86.5q0 -30 -17 -43.5t-42 -13.5q-11 0 -16 2
q5 20 5 35q0 44 -25.5 72.5t-76.5 28.5z" />
    <glyph glyph-name="d" unicode="d" horiz-adv-x="601" 
d="M439 225v65q0 78 -48 117.5t-108 39.5q-74 0 -120.5 -57.5t-46.5 -155.5q0 -88 44.5 -142t119.5 -54q70 0 114.5 55.5t44.5 131.5zM443 0l-4 121q-18 -57 -65.5 -94t-114.5 -37q-95 0 -155.5 66t-60.5 178q0 115 66.5 187.5t158.5 72.5q65 0 108 -27.5t63 -70.5v252
q0 24 -11 43t-22.5 28t-35.5 24v6h135v-642q0 -32 6.5 -50.5t16 -26.5t35.5 -24v-6h-120z" />
    <glyph glyph-name="e" unicode="e" horiz-adv-x="521" 
d="M268 494q98 0 154 -64.5t56 -178.5h-362q0 -101 46 -157.5t128 -56.5q122 0 164 120l20 -7q-16 -77 -67 -118.5t-134 -41.5q-99 0 -164.5 65.5t-65.5 178.5q0 117 65 188.5t160 71.5zM117 287h286q-4 167 -136 167q-63 0 -102.5 -44.5t-47.5 -122.5z" />
    <glyph glyph-name="f" unicode="f" horiz-adv-x="346" 
d="M172 446v-349q0 -40 20 -56t81 -33v-8h-225v6q26 16 35.5 24t16 26.5t6.5 50.5v339h-70v24l70 20v72q0 88 49.5 139t130.5 51q56 0 94.5 -26.5t38.5 -63.5q0 -25 -15 -38t-40 -13q-10 0 -21 3q7 15 7 43q0 27 -19.5 44t-54.5 17q-47 0 -75.5 -37t-28.5 -103v-94h144
l-5 -38h-139z" />
    <glyph glyph-name="g" unicode="g" horiz-adv-x="560" 
d="M371 333q0 59 -30 91.5t-81 32.5t-81 -32.5t-30 -91.5t30 -91.5t81 -32.5t81 32.5t30 91.5zM515 -52q0 -82 -75 -127.5t-185 -45.5q-98 0 -164.5 35.5t-66.5 103.5q0 42 36 72t99 41q-97 15 -97 83q0 32 22 56.5t57 38.5q-64 46 -64 128q0 70 48.5 115.5t134.5 45.5
q84 0 135 -46q51 70 102 70q26 0 41.5 -14.5t15.5 -38.5q0 -20 -14.5 -35t-35.5 -15q0 19 -9.5 31.5t-27.5 12.5q-28 0 -53 -32q29 -41 29 -94q0 -70 -48.5 -115.5t-134.5 -45.5q-55 0 -99 21q-44 -23 -44 -57q0 -30 20.5 -41.5t66.5 -11.5h123q91 0 139.5 -34t48.5 -101z
M328 21h-83q-151 0 -151 -102q0 -53 45.5 -79t115.5 -26q88 0 142 32t54 88q0 87 -123 87z" />
    <glyph glyph-name="h" unicode="h" horiz-adv-x="595" 
d="M499 320v-213q0 -32 6.5 -50.5t16 -26.5t35.5 -24v-6h-182v6q26 16 35.5 24t16 26.5t6.5 50.5v198q0 60 -26.5 99t-86.5 39q-64 0 -108.5 -51t-44.5 -138v-147q0 -32 6.5 -50.5t16 -26.5t35.5 -24v-6h-182v6q26 16 35.5 24t16 26.5t6.5 50.5v541q0 24 -11 43t-22.5 28
t-35.5 24v6h135v-385q21 62 67 96t110 34q74 0 114.5 -45.5t40.5 -128.5z" />
    <glyph glyph-name="i" unicode="i" horiz-adv-x="264" 
d="M78 657q0 23 16 38.5t38 15.5t38 -15.5t16 -38.5t-16 -38.5t-38 -15.5t-38 15.5t-16 38.5zM172 484v-377q0 -32 6.5 -50.5t16 -26.5t35.5 -24v-6h-182v6q26 16 35.5 24t16 26.5t6.5 50.5v276q0 24 -11 43t-22.5 28t-35.5 24v6h135z" />
    <glyph glyph-name="j" unicode="j" horiz-adv-x="255" 
d="M73 657q0 23 15.5 38.5t38.5 15.5t38.5 -15.5t15.5 -38.5t-15.5 -38.5t-38.5 -15.5t-38.5 15.5t-15.5 38.5zM101 -51v434q0 24 -11 43t-22.5 28t-35.5 24v6h135v-519q0 -90 -40 -140t-115 -50q-53 0 -85 24t-32 61q0 25 15 38t40 13q11 0 20 -3q-6 -16 -6 -41
q0 -26 16.5 -43t41.5 -17q79 0 79 142z" />
    <glyph glyph-name="k" unicode="k" horiz-adv-x="562" 
d="M225 6v-6h-182v6q26 16 35.5 24t16 26.5t6.5 50.5v541q0 24 -11 43t-22.5 28t-35.5 24v6h135v-462h27q35 0 51 16l119 112q18 17 18 29q0 15 -31 34v6h185v-6q-80 -26 -130 -74l-126 -119l168 -201q17 -21 39.5 -36.5t33.5 -20.5t47 -20v-7h-153q-9 30 -41 70l-133 162
q-16 21 -38 21h-36v-146q0 -32 6.5 -50.5t16 -26.5t35.5 -24z" />
    <glyph glyph-name="l" unicode="l" horiz-adv-x="263" 
d="M167 749v-642q0 -32 6.5 -50.5t16 -26.5t35.5 -24v-6h-182v6q26 16 35.5 24t16 26.5t6.5 50.5v541q0 24 -11 43t-22.5 28t-35.5 24v6h135z" />
    <glyph glyph-name="m" unicode="m" horiz-adv-x="888" 
d="M480 360q19 63 63.5 98.5t104.5 35.5q69 0 106.5 -45.5t37.5 -128.5v-213q0 -32 6.5 -50.5t16 -26.5t35.5 -24v-6h-182v6q26 16 35.5 24t16 26.5t6.5 50.5v198q0 140 -101 140q-60 0 -101.5 -52t-41.5 -139v-147q0 -32 6.5 -50.5t16 -26.5t35.5 -24v-6h-182v6
q26 16 35.5 24t16 26.5t6.5 50.5v198q0 140 -101 140q-60 0 -101.5 -52t-41.5 -139v-147q0 -32 6.5 -50.5t16 -26.5t35.5 -24v-6h-182v6q26 16 35.5 24t16 26.5t6.5 50.5v276q0 24 -11 43t-22.5 28t-35.5 24v6h131l4 -120q21 62 64 96t102 34q126 0 142 -134z" />
    <glyph glyph-name="n" unicode="n" horiz-adv-x="600" 
d="M504 320v-213q0 -32 6.5 -50.5t16 -26.5t35.5 -24v-6h-182v6q26 16 35.5 24t16 26.5t6.5 50.5v198q0 60 -26.5 99t-86.5 39q-64 0 -108.5 -51t-44.5 -138v-147q0 -32 6.5 -50.5t16 -26.5t35.5 -24v-6h-182v6q26 16 35.5 24t16 26.5t6.5 50.5v276q0 24 -11 43t-22.5 28
t-35.5 24v6h131l4 -120q21 62 67 96t110 34q74 0 114.5 -45.5t40.5 -128.5z" />
    <glyph glyph-name="o" unicode="o" horiz-adv-x="560" 
d="M517 242q0 -110 -67 -181t-170 -71t-170 71t-67 181t67 181t170 71t170 -71t67 -181zM442 242q0 96 -42.5 153.5t-119.5 57.5t-119.5 -57.5t-42.5 -153.5q0 -97 42.5 -154.5t119.5 -57.5t119.5 57.5t42.5 154.5z" />
    <glyph glyph-name="p" unicode="p" horiz-adv-x="607" 
d="M168 259v-65q0 -78 48 -117.5t108 -39.5q74 0 120.5 57.5t46.5 155.5q0 88 -44.5 142t-119.5 54q-70 0 -114.5 -55.5t-44.5 -131.5zM168 88v-196q0 -32 9.5 -50.5t22 -26t46.5 -22.5v-8h-202v6q26 16 35.5 24t16 26.5t6.5 50.5v491q0 24 -11 43t-22.5 28t-35.5 24v6h131
l4 -121q18 57 65.5 94t114.5 37q95 0 155.5 -66t60.5 -178q0 -115 -66.5 -187.5t-158.5 -72.5q-65 0 -108 27.5t-63 70.5z" />
    <glyph glyph-name="q" unicode="q" horiz-adv-x="593" 
d="M448 392q6 59 58 102h13q-14 -59 -14 -222v-380q0 -32 6.5 -50.5t16 -26.5t35.5 -24v-6h-202v9q4 2 16.5 8t15.5 7.5t12 7t11 8t8 8t7 10.5t4 13t3.5 16.5t0.5 19.5v229q-18 -57 -65.5 -94t-114.5 -37q-95 0 -155.5 66t-60.5 178q0 115 66.5 187.5t158.5 72.5
q65 0 112.5 -29.5t67.5 -72.5zM439 225v65q0 78 -48 117.5t-108 39.5q-74 0 -120.5 -57.5t-46.5 -155.5q0 -88 44.5 -142t119.5 -54q70 0 114.5 55.5t44.5 131.5z" />
    <glyph glyph-name="r" unicode="r" horiz-adv-x="431" 
d="M172 224v-127q0 -41 18.5 -57t78.5 -32v-8h-221v6q26 16 35.5 24t16 26.5t6.5 50.5v276q0 24 -11 43t-22.5 28t-35.5 24v6h131l4 -136q52 146 160 146q36 0 57 -17.5t21 -47.5q0 -26 -17.5 -40.5t-40.5 -12.5q5 59 -50 59q-54 0 -92 -63t-38 -148z" />
    <glyph glyph-name="s" unicode="s" horiz-adv-x="482" 
d="M226 455q-48 0 -74 -22.5t-26 -58.5q0 -38 28 -59t95 -33q97 -17 137.5 -51t40.5 -93q0 -67 -50 -107.5t-127 -40.5q-78 0 -146 43l-34 -43h-7l-11 183h13q71 -143 185 -143q51 0 82.5 24t31.5 70q0 42 -32.5 62.5t-104.5 33.5q-87 16 -124 48t-37 90q0 60 45.5 98
t114.5 38q71 0 134 -42l36 42h7v-164h-11q-76 125 -166 125z" />
    <glyph glyph-name="t" unicode="t" horiz-adv-x="405" 
d="M26 446v24q59 12 83.5 54t36.5 124h27v-164h176l-5 -38h-171v-318q0 -42 21 -65t60 -23q82 0 101 109l19 -3q-5 -71 -41 -113.5t-95 -42.5q-60 0 -96 35t-36 95v326h-80z" />
    <glyph glyph-name="u" unicode="u" horiz-adv-x="582" 
d="M162 484v-305q0 -60 26.5 -100t86.5 -40q64 0 106.5 52t42.5 139v153q0 24 -11 43t-22.5 28t-35.5 24v6h135v-377q0 -32 6.5 -50.5t16 -26.5t35.5 -24v-6h-124v122q-20 -64 -64.5 -98t-108.5 -34q-74 0 -114.5 45.5t-40.5 128.5v219q0 24 -11 43t-22.5 28t-35.5 24v6h135
z" />
    <glyph glyph-name="v" unicode="v" horiz-adv-x="508" 
d="M268 103l122 273q16 35 16 54q0 20 -53 48v6h159v-6q-46 -34 -82 -112l-174 -376h-4l-174 376q-36 78 -82 112v6h163v-6q-31 -19 -36 -28q-2 -5 -2 -11q0 -17 21 -63z" />
    <glyph glyph-name="w" unicode="w" horiz-adv-x="708" 
d="M482 -10l-129 382l-137 -382h-4l-138 376q-17 47 -32.5 67.5t-45.5 44.5v6h161v-6q-20 -13 -27.5 -20.5t-7.5 -17.5q0 -18 17 -64l90 -251l103 300q-16 31 -55 53v6h159v-6q-35 -20 -35 -38q0 -16 16 -64l82 -255l97 256q14 37 14 49q0 14 -13 25t-44 27v6h159v-6
q-28 -22 -43.5 -43t-34.5 -69l-148 -376h-4z" />
    <glyph glyph-name="x" unicode="x" horiz-adv-x="511" 
d="M159 6v-6h-159v6q37 15 66 41.5t63 70.5l96 126l-84 120q-36 52 -59 72t-65 42v6h174v-6q-22 -18 -22 -31q0 -4 0.5 -7.5t2.5 -8t4 -7.5t6 -9.5t6.5 -10.5t9 -13.5t10.5 -14.5l59 -85l67 89q3 4 8 11t7.5 10t6 8t4.5 7.5t3.5 6.5t3 6.5t1 6t0.5 6.5q0 13 -29 36v6h158v-6
q-37 -15 -66 -41.5t-63 -70.5l-80 -104l99 -142q27 -38 40 -54t34.5 -33t49.5 -27v-6h-174v6q22 16 22 29q0 16 -39 73l-75 107l-81 -111q-15 -21 -19.5 -27.5t-8.5 -15.5t-4 -17q0 -16 27 -38z" />
    <glyph glyph-name="y" unicode="y" horiz-adv-x="504" 
d="M235 -1l-157 367q-28 67 -82 112v6h164v-6q-38 -23 -38 -39q0 -11 21 -63l124 -299l121 299q14 36 14 54q0 20 -53 48v6h159v-6q-27 -23 -44.5 -46t-35.5 -66l-189 -452q-15 -36 -25 -56t-26.5 -42t-37.5 -31.5t-49 -9.5q-33 0 -54 18.5t-21 47.5q0 20 14.5 37t36.5 22
q-2 -10 -2 -20q0 -21 12 -34t32 -13q25 0 43.5 21.5t38.5 68.5z" />
    <glyph glyph-name="z" unicode="z" horiz-adv-x="510" 
d="M42 4l317 444h-139q-53 0 -77.5 -21.5t-65.5 -99.5h-10l15 167q20 -10 74 -10h301v-4l-315 -444h164q50 0 78 24t71 99h12l-29 -159h-396v4z" />
    <glyph glyph-name="braceleft" unicode="{" horiz-adv-x="378" 
d="M30 288v16q123 4 123 140q0 20 -9 74t-9 81q0 61 48 105.5t118 44.5q26 0 47 -4v-7q-65 0 -111 -39t-46 -111q0 -11 9 -68.5t9 -81.5q0 -66 -39 -101.5t-79 -40.5q40 -5 79 -40.5t39 -101.5q0 -24 -9 -81.5t-9 -68.5q0 -72 46 -111t111 -39v-7q-21 -4 -47 -4
q-70 0 -118 44.5t-48 105.5q0 27 9 81t9 74q0 136 -123 140z" />
    <glyph glyph-name="bar" unicode="|" horiz-adv-x="219" 
d="M90 -153v902h39v-902h-39z" />
    <glyph glyph-name="braceright" unicode="}" horiz-adv-x="368" 
d="M338 304v-16q-123 -4 -123 -140q0 -20 9 -74t9 -81q0 -61 -48 -105.5t-118 -44.5q-26 0 -47 4v7q65 0 111 39t46 111q0 11 -9 68.5t-9 81.5q0 66 39 101.5t79 40.5q-40 5 -79 40.5t-39 101.5q0 24 9 81.5t9 68.5q0 72 -46 111t-111 39v7q21 4 47 4q70 0 118 -44.5
t48 -105.5q0 -27 -9 -81t-9 -74q0 -136 123 -140z" />
    <glyph glyph-name="asciitilde" unicode="~" horiz-adv-x="488" 
d="M63 247h-13q34 110 120 110q30 0 83 -26.5t82 -26.5q56 0 90 57h13q-34 -110 -120 -110q-30 0 -83 26.5t-82 26.5q-56 0 -90 -57z" />
    <glyph glyph-name="uni00A0" unicode="&#xa0;" horiz-adv-x="200" 
 />
    <glyph glyph-name="exclamdown" unicode="&#xa1;" horiz-adv-x="258" 
d="M129 560q24 0 41.5 -17t17.5 -42t-17.5 -42t-41.5 -17t-41.5 17t-17.5 42t17.5 42t41.5 17zM179 -149h-100l45 512h10z" />
    <glyph glyph-name="cent" unicode="&#xa2;" horiz-adv-x="544" 
d="M128 258q0 -88 35 -144.5t98 -71.5l35 440q-81 -2 -124.5 -64.5t-43.5 -159.5zM289 -10h-4l-8 -104h-29l9 106q-90 11 -147.5 79t-57.5 176q0 123 70.5 198t176.5 75l8 96h29l-8 -97q70 -5 112.5 -37.5t42.5 -81.5q0 -32 -17 -46t-43 -14q-11 0 -17 2q8 17 8 38
q0 40 -22.5 67t-66.5 33l-36 -442q5 -1 16 -1q128 0 171 130l19 -9q-17 -81 -69.5 -124.5t-136.5 -43.5z" />
    <glyph glyph-name="sterling" unicode="&#xa3;" horiz-adv-x="646" 
d="M470 -23q-34 0 -70.5 12t-58.5 24t-62 37.5t-53 33.5q-52 -94 -126 -94q-39 0 -63.5 23t-24.5 59q0 39 28.5 64t72.5 25q38 0 93 -24q13 47 13 104q0 39 -3 87h-122v36h120q-4 82 -4 119q0 104 54 165.5t150 61.5q83 0 127 -36t44 -88q0 -39 -21.5 -60.5t-52.5 -21.5
q-12 0 -27 4q26 24 26 72q0 42 -24 66.5t-72 24.5q-62 0 -95.5 -46.5t-33.5 -126.5v-118v-16h169v-36h-170q-5 -120 -41 -208q5 -2 22 -10.5t23.5 -11.5t22.5 -10.5t25 -11t24.5 -9t27 -8t26 -6t28.5 -4.5t28 -1q96 0 115 100q21 -17 21 -53q0 -54 -39 -86t-97 -32zM100 26
q27 0 51.5 19.5t41.5 56.5q-42 21 -80 21q-59 0 -59 -51q0 -46 46 -46z" />
    <glyph glyph-name="yen" unicode="&#xa5;" horiz-adv-x="651" 
d="M433 7v-7h-215v7q46 20 60 38t14 65v109h-206v34h206v38l-35 59h-171v34h151l-123 206q-36 62 -93 103v7h175v-7q-32 -17 -32 -44q0 -21 15 -46l159 -268l157 268q15 25 15 46q0 27 -32 44v7h152v-7q-32 -23 -51 -44t-42 -59l-123 -206h151v-34h-171l-35 -59v-38h206v-34
h-206v-109q0 -47 14 -65t60 -38z" />
    <glyph glyph-name="section" unicode="&#xa7;" horiz-adv-x="542" 
d="M406 41q25 30 25 76q0 70 -61 120l-170 137q-44 37 -64 70q-25 -30 -25 -76q0 -70 61 -120l170 -137q43 -35 64 -70zM418 26q19 -38 19 -87q0 -69 -51 -116.5t-130 -47.5q-69 0 -118 38t-49 89q0 34 17.5 52.5t45.5 18.5q17 0 39 -6q-11 -10 -15 -14.5t-10.5 -19
t-6.5 -31.5q0 -38 26 -62.5t71 -24.5q60 0 93 32.5t33 86.5q0 43 -18.5 69.5t-60.5 59.5l-163 129q-70 55 -70 142q0 71 54 125q-19 38 -19 87q0 69 51 116.5t130 47.5q69 0 118 -38t49 -89q0 -34 -17.5 -52.5t-45.5 -18.5q-17 0 -39 6q11 10 15 14.5t10.5 19t6.5 31.5
q0 38 -26 62.5t-71 24.5q-60 0 -93 -33t-33 -86q0 -43 18.5 -69.5t60.5 -59.5l163 -129q70 -55 70 -142q0 -71 -54 -125z" />
    <glyph glyph-name="dieresis" unicode="&#xa8;" horiz-adv-x="500" 
d="M165 586q-22 0 -37.5 15.5t-15.5 37.5t15.5 37.5t37.5 15.5t37.5 -15.5t15.5 -37.5t-15.5 -37.5t-37.5 -15.5zM335 586q-22 0 -37.5 15.5t-15.5 37.5t15.5 37.5t37.5 15.5t37.5 -15.5t15.5 -37.5t-15.5 -37.5t-37.5 -15.5z" />
    <glyph glyph-name="copyright" unicode="&#xa9;" horiz-adv-x="810" 
d="M765 350q0 -155 -104.5 -257.5t-255.5 -102.5t-255.5 102.5t-104.5 257.5t104.5 257.5t255.5 102.5t255.5 -102.5t104.5 -257.5zM735 350q0 142 -96 236.5t-234 94.5t-234 -94.5t-96 -236.5t96 -236.5t234 -94.5t234 94.5t96 236.5zM273 352q0 -86 44.5 -132.5
t113.5 -46.5q50 0 82.5 20t57.5 71l12 -5q-15 -59 -59 -93.5t-112 -34.5q-88 0 -146 61t-58 156t59.5 156.5t151.5 61.5q63 0 108 -34l31 34h4v-130h-6q-27 48 -58.5 74.5t-75.5 26.5q-69 0 -109 -50t-40 -135z" />
    <glyph glyph-name="ordfeminine" unicode="&#xaa;" horiz-adv-x="449" 
d="M279 462l-50 -10q-54 -10 -79 -28t-25 -53q0 -57 61 -57q36 0 64.5 29.5t28.5 82.5v36zM281 353q-11 -33 -44.5 -54.5t-76.5 -21.5q-44 0 -72.5 22.5t-28.5 64.5q0 51 43.5 74.5t121.5 37.5l55 10v27q0 49 -17.5 70t-58.5 21q-31 0 -48.5 -14.5t-17.5 -39.5q0 -19 13 -34
q-11 -11 -35 -11q-40 0 -40 41q0 35 38 60.5t99 25.5q132 0 132 -117q0 -33 -1 -85t-1 -71q0 -29 16.5 -43t52.5 -16v-9q-30 -12 -63 -12q-64 0 -67 74zM84 156v35h296v-35h-296z" />
    <glyph glyph-name="guillemotleft" unicode="&#xab;" horiz-adv-x="621" 
d="M303 240v8q112 64 248 206h16q-56 -97 -155 -210q99 -113 155 -210h-16q-136 142 -248 206zM70 240v8q112 64 248 206h16q-56 -97 -155 -210q99 -113 155 -210h-16q-136 142 -248 206z" />
    <glyph glyph-name="registered" unicode="&#xae;" horiz-adv-x="542" 
d="M487 494q0 -93 -63 -154.5t-153 -61.5t-153 61.5t-63 154.5t63 154.5t153 61.5t153 -61.5t63 -154.5zM463 494q0 83 -56 138t-136 55t-136 -55t-56 -138t56 -138t136 -55t136 55t56 138zM230 595v-92h31q29 0 44.5 9.5t15.5 36.5q0 46 -60 46h-31zM230 481v-66
q0 -11 3.5 -17.5t5.5 -7.5t15 -8v-5h-86v5q20 10 22.5 16t2.5 17v161q0 11 -4 17.5t-5.5 7.5t-15.5 8v5h106q88 0 88 -65q0 -28 -20.5 -43.5t-50.5 -15.5v-1q40 -4 54 -42l10 -28q5 -17 13 -23.5t27 -13.5v-5h-62q-9 16 -16 37l-12 32q-7 20 -17 27.5t-33 7.5h-25z" />
    <glyph glyph-name="macron" unicode="&#xaf;" horiz-adv-x="500" 
d="M384 592h-268v47h268v-47z" />
    <glyph glyph-name="degree" unicode="&#xb0;" horiz-adv-x="350" 
d="M300 585q0 -52 -36.5 -88.5t-88.5 -36.5t-88.5 36.5t-36.5 88.5t36.5 88.5t88.5 36.5t88.5 -36.5t36.5 -88.5zM85 585q0 -37 26.5 -63.5t63.5 -26.5t63.5 26.5t26.5 63.5t-26.5 63.5t-63.5 26.5t-63.5 -26.5t-26.5 -63.5z" />
    <glyph glyph-name="plusminus" unicode="&#xb1;" horiz-adv-x="613" 
d="M538 381h-210v-184h-42v184h-211v42h211v180h42v-180h210v-42zM75 105v43h463v-43h-463z" />
    <glyph glyph-name="twosuperior" unicode="&#xb2;" horiz-adv-x="365" 
d="M96 354l116 1q46 1 62 9t37 43h10l-13 -105h-281v3l81 87q41 43 62 67t43.5 65.5t22.5 76.5t-18 56t-52 21q-31 0 -47.5 -19t-16.5 -48q-2 -38 20 -56q-6 -5 -24 -5q-24 0 -39.5 16t-15.5 43q0 41 34.5 69t88.5 28q60 0 98 -30.5t38 -83.5q0 -30 -11 -55t-42 -56.5
t-60.5 -55t-92.5 -71.5z" />
    <glyph glyph-name="threesuperior" unicode="&#xb3;" horiz-adv-x="374" 
d="M179 296q-58 0 -97 25.5t-39 67.5q0 26 16 41.5t40 15.5q10 0 25 -5q-19 -22 -19 -50q0 -67 74 -67q38 0 60 21.5t22 65.5q0 46 -25.5 71t-74.5 25v20q89 3 89 80q0 71 -68 71q-64 0 -64 -61q0 -34 19 -50q-8 -5 -21 -5q-24 0 -39 15t-15 41q0 37 33 62.5t87 25.5
q57 0 94 -25.5t37 -73.5q0 -39 -29 -62.5t-71 -26.5v-1q53 -3 84.5 -32.5t31.5 -73.5q0 -55 -42 -85t-108 -30z" />
    <glyph glyph-name="acute" unicode="&#xb4;" horiz-adv-x="500" 
d="M238 749h94l-148 -188h-16z" />
    <glyph glyph-name="paragraph" unicode="&#xb6;" horiz-adv-x="624" 
d="M325 -214v506q-126 0 -210.5 53t-84.5 151t84.5 151t210.5 53h246v-7q-37 -20 -48 -37.5t-11 -65.5v-804h-44v881h-99v-881h-44z" />
    <glyph glyph-name="periodcentered" unicode="&#xb7;" horiz-adv-x="248" 
d="M183 270q0 -25 -17.5 -42t-41.5 -17t-41.5 17t-17.5 42t17.5 42t41.5 17t41.5 -17t17.5 -42z" />
    <glyph glyph-name="cedilla" unicode="&#xb8;" horiz-adv-x="500" 
d="M143 -172l16 20q32 -35 78 -35q24 0 40 12t16 35q0 56 -99 59l44 101h36l-34 -78q52 -2 85 -24t33 -58q0 -38 -31.5 -59.5t-79.5 -21.5q-34 0 -62 13t-42 36z" />
    <glyph glyph-name="onesuperior" unicode="&#xb9;" horiz-adv-x="255" 
d="M230 302h-203v11q8 3 21 7t18.5 6t13 5.5t10.5 7t5.5 9t2.5 12.5v279q0 7 -2.5 12.5t-5.5 9t-10.5 7.5t-13.5 6.5t-19.5 7t-22.5 8.5v10h135v-340q0 -8 2.5 -14t10.5 -10.5t13 -7t21 -7.5t24 -8v-11z" />
    <glyph glyph-name="ordmasculine" unicode="&#xba;" horiz-adv-x="451" 
d="M397 454q0 -77 -49 -127t-123 -50t-122.5 50t-48.5 127q0 78 48.5 128t122.5 50q75 0 123.5 -50t48.5 -128zM328 454q0 70 -26.5 109t-76.5 39t-76 -39t-26 -109t26 -109t76 -39t76.5 39t26.5 109zM78 156v35h296v-35h-296z" />
    <glyph glyph-name="guillemotright" unicode="&#xbb;" horiz-adv-x="621" 
d="M551 248v-8q-112 -64 -248 -206h-16q56 97 155 210q-99 113 -155 210h16q136 -142 248 -206zM318 248v-8q-112 -64 -248 -206h-16q56 97 155 210q-99 113 -155 210h16q136 -142 248 -206z" />
    <glyph glyph-name="onequarter" unicode="&#xbc;" horiz-adv-x="808" 
d="M177 -10h-45l438 720h45zM230 302h-203v11q8 3 21 7t18.5 6t13 5.5t10.5 7t5.5 9t2.5 12.5v279q0 7 -2.5 12.5t-5.5 9t-10.5 7.5t-13.5 6.5t-19.5 7t-22.5 8.5v10h135v-340q0 -8 2.5 -14t10.5 -10.5t13 -7t21 -7.5t24 -8v-11zM623 133v210l-149 -210h149zM708 109h-25
v-43q0 -27 6 -36.5t26 -22.5v-7h-124v7q20 13 26 22.5t6 36.5v43h-198l-1 2l207 287h52v-265h25q26 0 34.5 5t21.5 25h7v-85h-7q-13 20 -21.5 25.5t-34.5 5.5z" />
    <glyph glyph-name="onehalf" unicode="&#xbd;" horiz-adv-x="819" 
d="M177 -10h-45l438 720h45zM230 302h-203v11q8 3 21 7t18.5 6t13 5.5t10.5 7t5.5 9t2.5 12.5v279q0 7 -2.5 12.5t-5.5 9t-10.5 7.5t-13.5 6.5t-19.5 7t-22.5 8.5v10h135v-340q0 -8 2.5 -14t10.5 -10.5t13 -7t21 -7.5t24 -8v-11zM550 52l116 1q46 1 62 9t37 43h10l-13 -105
h-281v3l81 87q41 43 62 67t43.5 65.5t22.5 76.5t-18 56t-52 21q-31 0 -47.5 -19t-16.5 -48q-2 -38 20 -56q-6 -5 -24 -5q-24 0 -39.5 16t-15.5 43q0 41 34.5 69t88.5 28q60 0 98 -30.5t38 -83.5q0 -30 -11 -55t-42 -56.5t-60.5 -55t-92.5 -71.5z" />
    <glyph glyph-name="threequarters" unicode="&#xbe;" horiz-adv-x="887" 
d="M256 -10h-45l438 720h45zM179 296q-58 0 -97 25.5t-39 67.5q0 26 16 41.5t40 15.5q10 0 25 -5q-19 -22 -19 -50q0 -67 74 -67q38 0 60 21.5t22 65.5q0 46 -25.5 71t-74.5 25v20q89 3 89 80q0 71 -68 71q-64 0 -64 -61q0 -34 19 -50q-8 -5 -21 -5q-24 0 -39 15t-15 41
q0 37 33 62.5t87 25.5q57 0 94 -25.5t37 -73.5q0 -39 -29 -62.5t-71 -26.5v-1q53 -3 84.5 -32.5t31.5 -73.5q0 -55 -42 -85t-108 -30zM702 133v210l-149 -210h149zM787 109h-25v-43q0 -27 6 -36.5t26 -22.5v-7h-124v7q20 13 26 22.5t6 36.5v43h-198l-1 2l207 287h52v-265h25
q26 0 34.5 5t21.5 25h7v-85h-7q-13 20 -21.5 25.5t-34.5 5.5z" />
    <glyph glyph-name="questiondown" unicode="&#xbf;" horiz-adv-x="491" 
d="M210 501q0 25 17.5 42t41.5 17t41.5 -17t17.5 -42t-17.5 -42t-41.5 -17t-41.5 17t-17.5 42zM246 -121q60 0 93 34t33 86q0 38 -17 62q12 2 17 2q32 0 50.5 -20t18.5 -58q0 -56 -53.5 -100t-141.5 -44q-92 0 -144 51.5t-52 124.5q0 83 54.5 139.5t145.5 82.5v121h37v-181
q-79 -15 -129 -57.5t-50 -111.5q0 -56 37 -93.5t101 -37.5z" />
    <glyph glyph-name="Agrave" unicode="&#xc0;" horiz-adv-x="753" 
d="M234 929h105l59 -158h-16zM362 589l-139 -308h282zM194 7v-7h-188v7q37 26 54 44.5t37 60.5l277 598h5l277 -598q21 -44 36 -62.5t50 -42.5v-7h-196v7q33 14 45 24t12 26q0 15 -14 44l-66 141h-318l-64 -141q-13 -27 -13 -44q0 -15 14.5 -25t51.5 -25z" />
    <glyph glyph-name="Aacute" unicode="&#xc1;" horiz-adv-x="753" 
d="M417 929h105l-148 -158h-16zM362 589l-139 -308h282zM194 7v-7h-188v7q37 26 54 44.5t37 60.5l277 598h5l277 -598q21 -44 36 -62.5t50 -42.5v-7h-196v7q33 14 45 24t12 26q0 15 -14 44l-66 141h-318l-64 -141q-13 -27 -13 -44q0 -15 14.5 -25t51.5 -25z" />
    <glyph glyph-name="Acircumflex" unicode="&#xc2;" horiz-adv-x="753" 
d="M384 936q40 -82 141 -177h-25q-76 44 -124 93q-48 -49 -124 -93h-25q101 95 141 177h16zM362 589l-139 -308h282zM194 7v-7h-188v7q37 26 54 44.5t37 60.5l277 598h5l277 -598q21 -44 36 -62.5t50 -42.5v-7h-196v7q33 14 45 24t12 26q0 15 -14 44l-66 141h-318l-64 -141
q-13 -27 -13 -44q0 -15 14.5 -25t51.5 -25z" />
    <glyph glyph-name="Atilde" unicode="&#xc3;" horiz-adv-x="753" 
d="M223 779h-24q39 128 109 128q28 0 75 -32.5t67 -32.5q29 0 46 17t33 52h24q-39 -128 -109 -128q-28 0 -75 32.5t-67 32.5q-29 0 -46 -17t-33 -52zM362 589l-139 -308h282zM194 7v-7h-188v7q37 26 54 44.5t37 60.5l277 598h5l277 -598q21 -44 36 -62.5t50 -42.5v-7h-196v7
q33 14 45 24t12 26q0 15 -14 44l-66 141h-318l-64 -141q-13 -27 -13 -44q0 -15 14.5 -25t51.5 -25z" />
    <glyph glyph-name="Adieresis" unicode="&#xc4;" horiz-adv-x="753" 
d="M291 776q-22 0 -37.5 15.5t-15.5 37.5t15.5 37.5t37.5 15.5t37.5 -15.5t15.5 -37.5t-15.5 -37.5t-37.5 -15.5zM461 776q-22 0 -37.5 15.5t-15.5 37.5t15.5 37.5t37.5 15.5t37.5 -15.5t15.5 -37.5t-15.5 -37.5t-37.5 -15.5zM362 589l-139 -308h282zM194 7v-7h-188v7
q37 26 54 44.5t37 60.5l277 598h5l277 -598q21 -44 36 -62.5t50 -42.5v-7h-196v7q33 14 45 24t12 26q0 15 -14 44l-66 141h-318l-64 -141q-13 -27 -13 -44q0 -15 14.5 -25t51.5 -25z" />
    <glyph glyph-name="Aring" unicode="&#xc5;" horiz-adv-x="753" 
d="M271 837q0 42 31 72.5t74 30.5t74 -30.5t31 -72.5q0 -43 -31 -73.5t-74 -30.5t-74 30.5t-31 73.5zM440 837q0 29 -17.5 47t-46.5 18t-46.5 -18t-17.5 -47t17.5 -46.5t46.5 -17.5t46.5 17.5t17.5 46.5zM362 589l-139 -308h282zM194 7v-7h-188v7q37 26 54 44.5t37 60.5
l277 598h5l277 -598q21 -44 36 -62.5t50 -42.5v-7h-196v7q33 14 45 24t12 26q0 15 -14 44l-66 141h-318l-64 -141q-13 -27 -13 -44q0 -15 14.5 -25t51.5 -25z" />
    <glyph glyph-name="AE" unicode="&#xc6;" horiz-adv-x="1082" 
d="M300 301h249v355zM186 7v-7h-175v7q35 24 55.5 44.5t48.5 59.5l352 505q7 10 7 24q0 20 -63 53v7h509q30 0 60 6l34 -150h-7q-39 45 -58 63t-55.5 31t-91.5 13h-185v-285h155q61 0 82 16t45 80h8v-229h-8q-24 64 -45 80t-82 16h-155v-304h206q81 0 122 25.5t92 99.5h7
l-32 -162h-527v7q39 21 51.5 39t12.5 64v152h-276l-114 -162q-26 -35 -26 -51q0 -13 10 -20.5t43 -21.5z" />
    <glyph glyph-name="Ccedilla" unicode="&#xc7;" horiz-adv-x="711" 
d="M367 -221q-34 0 -62 13t-42 36l16 20q32 -35 78 -35q24 0 40 12t16 35q0 56 -99 59l32 73q-134 15 -216 113.5t-82 244.5q0 157 98.5 258.5t250.5 101.5q103 0 174 -55l50 55h7v-202h-7q-44 76 -96.5 117.5t-127.5 41.5q-121 0 -196 -87t-75 -230t79.5 -226t193.5 -83
q86 0 144.5 39.5t98.5 126.5l17 -7q-24 -97 -95 -153.5t-176 -56.5h-7l-21 -48q52 -2 85 -24t33 -58q0 -38 -31.5 -59.5t-79.5 -21.5z" />
    <glyph glyph-name="Egrave" unicode="&#xc8;" horiz-adv-x="645" 
d="M183 929h105l59 -158h-16zM470 474v-229h-8q-24 64 -45 80t-82 16h-155v-304h206q81 0 122 25.5t92 99.5h7l-32 -162h-527v7q39 21 51.5 39t12.5 64v480q0 46 -12.5 64t-51.5 39v7h435q30 0 60 6l34 -150h-7q-39 45 -58 63t-55.5 31t-91.5 13h-185v-285h155q61 0 82 16
t45 80h8z" />
    <glyph glyph-name="Eacute" unicode="&#xc9;" horiz-adv-x="645" 
d="M366 929h105l-148 -158h-16zM470 474v-229h-8q-24 64 -45 80t-82 16h-155v-304h206q81 0 122 25.5t92 99.5h7l-32 -162h-527v7q39 21 51.5 39t12.5 64v480q0 46 -12.5 64t-51.5 39v7h435q30 0 60 6l34 -150h-7q-39 45 -58 63t-55.5 31t-91.5 13h-185v-285h155q61 0 82 16
t45 80h8z" />
    <glyph glyph-name="Ecircumflex" unicode="&#xca;" horiz-adv-x="645" 
d="M333 946q40 -82 141 -177h-25q-76 44 -124 93q-48 -49 -124 -93h-25q101 95 141 177h16zM470 474v-229h-8q-24 64 -45 80t-82 16h-155v-304h206q81 0 122 25.5t92 99.5h7l-32 -162h-527v7q39 21 51.5 39t12.5 64v480q0 46 -12.5 64t-51.5 39v7h435q30 0 60 6l34 -150h-7
q-39 45 -58 63t-55.5 31t-91.5 13h-185v-285h155q61 0 82 16t45 80h8z" />
    <glyph glyph-name="Edieresis" unicode="&#xcb;" horiz-adv-x="645" 
d="M240 786q-22 0 -37.5 15.5t-15.5 37.5t15.5 37.5t37.5 15.5t37.5 -15.5t15.5 -37.5t-15.5 -37.5t-37.5 -15.5zM410 786q-22 0 -37.5 15.5t-15.5 37.5t15.5 37.5t37.5 15.5t37.5 -15.5t15.5 -37.5t-15.5 -37.5t-37.5 -15.5zM470 474v-229h-8q-24 64 -45 80t-82 16h-155
v-304h206q81 0 122 25.5t92 99.5h7l-32 -162h-527v7q39 21 51.5 39t12.5 64v480q0 46 -12.5 64t-51.5 39v7h435q30 0 60 6l34 -150h-7q-39 45 -58 63t-55.5 31t-91.5 13h-185v-285h155q61 0 82 16t45 80h8z" />
    <glyph glyph-name="Igrave" unicode="&#xcc;" horiz-adv-x="292" 
d="M4 929h105l59 -158h-16zM112 590q0 46 -12.5 64t-51.5 39v7h196v-7q-39 -21 -51.5 -39t-12.5 -64v-480q0 -46 12.5 -64t51.5 -39v-7h-196v7q39 21 51.5 39t12.5 64v480z" />
    <glyph glyph-name="Iacute" unicode="&#xcd;" horiz-adv-x="292" 
d="M187 929h105l-148 -158h-16zM112 590q0 46 -12.5 64t-51.5 39v7h196v-7q-39 -21 -51.5 -39t-12.5 -64v-480q0 -46 12.5 -64t51.5 -39v-7h-196v7q39 21 51.5 39t12.5 64v480z" />
    <glyph glyph-name="Icircumflex" unicode="&#xce;" horiz-adv-x="292" 
d="M154 946q40 -82 141 -177h-25q-76 44 -124 93q-48 -49 -124 -93h-25q101 95 141 177h16zM112 590q0 46 -12.5 64t-51.5 39v7h196v-7q-39 -21 -51.5 -39t-12.5 -64v-480q0 -46 12.5 -64t51.5 -39v-7h-196v7q39 21 51.5 39t12.5 64v480z" />
    <glyph glyph-name="Idieresis" unicode="&#xcf;" horiz-adv-x="292" 
d="M61 786q-22 0 -37.5 15.5t-15.5 37.5t15.5 37.5t37.5 15.5t37.5 -15.5t15.5 -37.5t-15.5 -37.5t-37.5 -15.5zM231 786q-22 0 -37.5 15.5t-15.5 37.5t15.5 37.5t37.5 15.5t37.5 -15.5t15.5 -37.5t-15.5 -37.5t-37.5 -15.5zM112 590q0 46 -12.5 64t-51.5 39v7h196v-7
q-39 -21 -51.5 -39t-12.5 -64v-480q0 -46 12.5 -64t51.5 -39v-7h-196v7q39 21 51.5 39t12.5 64v480z" />
    <glyph glyph-name="Eth" unicode="&#xd0;" horiz-adv-x="756" 
d="M322 0h-261v7q39 21 51.5 39t12.5 64v230h-74v39h74v211q0 46 -12.5 64t-51.5 39v7h261q179 0 282.5 -95.5t103.5 -254.5t-103.5 -254.5t-282.5 -95.5zM193 38h124q150 0 231.5 84.5t81.5 227.5t-81.5 227.5t-231.5 84.5h-124v-283h186v-39h-186v-302z" />
    <glyph glyph-name="Ntilde" unicode="&#xd1;" horiz-adv-x="778" 
d="M238 791h-24q39 128 109 128q28 0 75 -32.5t67 -32.5q29 0 46 17t33 52h24q-39 -128 -109 -128q-28 0 -75 32.5t-67 32.5q-29 0 -46 -17t-33 -52zM625 152v438q0 24 -4 39.5t-16.5 28t-21 17.5t-32.5 18v7h194v-7q-24 -13 -32.5 -18t-21 -17.5t-16.5 -28t-4 -39.5v-599
h-4l-509 640v-521q0 -24 4 -39.5t16.5 -28t21 -17.5t32.5 -18v-7h-194v7q24 13 32.5 18t21 17.5t16.5 28t4 39.5v480q0 46 -12.5 64t-51.5 39v7h143z" />
    <glyph glyph-name="Ograve" unicode="&#xd2;" horiz-adv-x="778" 
d="M247 929h105l59 -158h-16zM48 350q0 158 96 259t245 101t245 -101t96 -259t-96 -259t-245 -101t-245 101t-96 259zM652 350q0 141 -72 228.5t-191 87.5t-191 -87.5t-72 -228.5t72 -228.5t191 -87.5t191 87.5t72 228.5z" />
    <glyph glyph-name="Oacute" unicode="&#xd3;" horiz-adv-x="778" 
d="M430 929h105l-148 -158h-16zM48 350q0 158 96 259t245 101t245 -101t96 -259t-96 -259t-245 -101t-245 101t-96 259zM652 350q0 141 -72 228.5t-191 87.5t-191 -87.5t-72 -228.5t72 -228.5t191 -87.5t191 87.5t72 228.5z" />
    <glyph glyph-name="Ocircumflex" unicode="&#xd4;" horiz-adv-x="778" 
d="M397 946q40 -82 141 -177h-25q-76 44 -124 93q-48 -49 -124 -93h-25q101 95 141 177h16zM48 350q0 158 96 259t245 101t245 -101t96 -259t-96 -259t-245 -101t-245 101t-96 259zM652 350q0 141 -72 228.5t-191 87.5t-191 -87.5t-72 -228.5t72 -228.5t191 -87.5t191 87.5
t72 228.5z" />
    <glyph glyph-name="Otilde" unicode="&#xd5;" horiz-adv-x="778" 
d="M236 791h-24q39 128 109 128q28 0 75 -32.5t67 -32.5q29 0 46 17t33 52h24q-39 -128 -109 -128q-28 0 -75 32.5t-67 32.5q-29 0 -46 -17t-33 -52zM48 350q0 158 96 259t245 101t245 -101t96 -259t-96 -259t-245 -101t-245 101t-96 259zM652 350q0 141 -72 228.5
t-191 87.5t-191 -87.5t-72 -228.5t72 -228.5t191 -87.5t191 87.5t72 228.5z" />
    <glyph glyph-name="Odieresis" unicode="&#xd6;" horiz-adv-x="778" 
d="M304 786q-22 0 -37.5 15.5t-15.5 37.5t15.5 37.5t37.5 15.5t37.5 -15.5t15.5 -37.5t-15.5 -37.5t-37.5 -15.5zM474 786q-22 0 -37.5 15.5t-15.5 37.5t15.5 37.5t37.5 15.5t37.5 -15.5t15.5 -37.5t-15.5 -37.5t-37.5 -15.5zM48 350q0 158 96 259t245 101t245 -101t96 -259
t-96 -259t-245 -101t-245 101t-96 259zM652 350q0 141 -72 228.5t-191 87.5t-191 -87.5t-72 -228.5t72 -228.5t191 -87.5t191 87.5t72 228.5z" />
    <glyph glyph-name="multiply" unicode="&#xd7;" horiz-adv-x="515" 
d="M232 337l-150 150l30 31l148 -152l148 152l30 -31l-150 -150l150 -150l-30 -31l-148 152l-148 -152l-30 31z" />
    <glyph glyph-name="Oslash" unicode="&#xd8;" horiz-adv-x="778" 
d="M389 666q-119 0 -191 -87.5t-72 -228.5q0 -124 58 -209l387 448q-71 77 -182 77zM389 34q119 0 191 87.5t72 228.5q0 123 -56 207l-387 -447q71 -76 180 -76zM730 350q0 -158 -96 -259t-245 -101q-126 0 -218 76l-83 -96l-30 25l84 98q-94 100 -94 257q0 158 96 259
t245 101q129 0 220 -77l73 84l30 -25l-75 -87q93 -99 93 -255z" />
    <glyph glyph-name="Ugrave" unicode="&#xd9;" horiz-adv-x="752" 
d="M234 929h105l59 -158h-16zM607 590q0 24 -4 39.5t-16.5 28t-21 17.5t-32.5 18v7h194v-7q-30 -16 -41.5 -24t-21 -27.5t-9.5 -51.5v-323q0 -131 -76.5 -204t-196.5 -73q-146 0 -215.5 74t-69.5 203v323q0 46 -12.5 64t-51.5 39v7h196v-7q-39 -21 -51.5 -39t-12.5 -64v-310
q0 -120 56 -182t157 -62q107 0 168 60t61 183v311z" />
    <glyph glyph-name="Uacute" unicode="&#xda;" horiz-adv-x="752" 
d="M417 929h105l-148 -158h-16zM607 590q0 24 -4 39.5t-16.5 28t-21 17.5t-32.5 18v7h194v-7q-30 -16 -41.5 -24t-21 -27.5t-9.5 -51.5v-323q0 -131 -76.5 -204t-196.5 -73q-146 0 -215.5 74t-69.5 203v323q0 46 -12.5 64t-51.5 39v7h196v-7q-39 -21 -51.5 -39t-12.5 -64
v-310q0 -120 56 -182t157 -62q107 0 168 60t61 183v311z" />
    <glyph glyph-name="Ucircumflex" unicode="&#xdb;" horiz-adv-x="752" 
d="M384 946q40 -82 141 -177h-25q-76 44 -124 93q-48 -49 -124 -93h-25q101 95 141 177h16zM607 590q0 24 -4 39.5t-16.5 28t-21 17.5t-32.5 18v7h194v-7q-30 -16 -41.5 -24t-21 -27.5t-9.5 -51.5v-323q0 -131 -76.5 -204t-196.5 -73q-146 0 -215.5 74t-69.5 203v323
q0 46 -12.5 64t-51.5 39v7h196v-7q-39 -21 -51.5 -39t-12.5 -64v-310q0 -120 56 -182t157 -62q107 0 168 60t61 183v311z" />
    <glyph glyph-name="Udieresis" unicode="&#xdc;" horiz-adv-x="752" 
d="M291 786q-22 0 -37.5 15.5t-15.5 37.5t15.5 37.5t37.5 15.5t37.5 -15.5t15.5 -37.5t-15.5 -37.5t-37.5 -15.5zM461 786q-22 0 -37.5 15.5t-15.5 37.5t15.5 37.5t37.5 15.5t37.5 -15.5t15.5 -37.5t-15.5 -37.5t-37.5 -15.5zM607 590q0 24 -4 39.5t-16.5 28t-21 17.5
t-32.5 18v7h194v-7q-30 -16 -41.5 -24t-21 -27.5t-9.5 -51.5v-323q0 -131 -76.5 -204t-196.5 -73q-146 0 -215.5 74t-69.5 203v323q0 46 -12.5 64t-51.5 39v7h196v-7q-39 -21 -51.5 -39t-12.5 -64v-310q0 -120 56 -182t157 -62q107 0 168 60t61 183v311z" />
    <glyph glyph-name="Yacute" unicode="&#xdd;" horiz-adv-x="651" 
d="M366 929h105l-148 -158h-16zM337 335l169 270q13 20 13 39q0 12 -11 22t-39 27v7h171v-7q-31 -23 -49.5 -43.5t-43.5 -59.5l-188 -299v-181q0 -47 14 -65t60 -38v-7h-215v7q46 20 60 38t14 65v181l-188 299q-25 39 -43.5 59.5t-49.5 43.5v7h174v-7q-32 -17 -32 -44
q0 -23 15 -46z" />
    <glyph glyph-name="Thorn" unicode="&#xde;" horiz-adv-x="625" 
d="M180 590v-29h154q125 0 193 -50t68 -150q0 -99 -69 -149.5t-192 -50.5h-154v-51q0 -46 18 -64t71 -39v-7h-221v7q39 21 51.5 39t12.5 64v480q0 46 -12.5 64t-51.5 39v7h196v-7q-39 -21 -51.5 -39t-12.5 -64zM180 198h152q190 0 190 163t-190 163h-152v-326z" />
    <glyph glyph-name="germandbls" unicode="&#xdf;" horiz-adv-x="642" 
d="M447 -10q-58 0 -124 42l-34 -43h-7l-11 183h13q71 -142 163 -142q48 0 71 23.5t23 63.5q0 9 -2 17t-4 14.5t-8 14t-10 12t-13.5 11.5t-14 10t-16.5 10t-17 9.5t-19.5 10t-19.5 10.5q-72 37 -96 65.5t-24 68.5q0 34 22 62t77 75q53 48 53 105q0 45 -32 73t-88 28
q-68 0 -112.5 -48.5t-44.5 -143.5v-521h-124v6q26 16 35.5 24t16 26.5t6.5 50.5v338h-70v25l70 20v24q0 115 68 176.5t159 61.5q77 0 128.5 -37.5t51.5 -102.5q0 -45 -22.5 -74t-67.5 -62q-39 -28 -52 -45.5t-13 -39.5q0 -27 23 -47.5t94 -60.5q40 -23 58.5 -34.5t37.5 -30
t25.5 -38.5t6.5 -49q0 -60 -43.5 -100.5t-112.5 -40.5z" />
    <glyph glyph-name="agrave" unicode="&#xe0;" horiz-adv-x="530" 
d="M108 749h94l70 -188h-16zM364 254l-79 -15q-85 -16 -124.5 -42.5t-39.5 -78.5q0 -42 25 -63t70 -21q55 0 101.5 45.5t46.5 125.5v49zM532 22v-13q-44 -16 -81 -16q-85 0 -85 108q-17 -48 -66 -79.5t-109 -31.5q-63 0 -103 32.5t-40 91.5q0 38 18.5 65.5t54.5 45.5t73 28
t90 20l80 14v31q0 75 -27.5 106t-90.5 31q-47 0 -74.5 -21.5t-27.5 -58.5q0 -24 14 -46q-14 -11 -40 -11q-22 0 -35 13.5t-13 39.5q0 49 52 86t136 37q176 0 176 -164q0 -55 -1.5 -131t-1.5 -99q0 -40 24.5 -58t76.5 -20z" />
    <glyph glyph-name="aacute" unicode="&#xe1;" horiz-adv-x="530" 
d="M312 749h94l-148 -188h-16zM364 254l-79 -15q-85 -16 -124.5 -42.5t-39.5 -78.5q0 -42 25 -63t70 -21q55 0 101.5 45.5t46.5 125.5v49zM532 22v-13q-44 -16 -81 -16q-85 0 -85 108q-17 -48 -66 -79.5t-109 -31.5q-63 0 -103 32.5t-40 91.5q0 38 18.5 65.5t54.5 45.5
t73 28t90 20l80 14v31q0 75 -27.5 106t-90.5 31q-47 0 -74.5 -21.5t-27.5 -58.5q0 -24 14 -46q-14 -11 -40 -11q-22 0 -35 13.5t-13 39.5q0 49 52 86t136 37q176 0 176 -164q0 -55 -1.5 -131t-1.5 -99q0 -40 24.5 -58t76.5 -20z" />
    <glyph glyph-name="acircumflex" unicode="&#xe2;" horiz-adv-x="530" 
d="M266 749q23 -46 63.5 -104t77.5 -93h-25q-50 30 -124 106q-74 -76 -124 -106h-25q37 35 77.5 93t63.5 104h16zM364 254l-79 -15q-85 -16 -124.5 -42.5t-39.5 -78.5q0 -42 25 -63t70 -21q55 0 101.5 45.5t46.5 125.5v49zM532 22v-13q-44 -16 -81 -16q-85 0 -85 108
q-17 -48 -66 -79.5t-109 -31.5q-63 0 -103 32.5t-40 91.5q0 38 18.5 65.5t54.5 45.5t73 28t90 20l80 14v31q0 75 -27.5 106t-90.5 31q-47 0 -74.5 -21.5t-27.5 -58.5q0 -24 14 -46q-14 -11 -40 -11q-22 0 -35 13.5t-13 39.5q0 49 52 86t136 37q176 0 176 -164
q0 -55 -1.5 -131t-1.5 -99q0 -40 24.5 -58t76.5 -20z" />
    <glyph glyph-name="atilde" unicode="&#xe3;" horiz-adv-x="530" 
d="M110 580h-24q39 128 107 128q26 0 71.5 -32.5t64.5 -32.5q29 0 44.5 16.5t32.5 52.5h24q-39 -128 -107 -128q-26 0 -71.5 32.5t-64.5 32.5q-29 0 -44.5 -16.5t-32.5 -52.5zM364 254l-79 -15q-85 -16 -124.5 -42.5t-39.5 -78.5q0 -42 25 -63t70 -21q55 0 101.5 45.5
t46.5 125.5v49zM532 22v-13q-44 -16 -81 -16q-85 0 -85 108q-17 -48 -66 -79.5t-109 -31.5q-63 0 -103 32.5t-40 91.5q0 38 18.5 65.5t54.5 45.5t73 28t90 20l80 14v31q0 75 -27.5 106t-90.5 31q-47 0 -74.5 -21.5t-27.5 -58.5q0 -24 14 -46q-14 -11 -40 -11q-22 0 -35 13.5
t-13 39.5q0 49 52 86t136 37q176 0 176 -164q0 -55 -1.5 -131t-1.5 -99q0 -40 24.5 -58t76.5 -20z" />
    <glyph glyph-name="adieresis" unicode="&#xe4;" horiz-adv-x="530" 
d="M173 586q-22 0 -37.5 15.5t-15.5 37.5t15.5 37.5t37.5 15.5t37.5 -15.5t15.5 -37.5t-15.5 -37.5t-37.5 -15.5zM343 586q-22 0 -37.5 15.5t-15.5 37.5t15.5 37.5t37.5 15.5t37.5 -15.5t15.5 -37.5t-15.5 -37.5t-37.5 -15.5zM364 254l-79 -15q-85 -16 -124.5 -42.5
t-39.5 -78.5q0 -42 25 -63t70 -21q55 0 101.5 45.5t46.5 125.5v49zM532 22v-13q-44 -16 -81 -16q-85 0 -85 108q-17 -48 -66 -79.5t-109 -31.5q-63 0 -103 32.5t-40 91.5q0 38 18.5 65.5t54.5 45.5t73 28t90 20l80 14v31q0 75 -27.5 106t-90.5 31q-47 0 -74.5 -21.5
t-27.5 -58.5q0 -24 14 -46q-14 -11 -40 -11q-22 0 -35 13.5t-13 39.5q0 49 52 86t136 37q176 0 176 -164q0 -55 -1.5 -131t-1.5 -99q0 -40 24.5 -58t76.5 -20z" />
    <glyph glyph-name="aring" unicode="&#xe5;" horiz-adv-x="530" 
d="M153 660q0 42 31 72.5t74 30.5t74 -30.5t31 -72.5q0 -43 -31 -73.5t-74 -30.5t-74 30.5t-31 73.5zM322 660q0 29 -17.5 47t-46.5 18t-46.5 -18t-17.5 -47t17.5 -46.5t46.5 -17.5t46.5 17.5t17.5 46.5zM364 254l-79 -15q-85 -16 -124.5 -42.5t-39.5 -78.5q0 -42 25 -63
t70 -21q55 0 101.5 45.5t46.5 125.5v49zM532 22v-13q-44 -16 -81 -16q-85 0 -85 108q-17 -48 -66 -79.5t-109 -31.5q-63 0 -103 32.5t-40 91.5q0 38 18.5 65.5t54.5 45.5t73 28t90 20l80 14v31q0 75 -27.5 106t-90.5 31q-47 0 -74.5 -21.5t-27.5 -58.5q0 -24 14 -46
q-14 -11 -40 -11q-22 0 -35 13.5t-13 39.5q0 49 52 86t136 37q176 0 176 -164q0 -55 -1.5 -131t-1.5 -99q0 -40 24.5 -58t76.5 -20z" />
    <glyph glyph-name="ae" unicode="&#xe6;" horiz-adv-x="838" 
d="M791 150q-16 -77 -67 -118.5t-134 -41.5q-67 0 -120 31t-82 88q-22 -48 -72 -83.5t-111 -35.5q-73 0 -115 32t-42 92q0 49 36.5 84t86 51.5t113.5 24.5l80 10v34q0 72 -28 104.5t-90 32.5q-47 0 -74.5 -21.5t-27.5 -58.5q0 -24 14 -46q-14 -11 -40 -11q-22 0 -35 13.5
t-13 39.5q0 49 52 86t136 37q126 0 158 -98q60 98 169 98q98 0 154 -64.5t56 -178.5h-362q0 -101 46 -157.5t128 -56.5q122 0 164 120zM434 287h286q-4 167 -136 167q-63 0 -102.5 -44.5t-47.5 -122.5zM364 250l-79 -11q-164 -22 -164 -121q0 -39 24 -61.5t62 -22.5
q67 0 112 44.5t45 126.5v45z" />
    <glyph glyph-name="ccedilla" unicode="&#xe7;" horiz-adv-x="502" 
d="M252 -221q-34 0 -62 13t-42 36l16 20q32 -35 78 -35q24 0 40 12t16 35q0 56 -99 59l32 74q-84 12 -136 75.5t-52 165.5q0 117 68.5 188.5t169.5 71.5q75 0 123.5 -34.5t48.5 -86.5q0 -30 -17 -43.5t-42 -13.5q-11 0 -16 2q5 20 5 35q0 44 -25.5 72.5t-76.5 28.5
q-75 0 -119.5 -59.5t-44.5 -149.5q0 -96 45.5 -151.5t121.5 -55.5q56 0 98.5 30.5t62.5 89.5l19 -8q-16 -76 -66 -118t-130 -42h-2l-21 -48q52 -2 85 -24t33 -58q0 -38 -31.5 -59.5t-79.5 -21.5z" />
    <glyph glyph-name="egrave" unicode="&#xe8;" horiz-adv-x="521" 
d="M118 749h94l70 -188h-16zM268 494q98 0 154 -64.5t56 -178.5h-362q0 -101 46 -157.5t128 -56.5q122 0 164 120l20 -7q-16 -77 -67 -118.5t-134 -41.5q-99 0 -164.5 65.5t-65.5 178.5q0 117 65 188.5t160 71.5zM117 287h286q-4 167 -136 167q-63 0 -102.5 -44.5
t-47.5 -122.5z" />
    <glyph glyph-name="eacute" unicode="&#xe9;" horiz-adv-x="521" 
d="M322 749h94l-148 -188h-16zM268 494q98 0 154 -64.5t56 -178.5h-362q0 -101 46 -157.5t128 -56.5q122 0 164 120l20 -7q-16 -77 -67 -118.5t-134 -41.5q-99 0 -164.5 65.5t-65.5 178.5q0 117 65 188.5t160 71.5zM117 287h286q-4 167 -136 167q-63 0 -102.5 -44.5
t-47.5 -122.5z" />
    <glyph glyph-name="ecircumflex" unicode="&#xea;" horiz-adv-x="521" 
d="M276 749q23 -46 63.5 -104t77.5 -93h-25q-50 30 -124 106q-74 -76 -124 -106h-25q37 35 77.5 93t63.5 104h16zM268 494q98 0 154 -64.5t56 -178.5h-362q0 -101 46 -157.5t128 -56.5q122 0 164 120l20 -7q-16 -77 -67 -118.5t-134 -41.5q-99 0 -164.5 65.5t-65.5 178.5
q0 117 65 188.5t160 71.5zM117 287h286q-4 167 -136 167q-63 0 -102.5 -44.5t-47.5 -122.5z" />
    <glyph glyph-name="edieresis" unicode="&#xeb;" horiz-adv-x="521" 
d="M183 586q-22 0 -37.5 15.5t-15.5 37.5t15.5 37.5t37.5 15.5t37.5 -15.5t15.5 -37.5t-15.5 -37.5t-37.5 -15.5zM353 586q-22 0 -37.5 15.5t-15.5 37.5t15.5 37.5t37.5 15.5t37.5 -15.5t15.5 -37.5t-15.5 -37.5t-37.5 -15.5zM268 494q98 0 154 -64.5t56 -178.5h-362
q0 -101 46 -157.5t128 -56.5q122 0 164 120l20 -7q-16 -77 -67 -118.5t-134 -41.5q-99 0 -164.5 65.5t-65.5 178.5q0 117 65 188.5t160 71.5zM117 287h286q-4 167 -136 167q-63 0 -102.5 -44.5t-47.5 -122.5z" />
    <glyph glyph-name="igrave" unicode="&#xec;" horiz-adv-x="264" 
d="M-16 749h94l70 -188h-16zM172 484v-377q0 -32 6.5 -50.5t16 -26.5t35.5 -24v-6h-182v6q26 16 35.5 24t16 26.5t6.5 50.5v276q0 24 -11 43t-22.5 28t-35.5 24v6h135z" />
    <glyph glyph-name="iacute" unicode="&#xed;" horiz-adv-x="264" 
d="M188 749h94l-148 -188h-16zM172 484v-377q0 -32 6.5 -50.5t16 -26.5t35.5 -24v-6h-182v6q26 16 35.5 24t16 26.5t6.5 50.5v276q0 24 -11 43t-22.5 28t-35.5 24v6h135z" />
    <glyph glyph-name="icircumflex" unicode="&#xee;" horiz-adv-x="264" 
d="M142 749q23 -46 63.5 -104t77.5 -93h-25q-50 30 -124 106q-74 -76 -124 -106h-25q37 35 77.5 93t63.5 104h16zM172 484v-377q0 -32 6.5 -50.5t16 -26.5t35.5 -24v-6h-182v6q26 16 35.5 24t16 26.5t6.5 50.5v276q0 24 -11 43t-22.5 28t-35.5 24v6h135z" />
    <glyph glyph-name="idieresis" unicode="&#xef;" horiz-adv-x="264" 
d="M49 586q-22 0 -37.5 15.5t-15.5 37.5t15.5 37.5t37.5 15.5t37.5 -15.5t15.5 -37.5t-15.5 -37.5t-37.5 -15.5zM219 586q-22 0 -37.5 15.5t-15.5 37.5t15.5 37.5t37.5 15.5t37.5 -15.5t15.5 -37.5t-15.5 -37.5t-37.5 -15.5zM172 484v-377q0 -32 6.5 -50.5t16 -26.5
t35.5 -24v-6h-182v6q26 16 35.5 24t16 26.5t6.5 50.5v276q0 24 -11 43t-22.5 28t-35.5 24v6h135z" />
    <glyph glyph-name="eth" unicode="&#xf0;" horiz-adv-x="560" 
d="M280 -10q-103 0 -170 71t-67 181t67 181t170 71q39 0 79.5 -17.5t64.5 -49.5q-25 117 -120 203l-122 -67l-16 30l110 60q-74 56 -174 79l4 27q122 -17 214 -82l92 50l16 -30l-78 -43q82 -69 124.5 -170t42.5 -214q0 -129 -66 -204.5t-171 -75.5zM442 242
q0 96 -42.5 153.5t-119.5 57.5t-119.5 -57.5t-42.5 -153.5q0 -97 42.5 -154.5t119.5 -57.5t119.5 57.5t42.5 154.5z" />
    <glyph glyph-name="ntilde" unicode="&#xf1;" horiz-adv-x="600" 
d="M157 580h-24q39 128 107 128q26 0 71.5 -32.5t64.5 -32.5q29 0 44.5 16.5t32.5 52.5h24q-39 -128 -107 -128q-26 0 -71.5 32.5t-64.5 32.5q-29 0 -44.5 -16.5t-32.5 -52.5zM504 320v-213q0 -32 6.5 -50.5t16 -26.5t35.5 -24v-6h-182v6q26 16 35.5 24t16 26.5t6.5 50.5
v198q0 60 -26.5 99t-86.5 39q-64 0 -108.5 -51t-44.5 -138v-147q0 -32 6.5 -50.5t16 -26.5t35.5 -24v-6h-182v6q26 16 35.5 24t16 26.5t6.5 50.5v276q0 24 -11 43t-22.5 28t-35.5 24v6h131l4 -120q21 62 67 96t110 34q74 0 114.5 -45.5t40.5 -128.5z" />
    <glyph glyph-name="ograve" unicode="&#xf2;" horiz-adv-x="560" 
d="M130 749h94l70 -188h-16zM517 242q0 -110 -67 -181t-170 -71t-170 71t-67 181t67 181t170 71t170 -71t67 -181zM442 242q0 96 -42.5 153.5t-119.5 57.5t-119.5 -57.5t-42.5 -153.5q0 -97 42.5 -154.5t119.5 -57.5t119.5 57.5t42.5 154.5z" />
    <glyph glyph-name="oacute" unicode="&#xf3;" horiz-adv-x="560" 
d="M334 749h94l-148 -188h-16zM517 242q0 -110 -67 -181t-170 -71t-170 71t-67 181t67 181t170 71t170 -71t67 -181zM442 242q0 96 -42.5 153.5t-119.5 57.5t-119.5 -57.5t-42.5 -153.5q0 -97 42.5 -154.5t119.5 -57.5t119.5 57.5t42.5 154.5z" />
    <glyph glyph-name="ocircumflex" unicode="&#xf4;" horiz-adv-x="560" 
d="M288 749q23 -46 63.5 -104t77.5 -93h-25q-50 30 -124 106q-74 -76 -124 -106h-25q37 35 77.5 93t63.5 104h16zM517 242q0 -110 -67 -181t-170 -71t-170 71t-67 181t67 181t170 71t170 -71t67 -181zM442 242q0 96 -42.5 153.5t-119.5 57.5t-119.5 -57.5t-42.5 -153.5
q0 -97 42.5 -154.5t119.5 -57.5t119.5 57.5t42.5 154.5z" />
    <glyph glyph-name="otilde" unicode="&#xf5;" horiz-adv-x="560" 
d="M132 580h-24q39 128 107 128q26 0 71.5 -32.5t64.5 -32.5q29 0 44.5 16.5t32.5 52.5h24q-39 -128 -107 -128q-26 0 -71.5 32.5t-64.5 32.5q-29 0 -44.5 -16.5t-32.5 -52.5zM517 242q0 -110 -67 -181t-170 -71t-170 71t-67 181t67 181t170 71t170 -71t67 -181zM442 242
q0 96 -42.5 153.5t-119.5 57.5t-119.5 -57.5t-42.5 -153.5q0 -97 42.5 -154.5t119.5 -57.5t119.5 57.5t42.5 154.5z" />
    <glyph glyph-name="odieresis" unicode="&#xf6;" horiz-adv-x="560" 
d="M195 586q-22 0 -37.5 15.5t-15.5 37.5t15.5 37.5t37.5 15.5t37.5 -15.5t15.5 -37.5t-15.5 -37.5t-37.5 -15.5zM365 586q-22 0 -37.5 15.5t-15.5 37.5t15.5 37.5t37.5 15.5t37.5 -15.5t15.5 -37.5t-15.5 -37.5t-37.5 -15.5zM517 242q0 -110 -67 -181t-170 -71t-170 71
t-67 181t67 181t170 71t170 -71t67 -181zM442 242q0 96 -42.5 153.5t-119.5 57.5t-119.5 -57.5t-42.5 -153.5q0 -97 42.5 -154.5t119.5 -57.5t119.5 57.5t42.5 154.5z" />
    <glyph glyph-name="divide" unicode="&#xf7;" horiz-adv-x="598" 
d="M257 522q0 19 12.5 31.5t30.5 12.5q19 0 31.5 -12.5t12.5 -31.5q0 -18 -12.5 -30.5t-31.5 -12.5q-18 0 -30.5 12.5t-12.5 30.5zM71 319v43h456v-43h-456zM257 158q0 19 12.5 31.5t30.5 12.5q19 0 31.5 -12.5t12.5 -31.5q0 -18 -12.5 -30.5t-31.5 -12.5q-18 0 -30.5 12.5
t-12.5 30.5z" />
    <glyph glyph-name="oslash" unicode="&#xf8;" horiz-adv-x="574" 
d="M287 453q-77 0 -119.5 -57.5t-42.5 -153.5q0 -80 29 -133l247 294q-42 50 -114 50zM287 30q77 0 119.5 57.5t42.5 154.5q0 78 -27 129l-247 -293q42 -48 112 -48zM524 242q0 -110 -67 -181t-170 -71q-83 0 -145 48l-62 -73l-27 24l62 74q-65 71 -65 179q0 110 67 181
t170 71q86 0 148 -51l61 72l27 -24l-61 -73q62 -70 62 -176z" />
    <glyph glyph-name="ugrave" unicode="&#xf9;" horiz-adv-x="582" 
d="M137 749h94l70 -188h-16zM162 484v-305q0 -60 26.5 -100t86.5 -40q64 0 106.5 52t42.5 139v153q0 24 -11 43t-22.5 28t-35.5 24v6h135v-377q0 -32 6.5 -50.5t16 -26.5t35.5 -24v-6h-124v122q-20 -64 -64.5 -98t-108.5 -34q-74 0 -114.5 45.5t-40.5 128.5v219q0 24 -11 43
t-22.5 28t-35.5 24v6h135z" />
    <glyph glyph-name="uacute" unicode="&#xfa;" horiz-adv-x="582" 
d="M341 749h94l-148 -188h-16zM162 484v-305q0 -60 26.5 -100t86.5 -40q64 0 106.5 52t42.5 139v153q0 24 -11 43t-22.5 28t-35.5 24v6h135v-377q0 -32 6.5 -50.5t16 -26.5t35.5 -24v-6h-124v122q-20 -64 -64.5 -98t-108.5 -34q-74 0 -114.5 45.5t-40.5 128.5v219
q0 24 -11 43t-22.5 28t-35.5 24v6h135z" />
    <glyph glyph-name="ucircumflex" unicode="&#xfb;" horiz-adv-x="582" 
d="M295 749q23 -46 63.5 -104t77.5 -93h-25q-50 30 -124 106q-74 -76 -124 -106h-25q37 35 77.5 93t63.5 104h16zM162 484v-305q0 -60 26.5 -100t86.5 -40q64 0 106.5 52t42.5 139v153q0 24 -11 43t-22.5 28t-35.5 24v6h135v-377q0 -32 6.5 -50.5t16 -26.5t35.5 -24v-6h-124
v122q-20 -64 -64.5 -98t-108.5 -34q-74 0 -114.5 45.5t-40.5 128.5v219q0 24 -11 43t-22.5 28t-35.5 24v6h135z" />
    <glyph glyph-name="udieresis" unicode="&#xfc;" horiz-adv-x="582" 
d="M202 586q-22 0 -37.5 15.5t-15.5 37.5t15.5 37.5t37.5 15.5t37.5 -15.5t15.5 -37.5t-15.5 -37.5t-37.5 -15.5zM372 586q-22 0 -37.5 15.5t-15.5 37.5t15.5 37.5t37.5 15.5t37.5 -15.5t15.5 -37.5t-15.5 -37.5t-37.5 -15.5zM162 484v-305q0 -60 26.5 -100t86.5 -40
q64 0 106.5 52t42.5 139v153q0 24 -11 43t-22.5 28t-35.5 24v6h135v-377q0 -32 6.5 -50.5t16 -26.5t35.5 -24v-6h-124v122q-20 -64 -64.5 -98t-108.5 -34q-74 0 -114.5 45.5t-40.5 128.5v219q0 24 -11 43t-22.5 28t-35.5 24v6h135z" />
    <glyph glyph-name="yacute" unicode="&#xfd;" horiz-adv-x="504" 
d="M322 749h94l-148 -188h-16zM235 -1l-157 367q-28 67 -82 112v6h164v-6q-38 -23 -38 -39q0 -11 21 -63l124 -299l121 299q14 36 14 54q0 20 -53 48v6h159v-6q-27 -23 -44.5 -46t-35.5 -66l-189 -452q-15 -36 -25 -56t-26.5 -42t-37.5 -31.5t-49 -9.5q-33 0 -54 18.5
t-21 47.5q0 20 14.5 37t36.5 22q-2 -10 -2 -20q0 -21 12 -34t32 -13q25 0 43.5 21.5t38.5 68.5z" />
    <glyph glyph-name="thorn" unicode="&#xfe;" horiz-adv-x="600" 
d="M161 259v-65q0 -78 48 -117.5t108 -39.5q74 0 120.5 57.5t46.5 155.5q0 88 -44.5 142t-119.5 54q-70 0 -114.5 -55.5t-44.5 -131.5zM161 88v-196q0 -32 6.5 -50.5t16 -26.5t35.5 -24v-6h-182v6q26 16 35.5 24t16 26.5t6.5 50.5v756q0 24 -11 43t-22.5 28t-35.5 24v6h135
v-386q18 57 65.5 94t114.5 37q95 0 155.5 -66t60.5 -178q0 -115 -66.5 -187.5t-158.5 -72.5q-65 0 -108 27.5t-63 70.5z" />
    <glyph glyph-name="ydieresis" unicode="&#xff;" horiz-adv-x="504" 
d="M183 586q-22 0 -37.5 15.5t-15.5 37.5t15.5 37.5t37.5 15.5t37.5 -15.5t15.5 -37.5t-15.5 -37.5t-37.5 -15.5zM353 586q-22 0 -37.5 15.5t-15.5 37.5t15.5 37.5t37.5 15.5t37.5 -15.5t15.5 -37.5t-15.5 -37.5t-37.5 -15.5zM235 -1l-157 367q-28 67 -82 112v6h164v-6
q-38 -23 -38 -39q0 -11 21 -63l124 -299l121 299q14 36 14 54q0 20 -53 48v6h159v-6q-27 -23 -44.5 -46t-35.5 -66l-189 -452q-15 -36 -25 -56t-26.5 -42t-37.5 -31.5t-49 -9.5q-33 0 -54 18.5t-21 47.5q0 20 14.5 37t36.5 22q-2 -10 -2 -20q0 -21 12 -34t32 -13
q25 0 43.5 21.5t38.5 68.5z" />
    <glyph glyph-name="Amacron" unicode="&#x100;" horiz-adv-x="753" 
d="M510 782h-268v47h268v-47zM362 589l-139 -308h282zM194 7v-7h-188v7q37 26 54 44.5t37 60.5l277 598h5l277 -598q21 -44 36 -62.5t50 -42.5v-7h-196v7q33 14 45 24t12 26q0 15 -14 44l-66 141h-318l-64 -141q-13 -27 -13 -44q0 -15 14.5 -25t51.5 -25z" />
    <glyph glyph-name="amacron" unicode="&#x101;" horiz-adv-x="530" 
d="M392 592h-268v47h268v-47zM364 254l-79 -15q-85 -16 -124.5 -42.5t-39.5 -78.5q0 -42 25 -63t70 -21q55 0 101.5 45.5t46.5 125.5v49zM532 22v-13q-44 -16 -81 -16q-85 0 -85 108q-17 -48 -66 -79.5t-109 -31.5q-63 0 -103 32.5t-40 91.5q0 38 18.5 65.5t54.5 45.5t73 28
t90 20l80 14v31q0 75 -27.5 106t-90.5 31q-47 0 -74.5 -21.5t-27.5 -58.5q0 -24 14 -46q-14 -11 -40 -11q-22 0 -35 13.5t-13 39.5q0 49 52 86t136 37q176 0 176 -164q0 -55 -1.5 -131t-1.5 -99q0 -40 24.5 -58t76.5 -20z" />
    <glyph glyph-name="Abreve" unicode="&#x102;" horiz-adv-x="753" 
d="M262 926q3 -48 35 -74t79 -26t79 26t35 74h25q0 -71 -39.5 -114.5t-99.5 -43.5t-99.5 43.5t-39.5 114.5h25zM362 589l-139 -308h282zM194 7v-7h-188v7q37 26 54 44.5t37 60.5l277 598h5l277 -598q21 -44 36 -62.5t50 -42.5v-7h-196v7q33 14 45 24t12 26q0 15 -14 44
l-66 141h-318l-64 -141q-13 -27 -13 -44q0 -15 14.5 -25t51.5 -25z" />
    <glyph glyph-name="abreve" unicode="&#x103;" horiz-adv-x="530" 
d="M144 736q3 -53 35 -81.5t79 -28.5t79 28.5t35 81.5h25q0 -77 -39 -122.5t-100 -45.5t-100 45.5t-39 122.5h25zM364 254l-79 -15q-85 -16 -124.5 -42.5t-39.5 -78.5q0 -42 25 -63t70 -21q55 0 101.5 45.5t46.5 125.5v49zM532 22v-13q-44 -16 -81 -16q-85 0 -85 108
q-17 -48 -66 -79.5t-109 -31.5q-63 0 -103 32.5t-40 91.5q0 38 18.5 65.5t54.5 45.5t73 28t90 20l80 14v31q0 75 -27.5 106t-90.5 31q-47 0 -74.5 -21.5t-27.5 -58.5q0 -24 14 -46q-14 -11 -40 -11q-22 0 -35 13.5t-13 39.5q0 49 52 86t136 37q176 0 176 -164
q0 -55 -1.5 -131t-1.5 -99q0 -40 24.5 -58t76.5 -20z" />
    <glyph glyph-name="Aogonek" unicode="&#x104;" horiz-adv-x="753" 
d="M635 -149q-18 -36 -53 -61t-81 -25q-37 0 -63.5 23.5t-26.5 62.5q0 47 35.5 83.5t98.5 70.5q20 11 25.5 14t16 10.5t13.5 13.5t3 14q0 15 -14 44l-66 141h-318l-64 -141q-13 -27 -13 -44q0 -15 14.5 -25t51.5 -25v-7h-188v7q37 26 54 44.5t37 60.5l277 598h5l277 -598
q21 -44 36 -62.5t50 -42.5v-7h-168q-54 -39 -79 -69.5t-25 -64.5q0 -29 15.5 -43.5t39.5 -14.5q51 0 97 55zM362 589l-139 -308h282z" />
    <glyph glyph-name="aogonek" unicode="&#x105;" horiz-adv-x="530" 
d="M417 -235q-37 0 -63.5 23.5t-26.5 62.5q0 43 30 76t85 66q-76 6 -76 108q-17 -48 -66 -79.5t-109 -31.5q-63 0 -103 32.5t-40 91.5q0 38 18.5 65.5t54.5 45.5t73 28t90 20l80 14v31q0 75 -27.5 106t-90.5 31q-47 0 -74.5 -21.5t-27.5 -58.5q0 -24 14 -46q-14 -11 -40 -11
q-22 0 -35 13.5t-13 39.5q0 49 52 86t136 37q176 0 176 -164q0 -55 -1.5 -131t-1.5 -99q0 -40 24.5 -58t76.5 -20v-13q-65 -19 -105.5 -59.5t-40.5 -83.5q0 -29 15.5 -43.5t39.5 -14.5q51 0 97 55l13 -12q-18 -36 -53 -61t-81 -25zM364 254l-79 -15q-85 -16 -124.5 -42.5
t-39.5 -78.5q0 -42 25 -63t70 -21q55 0 101.5 45.5t46.5 125.5v49z" />
    <glyph glyph-name="Cacute" unicode="&#x106;" horiz-adv-x="711" 
d="M435 929h105l-148 -158h-16zM397 667q-121 0 -196 -87t-75 -230t79.5 -226t193.5 -83q86 0 144.5 39.5t98.5 126.5l17 -7q-24 -97 -95 -153.5t-176 -56.5q-151 0 -245.5 101t-94.5 259q0 157 98.5 258.5t250.5 101.5q103 0 174 -55l50 55h7v-202h-7q-44 76 -96.5 117.5
t-127.5 41.5z" />
    <glyph glyph-name="cacute" unicode="&#x107;" horiz-adv-x="502" 
d="M333 749h94l-148 -188h-16zM281 454q-75 0 -119.5 -59.5t-44.5 -149.5q0 -96 45.5 -151.5t121.5 -55.5q56 0 98.5 30.5t62.5 89.5l19 -8q-16 -76 -66 -118t-130 -42q-98 0 -161.5 65.5t-63.5 178.5q0 117 68.5 188.5t169.5 71.5q75 0 123.5 -34.5t48.5 -86.5
q0 -30 -17 -43.5t-42 -13.5q-11 0 -16 2q5 20 5 35q0 44 -25.5 72.5t-76.5 28.5z" />
    <glyph glyph-name="Ccircumflex" unicode="&#x108;" horiz-adv-x="711" 
d="M402 946q40 -82 141 -177h-25q-76 44 -124 93q-48 -49 -124 -93h-25q101 95 141 177h16zM397 667q-121 0 -196 -87t-75 -230t79.5 -226t193.5 -83q86 0 144.5 39.5t98.5 126.5l17 -7q-24 -97 -95 -153.5t-176 -56.5q-151 0 -245.5 101t-94.5 259q0 157 98.5 258.5
t250.5 101.5q103 0 174 -55l50 55h7v-202h-7q-44 76 -96.5 117.5t-127.5 41.5z" />
    <glyph glyph-name="ccircumflex" unicode="&#x109;" horiz-adv-x="502" 
d="M287 749q23 -46 63.5 -104t77.5 -93h-25q-50 30 -124 106q-74 -76 -124 -106h-25q37 35 77.5 93t63.5 104h16zM281 454q-75 0 -119.5 -59.5t-44.5 -149.5q0 -96 45.5 -151.5t121.5 -55.5q56 0 98.5 30.5t62.5 89.5l19 -8q-16 -76 -66 -118t-130 -42q-98 0 -161.5 65.5
t-63.5 178.5q0 117 68.5 188.5t169.5 71.5q75 0 123.5 -34.5t48.5 -86.5q0 -30 -17 -43.5t-42 -13.5q-11 0 -16 2q5 20 5 35q0 44 -25.5 72.5t-76.5 28.5z" />
    <glyph glyph-name="Cdotaccent" unicode="&#x10a;" horiz-adv-x="711" 
d="M394 793q-22 0 -38 15.5t-16 38.5t16 38.5t38 15.5t38 -15.5t16 -38.5t-16 -38.5t-38 -15.5zM397 667q-121 0 -196 -87t-75 -230t79.5 -226t193.5 -83q86 0 144.5 39.5t98.5 126.5l17 -7q-24 -97 -95 -153.5t-176 -56.5q-151 0 -245.5 101t-94.5 259q0 157 98.5 258.5
t250.5 101.5q103 0 174 -55l50 55h7v-202h-7q-44 76 -96.5 117.5t-127.5 41.5z" />
    <glyph glyph-name="cdotaccent" unicode="&#x10b;" horiz-adv-x="502" 
d="M279 603q-23 0 -38.5 15.5t-15.5 38.5t15.5 38.5t38.5 15.5t38.5 -15.5t15.5 -38.5t-15.5 -38.5t-38.5 -15.5zM281 454q-75 0 -119.5 -59.5t-44.5 -149.5q0 -96 45.5 -151.5t121.5 -55.5q56 0 98.5 30.5t62.5 89.5l19 -8q-16 -76 -66 -118t-130 -42q-98 0 -161.5 65.5
t-63.5 178.5q0 117 68.5 188.5t169.5 71.5q75 0 123.5 -34.5t48.5 -86.5q0 -30 -17 -43.5t-42 -13.5q-11 0 -16 2q5 20 5 35q0 44 -25.5 72.5t-76.5 28.5z" />
    <glyph glyph-name="Ccaron" unicode="&#x10c;" horiz-adv-x="711" 
d="M543 941q-101 -95 -141 -177h-16q-40 82 -141 177h25q76 -44 124 -93q48 49 124 93h25zM397 667q-121 0 -196 -87t-75 -230t79.5 -226t193.5 -83q86 0 144.5 39.5t98.5 126.5l17 -7q-24 -97 -95 -153.5t-176 -56.5q-151 0 -245.5 101t-94.5 259q0 157 98.5 258.5
t250.5 101.5q103 0 174 -55l50 55h7v-202h-7q-44 76 -96.5 117.5t-127.5 41.5z" />
    <glyph glyph-name="ccaron" unicode="&#x10d;" horiz-adv-x="502" 
d="M428 749q-37 -35 -77.5 -93t-63.5 -104h-16q-23 46 -63.5 104t-77.5 93h25q50 -30 124 -106q74 76 124 106h25zM281 454q-75 0 -119.5 -59.5t-44.5 -149.5q0 -96 45.5 -151.5t121.5 -55.5q56 0 98.5 30.5t62.5 89.5l19 -8q-16 -76 -66 -118t-130 -42q-98 0 -161.5 65.5
t-63.5 178.5q0 117 68.5 188.5t169.5 71.5q75 0 123.5 -34.5t48.5 -86.5q0 -30 -17 -43.5t-42 -13.5q-11 0 -16 2q5 20 5 35q0 44 -25.5 72.5t-76.5 28.5z" />
    <glyph glyph-name="Dcaron" unicode="&#x10e;" horiz-adv-x="743" 
d="M494 941q-101 -95 -141 -177h-16q-40 82 -141 177h25q76 -44 124 -93q48 49 124 93h25zM48 0v7q39 21 51.5 39t12.5 64v480q0 46 -12.5 64t-51.5 39v7h261q179 0 282.5 -95.5t103.5 -254.5t-103.5 -254.5t-282.5 -95.5h-261zM617 350q0 143 -81.5 227.5t-231.5 84.5h-124
v-624h124q150 0 231.5 84.5t81.5 227.5z" />
    <glyph glyph-name="dcaron" unicode="&#x10f;" horiz-adv-x="601" 
d="M701 749l-85 -205h-15l19 205h81zM439 225v65q0 78 -48 117.5t-108 39.5q-74 0 -120.5 -57.5t-46.5 -155.5q0 -88 44.5 -142t119.5 -54q70 0 114.5 55.5t44.5 131.5zM443 0l-4 121q-18 -57 -65.5 -94t-114.5 -37q-95 0 -155.5 66t-60.5 178q0 115 66.5 187.5t158.5 72.5
q65 0 108 -27.5t63 -70.5v252q0 24 -11 43t-22.5 28t-35.5 24v6h135v-642q0 -32 6.5 -50.5t16 -26.5t35.5 -24v-6h-120z" />
    <glyph glyph-name="Dcroat" unicode="&#x110;" horiz-adv-x="756" 
d="M322 0h-261v7q39 21 51.5 39t12.5 64v230h-74v39h74v211q0 46 -12.5 64t-51.5 39v7h261q179 0 282.5 -95.5t103.5 -254.5t-103.5 -254.5t-282.5 -95.5zM193 38h124q150 0 231.5 84.5t81.5 227.5t-81.5 227.5t-231.5 84.5h-124v-283h186v-39h-186v-302z" />
    <glyph glyph-name="dcroat" unicode="&#x111;" horiz-adv-x="613" 
d="M446 225v65q0 78 -48 117.5t-108 39.5q-74 0 -120.5 -57.5t-46.5 -155.5q0 -88 44.5 -142t119.5 -54q70 0 114.5 55.5t44.5 131.5zM446 121q-18 -57 -65.5 -94t-114.5 -37q-95 0 -155.5 66t-60.5 178q0 115 66.5 187.5t158.5 72.5q65 0 108 -27.5t63 -70.5v170h-141v34
h141v48q0 24 -11 43t-22.5 28t-35.5 24v6h135v-149h73v-34h-73v-459q0 -32 6.5 -50.5t16 -26.5t35.5 -24v-6h-120z" />
    <glyph glyph-name="Emacron" unicode="&#x112;" horiz-adv-x="645" 
d="M459 792h-268v47h268v-47zM470 474v-229h-8q-24 64 -45 80t-82 16h-155v-304h206q81 0 122 25.5t92 99.5h7l-32 -162h-527v7q39 21 51.5 39t12.5 64v480q0 46 -12.5 64t-51.5 39v7h435q30 0 60 6l34 -150h-7q-39 45 -58 63t-55.5 31t-91.5 13h-185v-285h155q61 0 82 16
t45 80h8z" />
    <glyph glyph-name="emacron" unicode="&#x113;" horiz-adv-x="521" 
d="M402 592h-268v47h268v-47zM268 494q98 0 154 -64.5t56 -178.5h-362q0 -101 46 -157.5t128 -56.5q122 0 164 120l20 -7q-16 -77 -67 -118.5t-134 -41.5q-99 0 -164.5 65.5t-65.5 178.5q0 117 65 188.5t160 71.5zM117 287h286q-4 167 -136 167q-63 0 -102.5 -44.5
t-47.5 -122.5z" />
    <glyph glyph-name="Ebreve" unicode="&#x114;" horiz-adv-x="645" 
d="M211 936q3 -48 35 -74t79 -26t79 26t35 74h25q0 -71 -39.5 -114.5t-99.5 -43.5t-99.5 43.5t-39.5 114.5h25zM470 474v-229h-8q-24 64 -45 80t-82 16h-155v-304h206q81 0 122 25.5t92 99.5h7l-32 -162h-527v7q39 21 51.5 39t12.5 64v480q0 46 -12.5 64t-51.5 39v7h435
q30 0 60 6l34 -150h-7q-39 45 -58 63t-55.5 31t-91.5 13h-185v-285h155q61 0 82 16t45 80h8z" />
    <glyph glyph-name="ebreve" unicode="&#x115;" horiz-adv-x="521" 
d="M154 736q3 -53 35 -81.5t79 -28.5t79 28.5t35 81.5h25q0 -77 -39 -122.5t-100 -45.5t-100 45.5t-39 122.5h25zM268 494q98 0 154 -64.5t56 -178.5h-362q0 -101 46 -157.5t128 -56.5q122 0 164 120l20 -7q-16 -77 -67 -118.5t-134 -41.5q-99 0 -164.5 65.5t-65.5 178.5
q0 117 65 188.5t160 71.5zM117 287h286q-4 167 -136 167q-63 0 -102.5 -44.5t-47.5 -122.5z" />
    <glyph glyph-name="Edotaccent" unicode="&#x116;" horiz-adv-x="645" 
d="M325 793q-23 0 -38.5 15.5t-15.5 38.5t15.5 38.5t38.5 15.5t38.5 -15.5t15.5 -38.5t-15.5 -38.5t-38.5 -15.5zM470 474v-229h-8q-24 64 -45 80t-82 16h-155v-304h206q81 0 122 25.5t92 99.5h7l-32 -162h-527v7q39 21 51.5 39t12.5 64v480q0 46 -12.5 64t-51.5 39v7h435
q30 0 60 6l34 -150h-7q-39 45 -58 63t-55.5 31t-91.5 13h-185v-285h155q61 0 82 16t45 80h8z" />
    <glyph glyph-name="edotaccent" unicode="&#x117;" horiz-adv-x="521" 
d="M268 603q-22 0 -38 15.5t-16 38.5t16 38.5t38 15.5t38 -15.5t16 -38.5t-16 -38.5t-38 -15.5zM268 494q98 0 154 -64.5t56 -178.5h-362q0 -101 46 -157.5t128 -56.5q122 0 164 120l20 -7q-16 -77 -67 -118.5t-134 -41.5q-99 0 -164.5 65.5t-65.5 178.5q0 117 65 188.5
t160 71.5zM117 287h286q-4 167 -136 167q-63 0 -102.5 -44.5t-47.5 -122.5z" />
    <glyph glyph-name="Eogonek" unicode="&#x118;" horiz-adv-x="645" 
d="M547 -149q-18 -36 -53 -61t-81 -25q-37 0 -63.5 23.5t-26.5 62.5q0 45 32.5 79t93.5 70h-401v7q39 21 51.5 39t12.5 64v480q0 46 -12.5 64t-51.5 39v7h435q30 0 60 6l34 -150h-7q-39 45 -58 63t-55.5 31t-91.5 13h-185v-285h155q61 0 82 16t45 80h8v-229h-8
q-24 64 -45 80t-82 16h-155v-304h206q81 0 122 25.5t92 99.5h7l-32 -162h-89q-54 -39 -79 -69.5t-25 -64.5q0 -29 15.5 -43.5t39.5 -14.5q51 0 97 55z" />
    <glyph glyph-name="eogonek" unicode="&#x119;" horiz-adv-x="521" 
d="M289 -235q-37 0 -63.5 23.5t-26.5 62.5q0 71 108 141q-22 -2 -34 -2q-99 0 -164.5 65.5t-65.5 178.5q0 117 65 188.5t160 71.5q98 0 154 -64.5t56 -178.5h-362q0 -101 46 -157.5t128 -56.5q122 0 164 120l20 -7q-19 -90 -104 -142q-112 -69 -112 -142q0 -29 15.5 -43.5
t39.5 -14.5q51 0 97 55l13 -12q-18 -36 -53 -61t-81 -25zM117 287h286q-4 167 -136 167q-63 0 -102.5 -44.5t-47.5 -122.5z" />
    <glyph glyph-name="Ecaron" unicode="&#x11a;" horiz-adv-x="645" 
d="M474 941q-101 -95 -141 -177h-16q-40 82 -141 177h25q76 -44 124 -93q48 49 124 93h25zM470 474v-229h-8q-24 64 -45 80t-82 16h-155v-304h206q81 0 122 25.5t92 99.5h7l-32 -162h-527v7q39 21 51.5 39t12.5 64v480q0 46 -12.5 64t-51.5 39v7h435q30 0 60 6l34 -150h-7
q-39 45 -58 63t-55.5 31t-91.5 13h-185v-285h155q61 0 82 16t45 80h8z" />
    <glyph glyph-name="ecaron" unicode="&#x11b;" horiz-adv-x="521" 
d="M417 749q-37 -35 -77.5 -93t-63.5 -104h-16q-23 46 -63.5 104t-77.5 93h25q50 -30 124 -106q74 76 124 106h25zM268 494q98 0 154 -64.5t56 -178.5h-362q0 -101 46 -157.5t128 -56.5q122 0 164 120l20 -7q-16 -77 -67 -118.5t-134 -41.5q-99 0 -164.5 65.5t-65.5 178.5
q0 117 65 188.5t160 71.5zM117 287h286q-4 167 -136 167q-63 0 -102.5 -44.5t-47.5 -122.5z" />
    <glyph glyph-name="Gcircumflex" unicode="&#x11c;" horiz-adv-x="769" 
d="M410 946q40 -82 141 -177h-25q-76 44 -124 93q-48 -49 -124 -93h-25q101 95 141 177h16zM614 133v89q0 47 -13 65t-52 38v7h196v-7q-40 -21 -53 -39t-13 -64v-232h-23l-39 104q-29 -46 -87.5 -75t-132.5 -29q-152 0 -250.5 100t-98.5 257q0 158 101.5 260.5t259.5 102.5
q109 0 184 -55l53 55h6v-200h-6q-46 76 -102 117.5t-135 41.5q-126 0 -204 -89t-78 -233q0 -142 80 -225.5t208 -83.5q130 0 199 95z" />
    <glyph glyph-name="gcircumflex" unicode="&#x11d;" horiz-adv-x="560" 
d="M298 749q23 -46 63.5 -104t77.5 -93h-25q-50 30 -124 106q-74 -76 -124 -106h-25q37 35 77.5 93t63.5 104h16zM371 333q0 59 -30 91.5t-81 32.5t-81 -32.5t-30 -91.5t30 -91.5t81 -32.5t81 32.5t30 91.5zM515 -52q0 -82 -75 -127.5t-185 -45.5q-98 0 -164.5 35.5
t-66.5 103.5q0 42 36 72t99 41q-97 15 -97 83q0 32 22 56.5t57 38.5q-64 46 -64 128q0 70 48.5 115.5t134.5 45.5q84 0 135 -46q51 70 102 70q26 0 41.5 -14.5t15.5 -38.5q0 -20 -14.5 -35t-35.5 -15q0 19 -9.5 31.5t-27.5 12.5q-28 0 -53 -32q29 -41 29 -94
q0 -70 -48.5 -115.5t-134.5 -45.5q-55 0 -99 21q-44 -23 -44 -57q0 -30 20.5 -41.5t66.5 -11.5h123q91 0 139.5 -34t48.5 -101zM328 21h-83q-151 0 -151 -102q0 -53 45.5 -79t115.5 -26q88 0 142 32t54 88q0 87 -123 87z" />
    <glyph glyph-name="Gbreve" unicode="&#x11e;" horiz-adv-x="769" 
d="M288 936q3 -48 35 -74t79 -26t79 26t35 74h25q0 -71 -39.5 -114.5t-99.5 -43.5t-99.5 43.5t-39.5 114.5h25zM614 133v89q0 47 -13 65t-52 38v7h196v-7q-40 -21 -53 -39t-13 -64v-232h-23l-39 104q-29 -46 -87.5 -75t-132.5 -29q-152 0 -250.5 100t-98.5 257
q0 158 101.5 260.5t259.5 102.5q109 0 184 -55l53 55h6v-200h-6q-46 76 -102 117.5t-135 41.5q-126 0 -204 -89t-78 -233q0 -142 80 -225.5t208 -83.5q130 0 199 95z" />
    <glyph glyph-name="gbreve" unicode="&#x11f;" horiz-adv-x="560" 
d="M176 736q3 -53 35 -81.5t79 -28.5t79 28.5t35 81.5h25q0 -77 -39 -122.5t-100 -45.5t-100 45.5t-39 122.5h25zM371 333q0 59 -30 91.5t-81 32.5t-81 -32.5t-30 -91.5t30 -91.5t81 -32.5t81 32.5t30 91.5zM515 -52q0 -82 -75 -127.5t-185 -45.5q-98 0 -164.5 35.5
t-66.5 103.5q0 42 36 72t99 41q-97 15 -97 83q0 32 22 56.5t57 38.5q-64 46 -64 128q0 70 48.5 115.5t134.5 45.5q84 0 135 -46q51 70 102 70q26 0 41.5 -14.5t15.5 -38.5q0 -20 -14.5 -35t-35.5 -15q0 19 -9.5 31.5t-27.5 12.5q-28 0 -53 -32q29 -41 29 -94
q0 -70 -48.5 -115.5t-134.5 -45.5q-55 0 -99 21q-44 -23 -44 -57q0 -30 20.5 -41.5t66.5 -11.5h123q91 0 139.5 -34t48.5 -101zM328 21h-83q-151 0 -151 -102q0 -53 45.5 -79t115.5 -26q88 0 142 32t54 88q0 87 -123 87z" />
    <glyph glyph-name="Gdotaccent" unicode="&#x120;" horiz-adv-x="769" 
d="M402 793q-22 0 -38 15.5t-16 38.5t16 38.5t38 15.5t38 -15.5t16 -38.5t-16 -38.5t-38 -15.5zM614 133v89q0 47 -13 65t-52 38v7h196v-7q-40 -21 -53 -39t-13 -64v-232h-23l-39 104q-29 -46 -87.5 -75t-132.5 -29q-152 0 -250.5 100t-98.5 257q0 158 101.5 260.5
t259.5 102.5q109 0 184 -55l53 55h6v-200h-6q-46 76 -102 117.5t-135 41.5q-126 0 -204 -89t-78 -233q0 -142 80 -225.5t208 -83.5q130 0 199 95z" />
    <glyph glyph-name="gdotaccent" unicode="&#x121;" horiz-adv-x="560" 
d="M290 603q-22 0 -38 15.5t-16 38.5t16 38.5t38 15.5t38 -15.5t16 -38.5t-16 -38.5t-38 -15.5zM371 333q0 59 -30 91.5t-81 32.5t-81 -32.5t-30 -91.5t30 -91.5t81 -32.5t81 32.5t30 91.5zM515 -52q0 -82 -75 -127.5t-185 -45.5q-98 0 -164.5 35.5t-66.5 103.5q0 42 36 72
t99 41q-97 15 -97 83q0 32 22 56.5t57 38.5q-64 46 -64 128q0 70 48.5 115.5t134.5 45.5q84 0 135 -46q51 70 102 70q26 0 41.5 -14.5t15.5 -38.5q0 -20 -14.5 -35t-35.5 -15q0 19 -9.5 31.5t-27.5 12.5q-28 0 -53 -32q29 -41 29 -94q0 -70 -48.5 -115.5t-134.5 -45.5
q-55 0 -99 21q-44 -23 -44 -57q0 -30 20.5 -41.5t66.5 -11.5h123q91 0 139.5 -34t48.5 -101zM328 21h-83q-151 0 -151 -102q0 -53 45.5 -79t115.5 -26q88 0 142 32t54 88q0 87 -123 87z" />
    <glyph glyph-name="uni0122" unicode="&#x122;" horiz-adv-x="769" 
d="M614 133v89q0 47 -13 65t-52 38v7h196v-7q-40 -21 -53 -39t-13 -64v-232h-23l-39 104q-29 -46 -87.5 -75t-132.5 -29q-152 0 -250.5 100t-98.5 257q0 158 101.5 260.5t259.5 102.5q109 0 184 -55l53 55h6v-200h-6q-46 76 -102 117.5t-135 41.5q-126 0 -204 -89t-78 -233
q0 -142 80 -225.5t208 -83.5q130 0 199 95zM426 -145q-14 -9 -31 -9q-20 0 -33 13.5t-13 32.5q0 23 14 37t37 14q30 0 48 -21.5t18 -58.5q0 -43 -34 -74.5t-94 -33.5v25q88 10 88 75z" />
    <glyph glyph-name="uni0123" unicode="&#x123;" horiz-adv-x="560" 
d="M266 656q14 9 31 9q20 0 33 -13.5t13 -32.5q0 -23 -14 -37t-37 -14q-30 0 -48 21.5t-18 58.5q0 43 34 74.5t94 33.5v-25q-88 -10 -88 -75zM371 333q0 59 -30 91.5t-81 32.5t-81 -32.5t-30 -91.5t30 -91.5t81 -32.5t81 32.5t30 91.5zM515 -52q0 -82 -75 -127.5t-185 -45.5
q-98 0 -164.5 35.5t-66.5 103.5q0 42 36 72t99 41q-97 15 -97 83q0 32 22 56.5t57 38.5q-64 46 -64 128q0 70 48.5 115.5t134.5 45.5q84 0 135 -46q51 70 102 70q26 0 41.5 -14.5t15.5 -38.5q0 -20 -14.5 -35t-35.5 -15q0 19 -9.5 31.5t-27.5 12.5q-28 0 -53 -32
q29 -41 29 -94q0 -70 -48.5 -115.5t-134.5 -45.5q-55 0 -99 21q-44 -23 -44 -57q0 -30 20.5 -41.5t66.5 -11.5h123q91 0 139.5 -34t48.5 -101zM328 21h-83q-151 0 -151 -102q0 -53 45.5 -79t115.5 -26q88 0 142 32t54 88q0 87 -123 87z" />
    <glyph glyph-name="Hcircumflex" unicode="&#x124;" horiz-adv-x="807" 
d="M411 946q40 -82 141 -177h-25q-76 44 -124 93q-48 -49 -124 -93h-25q101 95 141 177h16zM48 0v7q39 21 51.5 39t12.5 64v480q0 46 -12.5 64t-51.5 39v7h196v-7q-39 -21 -51.5 -39t-12.5 -64v-211h447v211q0 46 -12.5 64t-51.5 39v7h196v-7q-39 -21 -51.5 -39t-12.5 -64
v-480q0 -46 12.5 -64t51.5 -39v-7h-196v7q39 21 51.5 39t12.5 64v230h-447v-230q0 -46 12.5 -64t51.5 -39v-7h-196z" />
    <glyph glyph-name="hcircumflex" unicode="&#x125;" horiz-adv-x="595" 
d="M302 976q40 -82 141 -177h-25q-76 44 -124 93q-48 -49 -124 -93h-25q101 95 141 177h16zM499 320v-213q0 -32 6.5 -50.5t16 -26.5t35.5 -24v-6h-182v6q26 16 35.5 24t16 26.5t6.5 50.5v198q0 60 -26.5 99t-86.5 39q-64 0 -108.5 -51t-44.5 -138v-147q0 -32 6.5 -50.5
t16 -26.5t35.5 -24v-6h-182v6q26 16 35.5 24t16 26.5t6.5 50.5v541q0 24 -11 43t-22.5 28t-35.5 24v6h135v-385q21 62 67 96t110 34q74 0 114.5 -45.5t40.5 -128.5z" />
    <glyph glyph-name="Hbar" unicode="&#x126;" horiz-adv-x="833" 
d="M640 467h-447v-141h447v141zM61 0v7q39 21 51.5 39t12.5 64v357h-74v39h74v84q0 46 -12.5 64t-51.5 39v7h196v-7q-39 -21 -51.5 -39t-12.5 -64v-84h447v84q0 46 -12.5 64t-51.5 39v7h196v-7q-39 -21 -51.5 -39t-12.5 -64v-84h74v-39h-74v-357q0 -46 12.5 -64t51.5 -39v-7
h-196v7q39 21 51.5 39t12.5 64v177h-447v-177q0 -46 12.5 -64t51.5 -39v-7h-196z" />
    <glyph glyph-name="hbar" unicode="&#x127;" horiz-adv-x="595" 
d="M225 6v-6h-182v6q26 16 35.5 24t16 26.5t6.5 50.5v459h-73v34h73v48q0 24 -11 43t-22.5 28t-35.5 24v6h135v-149h141v-34h-141v-202q21 62 67 96t110 34q74 0 114.5 -45.5t40.5 -128.5v-213q0 -32 6.5 -50.5t16 -26.5t35.5 -24v-6h-182v6q26 16 35.5 24t16 26.5t6.5 50.5
v198q0 60 -26.5 99t-86.5 39q-64 0 -108.5 -51t-44.5 -138v-147q0 -32 6.5 -50.5t16 -26.5t35.5 -24z" />
    <glyph glyph-name="Itilde" unicode="&#x128;" horiz-adv-x="292" 
d="M-7 791h-24q39 128 109 128q28 0 75 -32.5t67 -32.5q29 0 46 17t33 52h24q-39 -128 -109 -128q-28 0 -75 32.5t-67 32.5q-29 0 -46 -17t-33 -52zM112 590q0 46 -12.5 64t-51.5 39v7h196v-7q-39 -21 -51.5 -39t-12.5 -64v-480q0 -46 12.5 -64t51.5 -39v-7h-196v7
q39 21 51.5 39t12.5 64v480z" />
    <glyph glyph-name="itilde" unicode="&#x129;" horiz-adv-x="264" 
d="M6 580h-24q20 66 42 97t55 31q26 0 61.5 -32.5t54.5 -32.5q22 0 36 16.5t31 52.5h24q-20 -66 -42 -97t-55 -31q-26 0 -61.5 32.5t-54.5 32.5q-22 0 -36 -16.5t-31 -52.5zM172 484v-377q0 -32 6.5 -50.5t16 -26.5t35.5 -24v-6h-182v6q26 16 35.5 24t16 26.5t6.5 50.5v276
q0 24 -11 43t-22.5 28t-35.5 24v6h135z" />
    <glyph glyph-name="Imacron" unicode="&#x12a;" horiz-adv-x="292" 
d="M280 792h-268v47h268v-47zM112 590q0 46 -12.5 64t-51.5 39v7h196v-7q-39 -21 -51.5 -39t-12.5 -64v-480q0 -46 12.5 -64t51.5 -39v-7h-196v7q39 21 51.5 39t12.5 64v480z" />
    <glyph glyph-name="imacron" unicode="&#x12b;" horiz-adv-x="264" 
d="M248 592h-228v47h228v-47zM172 484v-377q0 -32 6.5 -50.5t16 -26.5t35.5 -24v-6h-182v6q26 16 35.5 24t16 26.5t6.5 50.5v276q0 24 -11 43t-22.5 28t-35.5 24v6h135z" />
    <glyph glyph-name="Ibreve" unicode="&#x12c;" horiz-adv-x="292" 
d="M32 936q3 -48 35 -74t79 -26t79 26t35 74h25q0 -71 -39.5 -114.5t-99.5 -43.5t-99.5 43.5t-39.5 114.5h25zM112 590q0 46 -12.5 64t-51.5 39v7h196v-7q-39 -21 -51.5 -39t-12.5 -64v-480q0 -46 12.5 -64t51.5 -39v-7h-196v7q39 21 51.5 39t12.5 64v480z" />
    <glyph glyph-name="ibreve" unicode="&#x12d;" horiz-adv-x="264" 
d="M20 736q3 -53 35 -81.5t79 -28.5t79 28.5t35 81.5h25q0 -77 -39 -122.5t-100 -45.5t-100 45.5t-39 122.5h25zM172 484v-377q0 -32 6.5 -50.5t16 -26.5t35.5 -24v-6h-182v6q26 16 35.5 24t16 26.5t6.5 50.5v276q0 24 -11 43t-22.5 28t-35.5 24v6h135z" />
    <glyph glyph-name="Iogonek" unicode="&#x12e;" horiz-adv-x="292" 
d="M258 -149q-18 -36 -53 -61t-81 -25q-37 0 -63.5 23.5t-26.5 62.5q0 45 32.5 79t93.5 70h-112v7q39 21 51.5 39t12.5 64v480q0 46 -12.5 64t-51.5 39v7h196v-7q-39 -21 -51.5 -39t-12.5 -64v-480q0 -46 12.5 -64t51.5 -39v-7h-47q-54 -39 -79 -69.5t-25 -64.5
q0 -29 15.5 -43.5t39.5 -14.5q51 0 97 55z" />
    <glyph glyph-name="iogonek" unicode="&#x12f;" horiz-adv-x="264" 
d="M78 657q0 23 16 38.5t38 15.5t38 -15.5t16 -38.5t-16 -38.5t-38 -15.5t-38 15.5t-16 38.5zM245 -149q-18 -36 -53 -61t-81 -25q-37 0 -63.5 23.5t-26.5 62.5q0 45 32.5 79t93.5 70h-99v6q26 16 35.5 24t16 26.5t6.5 50.5v276q0 24 -11 43t-22.5 28t-35.5 24v6h135v-377
q0 -32 6.5 -50.5t16 -26.5t35.5 -24v-6h-46q-54 -39 -79 -69.5t-25 -64.5q0 -29 15.5 -43.5t39.5 -14.5q51 0 97 55z" />
    <glyph glyph-name="Idotaccent" unicode="&#x130;" horiz-adv-x="292" 
d="M146 793q-22 0 -38 15.5t-16 38.5t16 38.5t38 15.5t38 -15.5t16 -38.5t-16 -38.5t-38 -15.5zM112 590q0 46 -12.5 64t-51.5 39v7h196v-7q-39 -21 -51.5 -39t-12.5 -64v-480q0 -46 12.5 -64t51.5 -39v-7h-196v7q39 21 51.5 39t12.5 64v480z" />
    <glyph glyph-name="dotlessi" unicode="&#x131;" horiz-adv-x="264" 
d="M172 484v-377q0 -32 6.5 -50.5t16 -26.5t35.5 -24v-6h-182v6q26 16 35.5 24t16 26.5t6.5 50.5v276q0 24 -11 43t-22.5 28t-35.5 24v6h135z" />
    <glyph glyph-name="Jcircumflex" unicode="&#x134;" horiz-adv-x="560" 
d="M436 946q40 -82 141 -177h-25q-76 44 -124 93q-48 -49 -124 -93h-25q101 95 141 177h16zM395 223v367q0 46 -12.5 64t-51.5 39v7h196v-7q-39 -21 -51.5 -39t-12.5 -64v-380q0 -99 -59.5 -159.5t-156.5 -60.5q-95 0 -155 52t-60 126q0 41 24.5 67.5t58.5 26.5q30 0 45 -17
q-51 -30 -51 -91q0 -56 38.5 -91t99.5 -35q148 0 148 195z" />
    <glyph glyph-name="jcircumflex" unicode="&#x135;" horiz-adv-x="255" 
d="M139 749q23 -46 63.5 -104t77.5 -93h-25q-50 30 -124 106q-74 -76 -124 -106h-25q37 35 77.5 93t63.5 104h16zM101 -51v434q0 24 -11 43t-22.5 28t-35.5 24v6h135v-519q0 -90 -40 -140t-115 -50q-53 0 -85 24t-32 61q0 25 15 38t40 13q11 0 20 -3q-6 -16 -6 -41
q0 -26 16.5 -43t41.5 -17q79 0 79 142z" />
    <glyph glyph-name="uni0136" unicode="&#x136;" horiz-adv-x="712" 
d="M244 0h-196v7q39 21 51.5 39t12.5 64v480q0 46 -12.5 64t-51.5 39v7h196v-7q-39 -21 -51.5 -39t-12.5 -64v-261l309 284q21 21 21 40q0 17 -45 40v7h204v-7q-84 -39 -154 -105l-206 -189l260 -287q73 -81 129 -105v-7h-199v7q33 17 33 32q0 14 -23 40l-249 277l-80 -70
v-176q0 -46 12.5 -64t51.5 -39v-7zM375 -145q-13 -9 -31 -9q-20 0 -33 13.5t-13 32.5q0 23 14 37t37 14q30 0 48 -21.5t18 -58.5q0 -43 -34 -74.5t-94 -33.5v25q88 10 88 75z" />
    <glyph glyph-name="uni0137" unicode="&#x137;" horiz-adv-x="562" 
d="M225 6v-6h-182v6q26 16 35.5 24t16 26.5t6.5 50.5v541q0 24 -11 43t-22.5 28t-35.5 24v6h135v-462h27q35 0 51 16l119 112q18 17 18 29q0 15 -31 34v6h185v-6q-80 -26 -130 -74l-126 -119l168 -201q17 -21 39.5 -36.5t33.5 -20.5t47 -20v-7h-153q-9 30 -41 70l-133 162
q-16 21 -38 21h-36v-146q0 -32 6.5 -50.5t16 -26.5t35.5 -24zM324 -145q-14 -9 -31 -9q-20 0 -33 13.5t-13 32.5q0 23 14 37t37 14q30 0 48 -21.5t18 -58.5q0 -43 -34 -74.5t-94 -33.5v25q88 10 88 75z" />
    <glyph glyph-name="kgreenlandic" unicode="&#x138;" horiz-adv-x="562" 
d="M225 6v-6h-182v6q26 16 35.5 24t16 26.5t6.5 50.5v276q0 24 -11 43t-22.5 28t-35.5 24v6h135v-197h27q35 0 51 16l119 112q18 17 18 29q0 15 -31 34v6h185v-6q-80 -26 -130 -74l-126 -119l168 -201q17 -21 39.5 -36.5t33.5 -20.5t47 -20v-7h-153q-9 30 -41 70l-133 162
q-16 21 -38 21h-36v-146q0 -32 6.5 -50.5t16 -26.5t35.5 -24z" />
    <glyph glyph-name="Lacute" unicode="&#x139;" horiz-adv-x="613" 
d="M201 929h105l-148 -158h-16zM180 590v-553h181q82 0 123.5 28.5t94.5 114.5h7l-36 -180h-502v7q39 21 51.5 39t12.5 64v480q0 46 -12.5 64t-51.5 39v7h196v-7q-39 -21 -51.5 -39t-12.5 -64z" />
    <glyph glyph-name="lacute" unicode="&#x13a;" horiz-adv-x="263" 
d="M169 959h105l-148 -158h-16zM167 749v-642q0 -32 6.5 -50.5t16 -26.5t35.5 -24v-6h-182v6q26 16 35.5 24t16 26.5t6.5 50.5v541q0 24 -11 43t-22.5 28t-35.5 24v6h135z" />
    <glyph glyph-name="uni013B" unicode="&#x13b;" horiz-adv-x="613" 
d="M180 590v-553h181q82 0 123.5 28.5t94.5 114.5h7l-36 -180h-502v7q39 21 51.5 39t12.5 64v480q0 46 -12.5 64t-51.5 39v7h196v-7q-39 -21 -51.5 -39t-12.5 -64zM341 -145q-13 -9 -31 -9q-20 0 -33 13.5t-13 32.5q0 23 14 37t37 14q30 0 48 -21.5t18 -58.5
q0 -43 -34 -74.5t-94 -33.5v25q88 10 88 75z" />
    <glyph glyph-name="uni013C" unicode="&#x13c;" horiz-adv-x="263" 
d="M167 749v-642q0 -32 6.5 -50.5t16 -26.5t35.5 -24v-6h-182v6q26 16 35.5 24t16 26.5t6.5 50.5v541q0 24 -11 43t-22.5 28t-35.5 24v6h135zM152 -145q-14 -9 -31 -9q-20 0 -33 13.5t-13 32.5q0 23 14 37t37 14q30 0 48 -21.5t18 -58.5q0 -43 -34 -74.5t-94 -33.5v25
q88 10 88 75z" />
    <glyph glyph-name="Lcaron" unicode="&#x13d;" horiz-adv-x="613" 
d="M515 700l-85 -205h-15l19 205h81zM180 590v-553h181q82 0 123.5 28.5t94.5 114.5h7l-36 -180h-502v7q39 21 51.5 39t12.5 64v480q0 46 -12.5 64t-51.5 39v7h196v-7q-39 -21 -51.5 -39t-12.5 -64z" />
    <glyph glyph-name="lcaron" unicode="&#x13e;" horiz-adv-x="263" 
d="M365 749l-85 -205h-15l19 205h81zM167 749v-642q0 -32 6.5 -50.5t16 -26.5t35.5 -24v-6h-182v6q26 16 35.5 24t16 26.5t6.5 50.5v541q0 24 -11 43t-22.5 28t-35.5 24v6h135z" />
    <glyph glyph-name="Ldot" unicode="&#x13f;" horiz-adv-x="613" 
d="M180 590v-553h181q82 0 123.5 28.5t94.5 114.5h7l-36 -180h-502v7q39 21 51.5 39t12.5 64v480q0 46 -12.5 64t-51.5 39v7h196v-7q-39 -21 -51.5 -39t-12.5 -64zM500 337q-22 0 -38 15.5t-16 38.5t16 38.5t38 15.5t38 -15.5t16 -38.5t-16 -38.5t-38 -15.5z" />
    <glyph glyph-name="ldot" unicode="&#x140;" horiz-adv-x="372" 
d="M167 749v-642q0 -32 6.5 -50.5t16 -26.5t35.5 -24v-6h-182v6q26 16 35.5 24t16 26.5t6.5 50.5v541q0 24 -11 43t-22.5 28t-35.5 24v6h135zM318 320q-22 0 -38 16t-16 38t16 38t38 16t38 -16t16 -38t-16 -38t-38 -16z" />
    <glyph glyph-name="Lslash" unicode="&#x141;" horiz-adv-x="613" 
d="M48 0v7q39 21 51.5 39t12.5 64v164l-74 -33v41l74 33v275q0 46 -12.5 64t-51.5 39v7h196v-7q-39 -21 -51.5 -39t-12.5 -64v-244l199 87v-41l-199 -87v-268h181q82 0 123.5 28.5t94.5 114.5h7l-36 -180h-502z" />
    <glyph glyph-name="lslash" unicode="&#x142;" horiz-adv-x="311" 
d="M249 0h-182v6q26 16 35.5 24t16 26.5t6.5 50.5v280l-101 -46v39l101 46v222q0 24 -11 43t-22.5 28t-35.5 24v6h135v-295l96 44v-39l-96 -44v-308q0 -32 6.5 -50.5t16 -26.5t35.5 -24v-6z" />
    <glyph glyph-name="Nacute" unicode="&#x143;" horiz-adv-x="778" 
d="M432 929h105l-148 -158h-16zM625 152v438q0 24 -4 39.5t-16.5 28t-21 17.5t-32.5 18v7h194v-7q-24 -13 -32.5 -18t-21 -17.5t-16.5 -28t-4 -39.5v-599h-4l-509 640v-521q0 -24 4 -39.5t16.5 -28t21 -17.5t32.5 -18v-7h-194v7q24 13 32.5 18t21 17.5t16.5 28t4 39.5v480
q0 46 -12.5 64t-51.5 39v7h143z" />
    <glyph glyph-name="nacute" unicode="&#x144;" horiz-adv-x="600" 
d="M359 749h94l-148 -188h-16zM504 320v-213q0 -32 6.5 -50.5t16 -26.5t35.5 -24v-6h-182v6q26 16 35.5 24t16 26.5t6.5 50.5v198q0 60 -26.5 99t-86.5 39q-64 0 -108.5 -51t-44.5 -138v-147q0 -32 6.5 -50.5t16 -26.5t35.5 -24v-6h-182v6q26 16 35.5 24t16 26.5t6.5 50.5
v276q0 24 -11 43t-22.5 28t-35.5 24v6h131l4 -120q21 62 67 96t110 34q74 0 114.5 -45.5t40.5 -128.5z" />
    <glyph glyph-name="uni0145" unicode="&#x145;" horiz-adv-x="778" 
d="M625 152v438q0 24 -4 39.5t-16.5 28t-21 17.5t-32.5 18v7h194v-7q-24 -13 -32.5 -18t-21 -17.5t-16.5 -28t-4 -39.5v-599h-4l-509 640v-521q0 -24 4 -39.5t16.5 -28t21 -17.5t32.5 -18v-7h-194v7q24 13 32.5 18t21 17.5t16.5 28t4 39.5v480q0 46 -12.5 64t-51.5 39v7h143
zM415 -145q-14 -9 -31 -9q-20 0 -33 13.5t-13 32.5q0 23 14 37t37 14q30 0 48 -21.5t18 -58.5q0 -43 -34 -74.5t-94 -33.5v25q88 10 88 75z" />
    <glyph glyph-name="uni0146" unicode="&#x146;" horiz-adv-x="600" 
d="M504 320v-213q0 -32 6.5 -50.5t16 -26.5t35.5 -24v-6h-182v6q26 16 35.5 24t16 26.5t6.5 50.5v198q0 60 -26.5 99t-86.5 39q-64 0 -108.5 -51t-44.5 -138v-147q0 -32 6.5 -50.5t16 -26.5t35.5 -24v-6h-182v6q26 16 35.5 24t16 26.5t6.5 50.5v276q0 24 -11 43t-22.5 28
t-35.5 24v6h131l4 -120q21 62 67 96t110 34q74 0 114.5 -45.5t40.5 -128.5zM329 -145q-13 -9 -31 -9q-20 0 -33 13.5t-13 32.5q0 23 14 37t37 14q30 0 48 -21.5t18 -58.5q0 -43 -34 -74.5t-94 -33.5v25q88 10 88 75z" />
    <glyph glyph-name="Ncaron" unicode="&#x147;" horiz-adv-x="778" 
d="M540 941q-101 -95 -141 -177h-16q-40 82 -141 177h25q76 -44 124 -93q48 49 124 93h25zM625 152v438q0 24 -4 39.5t-16.5 28t-21 17.5t-32.5 18v7h194v-7q-24 -13 -32.5 -18t-21 -17.5t-16.5 -28t-4 -39.5v-599h-4l-509 640v-521q0 -24 4 -39.5t16.5 -28t21 -17.5
t32.5 -18v-7h-194v7q24 13 32.5 18t21 17.5t16.5 28t4 39.5v480q0 46 -12.5 64t-51.5 39v7h143z" />
    <glyph glyph-name="ncaron" unicode="&#x148;" horiz-adv-x="600" 
d="M454 749q-37 -35 -77.5 -93t-63.5 -104h-16q-23 46 -63.5 104t-77.5 93h25q50 -30 124 -106q74 76 124 106h25zM504 320v-213q0 -32 6.5 -50.5t16 -26.5t35.5 -24v-6h-182v6q26 16 35.5 24t16 26.5t6.5 50.5v198q0 60 -26.5 99t-86.5 39q-64 0 -108.5 -51t-44.5 -138
v-147q0 -32 6.5 -50.5t16 -26.5t35.5 -24v-6h-182v6q26 16 35.5 24t16 26.5t6.5 50.5v276q0 24 -11 43t-22.5 28t-35.5 24v6h131l4 -120q21 62 67 96t110 34q74 0 114.5 -45.5t40.5 -128.5z" />
    <glyph glyph-name="Eng" unicode="&#x14a;" horiz-adv-x="778" 
d="M625 -51v77l-467 605v-521q0 -24 4 -39.5t16.5 -28t21 -17.5t32.5 -18v-7h-194v7q24 13 32.5 18t21 17.5t16.5 28t4 39.5v480q0 46 -12.5 64t-51.5 39v7h143l434 -558v448q0 24 -4 39.5t-16.5 28t-21 17.5t-32.5 18v7h194v-7q-24 -13 -32.5 -18t-21 -17.5t-16.5 -28
t-4 -39.5v-625q0 -90 -40 -140t-115 -50q-53 0 -90.5 26t-37.5 63q0 25 15 38t40 13q11 0 20 -3q-7 -18 -7 -41q0 -27 18.5 -45.5t51.5 -18.5q44 0 71.5 39.5t27.5 102.5z" />
    <glyph glyph-name="eng" unicode="&#x14b;" horiz-adv-x="592" 
d="M349 -215q-53 0 -85 24t-32 61q0 25 15 38t40 13q11 0 20 -3q-6 -16 -6 -41q0 -26 16.5 -43t41.5 -17q79 0 79 142v346q0 60 -26.5 99t-86.5 39q-64 0 -108.5 -51t-44.5 -138v-147q0 -32 6.5 -50.5t16 -26.5t35.5 -24v-6h-182v6q26 16 35.5 24t16 26.5t6.5 50.5v276
q0 24 -11 43t-22.5 28t-35.5 24v6h131l4 -120q21 62 67 96t110 34q74 0 114.5 -45.5t40.5 -128.5v-345q0 -90 -40 -140t-115 -50z" />
    <glyph glyph-name="Omacron" unicode="&#x14c;" horiz-adv-x="778" 
d="M523 792h-268v47h268v-47zM48 350q0 158 96 259t245 101t245 -101t96 -259t-96 -259t-245 -101t-245 101t-96 259zM652 350q0 141 -72 228.5t-191 87.5t-191 -87.5t-72 -228.5t72 -228.5t191 -87.5t191 87.5t72 228.5z" />
    <glyph glyph-name="omacron" unicode="&#x14d;" horiz-adv-x="560" 
d="M414 592h-268v47h268v-47zM517 242q0 -110 -67 -181t-170 -71t-170 71t-67 181t67 181t170 71t170 -71t67 -181zM442 242q0 96 -42.5 153.5t-119.5 57.5t-119.5 -57.5t-42.5 -153.5q0 -97 42.5 -154.5t119.5 -57.5t119.5 57.5t42.5 154.5z" />
    <glyph glyph-name="Obreve" unicode="&#x14e;" horiz-adv-x="778" 
d="M275 936q3 -48 35 -74t79 -26t79 26t35 74h25q0 -71 -39.5 -114.5t-99.5 -43.5t-99.5 43.5t-39.5 114.5h25zM48 350q0 158 96 259t245 101t245 -101t96 -259t-96 -259t-245 -101t-245 101t-96 259zM652 350q0 141 -72 228.5t-191 87.5t-191 -87.5t-72 -228.5t72 -228.5
t191 -87.5t191 87.5t72 228.5z" />
    <glyph glyph-name="obreve" unicode="&#x14f;" horiz-adv-x="560" 
d="M166 736q3 -53 35 -81.5t79 -28.5t79 28.5t35 81.5h25q0 -77 -39 -122.5t-100 -45.5t-100 45.5t-39 122.5h25zM517 242q0 -110 -67 -181t-170 -71t-170 71t-67 181t67 181t170 71t170 -71t67 -181zM442 242q0 96 -42.5 153.5t-119.5 57.5t-119.5 -57.5t-42.5 -153.5
q0 -97 42.5 -154.5t119.5 -57.5t119.5 57.5t42.5 154.5z" />
    <glyph glyph-name="Ohungarumlaut" unicode="&#x150;" horiz-adv-x="778" 
d="M357 929h99l-148 -158h-16zM507 929h99l-148 -158h-16zM48 350q0 158 96 259t245 101t245 -101t96 -259t-96 -259t-245 -101t-245 101t-96 259zM652 350q0 141 -72 228.5t-191 87.5t-191 -87.5t-72 -228.5t72 -228.5t191 -87.5t191 87.5t72 228.5z" />
    <glyph glyph-name="ohungarumlaut" unicode="&#x151;" horiz-adv-x="560" 
d="M251 749h96l-148 -188h-16zM401 749h96l-148 -188h-16zM517 242q0 -110 -67 -181t-170 -71t-170 71t-67 181t67 181t170 71t170 -71t67 -181zM442 242q0 96 -42.5 153.5t-119.5 57.5t-119.5 -57.5t-42.5 -153.5q0 -97 42.5 -154.5t119.5 -57.5t119.5 57.5t42.5 154.5z
" />
    <glyph glyph-name="OE" unicode="&#x152;" horiz-adv-x="1072" 
d="M126 350q0 -143 81.5 -227.5t231.5 -84.5h100v624h-100q-150 0 -231.5 -84.5t-81.5 -227.5zM434 0q-179 0 -282.5 95.5t-103.5 254.5t103.5 254.5t282.5 95.5h476q30 0 60 6l34 -150h-7q-39 45 -58 63t-55.5 31t-91.5 13h-185v-285h155q61 0 82 16t45 80h8v-229h-8
q-24 64 -45 80t-82 16h-155v-304h206q81 0 122 25.5t92 99.5h7l-32 -162h-568z" />
    <glyph glyph-name="oe" unicode="&#x153;" horiz-adv-x="911" 
d="M869 150q-16 -77 -67 -118.5t-134 -41.5q-61 0 -111.5 29.5t-81.5 82.5q-32 -52 -82.5 -82t-112.5 -30q-103 0 -170 71t-67 181t67 181t170 71q63 0 114.5 -31t82.5 -85q31 54 80 85t106 31q98 0 154 -64.5t56 -178.5h-362q0 -101 46 -157.5t128 -56.5q122 0 164 120z
M512 287h286q-4 167 -136 167q-63 0 -102.5 -44.5t-47.5 -122.5zM442 242q0 96 -42.5 153.5t-119.5 57.5t-119.5 -57.5t-42.5 -153.5q0 -97 42.5 -154.5t119.5 -57.5t119.5 57.5t42.5 154.5z" />
    <glyph glyph-name="Racute" unicode="&#x154;" horiz-adv-x="705" 
d="M376 929h105l-148 -158h-16zM180 663v-303h164q186 0 186 156q0 147 -186 147h-164zM180 321v-211q0 -46 12.5 -64t51.5 -39v-7h-196v7q39 21 51.5 39t12.5 64v480q0 46 -12.5 64t-51.5 39v7h298q117 0 188 -44t71 -140q0 -89 -59 -132.5t-143 -43.5v-3q64 -9 98 -40.5
t53 -87.5l28 -84q17 -50 44 -74.5t76 -43.5v-7h-141q-24 51 -43 108l-31 90q-24 67 -55.5 95t-104.5 28h-147z" />
    <glyph glyph-name="racute" unicode="&#x155;" horiz-adv-x="431" 
d="M277 749h94l-148 -188h-16zM172 224v-127q0 -41 18.5 -57t78.5 -32v-8h-221v6q26 16 35.5 24t16 26.5t6.5 50.5v276q0 24 -11 43t-22.5 28t-35.5 24v6h131l4 -136q52 146 160 146q36 0 57 -17.5t21 -47.5q0 -26 -17.5 -40.5t-40.5 -12.5q5 59 -50 59q-54 0 -92 -63
t-38 -148z" />
    <glyph glyph-name="uni0156" unicode="&#x156;" horiz-adv-x="705" 
d="M180 663v-303h164q186 0 186 156q0 147 -186 147h-164zM180 321v-211q0 -46 12.5 -64t51.5 -39v-7h-196v7q39 21 51.5 39t12.5 64v480q0 46 -12.5 64t-51.5 39v7h298q117 0 188 -44t71 -140q0 -89 -59 -132.5t-143 -43.5v-3q64 -9 98 -40.5t53 -87.5l28 -84
q17 -50 44 -74.5t76 -43.5v-7h-141q-24 51 -43 108l-31 90q-24 67 -55.5 95t-104.5 28h-147zM359 -145q-13 -9 -31 -9q-20 0 -33 13.5t-13 32.5q0 23 14 37t37 14q30 0 48 -21.5t18 -58.5q0 -43 -34 -74.5t-94 -33.5v25q88 10 88 75z" />
    <glyph glyph-name="uni0157" unicode="&#x157;" horiz-adv-x="431" 
d="M172 224v-127q0 -41 18.5 -57t78.5 -32v-8h-221v6q26 16 35.5 24t16 26.5t6.5 50.5v276q0 24 -11 43t-22.5 28t-35.5 24v6h131l4 -136q52 146 160 146q36 0 57 -17.5t21 -47.5q0 -26 -17.5 -40.5t-40.5 -12.5q5 59 -50 59q-54 0 -92 -63t-38 -148zM167 -145
q-14 -9 -31 -9q-20 0 -33 13.5t-13 32.5q0 23 14 37t37 14q30 0 48 -21.5t18 -58.5q0 -43 -34 -74.5t-94 -33.5v25q88 10 88 75z" />
    <glyph glyph-name="Rcaron" unicode="&#x158;" horiz-adv-x="705" 
d="M484 941q-101 -95 -141 -177h-16q-40 82 -141 177h25q76 -44 124 -93q48 49 124 93h25zM180 663v-303h164q186 0 186 156q0 147 -186 147h-164zM180 321v-211q0 -46 12.5 -64t51.5 -39v-7h-196v7q39 21 51.5 39t12.5 64v480q0 46 -12.5 64t-51.5 39v7h298q117 0 188 -44
t71 -140q0 -89 -59 -132.5t-143 -43.5v-3q64 -9 98 -40.5t53 -87.5l28 -84q17 -50 44 -74.5t76 -43.5v-7h-141q-24 51 -43 108l-31 90q-24 67 -55.5 95t-104.5 28h-147z" />
    <glyph glyph-name="rcaron" unicode="&#x159;" horiz-adv-x="431" 
d="M372 749q-37 -35 -77.5 -93t-63.5 -104h-16q-23 46 -63.5 104t-77.5 93h25q50 -30 124 -106q74 76 124 106h25zM172 224v-127q0 -41 18.5 -57t78.5 -32v-8h-221v6q26 16 35.5 24t16 26.5t6.5 50.5v276q0 24 -11 43t-22.5 28t-35.5 24v6h131l4 -136q52 146 160 146
q36 0 57 -17.5t21 -47.5q0 -26 -17.5 -40.5t-40.5 -12.5q5 59 -50 59q-54 0 -92 -63t-38 -148z" />
    <glyph glyph-name="Sacute" unicode="&#x15a;" horiz-adv-x="590" 
d="M331 929h105l-148 -158h-16zM281 670q-64 0 -106.5 -34t-42.5 -92q0 -57 36 -89.5t107 -50.5l83 -21q87 -22 129.5 -66.5t42.5 -128.5q0 -95 -68.5 -146.5t-166.5 -51.5q-54 0 -103 16.5t-78 38.5l-45 -55h-7l-12 215h12q80 -174 233 -174q78 0 123.5 40t45.5 111
q0 104 -122 135l-91 23q-91 23 -137.5 67t-46.5 121q0 82 59.5 132t154.5 50q76 0 163 -45l45 45h6v-195h-9q-46 82 -89 118.5t-116 36.5z" />
    <glyph glyph-name="sacute" unicode="&#x15b;" horiz-adv-x="482" 
d="M294 749h94l-148 -188h-16zM226 455q-48 0 -74 -22.5t-26 -58.5q0 -38 28 -59t95 -33q97 -17 137.5 -51t40.5 -93q0 -67 -50 -107.5t-127 -40.5q-78 0 -146 43l-34 -43h-7l-11 183h13q71 -143 185 -143q51 0 82.5 24t31.5 70q0 42 -32.5 62.5t-104.5 33.5q-87 16 -124 48
t-37 90q0 60 45.5 98t114.5 38q71 0 134 -42l36 42h7v-164h-11q-76 125 -166 125z" />
    <glyph glyph-name="Scircumflex" unicode="&#x15c;" horiz-adv-x="590" 
d="M298 946q40 -82 141 -177h-25q-76 44 -124 93q-48 -49 -124 -93h-25q101 95 141 177h16zM281 670q-64 0 -106.5 -34t-42.5 -92q0 -57 36 -89.5t107 -50.5l83 -21q87 -22 129.5 -66.5t42.5 -128.5q0 -95 -68.5 -146.5t-166.5 -51.5q-54 0 -103 16.5t-78 38.5l-45 -55h-7
l-12 215h12q80 -174 233 -174q78 0 123.5 40t45.5 111q0 104 -122 135l-91 23q-91 23 -137.5 67t-46.5 121q0 82 59.5 132t154.5 50q76 0 163 -45l45 45h6v-195h-9q-46 82 -89 118.5t-116 36.5z" />
    <glyph glyph-name="scircumflex" unicode="&#x15d;" horiz-adv-x="482" 
d="M248 749q23 -46 63.5 -104t77.5 -93h-25q-50 30 -124 106q-74 -76 -124 -106h-25q37 35 77.5 93t63.5 104h16zM226 455q-48 0 -74 -22.5t-26 -58.5q0 -38 28 -59t95 -33q97 -17 137.5 -51t40.5 -93q0 -67 -50 -107.5t-127 -40.5q-78 0 -146 43l-34 -43h-7l-11 183h13
q71 -143 185 -143q51 0 82.5 24t31.5 70q0 42 -32.5 62.5t-104.5 33.5q-87 16 -124 48t-37 90q0 60 45.5 98t114.5 38q71 0 134 -42l36 42h7v-164h-11q-76 125 -166 125z" />
    <glyph glyph-name="uni015E" unicode="&#x15e;" horiz-adv-x="590" 
d="M263 -221q-34 0 -62 13t-42 36l16 20q32 -35 78 -35q24 0 40 12t16 35q0 56 -99 59l33 75q-78 12 -129 51l-45 -55h-7l-12 215h12q80 -174 233 -174q78 0 123.5 40t45.5 111q0 104 -122 135l-91 23q-91 23 -137.5 67t-46.5 121q0 82 59.5 132t154.5 50q76 0 163 -45
l45 45h6v-195h-9q-46 82 -89 118.5t-116 36.5q-64 0 -106.5 -34t-42.5 -92q0 -57 36 -89.5t107 -50.5l83 -21q87 -22 129.5 -66.5t42.5 -128.5q0 -95 -68.5 -146.5t-166.5 -51.5q-12 0 -18 1l-21 -49q52 -2 85 -24t33 -58q0 -38 -31.5 -59.5t-79.5 -21.5z" />
    <glyph glyph-name="uni015F" unicode="&#x15f;" horiz-adv-x="482" 
d="M213 -221q-34 0 -62 13t-42 36l16 20q32 -35 78 -35q24 0 40 12t16 35q0 56 -99 59l34 77q-48 10 -90 37l-34 -43h-7l-11 183h13q71 -143 185 -143q51 0 82.5 24t31.5 70q0 42 -32.5 62.5t-104.5 33.5q-87 16 -124 48t-37 90q0 60 45.5 98t114.5 38q71 0 134 -42l36 42h7
v-164h-11q-76 125 -166 125q-48 0 -74 -22.5t-26 -58.5q0 -38 28 -59t95 -33q97 -17 137.5 -51t40.5 -93q0 -67 -50 -107.5t-127 -40.5q-15 0 -23 1l-21 -49q52 -2 85 -24t33 -58q0 -38 -31.5 -59.5t-79.5 -21.5z" />
    <glyph glyph-name="Scaron" unicode="&#x160;" horiz-adv-x="590" 
d="M439 941q-101 -95 -141 -177h-16q-40 82 -141 177h25q76 -44 124 -93q48 49 124 93h25zM281 670q-64 0 -106.5 -34t-42.5 -92q0 -57 36 -89.5t107 -50.5l83 -21q87 -22 129.5 -66.5t42.5 -128.5q0 -95 -68.5 -146.5t-166.5 -51.5q-54 0 -103 16.5t-78 38.5l-45 -55h-7
l-12 215h12q80 -174 233 -174q78 0 123.5 40t45.5 111q0 104 -122 135l-91 23q-91 23 -137.5 67t-46.5 121q0 82 59.5 132t154.5 50q76 0 163 -45l45 45h6v-195h-9q-46 82 -89 118.5t-116 36.5z" />
    <glyph glyph-name="scaron" unicode="&#x161;" horiz-adv-x="482" 
d="M389 749q-37 -35 -77.5 -93t-63.5 -104h-16q-23 46 -63.5 104t-77.5 93h25q50 -30 124 -106q74 76 124 106h25zM226 455q-48 0 -74 -22.5t-26 -58.5q0 -38 28 -59t95 -33q97 -17 137.5 -51t40.5 -93q0 -67 -50 -107.5t-127 -40.5q-78 0 -146 43l-34 -43h-7l-11 183h13
q71 -143 185 -143q51 0 82.5 24t31.5 70q0 42 -32.5 62.5t-104.5 33.5q-87 16 -124 48t-37 90q0 60 45.5 98t114.5 38q71 0 134 -42l36 42h7v-164h-11q-76 125 -166 125z" />
    <glyph glyph-name="uni0162" unicode="&#x162;" horiz-adv-x="716" 
d="M354 -221q-34 0 -62 13t-42 36l16 20q32 -35 78 -35q24 0 40 12t16 35q0 56 -99 59l35 81h-86v7q46 20 60 38t14 65v556h-107q-27 0 -49 -7t-36 -15t-33.5 -31t-28 -35.5t-32.5 -48.5h-8l34 177q30 -6 60 -6h468q30 0 60 6l34 -177h-8q-24 36 -32.5 48.5t-28 35.5
t-33.5 31t-36 15t-49 7h-107v-556q0 -47 14 -65t60 -38v-7h-94l-25 -58q52 -2 85 -24t33 -58q0 -38 -31.5 -59.5t-79.5 -21.5z" />
    <glyph glyph-name="uni0163" unicode="&#x163;" horiz-adv-x="405" 
d="M234 -221q-34 0 -62 13t-42 36l16 20q32 -35 78 -35q24 0 40 12t16 35q0 56 -99 59l32 73q-49 7 -78 41t-29 87v326h-80v24q59 12 83.5 54t36.5 124h27v-164h176l-5 -38h-171v-318q0 -42 21 -65t60 -23q82 0 101 109l19 -3q-5 -68 -38 -110t-88 -46l-21 -48q52 -2 85 -24
t33 -58q0 -38 -31.5 -59.5t-79.5 -21.5z" />
    <glyph glyph-name="Tcaron" unicode="&#x164;" horiz-adv-x="716" 
d="M507 941q-101 -95 -141 -177h-16q-40 82 -141 177h25q76 -44 124 -93q48 49 124 93h25zM124 700h468q30 0 60 6l34 -177h-8q-24 36 -32.5 48.5t-28 35.5t-33.5 31t-36 15t-49 7h-107v-556q0 -47 14 -65t60 -38v-7h-216v7q46 20 60 38t14 65v556h-107q-27 0 -49 -7
t-36 -15t-33.5 -31t-28 -35.5t-32.5 -48.5h-8l34 177q30 -6 60 -6z" />
    <glyph glyph-name="tcaron" unicode="&#x165;" horiz-adv-x="405" 
d="M347 779l-85 -205h-15l19 205h81zM26 446v24q59 12 83.5 54t36.5 124h27v-164h176l-5 -38h-171v-318q0 -42 21 -65t60 -23q82 0 101 109l19 -3q-5 -71 -41 -113.5t-95 -42.5q-60 0 -96 35t-36 95v326h-80z" />
    <glyph glyph-name="Tbar" unicode="&#x166;" horiz-adv-x="716" 
d="M250 0v7q46 20 60 38t14 65v237h-140v39h140v280h-107q-27 0 -49 -7t-36 -15t-33.5 -31t-28 -35.5t-32.5 -48.5h-8l34 177q30 -6 60 -6h468q30 0 60 6l34 -177h-8q-24 36 -32.5 48.5t-28 35.5t-33.5 31t-36 15t-49 7h-107v-280h140v-39h-140v-237q0 -47 14 -65t60 -38v-7
h-216z" />
    <glyph glyph-name="tbar" unicode="&#x167;" horiz-adv-x="426" 
d="M394 146q-5 -71 -41 -113.5t-95 -42.5q-60 0 -96 35t-36 95v158h-91v38h91v130h-80v24q59 12 83.5 54t36.5 124h27v-164h176l-5 -38h-171v-130h160v-38h-160v-150q0 -42 21 -65t60 -23q82 0 101 109z" />
    <glyph glyph-name="Utilde" unicode="&#x168;" horiz-adv-x="752" 
d="M223 791h-24q39 128 109 128q28 0 75 -32.5t67 -32.5q29 0 46 17t33 52h24q-39 -128 -109 -128q-28 0 -75 32.5t-67 32.5q-29 0 -46 -17t-33 -52zM607 590q0 24 -4 39.5t-16.5 28t-21 17.5t-32.5 18v7h194v-7q-30 -16 -41.5 -24t-21 -27.5t-9.5 -51.5v-323
q0 -131 -76.5 -204t-196.5 -73q-146 0 -215.5 74t-69.5 203v323q0 46 -12.5 64t-51.5 39v7h196v-7q-39 -21 -51.5 -39t-12.5 -64v-310q0 -120 56 -182t157 -62q107 0 168 60t61 183v311z" />
    <glyph glyph-name="utilde" unicode="&#x169;" horiz-adv-x="582" 
d="M139 580h-24q39 128 107 128q26 0 71.5 -32.5t64.5 -32.5q29 0 44.5 16.5t32.5 52.5h24q-39 -128 -107 -128q-26 0 -71.5 32.5t-64.5 32.5q-29 0 -44.5 -16.5t-32.5 -52.5zM162 484v-305q0 -60 26.5 -100t86.5 -40q64 0 106.5 52t42.5 139v153q0 24 -11 43t-22.5 28
t-35.5 24v6h135v-377q0 -32 6.5 -50.5t16 -26.5t35.5 -24v-6h-124v122q-20 -64 -64.5 -98t-108.5 -34q-74 0 -114.5 45.5t-40.5 128.5v219q0 24 -11 43t-22.5 28t-35.5 24v6h135z" />
    <glyph glyph-name="Umacron" unicode="&#x16a;" horiz-adv-x="752" 
d="M510 792h-268v47h268v-47zM607 590q0 24 -4 39.5t-16.5 28t-21 17.5t-32.5 18v7h194v-7q-30 -16 -41.5 -24t-21 -27.5t-9.5 -51.5v-323q0 -131 -76.5 -204t-196.5 -73q-146 0 -215.5 74t-69.5 203v323q0 46 -12.5 64t-51.5 39v7h196v-7q-39 -21 -51.5 -39t-12.5 -64v-310
q0 -120 56 -182t157 -62q107 0 168 60t61 183v311z" />
    <glyph glyph-name="umacron" unicode="&#x16b;" horiz-adv-x="582" 
d="M421 592h-268v47h268v-47zM162 484v-305q0 -60 26.5 -100t86.5 -40q64 0 106.5 52t42.5 139v153q0 24 -11 43t-22.5 28t-35.5 24v6h135v-377q0 -32 6.5 -50.5t16 -26.5t35.5 -24v-6h-124v122q-20 -64 -64.5 -98t-108.5 -34q-74 0 -114.5 45.5t-40.5 128.5v219
q0 24 -11 43t-22.5 28t-35.5 24v6h135z" />
    <glyph glyph-name="Ubreve" unicode="&#x16c;" horiz-adv-x="752" 
d="M262 936q3 -48 35 -74t79 -26t79 26t35 74h25q0 -71 -39.5 -114.5t-99.5 -43.5t-99.5 43.5t-39.5 114.5h25zM607 590q0 24 -4 39.5t-16.5 28t-21 17.5t-32.5 18v7h194v-7q-30 -16 -41.5 -24t-21 -27.5t-9.5 -51.5v-323q0 -131 -76.5 -204t-196.5 -73q-146 0 -215.5 74
t-69.5 203v323q0 46 -12.5 64t-51.5 39v7h196v-7q-39 -21 -51.5 -39t-12.5 -64v-310q0 -120 56 -182t157 -62q107 0 168 60t61 183v311z" />
    <glyph glyph-name="ubreve" unicode="&#x16d;" horiz-adv-x="582" 
d="M173 736q3 -53 35 -81.5t79 -28.5t79 28.5t35 81.5h25q0 -77 -39 -122.5t-100 -45.5t-100 45.5t-39 122.5h25zM162 484v-305q0 -60 26.5 -100t86.5 -40q64 0 106.5 52t42.5 139v153q0 24 -11 43t-22.5 28t-35.5 24v6h135v-377q0 -32 6.5 -50.5t16 -26.5t35.5 -24v-6h-124
v122q-20 -64 -64.5 -98t-108.5 -34q-74 0 -114.5 45.5t-40.5 128.5v219q0 24 -11 43t-22.5 28t-35.5 24v6h135z" />
    <glyph glyph-name="Uring" unicode="&#x16e;" horiz-adv-x="752" 
d="M271 847q0 42 31 72.5t74 30.5t74 -30.5t31 -72.5q0 -43 -31 -73.5t-74 -30.5t-74 30.5t-31 73.5zM440 847q0 29 -17.5 47t-46.5 18t-46.5 -18t-17.5 -47t17.5 -46.5t46.5 -17.5t46.5 17.5t17.5 46.5zM607 590q0 24 -4 39.5t-16.5 28t-21 17.5t-32.5 18v7h194v-7
q-30 -16 -41.5 -24t-21 -27.5t-9.5 -51.5v-323q0 -131 -76.5 -204t-196.5 -73q-146 0 -215.5 74t-69.5 203v323q0 46 -12.5 64t-51.5 39v7h196v-7q-39 -21 -51.5 -39t-12.5 -64v-310q0 -120 56 -182t157 -62q107 0 168 60t61 183v311z" />
    <glyph glyph-name="uring" unicode="&#x16f;" horiz-adv-x="582" 
d="M182 660q0 42 31 72.5t74 30.5t74 -30.5t31 -72.5q0 -43 -31 -73.5t-74 -30.5t-74 30.5t-31 73.5zM351 660q0 29 -17.5 47t-46.5 18t-46.5 -18t-17.5 -47t17.5 -46.5t46.5 -17.5t46.5 17.5t17.5 46.5zM162 484v-305q0 -60 26.5 -100t86.5 -40q64 0 106.5 52t42.5 139v153
q0 24 -11 43t-22.5 28t-35.5 24v6h135v-377q0 -32 6.5 -50.5t16 -26.5t35.5 -24v-6h-124v122q-20 -64 -64.5 -98t-108.5 -34q-74 0 -114.5 45.5t-40.5 128.5v219q0 24 -11 43t-22.5 28t-35.5 24v6h135z" />
    <glyph glyph-name="Uhungarumlaut" unicode="&#x170;" horiz-adv-x="752" 
d="M344 929h99l-148 -158h-16zM494 929h99l-148 -158h-16zM607 590q0 24 -4 39.5t-16.5 28t-21 17.5t-32.5 18v7h194v-7q-30 -16 -41.5 -24t-21 -27.5t-9.5 -51.5v-323q0 -131 -76.5 -204t-196.5 -73q-146 0 -215.5 74t-69.5 203v323q0 46 -12.5 64t-51.5 39v7h196v-7
q-39 -21 -51.5 -39t-12.5 -64v-310q0 -120 56 -182t157 -62q107 0 168 60t61 183v311z" />
    <glyph glyph-name="uhungarumlaut" unicode="&#x171;" horiz-adv-x="582" 
d="M258 749h96l-148 -188h-16zM408 749h96l-148 -188h-16zM162 484v-305q0 -60 26.5 -100t86.5 -40q64 0 106.5 52t42.5 139v153q0 24 -11 43t-22.5 28t-35.5 24v6h135v-377q0 -32 6.5 -50.5t16 -26.5t35.5 -24v-6h-124v122q-20 -64 -64.5 -98t-108.5 -34q-74 0 -114.5 45.5
t-40.5 128.5v219q0 24 -11 43t-22.5 28t-35.5 24v6h135z" />
    <glyph glyph-name="Uogonek" unicode="&#x172;" horiz-adv-x="752" 
d="M394 -235q-37 0 -63.5 23.5t-26.5 62.5q0 43 29 75t83 66q-22 -2 -34 -2q-146 0 -215.5 74t-69.5 203v323q0 46 -12.5 64t-51.5 39v7h196v-7q-39 -21 -51.5 -39t-12.5 -64v-310q0 -120 56 -182t157 -62q107 0 168 60t61 183v311q0 24 -4 39.5t-16.5 28t-21 17.5t-32.5 18
v7h194v-7q-30 -16 -41.5 -24t-21 -27.5t-9.5 -51.5v-323q0 -184 -186 -271q-48 -22 -77 -58t-29 -72q0 -29 15.5 -43.5t39.5 -14.5q51 0 97 55l13 -12q-18 -36 -53 -61t-81 -25z" />
    <glyph glyph-name="uogonek" unicode="&#x173;" horiz-adv-x="582" 
d="M521 -149q-18 -36 -53 -61t-81 -25q-37 0 -63.5 23.5t-26.5 62.5q0 46 32.5 79.5t94.5 69.5v122q-20 -64 -64.5 -98t-108.5 -34q-74 0 -114.5 45.5t-40.5 128.5v219q0 24 -11 43t-22.5 28t-35.5 24v6h135v-305q0 -60 26.5 -100t86.5 -40q64 0 106.5 52t42.5 139v153
q0 24 -11 43t-22.5 28t-35.5 24v6h135v-377q0 -32 6.5 -50.5t16 -26.5t35.5 -24v-6h-88q-54 -39 -79 -69.5t-25 -64.5q0 -29 15.5 -43.5t39.5 -14.5q51 0 97 55z" />
    <glyph glyph-name="Wcircumflex" unicode="&#x174;" horiz-adv-x="974" 
d="M501 946q40 -82 141 -177h-25q-76 44 -124 93q-48 -49 -124 -93h-25q101 95 141 177h16zM672 -10l-187 570l-179 -570h-9l-201 598q-15 42 -30.5 60t-54.5 45v7h195v-7q-33 -14 -45.5 -24t-12.5 -26q0 -11 11 -46l153 -455l149 483q-10 22 -23.5 35.5t-41.5 32.5v7h194
v-7q-35 -14 -48.5 -24.5t-13.5 -25.5q0 -11 11 -46l147 -462l148 462q8 25 8 40q0 18 -32 37q-7 5 -27 15l-6 4v7h186v-7q-27 -19 -39 -29t-24.5 -28.5t-21.5 -47.5l-197 -598h-9z" />
    <glyph glyph-name="wcircumflex" unicode="&#x175;" horiz-adv-x="708" 
d="M368 749q23 -46 63.5 -104t77.5 -93h-25q-50 30 -124 106q-74 -76 -124 -106h-25q37 35 77.5 93t63.5 104h16zM482 -10l-129 382l-137 -382h-4l-138 376q-17 47 -32.5 67.5t-45.5 44.5v6h161v-6q-20 -13 -27.5 -20.5t-7.5 -17.5q0 -18 17 -64l90 -251l103 300
q-16 31 -55 53v6h159v-6q-35 -20 -35 -38q0 -16 16 -64l82 -255l97 256q14 37 14 49q0 14 -13 25t-44 27v6h159v-6q-28 -22 -43.5 -43t-34.5 -69l-148 -376h-4z" />
    <glyph glyph-name="Ycircumflex" unicode="&#x176;" horiz-adv-x="651" 
d="M333 946q40 -82 141 -177h-25q-76 44 -124 93q-48 -49 -124 -93h-25q101 95 141 177h16zM337 335l169 270q13 20 13 39q0 12 -11 22t-39 27v7h171v-7q-31 -23 -49.5 -43.5t-43.5 -59.5l-188 -299v-181q0 -47 14 -65t60 -38v-7h-215v7q46 20 60 38t14 65v181l-188 299
q-25 39 -43.5 59.5t-49.5 43.5v7h174v-7q-32 -17 -32 -44q0 -23 15 -46z" />
    <glyph glyph-name="ycircumflex" unicode="&#x177;" horiz-adv-x="504" 
d="M276 749q23 -46 63.5 -104t77.5 -93h-25q-50 30 -124 106q-74 -76 -124 -106h-25q37 35 77.5 93t63.5 104h16zM235 -1l-157 367q-28 67 -82 112v6h164v-6q-38 -23 -38 -39q0 -11 21 -63l124 -299l121 299q14 36 14 54q0 20 -53 48v6h159v-6q-27 -23 -44.5 -46t-35.5 -66
l-189 -452q-15 -36 -25 -56t-26.5 -42t-37.5 -31.5t-49 -9.5q-33 0 -54 18.5t-21 47.5q0 20 14.5 37t36.5 22q-2 -10 -2 -20q0 -21 12 -34t32 -13q25 0 43.5 21.5t38.5 68.5z" />
    <glyph glyph-name="Ydieresis" unicode="&#x178;" horiz-adv-x="651" 
d="M240 786q-22 0 -37.5 15.5t-15.5 37.5t15.5 37.5t37.5 15.5t37.5 -15.5t15.5 -37.5t-15.5 -37.5t-37.5 -15.5zM410 786q-22 0 -37.5 15.5t-15.5 37.5t15.5 37.5t37.5 15.5t37.5 -15.5t15.5 -37.5t-15.5 -37.5t-37.5 -15.5zM337 335l169 270q13 20 13 39q0 12 -11 22
t-39 27v7h171v-7q-31 -23 -49.5 -43.5t-43.5 -59.5l-188 -299v-181q0 -47 14 -65t60 -38v-7h-215v7q46 20 60 38t14 65v181l-188 299q-25 39 -43.5 59.5t-49.5 43.5v7h174v-7q-32 -17 -32 -44q0 -23 15 -46z" />
    <glyph glyph-name="Zacute" unicode="&#x179;" horiz-adv-x="684" 
d="M385 929h105l-148 -158h-16zM607 0h-558v4l473 658h-248q-28 0 -49 -2.5t-39.5 -12.5t-28.5 -16t-25.5 -27t-21.5 -30t-25 -40h-10l21 172q30 -6 60 -6h468v-4l-472 -658h266q81 0 120.5 25t90.5 100h10z" />
    <glyph glyph-name="zacute" unicode="&#x17a;" horiz-adv-x="510" 
d="M318 749h94l-148 -188h-16zM42 4l317 444h-139q-53 0 -77.5 -21.5t-65.5 -99.5h-10l15 167q20 -10 74 -10h301v-4l-315 -444h164q50 0 78 24t71 99h12l-29 -159h-396v4z" />
    <glyph glyph-name="Zdotaccent" unicode="&#x17b;" horiz-adv-x="684" 
d="M344 793q-22 0 -38 15.5t-16 38.5t16 38.5t38 15.5t38 -15.5t16 -38.5t-16 -38.5t-38 -15.5zM607 0h-558v4l473 658h-248q-28 0 -49 -2.5t-39.5 -12.5t-28.5 -16t-25.5 -27t-21.5 -30t-25 -40h-10l21 172q30 -6 60 -6h468v-4l-472 -658h266q81 0 120.5 25t90.5 100h10z
" />
    <glyph glyph-name="zdotaccent" unicode="&#x17c;" horiz-adv-x="510" 
d="M264 603q-22 0 -38 15.5t-16 38.5t16 38.5t38 15.5t38 -15.5t16 -38.5t-16 -38.5t-38 -15.5zM42 4l317 444h-139q-53 0 -77.5 -21.5t-65.5 -99.5h-10l15 167q20 -10 74 -10h301v-4l-315 -444h164q50 0 78 24t71 99h12l-29 -159h-396v4z" />
    <glyph glyph-name="Zcaron" unicode="&#x17d;" horiz-adv-x="684" 
d="M493 941q-101 -95 -141 -177h-16q-40 82 -141 177h25q76 -44 124 -93q48 49 124 93h25zM607 0h-558v4l473 658h-248q-28 0 -49 -2.5t-39.5 -12.5t-28.5 -16t-25.5 -27t-21.5 -30t-25 -40h-10l21 172q30 -6 60 -6h468v-4l-472 -658h266q81 0 120.5 25t90.5 100h10z" />
    <glyph glyph-name="zcaron" unicode="&#x17e;" horiz-adv-x="510" 
d="M413 749q-37 -35 -77.5 -93t-63.5 -104h-16q-23 46 -63.5 104t-77.5 93h25q50 -30 124 -106q74 76 124 106h25zM42 4l317 444h-139q-53 0 -77.5 -21.5t-65.5 -99.5h-10l15 167q20 -10 74 -10h301v-4l-315 -444h164q50 0 78 24t71 99h12l-29 -159h-396v4z" />
    <glyph glyph-name="uni0192" unicode="&#x192;" horiz-adv-x="511" 
d="M59 -181q-51 0 -80.5 22t-29.5 55q0 29 20 45.5t47 16.5q9 0 21 -2q-22 -25 -22 -55q0 -49 51 -49q35 0 52.5 28t24.5 84l54 405h-106l5 33h105l19 141q11 80 50 123.5t102 43.5q51 0 80.5 -22t29.5 -55q0 -29 -20 -45.5t-47 -16.5q-9 0 -21 2q22 25 22 55q0 49 -51 49
q-35 0 -52.5 -28t-24.5 -84l-22 -163h130l-5 -33h-129l-51 -383q-11 -80 -50 -123.5t-102 -43.5z" />
    <glyph glyph-name="AEacute" unicode="&#x1fc;" horiz-adv-x="1082" 
d="M704 929h105l-148 -158h-16zM300 301h249v355zM186 7v-7h-175v7q35 24 55.5 44.5t48.5 59.5l352 505q7 10 7 24q0 20 -63 53v7h509q30 0 60 6l34 -150h-7q-39 45 -58 63t-55.5 31t-91.5 13h-185v-285h155q61 0 82 16t45 80h8v-229h-8q-24 64 -45 80t-82 16h-155v-304h206
q81 0 122 25.5t92 99.5h7l-32 -162h-527v7q39 21 51.5 39t12.5 64v152h-276l-114 -162q-26 -35 -26 -51q0 -13 10 -20.5t43 -21.5z" />
    <glyph glyph-name="aeacute" unicode="&#x1fd;" horiz-adv-x="838" 
d="M466 749h94l-148 -188h-16zM791 150q-16 -77 -67 -118.5t-134 -41.5q-67 0 -120 31t-82 88q-22 -48 -72 -83.5t-111 -35.5q-73 0 -115 32t-42 92q0 49 36.5 84t86 51.5t113.5 24.5l80 10v34q0 72 -28 104.5t-90 32.5q-47 0 -74.5 -21.5t-27.5 -58.5q0 -24 14 -46
q-14 -11 -40 -11q-22 0 -35 13.5t-13 39.5q0 49 52 86t136 37q126 0 158 -98q60 98 169 98q98 0 154 -64.5t56 -178.5h-362q0 -101 46 -157.5t128 -56.5q122 0 164 120zM434 287h286q-4 167 -136 167q-63 0 -102.5 -44.5t-47.5 -122.5zM364 250l-79 -11q-164 -22 -164 -121
q0 -39 24 -61.5t62 -22.5q67 0 112 44.5t45 126.5v45z" />
    <glyph glyph-name="Oslashacute" unicode="&#x1fe;" horiz-adv-x="778" 
d="M430 929h105l-148 -158h-16zM389 666q-119 0 -191 -87.5t-72 -228.5q0 -124 58 -209l387 448q-71 77 -182 77zM389 34q119 0 191 87.5t72 228.5q0 123 -56 207l-387 -447q71 -76 180 -76zM730 350q0 -158 -96 -259t-245 -101q-126 0 -218 76l-83 -96l-30 25l84 98
q-94 100 -94 257q0 158 96 259t245 101q129 0 220 -77l73 84l30 -25l-75 -87q93 -99 93 -255z" />
    <glyph glyph-name="oslashacute" unicode="&#x1ff;" horiz-adv-x="574" 
d="M341 749h94l-148 -188h-16zM287 453q-77 0 -119.5 -57.5t-42.5 -153.5q0 -80 29 -133l247 294q-42 50 -114 50zM287 30q77 0 119.5 57.5t42.5 154.5q0 78 -27 129l-247 -293q42 -48 112 -48zM524 242q0 -110 -67 -181t-170 -71q-83 0 -145 48l-62 -73l-27 24l62 74
q-65 71 -65 179q0 110 67 181t170 71q86 0 148 -51l61 72l27 -24l-61 -73q62 -70 62 -176z" />
    <glyph glyph-name="uni0218" unicode="&#x218;" horiz-adv-x="590" 
d="M281 670q-64 0 -106.5 -34t-42.5 -92q0 -57 36 -89.5t107 -50.5l83 -21q87 -22 129.5 -66.5t42.5 -128.5q0 -95 -68.5 -146.5t-166.5 -51.5q-54 0 -103 16.5t-78 38.5l-45 -55h-7l-12 215h12q80 -174 233 -174q78 0 123.5 40t45.5 111q0 104 -122 135l-91 23
q-91 23 -137.5 67t-46.5 121q0 82 59.5 132t154.5 50q76 0 163 -45l45 45h6v-195h-9q-46 82 -89 118.5t-116 36.5zM314 -145q-14 -9 -31 -9q-20 0 -33 13.5t-13 32.5q0 23 14 37t37 14q30 0 48 -21.5t18 -58.5q0 -43 -34 -74.5t-94 -33.5v25q88 10 88 75z" />
    <glyph glyph-name="uni0219" unicode="&#x219;" horiz-adv-x="482" 
d="M226 455q-48 0 -74 -22.5t-26 -58.5q0 -38 28 -59t95 -33q97 -17 137.5 -51t40.5 -93q0 -67 -50 -107.5t-127 -40.5q-78 0 -146 43l-34 -43h-7l-11 183h13q71 -143 185 -143q51 0 82.5 24t31.5 70q0 42 -32.5 62.5t-104.5 33.5q-87 16 -124 48t-37 90q0 60 45.5 98
t114.5 38q71 0 134 -42l36 42h7v-164h-11q-76 125 -166 125zM264 -145q-14 -9 -31 -9q-20 0 -33 13.5t-13 32.5q0 23 14 37t37 14q30 0 48 -21.5t18 -58.5q0 -43 -34 -74.5t-94 -33.5v25q88 10 88 75z" />
    <glyph glyph-name="uni021A" unicode="&#x21a;" horiz-adv-x="716" 
d="M124 700h468q30 0 60 6l34 -177h-8q-24 36 -32.5 48.5t-28 35.5t-33.5 31t-36 15t-49 7h-107v-556q0 -47 14 -65t60 -38v-7h-216v7q46 20 60 38t14 65v556h-107q-27 0 -49 -7t-36 -15t-33.5 -31t-28 -35.5t-32.5 -48.5h-8l34 177q30 -6 60 -6zM382 -145q-14 -9 -31 -9
q-20 0 -33 13.5t-13 32.5q0 23 14 37t37 14q30 0 48 -21.5t18 -58.5q0 -43 -34 -74.5t-94 -33.5v25q88 10 88 75z" />
    <glyph glyph-name="uni021B" unicode="&#x21b;" horiz-adv-x="405" 
d="M26 446v24q59 12 83.5 54t36.5 124h27v-164h176l-5 -38h-171v-318q0 -42 21 -65t60 -23q82 0 101 109l19 -3q-5 -71 -41 -113.5t-95 -42.5q-60 0 -96 35t-36 95v326h-80zM213 -145q-13 -9 -31 -9q-20 0 -33 13.5t-13 32.5q0 23 14 37t37 14q30 0 48 -21.5t18 -58.5
q0 -43 -34 -74.5t-94 -33.5v25q88 10 88 75z" />
    <glyph glyph-name="uni0237" unicode="&#x237;" horiz-adv-x="255" 
d="M101 -51v434q0 24 -11 43t-22.5 28t-35.5 24v6h135v-519q0 -90 -40 -140t-115 -50q-53 0 -85 24t-32 61q0 25 15 38t40 13q11 0 20 -3q-6 -16 -6 -41q0 -26 16.5 -43t41.5 -17q79 0 79 142z" />
    <glyph glyph-name="uni02BB" unicode="&#x2bb;" horiz-adv-x="500" 
d="M226 656q13 9 31 9q20 0 33 -13.5t13 -32.5q0 -23 -14 -37t-37 -14q-30 0 -48 21.5t-18 58.5q0 43 34 74.5t94 33.5v-25q-88 -10 -88 -75z" />
    <glyph glyph-name="circumflex" unicode="&#x2c6;" horiz-adv-x="500" 
d="M258 749q23 -46 63.5 -104t77.5 -93h-25q-50 30 -124 106q-74 -76 -124 -106h-25q37 35 77.5 93t63.5 104h16z" />
    <glyph glyph-name="caron" unicode="&#x2c7;" horiz-adv-x="500" 
d="M399 749q-37 -35 -77.5 -93t-63.5 -104h-16q-23 46 -63.5 104t-77.5 93h25q50 -30 124 -106q74 76 124 106h25z" />
    <glyph glyph-name="breve" unicode="&#x2d8;" horiz-adv-x="500" 
d="M136 736q3 -53 35 -81.5t79 -28.5t79 28.5t35 81.5h25q0 -77 -39 -122.5t-100 -45.5t-100 45.5t-39 122.5h25z" />
    <glyph glyph-name="dotaccent" unicode="&#x2d9;" horiz-adv-x="500" 
d="M250 603q-22 0 -38 15.5t-16 38.5t16 38.5t38 15.5t38 -15.5t16 -38.5t-16 -38.5t-38 -15.5z" />
    <glyph glyph-name="ring" unicode="&#x2da;" horiz-adv-x="500" 
d="M145 660q0 42 31 72.5t74 30.5t74 -30.5t31 -72.5q0 -43 -31 -73.5t-74 -30.5t-74 30.5t-31 73.5zM314 660q0 29 -17.5 47t-46.5 18t-46.5 -18t-17.5 -47t17.5 -46.5t46.5 -17.5t46.5 17.5t17.5 46.5z" />
    <glyph glyph-name="ogonek" unicode="&#x2db;" horiz-adv-x="500" 
d="M138 -149q0 28 12 51.5t39.5 45.5t47.5 35t60 36l8 -16q-56 -40 -82 -71t-26 -66q0 -29 15.5 -43.5t39.5 -14.5q51 0 97 55l13 -12q-18 -36 -53 -61t-81 -25q-37 0 -63.5 23.5t-26.5 62.5z" />
    <glyph glyph-name="tilde" unicode="&#x2dc;" horiz-adv-x="500" 
d="M102 580h-24q39 128 107 128q26 0 71.5 -32.5t64.5 -32.5q29 0 44.5 16.5t32.5 52.5h24q-39 -128 -107 -128q-26 0 -71.5 32.5t-64.5 32.5q-29 0 -44.5 -16.5t-32.5 -52.5z" />
    <glyph glyph-name="hungarumlaut" unicode="&#x2dd;" horiz-adv-x="500" 
d="M161 749h96l-148 -188h-16zM311 749h96l-148 -188h-16z" />
    <glyph glyph-name="Wgrave" unicode="&#x1e80;" horiz-adv-x="974" 
d="M351 929h105l59 -158h-16zM672 -10l-187 570l-179 -570h-9l-201 598q-15 42 -30.5 60t-54.5 45v7h195v-7q-33 -14 -45.5 -24t-12.5 -26q0 -11 11 -46l153 -455l149 483q-10 22 -23.5 35.5t-41.5 32.5v7h194v-7q-35 -14 -48.5 -24.5t-13.5 -25.5q0 -11 11 -46l147 -462
l148 462q8 25 8 40q0 18 -32 37q-7 5 -27 15l-6 4v7h186v-7q-27 -19 -39 -29t-24.5 -28.5t-21.5 -47.5l-197 -598h-9z" />
    <glyph glyph-name="wgrave" unicode="&#x1e81;" horiz-adv-x="708" 
d="M210 749h94l70 -188h-16zM482 -10l-129 382l-137 -382h-4l-138 376q-17 47 -32.5 67.5t-45.5 44.5v6h161v-6q-20 -13 -27.5 -20.5t-7.5 -17.5q0 -18 17 -64l90 -251l103 300q-16 31 -55 53v6h159v-6q-35 -20 -35 -38q0 -16 16 -64l82 -255l97 256q14 37 14 49
q0 14 -13 25t-44 27v6h159v-6q-28 -22 -43.5 -43t-34.5 -69l-148 -376h-4z" />
    <glyph glyph-name="Wacute" unicode="&#x1e82;" horiz-adv-x="974" 
d="M534 929h105l-148 -158h-16zM672 -10l-187 570l-179 -570h-9l-201 598q-15 42 -30.5 60t-54.5 45v7h195v-7q-33 -14 -45.5 -24t-12.5 -26q0 -11 11 -46l153 -455l149 483q-10 22 -23.5 35.5t-41.5 32.5v7h194v-7q-35 -14 -48.5 -24.5t-13.5 -25.5q0 -11 11 -46l147 -462
l148 462q8 25 8 40q0 18 -32 37q-7 5 -27 15l-6 4v7h186v-7q-27 -19 -39 -29t-24.5 -28.5t-21.5 -47.5l-197 -598h-9z" />
    <glyph glyph-name="wacute" unicode="&#x1e83;" horiz-adv-x="708" 
d="M414 749h94l-148 -188h-16zM482 -10l-129 382l-137 -382h-4l-138 376q-17 47 -32.5 67.5t-45.5 44.5v6h161v-6q-20 -13 -27.5 -20.5t-7.5 -17.5q0 -18 17 -64l90 -251l103 300q-16 31 -55 53v6h159v-6q-35 -20 -35 -38q0 -16 16 -64l82 -255l97 256q14 37 14 49
q0 14 -13 25t-44 27v6h159v-6q-28 -22 -43.5 -43t-34.5 -69l-148 -376h-4z" />
    <glyph glyph-name="Wdieresis" unicode="&#x1e84;" horiz-adv-x="974" 
d="M408 786q-22 0 -37.5 15.5t-15.5 37.5t15.5 37.5t37.5 15.5t37.5 -15.5t15.5 -37.5t-15.5 -37.5t-37.5 -15.5zM578 786q-22 0 -37.5 15.5t-15.5 37.5t15.5 37.5t37.5 15.5t37.5 -15.5t15.5 -37.5t-15.5 -37.5t-37.5 -15.5zM672 -10l-187 570l-179 -570h-9l-201 598
q-15 42 -30.5 60t-54.5 45v7h195v-7q-33 -14 -45.5 -24t-12.5 -26q0 -11 11 -46l153 -455l149 483q-10 22 -23.5 35.5t-41.5 32.5v7h194v-7q-35 -14 -48.5 -24.5t-13.5 -25.5q0 -11 11 -46l147 -462l148 462q8 25 8 40q0 18 -32 37q-7 5 -27 15l-6 4v7h186v-7
q-27 -19 -39 -29t-24.5 -28.5t-21.5 -47.5l-197 -598h-9z" />
    <glyph glyph-name="wdieresis" unicode="&#x1e85;" horiz-adv-x="708" 
d="M275 586q-22 0 -37.5 15.5t-15.5 37.5t15.5 37.5t37.5 15.5t37.5 -15.5t15.5 -37.5t-15.5 -37.5t-37.5 -15.5zM445 586q-22 0 -37.5 15.5t-15.5 37.5t15.5 37.5t37.5 15.5t37.5 -15.5t15.5 -37.5t-15.5 -37.5t-37.5 -15.5zM482 -10l-129 382l-137 -382h-4l-138 376
q-17 47 -32.5 67.5t-45.5 44.5v6h161v-6q-20 -13 -27.5 -20.5t-7.5 -17.5q0 -18 17 -64l90 -251l103 300q-16 31 -55 53v6h159v-6q-35 -20 -35 -38q0 -16 16 -64l82 -255l97 256q14 37 14 49q0 14 -13 25t-44 27v6h159v-6q-28 -22 -43.5 -43t-34.5 -69l-148 -376h-4z" />
    <glyph glyph-name="Ygrave" unicode="&#x1ef2;" horiz-adv-x="651" 
d="M183 929h105l59 -158h-16zM337 335l169 270q13 20 13 39q0 12 -11 22t-39 27v7h171v-7q-31 -23 -49.5 -43.5t-43.5 -59.5l-188 -299v-181q0 -47 14 -65t60 -38v-7h-215v7q46 20 60 38t14 65v181l-188 299q-25 39 -43.5 59.5t-49.5 43.5v7h174v-7q-32 -17 -32 -44
q0 -23 15 -46z" />
    <glyph glyph-name="ygrave" unicode="&#x1ef3;" horiz-adv-x="504" 
d="M118 749h94l70 -188h-16zM235 -1l-157 367q-28 67 -82 112v6h164v-6q-38 -23 -38 -39q0 -11 21 -63l124 -299l121 299q14 36 14 54q0 20 -53 48v6h159v-6q-27 -23 -44.5 -46t-35.5 -66l-189 -452q-15 -36 -25 -56t-26.5 -42t-37.5 -31.5t-49 -9.5q-33 0 -54 18.5
t-21 47.5q0 20 14.5 37t36.5 22q-2 -10 -2 -20q0 -21 12 -34t32 -13q25 0 43.5 21.5t38.5 68.5z" />
    <glyph glyph-name="uni2009" unicode="&#x2009;" horiz-adv-x="50" 
 />
    <glyph glyph-name="endash" unicode="&#x2013;" horiz-adv-x="520" 
d="M50 252v37h420v-37h-420z" />
    <glyph glyph-name="emdash" unicode="&#x2014;" horiz-adv-x="820" 
d="M50 252v37h720v-37h-720z" />
    <glyph glyph-name="quoteleft" unicode="&#x2018;" horiz-adv-x="247" 
d="M96 573q15 13 38 13q21 0 35 -14.5t14 -34.5q0 -24 -15 -38.5t-40 -14.5q-34 0 -54.5 23t-20.5 65q0 63 41.5 107t116.5 51v-24q-56 -12 -87.5 -48t-27.5 -85z" />
    <glyph glyph-name="quoteright" unicode="&#x2019;" horiz-adv-x="247" 
d="M155 633q-15 -13 -38 -13q-21 0 -35 14.5t-14 34.5q0 24 15 38.5t40 14.5q34 0 54.5 -23t20.5 -65q0 -63 -41.5 -107t-116.5 -51v24q56 12 87.5 48t27.5 85z" />
    <glyph glyph-name="quotesinglbase" unicode="&#x201a;" horiz-adv-x="247" 
d="M155 13q-15 -13 -38 -13q-21 0 -35 14.5t-14 34.5q0 24 15 38.5t40 14.5q34 0 54.5 -23t20.5 -65q0 -63 -41.5 -107t-116.5 -51v24q56 12 87.5 48t27.5 85z" />
    <glyph glyph-name="quotedblleft" unicode="&#x201c;" horiz-adv-x="444" 
d="M288 573q15 13 38 13q21 0 35 -14.5t14 -34.5q0 -24 -15 -38.5t-40 -14.5q-34 0 -54.5 23t-20.5 65q0 63 41.5 107t116.5 51v-24q-56 -12 -87.5 -48t-27.5 -85zM91 573q15 13 38 13q21 0 35 -14.5t14 -34.5q0 -24 -15 -38.5t-40 -14.5q-34 0 -54.5 23t-20.5 65
q0 63 41.5 107t116.5 51v-24q-56 -12 -87.5 -48t-27.5 -85z" />
    <glyph glyph-name="quotedblright" unicode="&#x201d;" horiz-adv-x="444" 
d="M352 633q-15 -13 -38 -13q-21 0 -35 14.5t-14 34.5q0 24 15 38.5t40 14.5q34 0 54.5 -23t20.5 -65q0 -63 -41.5 -107t-116.5 -51v24q56 12 87.5 48t27.5 85zM155 633q-15 -13 -38 -13q-21 0 -35 14.5t-14 34.5q0 24 15 38.5t40 14.5q34 0 54.5 -23t20.5 -65
q0 -63 -41.5 -107t-116.5 -51v24q56 12 87.5 48t27.5 85z" />
    <glyph glyph-name="quotedblbase" unicode="&#x201e;" horiz-adv-x="444" 
d="M352 13q-15 -13 -38 -13q-21 0 -35 14.5t-14 34.5q0 24 15 38.5t40 14.5q34 0 54.5 -23t20.5 -65q0 -63 -41.5 -107t-116.5 -51v24q56 12 87.5 48t27.5 85zM155 13q-15 -13 -38 -13q-21 0 -35 14.5t-14 34.5q0 24 15 38.5t40 14.5q34 0 54.5 -23t20.5 -65
q0 -63 -41.5 -107t-116.5 -51v24q56 12 87.5 48t27.5 85z" />
    <glyph glyph-name="dagger" unicode="&#x2020;" horiz-adv-x="446" 
d="M205 749h36v-143h145v-36h-145v-285h-36v285h-145v36h145v143z" />
    <glyph glyph-name="daggerdbl" unicode="&#x2021;" horiz-adv-x="446" 
d="M205 454v126h-145v36h145v133h36v-133h145v-36h-145v-126h145v-36h-145v-133h-36v133h-145v36h145z" />
    <glyph glyph-name="bullet" unicode="&#x2022;" horiz-adv-x="330" 
d="M50 270q0 47 34 81t81 34t81 -34t34 -81t-34 -81t-81 -34t-81 34t-34 81z" />
    <glyph glyph-name="ellipsis" unicode="&#x2026;" horiz-adv-x="704" 
d="M639 50q0 -25 -17.5 -42t-41.5 -17t-41.5 17t-17.5 42t17.5 42t41.5 17t41.5 -17t17.5 -42zM411 50q0 -25 -17.5 -42t-41.5 -17t-41.5 17t-17.5 42t17.5 42t41.5 17t41.5 -17t17.5 -42zM183 50q0 -25 -17.5 -42t-41.5 -17t-41.5 17t-17.5 42t17.5 42t41.5 17t41.5 -17
t17.5 -42z" />
    <glyph glyph-name="perthousand" unicode="&#x2030;" horiz-adv-x="1331" 
d="M358 639q41 -40 41 -109q0 -82 -51 -131t-129 -49q-77 0 -128 49.5t-51 130.5t51 130.5t128 49.5q36 0 104 -29.5t134 -29.5q127 0 184 68l17 -9l-375 -710h-31l349 660q-16 -14 -61.5 -23t-82.5 -9q-48 0 -99 11zM332 530q0 72 -32.5 110t-80.5 38q-47 0 -79.5 -38
t-32.5 -110t32.5 -110t79.5 -38q48 0 80.5 38t32.5 110zM692 -10q-77 0 -128 49.5t-51 130.5t51 130.5t128 49.5t128 -49.5t51 -130.5t-51 -130.5t-128 -49.5zM1112 350q77 0 128 -49.5t51 -130.5t-51 -130.5t-128 -49.5t-128 49.5t-51 130.5t51 130.5t128 49.5zM692 22
q47 0 79.5 38t32.5 110t-32.5 110t-79.5 38t-79.5 -38t-32.5 -110t32.5 -110t79.5 -38zM1112 318q-47 0 -79.5 -38t-32.5 -110t32.5 -110t79.5 -38t79.5 38t32.5 110t-32.5 110t-79.5 38z" />
    <glyph glyph-name="guilsinglleft" unicode="&#x2039;" horiz-adv-x="388" 
d="M70 240v8q112 64 248 206h16q-56 -97 -155 -210q99 -113 155 -210h-16q-136 142 -248 206z" />
    <glyph glyph-name="guilsinglright" unicode="&#x203a;" horiz-adv-x="388" 
d="M318 248v-8q-112 -64 -248 -206h-16q56 97 155 210q-99 113 -155 210h16q136 -142 248 -206z" />
    <glyph glyph-name="fraction" unicode="&#x2044;" horiz-adv-x="183" 
d="M-105 -10h-45l438 720h45z" />
    <glyph glyph-name="uni2070" unicode="&#x2070;" horiz-adv-x="410" 
d="M366 501q0 -91 -44 -148t-117 -57t-116.5 56.5t-43.5 148.5t43.5 148.5t116.5 56.5t117 -57t44 -148zM296 501q0 175 -91 175t-91 -175t91 -175t91 175z" />
    <glyph glyph-name="uni2074" unicode="&#x2074;" horiz-adv-x="408" 
d="M223 435v210l-149 -210h149zM308 411h-25v-43q0 -27 6 -36.5t26 -22.5v-7h-124v7q20 13 26 22.5t6 36.5v43h-198l-1 2l207 287h52v-265h25q26 0 34.5 5t21.5 25h7v-85h-7q-13 20 -21.5 25.5t-34.5 5.5z" />
    <glyph glyph-name="uni2075" unicode="&#x2075;" horiz-adv-x="364" 
d="M165 324q41 0 63.5 27t22.5 75q0 99 -84 99q-51 0 -89 -36h-3l26 211q72 -9 117 -9q63 0 89 25h2q0 -43 -19 -65.5t-64 -22.5q-46 0 -107 16l-14 -110q35 25 85 25q54 0 91.5 -34t37.5 -95q0 -62 -45.5 -98t-108.5 -36q-57 0 -93.5 25.5t-36.5 66.5q0 26 15.5 41.5
t38.5 15.5q16 0 26 -6q-19 -21 -19 -50q0 -65 69 -65z" />
    <glyph glyph-name="uni2076" unicode="&#x2076;" horiz-adv-x="375" 
d="M212 679q-54 0 -80 -52.5t-26 -140.5q9 29 36 48t63 19q54 0 90 -33t36 -92q0 -58 -40 -95t-99 -37q-70 0 -108.5 53.5t-38.5 137.5q0 93 46 156t121 63q50 0 81 -20.5t31 -54.5q0 -22 -13.5 -34t-33.5 -12q-13 0 -22 7q16 13 16 38q1 23 -14.5 36t-44.5 13zM116 423
q1 -45 21 -72t55 -27t55 27t21 72q0 44 -20.5 71.5t-55.5 27.5t-55.5 -27.5t-20.5 -71.5z" />
    <glyph glyph-name="uni2077" unicode="&#x2077;" horiz-adv-x="343" 
d="M40 590v110h282v-2l-53 -82q-84 -129 -87 -309l-68 -11q23 172 125 320l19 28h-136q-31 0 -43 -10.5t-25 -42.5z" />
    <glyph glyph-name="uni2078" unicode="&#x2078;" horiz-adv-x="380" 
d="M232 526q54 -20 78.5 -47t24.5 -69q0 -51 -40 -82.5t-102 -31.5q-65 0 -106.5 28t-41.5 77q0 35 26 61t66 36q-70 31 -70 100q0 49 35 78.5t88 29.5q52 0 86.5 -25.5t34.5 -67.5q0 -36 -23.5 -57.5t-55.5 -29.5zM121 617q0 -48 62 -72l37 -15q42 29 42 82q0 27 -20 46
t-51 19q-32 0 -51 -17t-19 -43zM210 469l-62 24q-50 -31 -49 -86q0 -36 26 -58.5t67 -22.5q36 0 61 18.5t25 47.5q0 50 -68 77z" />
    <glyph glyph-name="uni2079" unicode="&#x2079;" horiz-adv-x="375" 
d="M260 579q-1 45 -21 72t-55 27t-55 -27t-21 -72q0 -44 20.5 -71.5t55.5 -27.5t55.5 27.5t20.5 71.5zM164 323q54 0 80 52.5t26 140.5q-9 -29 -36 -47.5t-63 -18.5q-54 0 -90 33t-36 91t40 95t99 37q70 0 108.5 -53.5t38.5 -137.5q0 -92 -46 -155.5t-121 -63.5
q-50 0 -81 21t-31 55q0 22 13.5 33.5t33.5 11.5q13 0 22 -7q-16 -11 -16 -38q-1 -23 14.5 -36t44.5 -13z" />
    <glyph glyph-name="uni2080" unicode="&#x2080;" horiz-adv-x="410" 
d="M366 99q0 -91 -44 -148t-117 -57t-116.5 56.5t-43.5 148.5t43.5 148.5t116.5 56.5t117 -57t44 -148zM296 99q0 175 -91 175t-91 -175t91 -175t91 175z" />
    <glyph glyph-name="uni2081" unicode="&#x2081;" horiz-adv-x="255" 
d="M230 -100h-203v11q8 3 21 7t18.5 6t13 5.5t10.5 7t5.5 9t2.5 12.5v279q0 7 -2.5 12.5t-5.5 9t-10.5 7.5t-13.5 6.5t-19.5 7t-22.5 8.5v10h135v-340q0 -8 2.5 -14t10.5 -10.5t13 -7t21 -7.5t24 -8v-11z" />
    <glyph glyph-name="uni2082" unicode="&#x2082;" horiz-adv-x="365" 
d="M96 -48l116 1q46 1 62 9t37 43h10l-13 -105h-281v3l81 87q41 43 62 67t43.5 65.5t22.5 76.5t-18 56t-52 21q-31 0 -47.5 -19t-16.5 -48q-2 -38 20 -56q-6 -5 -24 -5q-24 0 -39.5 16t-15.5 43q0 41 34.5 69t88.5 28q60 0 98 -30.5t38 -83.5q0 -30 -11 -55t-42 -56.5
t-60.5 -55t-92.5 -71.5z" />
    <glyph glyph-name="uni2083" unicode="&#x2083;" horiz-adv-x="374" 
d="M179 -106q-58 0 -97 25.5t-39 67.5q0 26 16 41.5t40 15.5q10 0 25 -5q-19 -22 -19 -50q0 -67 74 -67q38 0 60 21.5t22 65.5q0 46 -25.5 71t-74.5 25v20q89 3 89 80q0 71 -68 71q-64 0 -64 -61q0 -34 19 -50q-8 -5 -21 -5q-24 0 -39 15t-15 41q0 37 33 62.5t87 25.5
q57 0 94 -25.5t37 -73.5q0 -39 -29 -62.5t-71 -26.5v-1q53 -3 84.5 -32.5t31.5 -73.5q0 -55 -42 -85t-108 -30z" />
    <glyph glyph-name="uni2084" unicode="&#x2084;" horiz-adv-x="408" 
d="M223 33v210l-149 -210h149zM308 9h-25v-43q0 -27 6 -36.5t26 -22.5v-7h-124v7q20 13 26 22.5t6 36.5v43h-198l-1 2l207 287h52v-265h25q26 0 34.5 5t21.5 25h7v-85h-7q-13 20 -21.5 25.5t-34.5 5.5z" />
    <glyph glyph-name="uni2085" unicode="&#x2085;" horiz-adv-x="364" 
d="M165 -78q41 0 63.5 27t22.5 75q0 99 -84 99q-51 0 -89 -36h-3l26 211q72 -9 117 -9q63 0 89 25h2q0 -43 -19 -65.5t-64 -22.5q-46 0 -107 16l-14 -110q35 25 85 25q54 0 91.5 -34t37.5 -95q0 -62 -45.5 -98t-108.5 -36q-57 0 -93.5 25.5t-36.5 66.5q0 26 15.5 41.5
t38.5 15.5q16 0 26 -6q-19 -21 -19 -50q0 -65 69 -65z" />
    <glyph glyph-name="uni2086" unicode="&#x2086;" horiz-adv-x="375" 
d="M212 277q-54 0 -80 -52.5t-26 -140.5q9 29 36 48t63 19q54 0 90 -33t36 -92q0 -58 -40 -95t-99 -37q-70 0 -108.5 53.5t-38.5 137.5q0 93 46 156t121 63q50 0 81 -20.5t31 -54.5q0 -22 -13.5 -34t-33.5 -12q-13 0 -22 7q16 13 16 38q1 23 -14.5 36t-44.5 13zM116 21
q1 -45 21 -72t55 -27t55 27t21 72q0 44 -20.5 71.5t-55.5 27.5t-55.5 -27.5t-20.5 -71.5z" />
    <glyph glyph-name="uni2087" unicode="&#x2087;" horiz-adv-x="343" 
d="M40 188v110h282v-2l-53 -82q-84 -129 -87 -309l-68 -11q23 172 125 320l19 28h-136q-31 0 -43 -10.5t-25 -42.5z" />
    <glyph glyph-name="uni2088" unicode="&#x2088;" horiz-adv-x="380" 
d="M232 124q54 -20 78.5 -47t24.5 -69q0 -51 -40 -82.5t-102 -31.5q-65 0 -106.5 28t-41.5 77q0 35 26 61t66 36q-70 31 -70 100q0 49 35 78.5t88 29.5q52 0 86.5 -25.5t34.5 -67.5q0 -36 -23.5 -57.5t-55.5 -29.5zM121 215q0 -48 62 -72l37 -15q42 29 42 82q0 27 -20 46
t-51 19q-32 0 -51 -17t-19 -43zM210 67l-62 24q-50 -31 -49 -86q0 -36 26 -58.5t67 -22.5q36 0 61 18.5t25 47.5q0 50 -68 77z" />
    <glyph glyph-name="uni2089" unicode="&#x2089;" horiz-adv-x="375" 
d="M260 177q-1 45 -21 72t-55 27t-55 -27t-21 -72q0 -44 20.5 -71.5t55.5 -27.5t55.5 27.5t20.5 71.5zM164 -79q54 0 80 52.5t26 140.5q-9 -29 -36 -47.5t-63 -18.5q-54 0 -90 33t-36 91t40 95t99 37q70 0 108.5 -53.5t38.5 -137.5q0 -92 -46 -155.5t-121 -63.5
q-50 0 -81 21t-31 55q0 22 13.5 33.5t33.5 11.5q13 0 22 -7q-16 -11 -16 -38q-1 -23 14.5 -36t44.5 -13z" />
    <glyph glyph-name="Euro" unicode="&#x20ac;" horiz-adv-x="657" 
d="M607 210q-17 -115 -81 -167.5t-156 -52.5q-44 0 -85.5 16.5t-78.5 49t-63.5 88t-34.5 126.5h-78v34h75q-1 11 -1 33q0 19 2 53h-76v34h80q19 144 98 215t190 71q83 0 141.5 -41.5t58.5 -104.5q0 -39 -21.5 -60.5t-52.5 -21.5q-12 0 -27 4q26 24 26 72q0 50 -33 82t-92 32
q-85 0 -141.5 -63t-71.5 -185h221l-10 -34h-214q-2 -34 -2 -54q0 -22 1 -32h195l-10 -34h-182q13 -116 69.5 -171.5t134.5 -55.5q76 0 126 39.5t75 131.5z" />
    <glyph glyph-name="uni2117" unicode="&#x2117;" horiz-adv-x="810" 
d="M765 350q0 -155 -104.5 -257.5t-255.5 -102.5t-255.5 102.5t-104.5 257.5t104.5 257.5t255.5 102.5t255.5 -102.5t104.5 -257.5zM405 19q138 0 234 94.5t96 236.5t-96 236.5t-234 94.5t-234 -94.5t-96 -236.5t96 -236.5t234 -94.5zM434 320h-86v-102q0 -26 10.5 -36.5
t40.5 -23.5v-10h-139v10q21 12 27.5 22.5t6.5 37.5v269q0 27 -6.5 37.5t-27.5 22.5v10h174q73 0 114 -30t41 -89q0 -58 -41 -88t-114 -30zM348 346h74q55 0 82 21.5t27 70.5t-27 71t-82 22h-74v-185z" />
    <glyph glyph-name="trademark" unicode="&#x2122;" horiz-adv-x="839" 
d="M91 700h222q17 0 27 3l14 -105h-9q-2 4 -10.5 19t-11 19t-10 15t-13.5 14.5t-15 7t-19 3.5h-38v-228q0 -20 8 -28t29 -19v-4h-125v4q15 8 20.5 11.5t11 12.5t5.5 23v228h-38q-10 0 -19 -3.5t-15 -7t-13.5 -14.5t-10 -15t-11 -19t-10.5 -19h-9l14 105q10 -3 26 -3z
M581 485l92 215h96v-3q-15 -9 -19 -12t-9 -12t-5 -23v-203q0 -14 5.5 -23t8.5 -11t19 -12v-4h-117v4q2 2 8 5.5t7.5 4.5t5.5 4t5.5 5.5t3.5 6.5t2.5 9t0.5 11v215l-117 -270h-1l-116 270v-215q0 -14 5.5 -23t8.5 -11t19 -12v-4h-94v4q2 2 8 5.5t7.5 4.5t5.5 4t5.5 5.5
t3.5 6.5t2.5 9t0.5 11v203q0 5 -0.5 9.5t-1.5 8t-3.5 7t-3.5 5t-5 4.5t-5.5 4t-6.5 4.5t-7 4.5v3h98z" />
    <glyph glyph-name="uni2153" unicode="&#x2153;" horiz-adv-x="817" 
d="M177 -10h-45l438 720h45zM230 302h-203v11q8 3 21 7t18.5 6t13 5.5t10.5 7t5.5 9t2.5 12.5v279q0 7 -2.5 12.5t-5.5 9t-10.5 7.5t-13.5 6.5t-19.5 7t-22.5 8.5v10h135v-340q0 -8 2.5 -14t10.5 -10.5t13 -7t21 -7.5t24 -8v-11zM622 -6q-58 0 -97 25.5t-39 67.5
q0 26 16 41.5t40 15.5q10 0 25 -5q-19 -22 -19 -50q0 -67 74 -67q38 0 60 21.5t22 65.5q0 46 -25.5 71t-74.5 25v20q89 3 89 80q0 71 -68 71q-64 0 -64 -61q0 -34 19 -50q-8 -5 -21 -5q-24 0 -39 15t-15 41q0 37 33 62.5t87 25.5q57 0 94 -25.5t37 -73.5q0 -39 -29 -62.5
t-71 -26.5v-1q53 -3 84.5 -32.5t31.5 -73.5q0 -55 -42 -85t-108 -30z" />
    <glyph glyph-name="uni2154" unicode="&#x2154;" horiz-adv-x="896" 
d="M256 -10h-45l438 720h45zM96 354l116 1q46 1 62 9t37 43h10l-13 -105h-281v3l81 87q41 43 62 67t43.5 65.5t22.5 76.5t-18 56t-52 21q-31 0 -47.5 -19t-16.5 -48q-2 -38 20 -56q-6 -5 -24 -5q-24 0 -39.5 16t-15.5 43q0 41 34.5 69t88.5 28q60 0 98 -30.5t38 -83.5
q0 -30 -11 -55t-42 -56.5t-60.5 -55t-92.5 -71.5zM701 -6q-58 0 -97 25.5t-39 67.5q0 26 16 41.5t40 15.5q10 0 25 -5q-19 -22 -19 -50q0 -67 74 -67q38 0 60 21.5t22 65.5q0 46 -25.5 71t-74.5 25v20q89 3 89 80q0 71 -68 71q-64 0 -64 -61q0 -34 19 -50q-8 -5 -21 -5
q-24 0 -39 15t-15 41q0 37 33 62.5t87 25.5q57 0 94 -25.5t37 -73.5q0 -39 -29 -62.5t-71 -26.5v-1q53 -3 84.5 -32.5t31.5 -73.5q0 -55 -42 -85t-108 -30z" />
    <glyph glyph-name="uni215B" unicode="&#x215b;" horiz-adv-x="823" 
d="M177 -10h-45l438 720h45zM230 302h-203v11q8 3 21 7t18.5 6t13 5.5t10.5 7t5.5 9t2.5 12.5v279q0 7 -2.5 12.5t-5.5 9t-10.5 7.5t-13.5 6.5t-19.5 7t-22.5 8.5v10h135v-340q0 -8 2.5 -14t10.5 -10.5t13 -7t21 -7.5t24 -8v-11zM675 224q54 -20 78.5 -47t24.5 -69
q0 -51 -40 -82.5t-102 -31.5q-65 0 -106.5 28t-41.5 77q0 35 26 61t66 36q-70 31 -70 100q0 49 35 78.5t88 29.5q52 0 86.5 -25.5t34.5 -67.5q0 -36 -23.5 -57.5t-55.5 -29.5zM564 315q0 -48 62 -72l37 -15q42 29 42 82q0 27 -20 46t-51 19q-32 0 -51 -17t-19 -43zM653 167
l-62 24q-50 -31 -49 -86q0 -36 26 -58.5t67 -22.5q36 0 61 18.5t25 47.5q0 50 -68 77z" />
    <glyph glyph-name="uni215C" unicode="&#x215c;" horiz-adv-x="902" 
d="M256 -10h-45l438 720h45zM179 296q-58 0 -97 25.5t-39 67.5q0 26 16 41.5t40 15.5q10 0 25 -5q-19 -22 -19 -50q0 -67 74 -67q38 0 60 21.5t22 65.5q0 46 -25.5 71t-74.5 25v20q89 3 89 80q0 71 -68 71q-64 0 -64 -61q0 -34 19 -50q-8 -5 -21 -5q-24 0 -39 15t-15 41
q0 37 33 62.5t87 25.5q57 0 94 -25.5t37 -73.5q0 -39 -29 -62.5t-71 -26.5v-1q53 -3 84.5 -32.5t31.5 -73.5q0 -55 -42 -85t-108 -30zM754 224q54 -20 78.5 -47t24.5 -69q0 -51 -40 -82.5t-102 -31.5q-65 0 -106.5 28t-41.5 77q0 35 26 61t66 36q-70 31 -70 100
q0 49 35 78.5t88 29.5q52 0 86.5 -25.5t34.5 -67.5q0 -36 -23.5 -57.5t-55.5 -29.5zM643 315q0 -48 62 -72l37 -15q42 29 42 82q0 27 -20 46t-51 19q-32 0 -51 -17t-19 -43zM732 167l-62 24q-50 -31 -49 -86q0 -36 26 -58.5t67 -22.5q36 0 61 18.5t25 47.5q0 50 -68 77z" />
    <glyph glyph-name="uni215D" unicode="&#x215d;" horiz-adv-x="888" 
d="M242 -10h-45l438 720h45zM165 324q41 0 63.5 27t22.5 75q0 99 -84 99q-51 0 -89 -36h-3l26 211q72 -9 117 -9q63 0 89 25h2q0 -43 -19 -65.5t-64 -22.5q-46 0 -107 16l-14 -110q35 25 85 25q54 0 91.5 -34t37.5 -95q0 -62 -45.5 -98t-108.5 -36q-57 0 -93.5 25.5
t-36.5 66.5q0 26 15.5 41.5t38.5 15.5q16 0 26 -6q-19 -21 -19 -50q0 -65 69 -65zM740 224q54 -20 78.5 -47t24.5 -69q0 -51 -40 -82.5t-102 -31.5q-65 0 -106.5 28t-41.5 77q0 35 26 61t66 36q-70 31 -70 100q0 49 35 78.5t88 29.5q52 0 86.5 -25.5t34.5 -67.5
q0 -36 -23.5 -57.5t-55.5 -29.5zM629 315q0 -48 62 -72l37 -15q42 29 42 82q0 27 -20 46t-51 19q-32 0 -51 -17t-19 -43zM718 167l-62 24q-50 -31 -49 -86q0 -36 26 -58.5t67 -22.5q36 0 61 18.5t25 47.5q0 50 -68 77z" />
    <glyph glyph-name="uni215E" unicode="&#x215e;" horiz-adv-x="823" 
d="M177 -10h-45l438 720h45zM40 590v110h282v-2l-53 -82q-84 -129 -87 -309l-68 -11q23 172 125 320l19 28h-136q-31 0 -43 -10.5t-25 -42.5zM675 224q54 -20 78.5 -47t24.5 -69q0 -51 -40 -82.5t-102 -31.5q-65 0 -106.5 28t-41.5 77q0 35 26 61t66 36q-70 31 -70 100
q0 49 35 78.5t88 29.5q52 0 86.5 -25.5t34.5 -67.5q0 -36 -23.5 -57.5t-55.5 -29.5zM564 315q0 -48 62 -72l37 -15q42 29 42 82q0 27 -20 46t-51 19q-32 0 -51 -17t-19 -43zM653 167l-62 24q-50 -31 -49 -86q0 -36 26 -58.5t67 -22.5q36 0 61 18.5t25 47.5q0 50 -68 77z" />
    <glyph glyph-name="minus" unicode="&#x2212;" horiz-adv-x="598" 
d="M71 319v43h456v-43h-456z" />
    <glyph glyph-name="approxequal" unicode="&#x2248;" horiz-adv-x="628" 
d="M86 358v45q66 41 123 41q39 0 104 -20t104 -20q62 0 125 41v-45q-63 -41 -125 -41q-39 0 -104 20t-104 20q-59 0 -123 -41zM86 236v45q64 41 123 41q39 0 104 -20t104 -20q62 0 125 41v-45q-63 -41 -125 -41q-39 0 -104 20t-104 20q-57 0 -123 -41z" />
    <glyph glyph-name="notequal" unicode="&#x2260;" horiz-adv-x="628" 
d="M542 252h-273l-91 -114h-51l91 114h-132v40h164l75 94h-239v40h271l93 116h50l-92 -116h134v-40h-166l-75 -94h241v-40z" />
    <glyph glyph-name="lessequal" unicode="&#x2264;" horiz-adv-x="488" 
d="M75 376v41l348 171v-47l-296 -144l296 -146v-47zM75 105v43h348v-43h-348z" />
    <glyph glyph-name="greaterequal" unicode="&#x2265;" horiz-adv-x="488" 
d="M413 417v-41l-348 -172v47l296 146l-296 144v47zM413 148v-43h-348v43h348z" />
    <glyph glyph-name="uni00200326" horiz-adv-x="500" 
d="M274 -145q-14 -9 -31 -9q-20 0 -33 13.5t-13 32.5q0 23 14 37t37 14q30 0 48 -21.5t18 -58.5q0 -43 -34 -74.5t-94 -33.5v25q88 10 88 75z" />
    <glyph glyph-name="uni00200323" horiz-adv-x="500" 
d="M250 -187q-22 0 -38 15.5t-16 38.5t16 38.5t38 15.5t38 -15.5t16 -38.5t-16 -38.5t-38 -15.5z" />
    <glyph glyph-name="i.dot" horiz-adv-x="264" 
d="M134 603q-22 0 -38 15.5t-16 38.5t16 38.5t38 15.5t38 -15.5t16 -38.5t-16 -38.5t-38 -15.5zM172 484v-377q0 -32 6.5 -50.5t16 -26.5t35.5 -24v-6h-182v6q26 16 35.5 24t16 26.5t6.5 50.5v276q0 24 -11 43t-22.5 28t-35.5 24v6h135z" />
    <glyph glyph-name="space.tab" horiz-adv-x="320" 
 />
    <glyph glyph-name="period.tab" horiz-adv-x="320" 
d="M219 50q0 -25 -17.5 -42t-41.5 -17t-41.5 17t-17.5 42t17.5 42t41.5 17t41.5 -17t17.5 -42z" />
    <glyph glyph-name="comma.tab" horiz-adv-x="320" 
d="M193 12q-15 -9 -34 -9q-21 0 -35 14.5t-14 34.5q0 24 15 38.5t40 14.5q33 0 52 -24.5t19 -67.5q0 -63 -40 -107.5t-106 -48.5v26q55 12 81.5 46t21.5 83z" />
    <glyph glyph-name="colon.tab" horiz-adv-x="320" 
d="M219 375q0 -25 -17.5 -42t-41.5 -17t-41.5 17t-17.5 42t17.5 42t41.5 17t41.5 -17t17.5 -42zM219 50q0 -25 -17.5 -42t-41.5 -17t-41.5 17t-17.5 42t17.5 42t41.5 17t41.5 -17t17.5 -42z" />
    <glyph glyph-name="semicolon.tab" horiz-adv-x="320" 
d="M219 375q0 -25 -17.5 -42t-41.5 -17t-41.5 17t-17.5 42t17.5 42t41.5 17t41.5 -17t17.5 -42zM183 12q-15 -9 -34 -9q-21 0 -35 14.5t-14 34.5q0 24 15 38.5t40 14.5q33 0 52 -24.5t19 -67.5q0 -63 -40 -107.5t-106 -48.5v26q55 12 81.5 46t21.5 83z" />
    <glyph glyph-name="hyphen.cap" horiz-adv-x="349" 
d="M50 309v43h249v-43h-249z" />
    <glyph glyph-name="endash.cap" horiz-adv-x="520" 
d="M50 312v37h420v-37h-420z" />
    <glyph glyph-name="emdash.cap" horiz-adv-x="820" 
d="M50 312v37h720v-37h-720z" />
    <glyph glyph-name="parenleft.cap" horiz-adv-x="342" 
d="M70 333q0 142 56.5 256.5t155.5 179.5h20q-80 -68 -125 -182.5t-45 -253.5t45 -253.5t125 -182.5h-20q-99 65 -155.5 179.5t-56.5 256.5z" />
    <glyph glyph-name="parenright.cap" horiz-adv-x="342" 
d="M60 769q99 -65 155.5 -179.5t56.5 -256.5t-56.5 -256.5t-155.5 -179.5h-20q80 68 125 182.5t45 253.5t-45 253.5t-125 182.5h20z" />
    <glyph glyph-name="bracketleft.cap" horiz-adv-x="304" 
d="M80 -103v872h184v-14l-136 -29v-785l136 -30v-14h-184z" />
    <glyph glyph-name="bracketright.cap" horiz-adv-x="304" 
d="M224 769v-872h-184v14l136 30v785l-136 29v14h184z" />
    <glyph glyph-name="braceleft.cap" horiz-adv-x="378" 
d="M30 325v16q120 4 120 140q0 20 -7.5 65.5t-7.5 72.5q0 61 48 105.5t118 44.5q26 0 47 -4v-7q-65 0 -111 -39t-46 -111q0 -11 7.5 -60t7.5 -73q0 -66 -38 -101.5t-77 -40.5q39 -5 77 -40.5t38 -101.5q0 -24 -7.5 -73t-7.5 -60q0 -72 46 -111t111 -39v-7q-21 -4 -47 -4
q-70 0 -118 44.5t-48 105.5q0 27 7.5 72.5t7.5 65.5q0 136 -120 140z" />
    <glyph glyph-name="braceright.cap" horiz-adv-x="378" 
d="M348 341v-16q-120 -4 -120 -140q0 -20 7.5 -65.5t7.5 -72.5q0 -61 -48 -105.5t-118 -44.5q-26 0 -47 4v7q65 0 111 39t46 111q0 11 -7.5 60t-7.5 73q0 66 38 101.5t77 40.5q-39 5 -77 40.5t-38 101.5q0 24 7.5 73t7.5 60q0 72 -46 111t-111 39v7q21 4 47 4
q70 0 118 -44.5t48 -105.5q0 -27 -7.5 -72.5t-7.5 -65.5q0 -136 120 -140z" />
    <glyph glyph-name="guilsinglleft.cap" horiz-adv-x="388" 
d="M70 340v8q112 64 248 206h16q-56 -97 -155 -210q99 -113 155 -210h-16q-136 142 -248 206z" />
    <glyph glyph-name="guilsinglright.cap" horiz-adv-x="388" 
d="M318 348v-8q-112 -64 -248 -206h-16q56 97 155 210q-99 113 -155 210h16q136 -142 248 -206z" />
    <glyph glyph-name="guillemotleft.cap" horiz-adv-x="621" 
d="M303 340v8q112 64 248 206h16q-56 -97 -155 -210q99 -113 155 -210h-16q-136 142 -248 206zM70 340v8q112 64 248 206h16q-56 -97 -155 -210q99 -113 155 -210h-16q-136 142 -248 206z" />
    <glyph glyph-name="guillemotright.cap" horiz-adv-x="621" 
d="M551 348v-8q-112 -64 -248 -206h-16q56 97 155 210q-99 113 -155 210h16q136 -142 248 -206zM318 348v-8q-112 -64 -248 -206h-16q56 97 155 210q-99 113 -155 210h16q136 -142 248 -206z" />
    <glyph glyph-name="slash.cap" horiz-adv-x="392" 
d="M20 -103l300 872h42l-300 -872h-42z" />
    <glyph glyph-name="backslash.cap" horiz-adv-x="392" 
d="M72 769l300 -872h-42l-300 872h42z" />
    <glyph glyph-name="bar.cap" horiz-adv-x="219" 
d="M90 -103v872h39v-872h-39z" />
    <glyph glyph-name="at.cap" horiz-adv-x="968" 
d="M699 539l-67 -274q-12 -47 7 -71t58 -24q61 0 110 59.5t49 178.5q0 145 -99 227t-248 82q-155 0 -267.5 -114t-112.5 -286q0 -162 105.5 -264.5t270.5 -102.5q96 0 171.5 23.5t145.5 78.5l14 -21q-115 -118 -331 -118q-192 0 -313.5 111.5t-121.5 293.5q0 191 128.5 314
t310.5 123q164 0 279 -94t115 -253q0 -72 -19.5 -128t-51 -87.5t-66.5 -47t-70 -15.5q-54 0 -88.5 27.5t-34.5 79.5q-21 -46 -61.5 -76.5t-88.5 -30.5q-59 0 -97 40t-38 107q0 107 66.5 184.5t157.5 77.5q46 0 76.5 -23t36.5 -55q9 17 30.5 42t34.5 36h9zM577 318l12 50
q16 66 -6.5 98.5t-67.5 32.5q-64 0 -111 -66t-47 -155q0 -48 22 -77.5t57 -29.5q49 0 86.5 40t54.5 107z" />
    <glyph glyph-name="exclamdown.cap" horiz-adv-x="258" 
d="M129 709q24 0 41.5 -17t17.5 -42t-17.5 -42t-41.5 -17t-41.5 17t-17.5 42t17.5 42t41.5 17zM179 0h-100l45 512h10z" />
    <glyph glyph-name="questiondown.cap" horiz-adv-x="491" 
d="M210 651q0 25 17.5 42t41.5 17t41.5 -17t17.5 -42t-17.5 -42t-41.5 -17t-41.5 17t-17.5 42zM246 29q60 0 93 34t33 86q0 38 -17 62q12 2 17 2q32 0 50.5 -20t18.5 -58q0 -56 -53.5 -100t-141.5 -44q-92 0 -144 51.5t-52 124.5q0 83 54.5 139.5t145.5 82.5v121h37v-181
q-79 -15 -129 -57.5t-50 -111.5q0 -56 37 -93.5t101 -37.5z" />
    <glyph glyph-name="periodcentered.cap" horiz-adv-x="248" 
d="M183 330q0 -25 -17.5 -42t-41.5 -17t-41.5 17t-17.5 42t17.5 42t41.5 17t41.5 -17t17.5 -42z" />
    <glyph glyph-name="bullet.cap" horiz-adv-x="330" 
d="M50 330q0 47 34 81t81 34t81 -34t34 -81t-34 -81t-81 -34t-81 34t-34 81z" />
    <glyph glyph-name="zero.dnom" horiz-adv-x="410" 
d="M366 199q0 -91 -44 -148t-117 -57t-116.5 56.5t-43.5 148.5t43.5 148.5t116.5 56.5t117 -57t44 -148zM296 199q0 175 -91 175t-91 -175t91 -175t91 175z" />
    <glyph glyph-name="one.dnom" horiz-adv-x="255" 
d="M230 0h-203v11q8 3 21 7t18.5 6t13 5.5t10.5 7t5.5 9t2.5 12.5v279q0 7 -2.5 12.5t-5.5 9t-10.5 7.5t-13.5 6.5t-19.5 7t-22.5 8.5v10h135v-340q0 -8 2.5 -14t10.5 -10.5t13 -7t21 -7.5t24 -8v-11z" />
    <glyph glyph-name="two.dnom" horiz-adv-x="365" 
d="M96 52l116 1q46 1 62 9t37 43h10l-13 -105h-281v3l81 87q41 43 62 67t43.5 65.5t22.5 76.5t-18 56t-52 21q-31 0 -47.5 -19t-16.5 -48q-2 -38 20 -56q-6 -5 -24 -5q-24 0 -39.5 16t-15.5 43q0 41 34.5 69t88.5 28q60 0 98 -30.5t38 -83.5q0 -30 -11 -55t-42 -56.5
t-60.5 -55t-92.5 -71.5z" />
    <glyph glyph-name="three.dnom" horiz-adv-x="374" 
d="M179 -6q-58 0 -97 25.5t-39 67.5q0 26 16 41.5t40 15.5q10 0 25 -5q-19 -22 -19 -50q0 -67 74 -67q38 0 60 21.5t22 65.5q0 46 -25.5 71t-74.5 25v20q89 3 89 80q0 71 -68 71q-64 0 -64 -61q0 -34 19 -50q-8 -5 -21 -5q-24 0 -39 15t-15 41q0 37 33 62.5t87 25.5
q57 0 94 -25.5t37 -73.5q0 -39 -29 -62.5t-71 -26.5v-1q53 -3 84.5 -32.5t31.5 -73.5q0 -55 -42 -85t-108 -30z" />
    <glyph glyph-name="four.dnom" horiz-adv-x="408" 
d="M223 133v210l-149 -210h149zM308 109h-25v-43q0 -27 6 -36.5t26 -22.5v-7h-124v7q20 13 26 22.5t6 36.5v43h-198l-1 2l207 287h52v-265h25q26 0 34.5 5t21.5 25h7v-85h-7q-13 20 -21.5 25.5t-34.5 5.5z" />
    <glyph glyph-name="five.dnom" horiz-adv-x="364" 
d="M165 22q41 0 63.5 27t22.5 75q0 99 -84 99q-51 0 -89 -36h-3l26 211q72 -9 117 -9q63 0 89 25h2q0 -43 -19 -65.5t-64 -22.5q-46 0 -107 16l-14 -110q35 25 85 25q54 0 91.5 -34t37.5 -95q0 -62 -45.5 -98t-108.5 -36q-57 0 -93.5 25.5t-36.5 66.5q0 26 15.5 41.5
t38.5 15.5q16 0 26 -6q-19 -21 -19 -50q0 -65 69 -65z" />
    <glyph glyph-name="six.dnom" horiz-adv-x="375" 
d="M212 377q-54 0 -80 -52.5t-26 -140.5q9 29 36 48t63 19q54 0 90 -33t36 -92q0 -58 -40 -95t-99 -37q-70 0 -108.5 53.5t-38.5 137.5q0 93 46 156t121 63q50 0 81 -20.5t31 -54.5q0 -22 -13.5 -34t-33.5 -12q-13 0 -22 7q16 13 16 38q1 23 -14.5 36t-44.5 13zM116 121
q1 -45 21 -72t55 -27t55 27t21 72q0 44 -20.5 71.5t-55.5 27.5t-55.5 -27.5t-20.5 -71.5z" />
    <glyph glyph-name="seven.dnom" horiz-adv-x="343" 
d="M40 288v110h282v-2l-53 -82q-84 -129 -87 -309l-68 -11q23 172 125 320l19 28h-136q-31 0 -43 -10.5t-25 -42.5z" />
    <glyph glyph-name="eight.dnom" horiz-adv-x="380" 
d="M232 224q54 -20 78.5 -47t24.5 -69q0 -51 -40 -82.5t-102 -31.5q-65 0 -106.5 28t-41.5 77q0 35 26 61t66 36q-70 31 -70 100q0 49 35 78.5t88 29.5q52 0 86.5 -25.5t34.5 -67.5q0 -36 -23.5 -57.5t-55.5 -29.5zM121 315q0 -48 62 -72l37 -15q42 29 42 82q0 27 -20 46
t-51 19q-32 0 -51 -17t-19 -43zM210 167l-62 24q-50 -31 -49 -86q0 -36 26 -58.5t67 -22.5q36 0 61 18.5t25 47.5q0 50 -68 77z" />
    <glyph glyph-name="nine.dnom" horiz-adv-x="375" 
d="M260 277q-1 45 -21 72t-55 27t-55 -27t-21 -72q0 -44 20.5 -71.5t55.5 -27.5t55.5 27.5t20.5 71.5zM164 21q54 0 80 52.5t26 140.5q-9 -29 -36 -47.5t-63 -18.5q-54 0 -90 33t-36 91t40 95t99 37q70 0 108.5 -53.5t38.5 -137.5q0 -92 -46 -155.5t-121 -63.5q-50 0 -81 21
t-31 55q0 22 13.5 33.5t33.5 11.5q13 0 22 -7q-16 -11 -16 -38q-1 -23 14.5 -36t44.5 -13z" />
    <glyph glyph-name="a.ord" horiz-adv-x="392" 
d="M257 462l-50 -10q-54 -10 -79 -28t-25 -53q0 -57 61 -57q36 0 64.5 29.5t28.5 82.5v36zM389 300v-9q-30 -12 -63 -12q-64 0 -67 74q-11 -33 -44.5 -54.5t-76.5 -21.5q-44 0 -72.5 22.5t-28.5 64.5q0 51 43.5 74.5t121.5 37.5l55 10v27q0 49 -17.5 70t-58.5 21
q-31 0 -48.5 -14.5t-17.5 -39.5q0 -19 13 -34q-11 -11 -35 -11q-40 0 -40 41q0 35 38 60.5t99 25.5q132 0 132 -117q0 -33 -1 -85t-1 -71q0 -29 16.5 -43t52.5 -16z" />
    <glyph glyph-name="b.ord" horiz-adv-x="444" 
d="M132 467v-46q0 -52 31.5 -80.5t70.5 -28.5q49 0 78 39t29 109q0 61 -28 97t-77 36q-46 0 -75 -37t-29 -89zM123 347q-12 -45 -54 -70h-8q9 42 9 155v303q0 18 -7.5 31.5t-15.5 20t-25 16.5v5h110v-267q13 40 46.5 65.5t80.5 25.5q66 0 108.5 -46t42.5 -126
q0 -82 -47 -132.5t-115 -50.5q-45 0 -77.5 20t-47.5 50z" />
    <glyph glyph-name="c.ord" horiz-adv-x="369" 
d="M208 603q-50 0 -77.5 -40t-27.5 -104q0 -66 30.5 -104.5t82.5 -38.5q79 0 108 79l14 -6q-12 -53 -48.5 -82.5t-93.5 -29.5q-70 0 -116 46.5t-46 126.5q0 82 49 132t124 50q53 0 88.5 -24.5t35.5 -61.5q0 -44 -45 -44q-14 0 -19 5q7 16 7 31q0 29 -17 47t-49 18z" />
    <glyph glyph-name="d.ord" horiz-adv-x="446" 
d="M312 442v46q0 52 -31.5 80.5t-70.5 28.5q-49 0 -78 -39.5t-29 -107.5q0 -62 28 -98t77 -36q46 0 75 37t29 89zM314 284l-2 84q-13 -40 -46.5 -65.5t-80.5 -25.5q-66 0 -108.5 46t-42.5 127t46.5 131.5t112.5 50.5q87 0 119 -68v171q0 18 -7.5 31.5t-15.5 20t-25 16.5v5
h110v-448q0 -32 7.5 -43.5t32.5 -27.5v-5h-100z" />
    <glyph glyph-name="e.ord" horiz-adv-x="381" 
d="M198 632q72 0 112 -45.5t40 -126.5h-248q0 -68 31 -106.5t86 -38.5q82 0 113 79l14 -5q-12 -54 -49 -83t-96 -29q-72 0 -119.5 46t-47.5 127t47.5 131.5t116.5 50.5zM103 487h179q-2 116 -84 116q-41 0 -65.5 -31t-29.5 -85z" />
    <glyph glyph-name="f.ord" horiz-adv-x="264" 
d="M140 594v-239q0 -29 14 -41t55 -24v-6h-172v5q18 11 24.5 17t11 18.5t4.5 35.5v234h-49v19l49 14v49q0 62 37 98.5t98 36.5q42 0 70.5 -18.5t28.5 -47.5q0 -40 -44 -40q-12 0 -20 3q8 12 8 34q0 19 -12.5 31.5t-36.5 12.5q-31 0 -48.5 -24t-17.5 -69v-70h101l-4 -29h-97z
" />
    <glyph glyph-name="g.ord" horiz-adv-x="413" 
d="M260 519q0 42 -18 64.5t-51 22.5t-51 -22.5t-18 -64.5q0 -87 69 -87t69 87zM377 248q0 -58 -54 -89.5t-134 -31.5q-72 0 -120 23t-48 69q0 29 25 49t69 26q-68 13 -68 63q0 49 58 71q-48 32 -48 91q0 49 35.5 81t98.5 32q65 0 104 -37q32 42 68 42q20 0 31.5 -10.5
t11.5 -29.5q0 -16 -12 -26.5t-28 -10.5q0 36 -29 36q-14 0 -31 -15q20 -28 20 -62q0 -49 -36 -81t-99 -32q-40 0 -71 14q-29 -16 -29 -38q0 -35 55 -35h98q133 0 133 -99zM240 289h-74q-87 -5 -87 -65q0 -35 30.5 -52.5t79.5 -17.5q60 0 96 20t36 57q0 58 -81 58z" />
    <glyph glyph-name="h.ord" horiz-adv-x="439" 
d="M369 510v-150q0 -32 7 -43.5t32 -27.5v-5h-142v5q18 11 24.5 17t11 18.5t4.5 35.5v139q0 88 -73 88q-41 0 -69 -33t-28 -90v-104q0 -32 7.5 -43.5t32.5 -27.5v-5h-142v5q18 11 24.5 17t10.5 18.5t4 35.5v375q0 18 -7 31.5t-15 20t-25 16.5v5h110v-269q31 93 123 93
q53 0 81.5 -32.5t28.5 -89.5z" />
    <glyph glyph-name="i.ord" horiz-adv-x="210" 
d="M60 743q0 19 12.5 32t31.5 13t32 -13t13 -32q0 -18 -13 -31t-32 -13t-31.5 13t-12.5 31zM140 625v-265q0 -32 7 -43.5t32 -27.5v-5h-142v5q18 11 24.5 17t11 18.5t4.5 35.5v192q0 26 -11 39t-36 29v5h110z" />
    <glyph glyph-name="j.ord" horiz-adv-x="201" 
d="M56 743q0 19 13 32t32 13t31.5 -13t12.5 -32q0 -18 -12.5 -31t-31.5 -13t-32 13t-13 31zM73 242v310q0 26 -11 39t-36 29v5h110v-365q0 -63 -31 -98t-88 -35q-41 0 -66 16.5t-25 44.5q0 41 46 41q6 0 18 -3q-7 -13 -7 -32t11 -31.5t29 -12.5q50 0 50 92z" />
    <glyph glyph-name="k.ord" horiz-adv-x="420" 
d="M176 289v-5h-142v5q18 11 24.5 17t10.5 18.5t4 35.5v375q0 18 -7 31.5t-15 20t-25 16.5v5h110v-324h17q23 0 36 13l84 77q14 13 14 25q0 13 -22 21v5h133v-5q-54 -18 -97 -57l-77 -72l112 -143q35 -44 81 -59v-5h-121q-5 22 -25 49l-86 111q-11 15 -27 15h-22v-99
q0 -32 7.5 -43.5t32.5 -27.5z" />
    <glyph glyph-name="l.ord" horiz-adv-x="208" 
d="M136 808v-448q0 -32 7.5 -43.5t32.5 -27.5v-5h-142v5q18 11 24.5 17t10.5 18.5t4 35.5v375q0 18 -7 31.5t-15 20t-25 16.5v5h110z" />
    <glyph glyph-name="m.ord" horiz-adv-x="646" 
d="M357 537q14 45 45 70t73 25q49 0 75 -32.5t26 -89.5v-150q0 -32 7.5 -43.5t32.5 -27.5v-5h-142v5q18 11 24.5 17t10.5 18.5t4 35.5v138q0 90 -64 90q-38 0 -64.5 -33.5t-26.5 -90.5v-104q0 -32 7.5 -43.5t32.5 -27.5v-5h-143v5q18 11 25 17t11 18.5t4 35.5v138
q0 90 -65 90q-38 0 -64 -33.5t-26 -90.5v-104q0 -32 7 -43.5t32 -27.5v-5h-142v5q18 11 24.5 17t11 18.5t4.5 35.5v192q0 26 -11 39t-36 29v5h107l3 -86q32 93 117 93q87 0 100 -95z" />
    <glyph glyph-name="n.ord" horiz-adv-x="442" 
d="M372 510v-150q0 -32 7.5 -43.5t32.5 -27.5v-5h-142v5q18 11 24.5 17t10.5 18.5t4 35.5v139q0 39 -17 63.5t-55 24.5q-41 0 -69 -33t-28 -90v-104q0 -32 7 -43.5t32 -27.5v-5h-142v5q18 11 24.5 17t11 18.5t4.5 35.5v192q0 26 -11 39t-36 29v5h107l3 -86q31 93 122 93
q53 0 81.5 -32.5t28.5 -89.5z" />
    <glyph glyph-name="o.ord" horiz-adv-x="412" 
d="M377 454q0 -77 -48.5 -127t-122.5 -50t-123 50t-49 127q0 78 49 128t123 50t122.5 -50t48.5 -128zM308 454q0 70 -26 109t-76 39t-76 -39t-26 -109t26 -109t76 -39t76 39t26 109z" />
    <glyph glyph-name="p.ord" horiz-adv-x="448" 
d="M136 467v-46q0 -52 31.5 -80.5t70.5 -28.5q49 0 78 39t29 109q0 61 -28 97t-77 36q-46 0 -75 -37t-29 -89zM136 345v-135q0 -23 4.5 -36t10.5 -18.5t25 -17.5v-4h-142v4q18 12 24 18t10.5 18.5t4.5 35.5v342q0 26 -11 39t-36 29v5h107l3 -84q13 40 46 65.5t80 25.5
q66 0 108.5 -46t42.5 -126q0 -82 -46 -132.5t-112 -50.5q-88 0 -119 68z" />
    <glyph glyph-name="q.ord" horiz-adv-x="440" 
d="M320 561q14 47 55 71h9q-10 -42 -10 -156v-266q0 -23 4.5 -36t10.5 -18.5t25 -17.5v-4h-142v4q19 12 25 17.5t10.5 18.5t4.5 36v158q-13 -40 -46.5 -65.5t-80.5 -25.5q-66 0 -108.5 46t-42.5 127t47 131.5t114 50.5q44 0 77.5 -21t47.5 -50zM312 442v46q0 52 -31.5 80.5
t-70.5 28.5q-49 0 -78 -39.5t-29 -107.5q0 -62 28 -98t77 -36q46 0 75 37t29 89z" />
    <glyph glyph-name="r.ord" horiz-adv-x="328" 
d="M140 443v-88q0 -29 13.5 -41t53.5 -24v-6h-170v5q18 11 24.5 17t11 18.5t4.5 35.5v192q0 26 -11 39t-36 29v5h107l3 -99q34 106 111 106q27 0 42 -14t15 -37q0 -22 -13 -34.5t-31 -12.5q2 45 -39 45q-36 0 -60.5 -39.5t-24.5 -96.5z" />
    <glyph glyph-name="s.ord" horiz-adv-x="355" 
d="M166 603q-30 0 -46.5 -13.5t-16.5 -36.5q0 -24 19.5 -39t63.5 -24q68 -14 97 -39t29 -69q0 -48 -36.5 -76.5t-93.5 -28.5q-52 0 -101 30l-25 -30h-5l-8 129h9q56 -99 130 -99q33 0 54.5 15t21.5 44q0 28 -21.5 41.5t-68.5 21.5q-64 13 -91.5 38.5t-27.5 67.5
q0 44 33 70.5t84 26.5q45 0 93 -28l27 28h5v-118h-8q-29 44 -55.5 66.5t-61.5 22.5z" />
    <glyph glyph-name="t.ord" horiz-adv-x="297" 
d="M15 594v18q80 16 99 127h19v-116h121l-3 -29h-118v-214q0 -62 55 -62t70 75l13 -3q-3 -51 -30 -82t-74 -31q-44 0 -70.5 25t-26.5 70v222h-55z" />
    <glyph glyph-name="u.ord" horiz-adv-x="431" 
d="M133 625v-215q0 -89 72 -89q41 0 67.5 33t26.5 91v107q0 26 -11 39t-36 29v5h110v-265q0 -32 7.5 -43.5t32.5 -27.5v-5h-103v86q-29 -93 -120 -93q-52 0 -80.5 32.5t-28.5 88.5v154q0 26 -11 39t-36 29v5h110z" />
    <glyph glyph-name="v.ord" horiz-adv-x="377" 
d="M206 373l80 176q14 31 14 42q0 16 -33 29v5h107v-5q-33 -26 -58 -78l-125 -265h-4l-126 265q-25 53 -57 78v5h131v-5q-25 -14 -25 -27t14 -44z" />
    <glyph glyph-name="w.ord" horiz-adv-x="524" 
d="M353 277l-91 256l-97 -256h-4l-103 265q-13 32 -23.5 46.5t-30.5 31.5v5h128v-5q-23 -12 -23 -27q0 -14 12 -44l60 -163l67 185q-13 31 -43 49v5h125v-5q-24 -12 -24 -27q0 -10 12 -44l55 -165l64 166q12 28 12 42q0 16 -34 28v5h105v-5q-20 -17 -30.5 -31.5t-23.5 -46.5
l-109 -265h-4z" />
    <glyph glyph-name="x.ord" horiz-adv-x="385" 
d="M116 289v-5h-110v5q44 18 91 78l66 87l-61 87q-24 35 -40 49t-45 30v5h139v-5q-15 -8 -15 -20q0 -14 27 -51l39 -55l40 54q25 36 25 49q0 16 -14 23v5h108v-5q-44 -19 -90 -78l-54 -70l72 -104q26 -36 42 -52t43 -27v-5h-139v5q15 7 15 20q0 12 -27 51l-50 71l-52 -71
q-25 -34 -25 -48q0 -16 15 -23z" />
    <glyph glyph-name="y.ord" horiz-adv-x="375" 
d="M176 282l-115 260q-21 47 -57 78v5h132v-5q-26 -14 -26 -27q0 -7 14 -44l82 -195l79 195q12 27 12 42q0 16 -32 29v5h106v-5q-36 -29 -56 -78l-135 -321q-11 -25 -18.5 -39t-19 -28t-26 -20.5t-33.5 -6.5q-25 0 -41 14t-16 36q0 18 12.5 31t30.5 15q-3 -6 -3 -17
q0 -14 8.5 -23t22.5 -9q18 0 30.5 14t26.5 45z" />
    <glyph glyph-name="z.ord" horiz-adv-x="378" 
d="M34 287l214 311h-85q-38 0 -57 -16t-50 -70h-6l10 119q14 -6 50 -6h225v-4l-213 -310h100q38 0 59 17t55 73l6 -2l-20 -115h-288v3z" />
    <glyph glyph-name="zero.st" 
d="M551 297q0 -134 -63 -220.5t-168 -86.5t-167.5 86.5t-62.5 220.5t62.5 220.5t167.5 86.5t168 -86.5t63 -220.5zM474 297q0 122 -39 195t-115 73t-114.5 -73t-38.5 -195t38.5 -195t114.5 -73t115 73t39 195z" />
    <glyph glyph-name="one.st" 
d="M137 594h216v-502q0 -31 23 -41.5t131 -32.5v-18h-370v18q108 22 131 32.5t23 41.5v409q0 32 -23 42.5t-131 32.5v18z" />
    <glyph glyph-name="two.st" 
d="M165 59l204 1q67 0 93.5 13.5t59.5 68.5h9l-19 -142h-434v5l105 112q7 7 35 36t38 40t34 38.5t34.5 42.5l28 40t25 43.5t13.5 41t6 43.5q0 59 -30.5 92t-86.5 33q-52 0 -79 -30t-27 -78q0 -51 24 -77q-5 -2 -21 -2q-32 0 -52 22t-20 59q0 58 49 100.5t126 42.5
q87 0 139 -46.5t52 -119.5q0 -40 -13.5 -74.5t-48 -75t-74.5 -78t-112 -100.5q-12 -11 -19 -17t-18.5 -16t-20.5 -18z" />
    <glyph glyph-name="three.st" 
d="M308 -10q-86 0 -141.5 39t-55.5 96q0 34 19 55t50 21q10 0 27 -5q-22 -28 -22 -62q0 -51 33 -79.5t90 -28.5q61 0 98 34.5t37 102.5t-41.5 106.5t-122.5 38.5v25q76 1 111 35t35 88q0 52 -30 81.5t-83 29.5q-51 0 -78.5 -26t-27.5 -71q0 -47 24 -71q-8 -3 -20 -3
q-32 0 -52 20.5t-20 57.5q0 52 47.5 91t126.5 39q81 0 132 -38t51 -110q0 -57 -43.5 -93.5t-101.5 -39.5v-2q79 -4 124 -49.5t45 -108.5q0 -83 -59.5 -128t-151.5 -45z" />
    <glyph glyph-name="four.st" 
d="M370 206v314l-241 -314h241zM460 168h-24v-61q0 -32 6.5 -50.5t16 -26.5t35.5 -24v-6h-182v6q26 16 35.5 24t16 26.5t6.5 50.5v61h-314v4l323 422h57v-388h24q32 0 50 6.5t25 15t24 35.5h6v-152h-6q-17 27 -24 35.5t-25 15t-50 6.5z" />
    <glyph glyph-name="five.st" 
d="M290 26q65 0 103.5 44.5t38.5 117.5q0 71 -33 110.5t-97 39.5q-78 0 -139 -57h-4l38 314q107 -16 167 -16q47 0 75 7.5t53 30.5h3q0 -55 -27 -82.5t-89 -27.5q-63 0 -155 19l-22 -184q46 35 117 35q79 0 134 -48t55 -139q0 -89 -64 -144.5t-154 -55.5q-84 0 -135.5 38.5
t-51.5 96.5q0 35 19 55.5t49 20.5q18 0 28 -5q-22 -29 -22 -62q0 -51 30.5 -79.5t82.5 -28.5z" />
    <glyph glyph-name="six.st" 
d="M355 568q-84 0 -127.5 -82t-43.5 -223q13 45 55.5 76.5t99.5 31.5q82 0 134.5 -50.5t52.5 -138.5q0 -84 -56.5 -138t-142.5 -54q-104 0 -157.5 79t-53.5 204q0 143 63 237t176 94q73 0 117 -32t44 -81q0 -31 -18 -47t-45 -16q-11 0 -18 3q14 17 16 52q1 37 -24.5 61
t-71.5 24zM201 179q0 -71 34 -111.5t92 -40.5q59 0 93 40.5t34 111.5q0 70 -34 110.5t-93 40.5q-58 0 -92 -40.5t-34 -110.5z" />
    <glyph glyph-name="seven.st" 
d="M92 451v143h453v-3l-71 -103q-138 -201 -146 -482l-81 -14q15 145 64.5 264.5t136.5 241.5l24 34h-263q-44 0 -67.5 -18.5t-40.5 -62.5h-9z" />
    <glyph glyph-name="eight.st" 
d="M371 324q80 -30 117.5 -70.5t37.5 -102.5q0 -70 -56.5 -115.5t-146.5 -45.5q-93 0 -152.5 42.5t-59.5 116.5q0 53 40 95t100 59q-105 47 -105 148q0 68 49.5 110.5t125.5 42.5q74 0 123 -39t49 -100q0 -103 -122 -141zM210 464q0 -75 89 -111l55 -23q75 46 75 132
q0 48 -30 76.5t-78 28.5q-50 0 -80.5 -27.5t-30.5 -75.5zM353 262l-86 34q-88 -52 -88 -142q0 -61 40 -94.5t103 -33.5q58 0 97.5 29.5t39.5 82.5q0 82 -106 124z" />
    <glyph glyph-name="nine.st" 
d="M439 416q0 71 -34 111.5t-92 40.5q-59 0 -93 -40.5t-34 -111.5q0 -70 34 -110.5t93 -40.5q58 0 92 40.5t34 110.5zM285 27q84 0 127.5 82t43.5 223q-13 -45 -55.5 -76.5t-99.5 -31.5q-82 0 -134.5 50.5t-52.5 138.5q0 84 56.5 138t142.5 54q104 0 157.5 -79t53.5 -204
q0 -143 -63 -237t-176 -94q-73 0 -117 32t-44 81q0 31 18 47t45 16q11 0 18 -3q-14 -17 -16 -52q-1 -37 24.5 -61t71.5 -24z" />
    <glyph glyph-name="dollar.st" 
d="M182 464q0 -47 27 -71.5t87 -42.5v218q-51 -4 -82.5 -31.5t-31.5 -72.5zM351 263l-22 6v-243q57 6 91 38.5t34 87.5q0 43 -24 68.5t-79 42.5zM329 -104h-33v96q-85 1 -141 36t-56 84q0 28 17 43t40 15q15 0 23 -5q-9 -17 -9 -37q0 -46 35 -75t91 -29v255l-15 4
q-79 24 -119.5 60.5t-40.5 101.5q0 68 48 110.5t127 47.5v92h33v-92q74 -4 121.5 -33t47.5 -73q0 -55 -57 -55q-13 0 -20 3q10 18 10 39q0 33 -27 56.5t-75 27.5v-228l35 -11q74 -22 113 -60t39 -106q0 -73 -54 -117.5t-133 -52.5v-97z" />
    <glyph glyph-name="sterling.st" 
d="M459 -20q-29 0 -60.5 10t-48.5 19.5t-51.5 31.5t-43.5 28q-46 -77 -112 -77q-33 0 -54 19.5t-21 49.5q0 34 24 54.5t62 20.5q32 0 79 -19q10 38 10 83q0 14 -1.5 43t-1.5 35h-101v31h98q-4 68 -4 101q0 88 48 140.5t131 52.5q71 0 109 -30.5t38 -75.5q0 -34 -18.5 -52
t-45.5 -18q-14 0 -27 4q24 22 24 63q0 35 -20 55.5t-60 20.5q-51 0 -77.5 -38.5t-26.5 -104.5v-105v-13h140v-31h-141q-6 -109 -37 -178q42 -19 59.5 -26.5t56 -17.5t72.5 -10q83 0 97 86q22 -17 22 -50q0 -47 -33.5 -74.5t-84.5 -27.5zM143 23q51 0 79 64q-37 17 -68 17
q-50 0 -50 -43q0 -38 39 -38z" />
    <glyph glyph-name="yen.st" 
d="M415 6v-6h-190v6q38 18 49.5 33t11.5 55v91h-173v30h173v33l-28 47h-145v30h127l-104 175q-29 51 -79 88v6h163v-6q-28 -16 -28 -39q0 -17 12 -38l132 -224l131 224q12 22 12 38q0 23 -28 39v6h132v-6q-27 -20 -43 -37.5t-36 -50.5l-104 -175h127v-30h-145l-28 -47v-33
h173v-30h-173v-91q0 -40 11.5 -55t49.5 -33z" />
    <glyph glyph-name="Euro.st" 
d="M568 178q-15 -96 -70 -141t-134 -45q-83 0 -147 60.5t-78 177.5h-66v29h64q-1 9 -1 28q0 16 2 44h-65v29h68q17 120 84.5 181.5t163.5 61.5q71 0 121 -35t50 -89q0 -34 -18.5 -52t-45.5 -18q-14 0 -27 5q23 19 23 62q0 41 -26.5 67.5t-75.5 26.5q-70 0 -116 -53.5
t-59 -156.5h183l-8 -29h-178q0 -7 -0.5 -22t-0.5 -23q0 -18 1 -27h161l-8 -29h-151q11 -96 57.5 -142.5t112.5 -46.5q63 0 104.5 32.5t63.5 108.5z" />
    <glyph glyph-name="uni0192.st" 
d="M195 -157q-45 0 -71 19t-26 48q0 26 18 41t42 15q3 0 21 -3q-20 -22 -20 -50q0 -41 42 -41q53 0 64 92l46 345h-89l5 29h87l16 118q10 70 45.5 108.5t93.5 38.5q45 0 71.5 -19t26.5 -48q0 -26 -18 -41t-42 -15q-13 0 -21 3q20 20 20 49q0 42 -43 42q-29 0 -43.5 -23
t-20.5 -70l-19 -143h108l-4 -29h-108l-41 -314q-10 -74 -46 -113t-94 -39z" />
    <glyph glyph-name="A.sc" horiz-adv-x="692" 
d="M330 488l-120 -259h242zM195 7v-7h-165v7q31 21 44.5 36.5t30.5 52.5l239 508h4l240 -508q17 -37 30.5 -52.5t43.5 -36.5v-7h-182v7q29 13 40 21.5t11 21.5q0 10 -12 36l-50 106h-276l-46 -99q-11 -23 -11 -37q0 -19 59 -49z" />
    <glyph glyph-name="Agrave.sc" horiz-adv-x="692" 
d="M196 849h94l70 -188h-16zM330 488l-120 -259h242zM195 7v-7h-165v7q31 21 44.5 36.5t30.5 52.5l239 508h4l240 -508q17 -37 30.5 -52.5t43.5 -36.5v-7h-182v7q29 13 40 21.5t11 21.5q0 10 -12 36l-50 106h-276l-46 -99q-11 -23 -11 -37q0 -19 59 -49z" />
    <glyph glyph-name="Aacute.sc" horiz-adv-x="692" 
d="M400 849h94l-148 -188h-16zM330 488l-120 -259h242zM195 7v-7h-165v7q31 21 44.5 36.5t30.5 52.5l239 508h4l240 -508q17 -37 30.5 -52.5t43.5 -36.5v-7h-182v7q29 13 40 21.5t11 21.5q0 10 -12 36l-50 106h-276l-46 -99q-11 -23 -11 -37q0 -19 59 -49z" />
    <glyph glyph-name="Acircumflex.sc" horiz-adv-x="692" 
d="M354 839q23 -46 63.5 -104t77.5 -93h-25q-50 30 -124 106q-74 -76 -124 -106h-25q37 35 77.5 93t63.5 104h16zM330 488l-120 -259h242zM195 7v-7h-165v7q31 21 44.5 36.5t30.5 52.5l239 508h4l240 -508q17 -37 30.5 -52.5t43.5 -36.5v-7h-182v7q29 13 40 21.5t11 21.5
q0 10 -12 36l-50 106h-276l-46 -99q-11 -23 -11 -37q0 -19 59 -49z" />
    <glyph glyph-name="Atilde.sc" horiz-adv-x="692" 
d="M198 670h-24q39 128 107 128q26 0 71.5 -32.5t64.5 -32.5q29 0 44.5 16.5t32.5 52.5h24q-39 -128 -107 -128q-26 0 -71.5 32.5t-64.5 32.5q-29 0 -44.5 -16.5t-32.5 -52.5zM330 488l-120 -259h242zM195 7v-7h-165v7q31 21 44.5 36.5t30.5 52.5l239 508h4l240 -508
q17 -37 30.5 -52.5t43.5 -36.5v-7h-182v7q29 13 40 21.5t11 21.5q0 10 -12 36l-50 106h-276l-46 -99q-11 -23 -11 -37q0 -19 59 -49z" />
    <glyph glyph-name="Adieresis.sc" horiz-adv-x="692" 
d="M261 676q-22 0 -37.5 15.5t-15.5 37.5t15.5 37.5t37.5 15.5t37.5 -15.5t15.5 -37.5t-15.5 -37.5t-37.5 -15.5zM431 676q-22 0 -37.5 15.5t-15.5 37.5t15.5 37.5t37.5 15.5t37.5 -15.5t15.5 -37.5t-15.5 -37.5t-37.5 -15.5zM330 488l-120 -259h242zM195 7v-7h-165v7
q31 21 44.5 36.5t30.5 52.5l239 508h4l240 -508q17 -37 30.5 -52.5t43.5 -36.5v-7h-182v7q29 13 40 21.5t11 21.5q0 10 -12 36l-50 106h-276l-46 -99q-11 -23 -11 -37q0 -19 59 -49z" />
    <glyph glyph-name="Aring.sc" horiz-adv-x="692" 
d="M241 760q0 42 31 72.5t74 30.5t74 -30.5t31 -72.5q0 -43 -31 -73.5t-74 -30.5t-74 30.5t-31 73.5zM410 760q0 29 -17.5 47t-46.5 18t-46.5 -18t-17.5 -47t17.5 -46.5t46.5 -17.5t46.5 17.5t17.5 46.5zM330 488l-120 -259h242zM195 7v-7h-165v7q31 21 44.5 36.5t30.5 52.5
l239 508h4l240 -508q17 -37 30.5 -52.5t43.5 -36.5v-7h-182v7q29 13 40 21.5t11 21.5q0 10 -12 36l-50 106h-276l-46 -99q-11 -23 -11 -37q0 -19 59 -49z" />
    <glyph glyph-name="Amacron.sc" horiz-adv-x="692" 
d="M480 682h-268v47h268v-47zM330 488l-120 -259h242zM195 7v-7h-165v7q31 21 44.5 36.5t30.5 52.5l239 508h4l240 -508q17 -37 30.5 -52.5t43.5 -36.5v-7h-182v7q29 13 40 21.5t11 21.5q0 10 -12 36l-50 106h-276l-46 -99q-11 -23 -11 -37q0 -19 59 -49z" />
    <glyph glyph-name="Abreve.sc" horiz-adv-x="692" 
d="M232 826q3 -53 35 -81.5t79 -28.5t79 28.5t35 81.5h25q0 -77 -39 -122.5t-100 -45.5t-100 45.5t-39 122.5h25zM330 488l-120 -259h242zM195 7v-7h-165v7q31 21 44.5 36.5t30.5 52.5l239 508h4l240 -508q17 -37 30.5 -52.5t43.5 -36.5v-7h-182v7q29 13 40 21.5t11 21.5
q0 10 -12 36l-50 106h-276l-46 -99q-11 -23 -11 -37q0 -19 59 -49z" />
    <glyph glyph-name="Aogonek.sc" horiz-adv-x="692" 
d="M570 -149q-18 -36 -53 -61t-81 -25q-37 0 -63.5 23.5t-26.5 62.5q0 28 12 51.5t38.5 45t47.5 35t60 35.5q27 15 27 32q0 10 -12 36l-50 106h-276l-46 -99q-11 -23 -11 -37q0 -19 59 -49v-7h-165v7q31 21 44.5 36.5t30.5 52.5l239 508h4l240 -508q17 -37 30.5 -52.5
t43.5 -36.5v-7h-153q-54 -39 -79 -69.5t-25 -64.5q0 -29 15.5 -43.5t39.5 -14.5q51 0 97 55zM330 488l-120 -259h242z" />
    <glyph glyph-name="B.sc" horiz-adv-x="597" 
d="M317 0h-257v7q35 19 47.5 34.5t12.5 54.5v402q0 39 -12.5 54.5t-47.5 34.5v7h234q222 0 222 -150q0 -57 -47 -95.5t-114 -40.5v-2q81 -2 133.5 -39.5t52.5 -105.5q0 -81 -60 -121t-164 -40zM187 559v-237h103q154 0 154 121q0 116 -152 116h-105zM298 288h-111v-253h125
q158 0 158 126q0 127 -172 127z" />
    <glyph glyph-name="C.sc" horiz-adv-x="658" 
d="M139 300q0 -124 66.5 -193.5t167.5 -69.5q141 0 205 138l17 -4q-22 -83 -83 -131.5t-153 -48.5q-131 0 -214 86t-83 222q0 134 84 219.5t215 85.5q89 0 151 -47l43 47h8v-176h-7q-38 65 -83.5 101t-110.5 36q-98 0 -160.5 -72t-62.5 -193z" />
    <glyph glyph-name="Ccedilla.sc" horiz-adv-x="658" 
d="M337 -221q-34 0 -62 13t-42 36l16 20q32 -35 78 -35q24 0 40 12t16 35q0 56 -99 59l33 75q-114 14 -184.5 97.5t-70.5 207.5q0 134 84 219.5t215 85.5q89 0 151 -47l43 47h8v-176h-7q-38 65 -83.5 101t-110.5 36q-98 0 -160.5 -72t-62.5 -193q0 -124 66.5 -193.5
t167.5 -69.5q141 0 205 138l17 -4q-22 -83 -83 -131.5t-153 -48.5h-8l-21 -49q52 -2 85 -24t33 -58q0 -38 -31.5 -59.5t-79.5 -21.5z" />
    <glyph glyph-name="Cacute.sc" horiz-adv-x="658" 
d="M418 849h94l-148 -188h-16zM139 300q0 -124 66.5 -193.5t167.5 -69.5q141 0 205 138l17 -4q-22 -83 -83 -131.5t-153 -48.5q-131 0 -214 86t-83 222q0 134 84 219.5t215 85.5q89 0 151 -47l43 47h8v-176h-7q-38 65 -83.5 101t-110.5 36q-98 0 -160.5 -72t-62.5 -193z" />
    <glyph glyph-name="Ccircumflex.sc" horiz-adv-x="658" 
d="M372 849q23 -46 63.5 -104t77.5 -93h-25q-50 30 -124 106q-74 -76 -124 -106h-25q37 35 77.5 93t63.5 104h16zM139 300q0 -124 66.5 -193.5t167.5 -69.5q141 0 205 138l17 -4q-22 -83 -83 -131.5t-153 -48.5q-131 0 -214 86t-83 222q0 134 84 219.5t215 85.5
q89 0 151 -47l43 47h8v-176h-7q-38 65 -83.5 101t-110.5 36q-98 0 -160.5 -72t-62.5 -193z" />
    <glyph glyph-name="Cdotaccent.sc" horiz-adv-x="658" 
d="M364 685q-22 0 -38 15.5t-16 38.5t16 38.5t38 15.5t38 -15.5t16 -38.5t-16 -38.5t-38 -15.5zM139 300q0 -124 66.5 -193.5t167.5 -69.5q141 0 205 138l17 -4q-22 -83 -83 -131.5t-153 -48.5q-131 0 -214 86t-83 222q0 134 84 219.5t215 85.5q89 0 151 -47l43 47h8v-176
h-7q-38 65 -83.5 101t-110.5 36q-98 0 -160.5 -72t-62.5 -193z" />
    <glyph glyph-name="Ccaron.sc" horiz-adv-x="658" 
d="M513 849q-37 -35 -77.5 -93t-63.5 -104h-16q-23 46 -63.5 104t-77.5 93h25q50 -30 124 -106q74 76 124 106h25zM139 300q0 -124 66.5 -193.5t167.5 -69.5q141 0 205 138l17 -4q-22 -83 -83 -131.5t-153 -48.5q-131 0 -214 86t-83 222q0 134 84 219.5t215 85.5
q89 0 151 -47l43 47h8v-176h-7q-38 65 -83.5 101t-110.5 36q-98 0 -160.5 -72t-62.5 -193z" />
    <glyph glyph-name="D.sc" horiz-adv-x="693" 
d="M60 594h226q159 0 251.5 -80.5t92.5 -215.5q0 -136 -92.5 -217t-250.5 -81h-227v7q35 19 47.5 34.5t12.5 54.5v402q0 39 -12.5 54.5t-47.5 34.5v7zM554 298q0 121 -69.5 191t-199.5 70h-98v-524h99q130 0 199 70t69 193z" />
    <glyph glyph-name="Dcaron.sc" horiz-adv-x="693" 
d="M474 849q-37 -35 -77.5 -93t-63.5 -104h-16q-23 46 -63.5 104t-77.5 93h25q50 -30 124 -106q74 76 124 106h25zM60 594h226q159 0 251.5 -80.5t92.5 -215.5q0 -136 -92.5 -217t-250.5 -81h-227v7q35 19 47.5 34.5t12.5 54.5v402q0 39 -12.5 54.5t-47.5 34.5v7zM554 298
q0 121 -69.5 191t-199.5 70h-98v-524h99q130 0 199 70t69 193z" />
    <glyph glyph-name="E.sc" horiz-adv-x="611" 
d="M440 402v-198h-7q-22 55 -40.5 68t-72.5 13h-133v-250h179q72 0 108 21.5t81 84.5h6l-28 -141h-473v7q35 19 47.5 34.5t12.5 54.5v402q0 39 -12.5 54.5t-47.5 34.5v7h392q20 0 53 5l30 -131h-7q-48 55 -79.5 73t-101.5 18h-160v-239h133q54 0 72.5 13.5t40.5 68.5h7z" />
    <glyph glyph-name="Egrave.sc" horiz-adv-x="611" 
d="M170 849h94l70 -188h-16zM440 402v-198h-7q-22 55 -40.5 68t-72.5 13h-133v-250h179q72 0 108 21.5t81 84.5h6l-28 -141h-473v7q35 19 47.5 34.5t12.5 54.5v402q0 39 -12.5 54.5t-47.5 34.5v7h392q20 0 53 5l30 -131h-7q-48 55 -79.5 73t-101.5 18h-160v-239h133
q54 0 72.5 13.5t40.5 68.5h7z" />
    <glyph glyph-name="Eacute.sc" horiz-adv-x="611" 
d="M374 849h94l-148 -188h-16zM440 402v-198h-7q-22 55 -40.5 68t-72.5 13h-133v-250h179q72 0 108 21.5t81 84.5h6l-28 -141h-473v7q35 19 47.5 34.5t12.5 54.5v402q0 39 -12.5 54.5t-47.5 34.5v7h392q20 0 53 5l30 -131h-7q-48 55 -79.5 73t-101.5 18h-160v-239h133
q54 0 72.5 13.5t40.5 68.5h7z" />
    <glyph glyph-name="Ecircumflex.sc" horiz-adv-x="611" 
d="M328 849q23 -46 63.5 -104t77.5 -93h-25q-50 30 -124 106q-74 -76 -124 -106h-25q37 35 77.5 93t63.5 104h16zM440 402v-198h-7q-22 55 -40.5 68t-72.5 13h-133v-250h179q72 0 108 21.5t81 84.5h6l-28 -141h-473v7q35 19 47.5 34.5t12.5 54.5v402q0 39 -12.5 54.5
t-47.5 34.5v7h392q20 0 53 5l30 -131h-7q-48 55 -79.5 73t-101.5 18h-160v-239h133q54 0 72.5 13.5t40.5 68.5h7z" />
    <glyph glyph-name="Edieresis.sc" horiz-adv-x="611" 
d="M235 686q-22 0 -37.5 15.5t-15.5 37.5t15.5 37.5t37.5 15.5t37.5 -15.5t15.5 -37.5t-15.5 -37.5t-37.5 -15.5zM405 686q-22 0 -37.5 15.5t-15.5 37.5t15.5 37.5t37.5 15.5t37.5 -15.5t15.5 -37.5t-15.5 -37.5t-37.5 -15.5zM440 402v-198h-7q-22 55 -40.5 68t-72.5 13
h-133v-250h179q72 0 108 21.5t81 84.5h6l-28 -141h-473v7q35 19 47.5 34.5t12.5 54.5v402q0 39 -12.5 54.5t-47.5 34.5v7h392q20 0 53 5l30 -131h-7q-48 55 -79.5 73t-101.5 18h-160v-239h133q54 0 72.5 13.5t40.5 68.5h7z" />
    <glyph glyph-name="Emacron.sc" horiz-adv-x="611" 
d="M454 692h-268v47h268v-47zM440 402v-198h-7q-22 55 -40.5 68t-72.5 13h-133v-250h179q72 0 108 21.5t81 84.5h6l-28 -141h-473v7q35 19 47.5 34.5t12.5 54.5v402q0 39 -12.5 54.5t-47.5 34.5v7h392q20 0 53 5l30 -131h-7q-48 55 -79.5 73t-101.5 18h-160v-239h133
q54 0 72.5 13.5t40.5 68.5h7z" />
    <glyph glyph-name="Ebreve.sc" horiz-adv-x="611" 
d="M206 836q3 -53 35 -81.5t79 -28.5t79 28.5t35 81.5h25q0 -77 -39 -122.5t-100 -45.5t-100 45.5t-39 122.5h25zM440 402v-198h-7q-22 55 -40.5 68t-72.5 13h-133v-250h179q72 0 108 21.5t81 84.5h6l-28 -141h-473v7q35 19 47.5 34.5t12.5 54.5v402q0 39 -12.5 54.5
t-47.5 34.5v7h392q20 0 53 5l30 -131h-7q-48 55 -79.5 73t-101.5 18h-160v-239h133q54 0 72.5 13.5t40.5 68.5h7z" />
    <glyph glyph-name="Edotaccent.sc" horiz-adv-x="611" 
d="M320 685q-22 0 -38 15.5t-16 38.5t16 38.5t38 15.5t38 -15.5t16 -38.5t-16 -38.5t-38 -15.5zM440 402v-198h-7q-22 55 -40.5 68t-72.5 13h-133v-250h179q72 0 108 21.5t81 84.5h6l-28 -141h-473v7q35 19 47.5 34.5t12.5 54.5v402q0 39 -12.5 54.5t-47.5 34.5v7h392
q20 0 53 5l30 -131h-7q-48 55 -79.5 73t-101.5 18h-160v-239h133q54 0 72.5 13.5t40.5 68.5h7z" />
    <glyph glyph-name="Eogonek.sc" horiz-adv-x="611" 
d="M512 -149q-18 -36 -53 -61t-81 -25q-37 0 -63.5 23.5t-26.5 62.5q0 45 32.5 79t93.5 70h-354v7q35 19 47.5 34.5t12.5 54.5v402q0 39 -12.5 54.5t-47.5 34.5v7h392q20 0 53 5l30 -131h-7q-48 55 -79.5 73t-101.5 18h-160v-239h133q54 0 72.5 13.5t40.5 68.5h7v-198h-7
q-22 55 -40.5 68t-72.5 13h-133v-250h179q72 0 108 21.5t81 84.5h6l-28 -141h-82q-54 -39 -79 -69.5t-25 -64.5q0 -29 15.5 -43.5t39.5 -14.5q51 0 97 55z" />
    <glyph glyph-name="Ecaron.sc" horiz-adv-x="611" 
d="M469 849q-37 -35 -77.5 -93t-63.5 -104h-16q-23 46 -63.5 104t-77.5 93h25q50 -30 124 -106q74 76 124 106h25zM440 402v-198h-7q-22 55 -40.5 68t-72.5 13h-133v-250h179q72 0 108 21.5t81 84.5h6l-28 -141h-473v7q35 19 47.5 34.5t12.5 54.5v402q0 39 -12.5 54.5
t-47.5 34.5v7h392q20 0 53 5l30 -131h-7q-48 55 -79.5 73t-101.5 18h-160v-239h133q54 0 72.5 13.5t40.5 68.5h7z" />
    <glyph glyph-name="F.sc" horiz-adv-x="582" 
d="M265 0h-205v7q35 19 47.5 34.5t12.5 54.5v402q0 39 -12.5 54.5t-47.5 34.5v7h392q20 0 53 5l30 -131h-7q-48 55 -79.5 73t-101.5 18h-160v-246h133q54 0 72.5 13.5t40.5 68.5h7v-198h-7q-22 55 -40.5 68.5t-72.5 13.5h-133v-185q0 -39 15 -53t63 -33v-8z" />
    <glyph glyph-name="G.sc" horiz-adv-x="700" 
d="M539 111v83q0 39 -8.5 51.5t-42.5 30.5v7h165v-7q-32 -17 -41.5 -32.5t-9.5 -55.5v-196h-21l-37 85q-25 -39 -74 -63t-111 -24q-129 0 -212.5 86.5t-83.5 220.5t86 220.5t218 86.5q95 0 159 -47l46 47h5v-176h-6q-40 66 -87.5 101.5t-116.5 35.5q-101 0 -164 -74
t-63 -193q0 -122 66.5 -193t170.5 -71q105 0 162 77z" />
    <glyph glyph-name="Gcircumflex.sc" horiz-adv-x="700" 
d="M376 849q23 -46 63.5 -104t77.5 -93h-25q-50 30 -124 106q-74 -76 -124 -106h-25q37 35 77.5 93t63.5 104h16zM539 111v83q0 39 -8.5 51.5t-42.5 30.5v7h165v-7q-32 -17 -41.5 -32.5t-9.5 -55.5v-196h-21l-37 85q-25 -39 -74 -63t-111 -24q-129 0 -212.5 86.5
t-83.5 220.5t86 220.5t218 86.5q95 0 159 -47l46 47h5v-176h-6q-40 66 -87.5 101.5t-116.5 35.5q-101 0 -164 -74t-63 -193q0 -122 66.5 -193t170.5 -71q105 0 162 77z" />
    <glyph glyph-name="Gbreve.sc" horiz-adv-x="700" 
d="M254 836q3 -53 35 -81.5t79 -28.5t79 28.5t35 81.5h25q0 -77 -39 -122.5t-100 -45.5t-100 45.5t-39 122.5h25zM539 111v83q0 39 -8.5 51.5t-42.5 30.5v7h165v-7q-32 -17 -41.5 -32.5t-9.5 -55.5v-196h-21l-37 85q-25 -39 -74 -63t-111 -24q-129 0 -212.5 86.5
t-83.5 220.5t86 220.5t218 86.5q95 0 159 -47l46 47h5v-176h-6q-40 66 -87.5 101.5t-116.5 35.5q-101 0 -164 -74t-63 -193q0 -122 66.5 -193t170.5 -71q105 0 162 77z" />
    <glyph glyph-name="Gdotaccent.sc" horiz-adv-x="700" 
d="M368 685q-22 0 -38 15.5t-16 38.5t16 38.5t38 15.5t38 -15.5t16 -38.5t-16 -38.5t-38 -15.5zM539 111v83q0 39 -8.5 51.5t-42.5 30.5v7h165v-7q-32 -17 -41.5 -32.5t-9.5 -55.5v-196h-21l-37 85q-25 -39 -74 -63t-111 -24q-129 0 -212.5 86.5t-83.5 220.5t86 220.5
t218 86.5q95 0 159 -47l46 47h5v-176h-6q-40 66 -87.5 101.5t-116.5 35.5q-101 0 -164 -74t-63 -193q0 -122 66.5 -193t170.5 -71q105 0 162 77z" />
    <glyph glyph-name="uni0122.sc" horiz-adv-x="700" 
d="M539 111v83q0 39 -8.5 51.5t-42.5 30.5v7h165v-7q-32 -17 -41.5 -32.5t-9.5 -55.5v-196h-21l-37 85q-25 -39 -74 -63t-111 -24q-129 0 -212.5 86.5t-83.5 220.5t86 220.5t218 86.5q95 0 159 -47l46 47h5v-176h-6q-40 66 -87.5 101.5t-116.5 35.5q-101 0 -164 -74
t-63 -193q0 -122 66.5 -193t170.5 -71q105 0 162 77zM392 -145q-14 -9 -31 -9q-20 0 -33 13.5t-13 32.5q0 23 14 37t37 14q30 0 48 -21.5t18 -58.5q0 -43 -34 -74.5t-94 -33.5v25q88 10 88 75z" />
    <glyph glyph-name="H.sc" horiz-adv-x="751" 
d="M246 7v-7h-186v7q35 19 47.5 34.5t12.5 54.5v402q0 39 -12.5 54.5t-47.5 34.5v7h186v-7q-35 -18 -47 -34t-12 -55v-173h377v173q0 39 -12 54.5t-47 34.5v7h186v-7q-35 -19 -47.5 -34.5t-12.5 -54.5v-402q0 -39 12.5 -54.5t47.5 -34.5v-7h-186v7q35 19 47 34.5t12 54.5
v194h-377v-194q0 -39 12 -55t47 -34z" />
    <glyph glyph-name="Hcircumflex.sc" horiz-adv-x="751" 
d="M383 849q23 -46 63.5 -104t77.5 -93h-25q-50 30 -124 106q-74 -76 -124 -106h-25q37 35 77.5 93t63.5 104h16zM246 7v-7h-186v7q35 19 47.5 34.5t12.5 54.5v402q0 39 -12.5 54.5t-47.5 34.5v7h186v-7q-35 -18 -47 -34t-12 -55v-173h377v173q0 39 -12 54.5t-47 34.5v7h186
v-7q-35 -19 -47.5 -34.5t-12.5 -54.5v-402q0 -39 12.5 -54.5t47.5 -34.5v-7h-186v7q35 19 47 34.5t12 54.5v194h-377v-194q0 -39 12 -55t47 -34z" />
    <glyph glyph-name="I.sc" horiz-adv-x="306" 
d="M120 96v402q0 39 -12.5 54.5t-47.5 34.5v7h186v-7q-35 -18 -47 -34t-12 -55v-402q0 -39 12 -55t47 -34v-7h-186v7q35 19 47.5 34.5t12.5 54.5z" />
    <glyph glyph-name="Igrave.sc" horiz-adv-x="306" 
d="M3 849h94l70 -188h-16zM120 96v402q0 39 -12.5 54.5t-47.5 34.5v7h186v-7q-35 -18 -47 -34t-12 -55v-402q0 -39 12 -55t47 -34v-7h-186v7q35 19 47.5 34.5t12.5 54.5z" />
    <glyph glyph-name="Iacute.sc" horiz-adv-x="306" 
d="M207 849h94l-148 -188h-16zM120 96v402q0 39 -12.5 54.5t-47.5 34.5v7h186v-7q-35 -18 -47 -34t-12 -55v-402q0 -39 12 -55t47 -34v-7h-186v7q35 19 47.5 34.5t12.5 54.5z" />
    <glyph glyph-name="Icircumflex.sc" horiz-adv-x="306" 
d="M161 849q23 -46 63.5 -104t77.5 -93h-25q-50 30 -124 106q-74 -76 -124 -106h-25q37 35 77.5 93t63.5 104h16zM120 96v402q0 39 -12.5 54.5t-47.5 34.5v7h186v-7q-35 -18 -47 -34t-12 -55v-402q0 -39 12 -55t47 -34v-7h-186v7q35 19 47.5 34.5t12.5 54.5z" />
    <glyph glyph-name="Idieresis.sc" horiz-adv-x="306" 
d="M68 686q-22 0 -37.5 15.5t-15.5 37.5t15.5 37.5t37.5 15.5t37.5 -15.5t15.5 -37.5t-15.5 -37.5t-37.5 -15.5zM238 686q-22 0 -37.5 15.5t-15.5 37.5t15.5 37.5t37.5 15.5t37.5 -15.5t15.5 -37.5t-15.5 -37.5t-37.5 -15.5zM120 96v402q0 39 -12.5 54.5t-47.5 34.5v7h186
v-7q-35 -18 -47 -34t-12 -55v-402q0 -39 12 -55t47 -34v-7h-186v7q35 19 47.5 34.5t12.5 54.5z" />
    <glyph glyph-name="Itilde.sc" horiz-adv-x="306" 
d="M5 680h-24q39 128 107 128q26 0 71.5 -32.5t64.5 -32.5q29 0 44.5 16.5t32.5 52.5h24q-39 -128 -107 -128q-26 0 -71.5 32.5t-64.5 32.5q-29 0 -44.5 -16.5t-32.5 -52.5zM120 96v402q0 39 -12.5 54.5t-47.5 34.5v7h186v-7q-35 -18 -47 -34t-12 -55v-402q0 -39 12 -55
t47 -34v-7h-186v7q35 19 47.5 34.5t12.5 54.5z" />
    <glyph glyph-name="Imacron.sc" horiz-adv-x="306" 
d="M287 692h-268v47h268v-47zM120 96v402q0 39 -12.5 54.5t-47.5 34.5v7h186v-7q-35 -18 -47 -34t-12 -55v-402q0 -39 12 -55t47 -34v-7h-186v7q35 19 47.5 34.5t12.5 54.5z" />
    <glyph glyph-name="Ibreve.sc" horiz-adv-x="306" 
d="M39 836q3 -53 35 -81.5t79 -28.5t79 28.5t35 81.5h25q0 -77 -39 -122.5t-100 -45.5t-100 45.5t-39 122.5h25zM120 96v402q0 39 -12.5 54.5t-47.5 34.5v7h186v-7q-35 -18 -47 -34t-12 -55v-402q0 -39 12 -55t47 -34v-7h-186v7q35 19 47.5 34.5t12.5 54.5z" />
    <glyph glyph-name="Iogonek.sc" horiz-adv-x="306" 
d="M265 -149q-18 -36 -53 -61t-81 -25q-37 0 -63.5 23.5t-26.5 62.5q0 45 32.5 79t93.5 70h-107v7q35 19 47.5 34.5t12.5 54.5v402q0 39 -12.5 54.5t-47.5 34.5v7h186v-7q-35 -18 -47 -34t-12 -55v-402q0 -39 12 -55t47 -34v-7h-42q-54 -39 -79 -69.5t-25 -64.5
q0 -29 15.5 -43.5t39.5 -14.5q51 0 97 55z" />
    <glyph glyph-name="Idotaccent.sc" horiz-adv-x="306" 
d="M153 685q-23 0 -38.5 15.5t-15.5 38.5t15.5 38.5t38.5 15.5t38.5 -15.5t15.5 -38.5t-15.5 -38.5t-38.5 -15.5zM120 96v402q0 39 -12.5 54.5t-47.5 34.5v7h186v-7q-35 -18 -47 -34t-12 -55v-402q0 -39 12 -55t47 -34v-7h-186v7q35 19 47.5 34.5t12.5 54.5z" />
    <glyph glyph-name="J.sc" horiz-adv-x="515" 
d="M348 184v310q0 39 -12.5 54.5t-47.5 34.5v7h186v-7q-35 -18 -47 -34t-12 -55v-322q0 -79 -52.5 -130.5t-138.5 -51.5t-138 40.5t-52 99.5q0 37 21 59.5t52 22.5q24 0 37 -10q-36 -25 -36 -68q0 -47 32.5 -77.5t83.5 -30.5q124 0 124 158z" />
    <glyph glyph-name="Jcircumflex.sc" horiz-adv-x="515" 
d="M388 849q23 -46 63.5 -104t77.5 -93h-25q-50 30 -124 106q-74 -76 -124 -106h-25q37 35 77.5 93t63.5 104h16zM348 184v310q0 39 -12.5 54.5t-47.5 34.5v7h186v-7q-35 -18 -47 -34t-12 -55v-322q0 -79 -52.5 -130.5t-138.5 -51.5t-138 40.5t-52 99.5q0 37 21 59.5
t52 22.5q24 0 37 -10q-36 -25 -36 -68q0 -47 32.5 -77.5t83.5 -30.5q124 0 124 158z" />
    <glyph glyph-name="K.sc" horiz-adv-x="666" 
d="M246 0h-186v7q35 19 47.5 34.5t12.5 54.5v402q0 39 -12.5 54.5t-47.5 34.5v7h186v-7q-35 -18 -47 -34t-12 -55v-213l265 235q15 14 15 27q0 10 -9.5 18t-32.5 23v6h191v-6q-71 -32 -136 -89l-172 -153l222 -250q61 -67 113 -89v-7h-181v7q22 21 22 32q0 12 -17 31
l-209 235l-71 -61v-148q0 -39 12 -55t47 -34v-7z" />
    <glyph glyph-name="uni0136.sc" horiz-adv-x="666" 
d="M246 0h-186v7q35 19 47.5 34.5t12.5 54.5v402q0 39 -12.5 54.5t-47.5 34.5v7h186v-7q-35 -18 -47 -34t-12 -55v-213l265 235q15 14 15 27q0 10 -9.5 18t-32.5 23v6h191v-6q-71 -32 -136 -89l-172 -153l222 -250q61 -67 113 -89v-7h-181v7q22 21 22 32q0 12 -17 31
l-209 235l-71 -61v-148q0 -39 12 -55t47 -34v-7zM359 -145q-13 -9 -31 -9q-20 0 -33 13.5t-13 32.5q0 23 14 37t37 14q30 0 48 -21.5t18 -58.5q0 -43 -34 -74.5t-94 -33.5v25q88 10 88 75z" />
    <glyph glyph-name="L.sc" horiz-adv-x="583" 
d="M187 498v-463h155q72 0 109 24.5t84 100.5h7l-32 -160h-450v7q35 19 47.5 34.5t12.5 54.5v402q0 39 -12.5 54.5t-47.5 34.5v7h186v-7q-35 -18 -47 -34t-12 -55z" />
    <glyph glyph-name="Lacute.sc" horiz-adv-x="583" 
d="M225 849h94l-148 -188h-16zM187 498v-463h155q72 0 109 24.5t84 100.5h7l-32 -160h-450v7q35 19 47.5 34.5t12.5 54.5v402q0 39 -12.5 54.5t-47.5 34.5v7h186v-7q-35 -18 -47 -34t-12 -55z" />
    <glyph glyph-name="uni013B.sc" horiz-adv-x="583" 
d="M187 498v-463h155q72 0 109 24.5t84 100.5h7l-32 -160h-450v7q35 19 47.5 34.5t12.5 54.5v402q0 39 -12.5 54.5t-47.5 34.5v7h186v-7q-35 -18 -47 -34t-12 -55zM325 -145q-14 -9 -31 -9q-20 0 -33 13.5t-13 32.5q0 23 14 37t37 14q30 0 48 -21.5t18 -58.5
q0 -43 -34 -74.5t-94 -33.5v25q88 10 88 75z" />
    <glyph glyph-name="Lcaron.sc" horiz-adv-x="583" 
d="M491 594l-85 -205h-15l19 205h81zM187 498v-463h155q72 0 109 24.5t84 100.5h7l-32 -160h-450v7q35 19 47.5 34.5t12.5 54.5v402q0 39 -12.5 54.5t-47.5 34.5v7h186v-7q-35 -18 -47 -34t-12 -55z" />
    <glyph glyph-name="M.sc" horiz-adv-x="831" 
d="M421 112l202 482h148v-7q-35 -19 -47.5 -34.5t-12.5 -54.5v-402q0 -39 12.5 -54.5t47.5 -34.5v-7h-186v7q35 18 47 34t12 55v453l-238 -558h-4l-239 558v-453q0 -14 3 -24.5t5 -17t11 -14.5t13 -10.5t18 -11t19 -11.5v-7h-182v7q6 3 19.5 11t18 11t13 11t11 14.5t5.5 17
t3 24.5v402q0 39 -12.5 54.5t-47.5 34.5v7h157z" />
    <glyph glyph-name="N.sc" horiz-adv-x="709" 
d="M553 143v355q0 16 -2.5 27.5t-11 21t-12.5 13t-21.5 13.5t-22.5 14v7h182v-7l-22.5 -13.5t-21 -14t-12.5 -13t-11 -21t-2 -27.5v-505h-6l-427 538v-436q0 -16 2 -27t11 -20.5t12.5 -13t21 -14l22.5 -13.5v-7h-182v7q7 4 19.5 11.5t17.5 11t13 11t11.5 14t6 17t2.5 24.5
v402q0 39 -12.5 54.5t-47.5 34.5v7h138z" />
    <glyph glyph-name="Ntilde.sc" horiz-adv-x="709" 
d="M219 680h-24q39 128 107 128q26 0 71.5 -32.5t64.5 -32.5q29 0 44.5 16.5t32.5 52.5h24q-39 -128 -107 -128q-26 0 -71.5 32.5t-64.5 32.5q-29 0 -44.5 -16.5t-32.5 -52.5zM553 143v355q0 16 -2.5 27.5t-11 21t-12.5 13t-21.5 13.5t-22.5 14v7h182v-7l-22.5 -13.5
t-21 -14t-12.5 -13t-11 -21t-2 -27.5v-505h-6l-427 538v-436q0 -16 2 -27t11 -20.5t12.5 -13t21 -14l22.5 -13.5v-7h-182v7q7 4 19.5 11.5t17.5 11t13 11t11.5 14t6 17t2.5 24.5v402q0 39 -12.5 54.5t-47.5 34.5v7h138z" />
    <glyph glyph-name="Nacute.sc" horiz-adv-x="709" 
d="M421 849h94l-148 -188h-16zM553 143v355q0 16 -2.5 27.5t-11 21t-12.5 13t-21.5 13.5t-22.5 14v7h182v-7l-22.5 -13.5t-21 -14t-12.5 -13t-11 -21t-2 -27.5v-505h-6l-427 538v-436q0 -16 2 -27t11 -20.5t12.5 -13t21 -14l22.5 -13.5v-7h-182v7q7 4 19.5 11.5t17.5 11
t13 11t11.5 14t6 17t2.5 24.5v402q0 39 -12.5 54.5t-47.5 34.5v7h138z" />
    <glyph glyph-name="uni0145.sc" horiz-adv-x="709" 
d="M553 143v355q0 16 -2.5 27.5t-11 21t-12.5 13t-21.5 13.5t-22.5 14v7h182v-7l-22.5 -13.5t-21 -14t-12.5 -13t-11 -21t-2 -27.5v-505h-6l-427 538v-436q0 -16 2 -27t11 -20.5t12.5 -13t21 -14l22.5 -13.5v-7h-182v7q7 4 19.5 11.5t17.5 11t13 11t11.5 14t6 17t2.5 24.5
v402q0 39 -12.5 54.5t-47.5 34.5v7h138zM391 -145q-14 -9 -31 -9q-20 0 -33 13.5t-13 32.5q0 23 14 37t37 14q30 0 48 -21.5t18 -58.5q0 -43 -34 -74.5t-94 -33.5v25q88 10 88 75z" />
    <glyph glyph-name="Ncaron.sc" horiz-adv-x="709" 
d="M516 849q-37 -35 -77.5 -93t-63.5 -104h-16q-23 46 -63.5 104t-77.5 93h25q50 -30 124 -106q74 76 124 106h25zM553 143v355q0 16 -2.5 27.5t-11 21t-12.5 13t-21.5 13.5t-22.5 14v7h182v-7l-22.5 -13.5t-21 -14t-12.5 -13t-11 -21t-2 -27.5v-505h-6l-427 538v-436
q0 -16 2 -27t11 -20.5t12.5 -13t21 -14l22.5 -13.5v-7h-182v7q7 4 19.5 11.5t17.5 11t13 11t11.5 14t6 17t2.5 24.5v402q0 39 -12.5 54.5t-47.5 34.5v7h138z" />
    <glyph glyph-name="O.sc" horiz-adv-x="718" 
d="M655 297q0 -134 -83.5 -220.5t-212.5 -86.5t-212.5 86.5t-83.5 220.5t83.5 220.5t212.5 86.5t212.5 -86.5t83.5 -220.5zM140 297q0 -117 60 -192t159 -75t159 75t60 192t-60 192t-159 75t-159 -75t-60 -192z" />
    <glyph glyph-name="Ograve.sc" horiz-adv-x="718" 
d="M209 849h94l70 -188h-16zM655 297q0 -134 -83.5 -220.5t-212.5 -86.5t-212.5 86.5t-83.5 220.5t83.5 220.5t212.5 86.5t212.5 -86.5t83.5 -220.5zM140 297q0 -117 60 -192t159 -75t159 75t60 192t-60 192t-159 75t-159 -75t-60 -192z" />
    <glyph glyph-name="Oacute.sc" horiz-adv-x="718" 
d="M413 849h94l-148 -188h-16zM655 297q0 -134 -83.5 -220.5t-212.5 -86.5t-212.5 86.5t-83.5 220.5t83.5 220.5t212.5 86.5t212.5 -86.5t83.5 -220.5zM140 297q0 -117 60 -192t159 -75t159 75t60 192t-60 192t-159 75t-159 -75t-60 -192z" />
    <glyph glyph-name="Ocircumflex.sc" horiz-adv-x="718" 
d="M367 849q23 -46 63.5 -104t77.5 -93h-25q-50 30 -124 106q-74 -76 -124 -106h-25q37 35 77.5 93t63.5 104h16zM655 297q0 -134 -83.5 -220.5t-212.5 -86.5t-212.5 86.5t-83.5 220.5t83.5 220.5t212.5 86.5t212.5 -86.5t83.5 -220.5zM140 297q0 -117 60 -192t159 -75
t159 75t60 192t-60 192t-159 75t-159 -75t-60 -192z" />
    <glyph glyph-name="Otilde.sc" horiz-adv-x="718" 
d="M211 680h-24q39 128 107 128q26 0 71.5 -32.5t64.5 -32.5q29 0 44.5 16.5t32.5 52.5h24q-39 -128 -107 -128q-26 0 -71.5 32.5t-64.5 32.5q-29 0 -44.5 -16.5t-32.5 -52.5zM655 297q0 -134 -83.5 -220.5t-212.5 -86.5t-212.5 86.5t-83.5 220.5t83.5 220.5t212.5 86.5
t212.5 -86.5t83.5 -220.5zM140 297q0 -117 60 -192t159 -75t159 75t60 192t-60 192t-159 75t-159 -75t-60 -192z" />
    <glyph glyph-name="Odieresis.sc" horiz-adv-x="718" 
d="M274 686q-22 0 -37.5 15.5t-15.5 37.5t15.5 37.5t37.5 15.5t37.5 -15.5t15.5 -37.5t-15.5 -37.5t-37.5 -15.5zM444 686q-22 0 -37.5 15.5t-15.5 37.5t15.5 37.5t37.5 15.5t37.5 -15.5t15.5 -37.5t-15.5 -37.5t-37.5 -15.5zM655 297q0 -134 -83.5 -220.5t-212.5 -86.5
t-212.5 86.5t-83.5 220.5t83.5 220.5t212.5 86.5t212.5 -86.5t83.5 -220.5zM140 297q0 -117 60 -192t159 -75t159 75t60 192t-60 192t-159 75t-159 -75t-60 -192z" />
    <glyph glyph-name="Omacron.sc" horiz-adv-x="718" 
d="M493 692h-268v47h268v-47zM655 297q0 -134 -83.5 -220.5t-212.5 -86.5t-212.5 86.5t-83.5 220.5t83.5 220.5t212.5 86.5t212.5 -86.5t83.5 -220.5zM140 297q0 -117 60 -192t159 -75t159 75t60 192t-60 192t-159 75t-159 -75t-60 -192z" />
    <glyph glyph-name="Obreve.sc" horiz-adv-x="718" 
d="M245 836q3 -53 35 -81.5t79 -28.5t79 28.5t35 81.5h25q0 -77 -39 -122.5t-100 -45.5t-100 45.5t-39 122.5h25zM655 297q0 -134 -83.5 -220.5t-212.5 -86.5t-212.5 86.5t-83.5 220.5t83.5 220.5t212.5 86.5t212.5 -86.5t83.5 -220.5zM140 297q0 -117 60 -192t159 -75
t159 75t60 192t-60 192t-159 75t-159 -75t-60 -192z" />
    <glyph glyph-name="Ohungarumlaut.sc" horiz-adv-x="718" 
d="M330 849h96l-148 -188h-16zM480 849h96l-148 -188h-16zM655 297q0 -134 -83.5 -220.5t-212.5 -86.5t-212.5 86.5t-83.5 220.5t83.5 220.5t212.5 86.5t212.5 -86.5t83.5 -220.5zM140 297q0 -117 60 -192t159 -75t159 75t60 192t-60 192t-159 75t-159 -75t-60 -192z" />
    <glyph glyph-name="P.sc" horiz-adv-x="599" 
d="M321 252h-134v-158q0 -39 15 -53t63 -33v-8h-205v7q35 19 47.5 34.5t12.5 54.5v402q0 39 -12.5 54.5t-47.5 34.5v7h261q111 0 171.5 -43t60.5 -128t-61.5 -128t-170.5 -43zM187 287h128q84 0 125.5 32.5t41.5 103.5t-41.5 103.5t-125.5 32.5h-128v-272z" />
    <glyph glyph-name="Q.sc" horiz-adv-x="718" 
d="M593 -110q-41 0 -70 31t-57 87q-50 -18 -107 -18q-129 0 -212.5 86.5t-83.5 220.5t83.5 220.5t212.5 86.5t212.5 -86.5t83.5 -220.5q0 -84 -35 -152.5t-97 -108.5q25 -49 47 -74.5t52 -25.5q38 0 59 42h10q-14 -88 -98 -88zM140 297q0 -148 89 -221q8 51 44.5 87t91.5 36
q44 0 74.5 -30t59.5 -85q79 76 79 213q0 117 -60 192t-159 75t-159 -75t-60 -192zM359 30q48 0 87 18q-27 54 -49.5 81.5t-53.5 27.5q-33 0 -58.5 -28t-29.5 -71q47 -28 104 -28z" />
    </font>
</defs>
</svg>
