<?xml version="1.0" standalone="no"?>
<!DOCTYPE svg PUBLIC "-//W3C//DTD SVG 1.1//EN" "http://www.w3.org/Graphics/SVG/1.1/DTD/svg11.dtd" >
<svg xmlns="http://www.w3.org/2000/svg">
<metadata></metadata>
<defs>
<font id="gillsans-lightlight" horiz-adv-x="1024" >
<font-face units-per-em="2048" ascent="1638" descent="-410" />
<missing-glyph horiz-adv-x="569" />
<glyph horiz-adv-x="2048" />
<glyph horiz-adv-x="2048" />
<glyph unicode="&#xd;" horiz-adv-x="2048" />
<glyph unicode=" "  horiz-adv-x="569" />
<glyph unicode="&#x09;" horiz-adv-x="569" />
<glyph unicode="&#xa0;" horiz-adv-x="569" />
<glyph unicode="!" horiz-adv-x="362" d="M115 0h133v199h-133v-199zM115 1397l35 -1004h63l35 1004h-133z" />
<glyph unicode="&#x22;" horiz-adv-x="569" d="M76 1178l24 -256h86l25 256v223h-135v-223zM358 1178l25 -256h86l25 256v223h-136v-223z" />
<glyph unicode="#" horiz-adv-x="1351" d="M158 430h170l-86 -416h94l86 416h389l-86 -416h94l86 416h289v94h-268l82 391h186v95h-168l88 420h-94l-88 -420h-389l86 420h-94l-86 -420h-291v-95h270l-80 -391h-190v-94zM442 524l80 391h391l-82 -391h-389z" />
<glyph unicode="$" horiz-adv-x="1067" d="M72 145q88 -76 188 -115.5t223 -47.5v-222h99v222q111 8 191.5 46t127.5 91t68.5 111.5t21.5 109.5q0 143 -102.5 235.5t-306.5 147.5v534q102 -10 178 -41.5t172 -101.5v115q-88 63 -163 90t-187 35v61h-99v-61q-109 -6 -186.5 -40t-124.5 -84t-68.5 -106.5 t-21.5 -109.5q0 -127 98.5 -217t302.5 -152v-567q-113 16 -201.5 54t-209.5 126v-113zM186 1020q0 90 82 162.5t215 74.5v-503q-90 25 -149.5 57.5t-91 68t-44 70.5t-12.5 70zM582 78v534q166 -51 235.5 -114.5t69.5 -163.5q0 -102 -87 -176t-218 -80z" />
<glyph unicode="%" horiz-adv-x="1429" d="M39 1085q0 -68 25.5 -127t71.5 -105t105.5 -71.5t127.5 -25.5q66 0 126 25.5t106 70.5t71.5 105t25.5 128t-25.5 128.5t-71.5 105.5t-106.5 70.5t-125.5 25.5q-68 0 -127.5 -25.5t-105.5 -70.5t-71.5 -105.5t-25.5 -128.5zM94 -23h103l1124 1432h-100zM127 1085 q0 98 70.5 170t171.5 72q100 0 170.5 -71t70.5 -171t-70.5 -170.5t-170.5 -70.5t-171 70.5t-71 170.5zM731 305q0 -68 25.5 -127t71.5 -105t105.5 -72t127.5 -26q66 0 126 26t106 71t72 105t26 128t-26 128.5t-72 105.5t-106.5 70.5t-125.5 25.5q-68 0 -127.5 -25.5 t-105.5 -70.5t-71.5 -105.5t-25.5 -128.5zM819 305q0 98 71 170t171 72t171 -71t71 -171t-71 -171t-171 -71t-171 71t-71 171z" />
<glyph unicode="&#x26;" horiz-adv-x="1259" d="M53 313q0 -150 100.5 -240.5t264.5 -90.5q152 0 263.5 59t217.5 178l211 -219h137l-284 301q127 190 192 395h-115q-31 -92 -66.5 -165.5t-86.5 -149.5l-318 330q150 76 221.5 167t71.5 203q0 125 -86 207t-219 82q-139 0 -235.5 -88t-96.5 -217q0 -80 42 -155.5 t132 -170.5q-168 -72 -257 -182.5t-89 -243.5zM170 328q0 111 70.5 188.5t230.5 147.5l354 -369q-90 -109 -184 -161t-201 -52q-127 0 -198.5 64.5t-71.5 181.5zM330 1071q0 84 63.5 141.5t157.5 57.5q90 0 150.5 -56.5t60.5 -142.5t-67.5 -159t-194.5 -126 q-170 156 -170 285z" />
<glyph unicode="'" horiz-adv-x="454" d="M160 1178l24 -256h86l25 256v223h-135v-223z" />
<glyph unicode="(" horiz-adv-x="681" d="M164 473q0 -266 102.5 -506.5t298.5 -437.5h103q-193 176 -296.5 431t-103.5 513t102.5 512t295.5 430h-103q-197 -197 -298 -436.5t-101 -505.5z" />
<glyph unicode=")" horiz-adv-x="681" d="M14 -471h103q197 197 299 437.5t102 506.5t-102.5 506t-298.5 436h-103q195 -176 297.5 -430t102.5 -512t-102.5 -513t-297.5 -431z" />
<glyph unicode="*" horiz-adv-x="960" d="M66 954l374 35l4 -10l-290 -234l71 -69l236 289l8 -2l-37 -379h94l-34 379l10 2l237 -289l70 69l-289 234l6 12l369 -41v97l-369 -33l-4 10l287 231l-70 72l-237 -285l-10 7l34 366h-94l37 -368l-10 -5l-234 285l-71 -72l286 -231l-2 -12l-372 37v-95z" />
<glyph unicode="+" horiz-adv-x="1351" d="M139 674h492v-492h90v492h491v90h-491v491h-90v-491h-492v-90z" />
<glyph unicode="," horiz-adv-x="362" d="M115 0h43q0 -55 -8.5 -92t-34.5 -76v-72q66 47 99.5 124t33.5 159v156h-133v-199z" />
<glyph unicode="-" horiz-adv-x="641" d="M78 414h485v96h-485v-96z" />
<glyph unicode="." horiz-adv-x="362" d="M115 0h133v199h-133v-199z" />
<glyph unicode="/" horiz-adv-x="575" d="M6 -18h96l449 1433h-94z" />
<glyph unicode="0" d="M66 674q0 -154 32.5 -282t93 -220t143.5 -141t181 -49q90 0 170 48t141.5 140t96 225t34.5 297q0 201 -47 357.5t-147 257.5q-51 51 -115.5 79.5t-136.5 28.5t-139.5 -31.5t-116.5 -80.5q-98 -98 -144 -250t-46 -379zM170 698q0 135 24.5 249t70.5 197t109.5 128 t137.5 45q86 0 150.5 -51.5t107.5 -139.5t63.5 -197.5t20.5 -226.5q0 -125 -22.5 -237.5t-66.5 -198.5t-109.5 -136t-147.5 -50q-74 0 -136.5 44t-107.5 127t-69.5 197.5t-24.5 249.5z" />
<glyph unicode="1" d="M459 0h104v1397h-104v-1397z" />
<glyph unicode="2" d="M76 0h887v96h-650q270 307 392 529.5t122 388.5q0 84 -30.5 156.5t-87 128t-132 86t-159.5 30.5q-170 0 -326 -127v-123q98 86 167 119t151 33q133 0 223 -87t90 -218q0 -82 -33 -183.5t-106.5 -225.5t-200.5 -276.5t-307 -326.5z" />
<glyph unicode="3" d="M139 51q66 -33 153 -51t169 -18q76 0 149.5 24.5t134 73.5t97.5 126t37 177q0 123 -65.5 217t-205.5 139v4q127 39 190.5 126t63.5 194q0 156 -116.5 254t-299.5 98q-172 0 -294 -90v-100q137 92 286 92q137 0 228.5 -75t91.5 -187q0 -111 -93.5 -191t-250.5 -80v-98 q170 0 265 -84t95 -225q0 -133 -90 -215t-235 -82q-164 0 -310 67v-96z" />
<glyph unicode="4" d="M29 539h637v-539h104v539h195v84h-195v792h-39l-702 -842v-34zM174 623l488 589h4v-589h-492z" />
<glyph unicode="5" d="M84 74q90 -47 172 -69.5t164 -22.5q96 0 179 33.5t144.5 95t95 144.5t33.5 179q0 201 -128 316.5t-334 115.5q-55 0 -113 -8v442h494v97h-592v-652q100 29 192 29q166 0 271.5 -90t105.5 -258q0 -152 -97.5 -249t-246.5 -97q-76 0 -156 26.5t-184 86.5v-119z" />
<glyph unicode="6" d="M125 473q0 -223 115.5 -357t310.5 -134q174 0 285.5 110.5t111.5 282.5q0 80 -29.5 150.5t-82 121.5t-125 80t-154.5 29q-162 0 -309 -109q31 178 170 362.5t350 331.5l-61 74q-279 -207 -430.5 -436t-151.5 -506zM225 455q0 32 4 71q80 70 155 100.5t159 30.5 q127 0 214 -86t87 -211q0 -119 -86 -199.5t-213 -80.5q-139 0 -229.5 100.5t-90.5 274.5z" />
<glyph unicode="7" d="M59 1300h762l-577 -1280l90 -38l639 1415h-914v-97z" />
<glyph unicode="8" d="M115 373q0 -80 30.5 -151.5t86 -126t129 -84t155.5 -29.5t154.5 30.5t127 85t84 128t29.5 155.5q0 221 -206 346q178 121 178 317q0 74 -29 141.5t-81 120t-119.5 81t-143.5 28.5q-74 0 -140.5 -28.5t-117.5 -81t-81 -121t-30 -142.5q1 -192 183 -315 q-209 -125 -209 -354zM219 377q0 123 84 210t207 87q125 0 211 -83t86 -204q0 -133 -81 -220t-210 -87q-125 0 -211 87t-86 210zM246 1044q0 115 76.5 194t187.5 79q113 0 190.5 -78t77.5 -190q0 -119 -74.5 -198t-189.5 -79q-113 0 -190.5 79t-77.5 193z" />
<glyph unicode="9" d="M66 1026q0 -80 29.5 -150.5t82.5 -123t124 -81t153 -28.5q76 0 147.5 24.5t159.5 80.5q-33 -174 -153 -341t-371 -350l57 -75q311 223 452.5 456.5t141.5 487.5q0 227 -115 358t-315 131q-172 0 -282.5 -109.5t-110.5 -279.5zM170 1032q0 123 86 204t209 81 q156 0 236.5 -103.5t80.5 -279.5v-29q-2 -23 -2 -33q-145 -131 -321 -131q-125 0 -207 83t-82 208z" />
<glyph unicode=":" horiz-adv-x="362" d="M115 0h133v199h-133v-199zM115 721h133v199h-133v-199z" />
<glyph unicode=";" horiz-adv-x="362" d="M115 0h43q0 -55 -8.5 -92t-34.5 -76v-72q66 47 99.5 124t33.5 159v156h-133v-199zM115 721h133v199h-133v-199z" />
<glyph unicode="&#x3c;" horiz-adv-x="1351" d="M139 674l1073 -451v101l-950 393l950 393v100l-1073 -450v-86z" />
<glyph unicode="=" horiz-adv-x="1351" d="M139 426h1073v90h-1073v-90zM139 920h1073v90h-1073v-90z" />
<glyph unicode="&#x3e;" horiz-adv-x="1351" d="M139 223l1073 451v86l-1073 450v-100l951 -393l-951 -393v-101z" />
<glyph unicode="?" horiz-adv-x="575" d="M51 1219h21q66 109 164 108q63 0 108 -56.5t45 -135.5q0 -86 -31.5 -159t-95.5 -173q-55 -90 -82.5 -150.5t-27.5 -126.5q0 -96 79 -188l37 29q-39 68 -39 129t28 116.5t87 137.5q74 106 112 187t38 187q0 131 -71 211t-185 80q-37 0 -68 -8t-72 -29zM174 0h133v199h-133 v-199z" />
<glyph unicode="@" horiz-adv-x="1638" d="M-4 535q0 -190 62.5 -349t178 -274t276.5 -176.5t353 -61.5q244 0 454 100.5t322 293.5h-102q-233 -311 -672 -312q-174 0 -320.5 55.5t-250.5 159t-160.5 246.5t-56.5 315q0 174 57.5 321.5t161.5 255.5t247.5 166t311.5 58q188 0 320.5 -61.5t208 -158.5t107.5 -207.5 t32 -217.5q0 -133 -41 -241.5t-103.5 -182.5t-129 -113.5t-117.5 -39.5q-49 0 -50 45q0 25 13 75l170 803h-125l-33 -168h-4q-45 98 -126 145.5t-173 47.5q-109 0 -203 -51.5t-163.5 -138.5t-108.5 -198.5t-39 -228.5q0 -90 25.5 -167.5t72.5 -134t110.5 -88.5t137.5 -32 q184 0 338 185l4 -4q-8 -39 -8 -68q0 -61 31.5 -87t89.5 -26q82 0 172 47.5t168.5 136.5t127 213t48.5 271q0 133 -42 261t-132 233.5t-232.5 169t-333.5 63.5q-219 0 -387 -74.5t-275.5 -201.5t-159.5 -283t-52 -321zM420 436q0 78 23.5 170t72.5 176t122 136.5t167 52.5 q113 0 184.5 -80t71.5 -203q0 -82 -27.5 -181t-79 -188.5t-123 -145.5t-155.5 -56q-111 0 -183.5 91t-72.5 228z" />
<glyph unicode="A" horiz-adv-x="1366" d="M8 0h113l221 483h682l221 -483h113l-645 1407h-60zM383 573l299 658l301 -658h-600z" />
<glyph unicode="B" horiz-adv-x="1087" d="M164 0h409q215 0 342 100.5t127 270.5q0 287 -323 354q104 57 152.5 132t48.5 179q0 68 -21.5 130.5t-74 114.5t-143.5 84t-226 32h-291v-1397zM272 90v569h242q121 0 203 -24.5t127 -64.5t63.5 -90t18.5 -107q0 -51 -17.5 -101.5t-59.5 -91.5t-112.5 -65.5t-175.5 -24.5 h-289zM272 750v557h146q178 0 281.5 -64.5t103.5 -214.5q0 -133 -89 -205.5t-292 -72.5h-150z" />
<glyph unicode="C" horiz-adv-x="1386" d="M100 696q0 -152 55.5 -282.5t157 -228t237.5 -150.5t294 -53q250 0 495 131v112q-143 -76 -260.5 -109.5t-236.5 -33.5q-135 0 -250 45t-199 127t-130 195.5t-46 246.5q0 131 45 244t129 198t195.5 131t240.5 46q125 0 246 -33t252 -102v118q-254 117 -491 117 q-143 0 -275.5 -52t-236 -148.5t-163 -229.5t-59.5 -289z" />
<glyph unicode="D" horiz-adv-x="1515" d="M162 0h508q199 0 343 60.5t232 162t128 224t40 251.5q0 125 -38 247t-126 224.5t-237.5 165t-360.5 62.5h-489v-1397zM270 90v1217h387q141 0 259 -44t203 -126t131 -194t46 -245q0 -143 -50 -256.5t-138 -192.5t-202.5 -119t-241.5 -40h-394z" />
<glyph unicode="E" horiz-adv-x="1003" d="M164 0h778v90h-670v567h637v91h-637v559h654v90h-762v-1397z" />
<glyph unicode="F" horiz-adv-x="897" d="M160 0h108v686h551v90h-551v531h611v90h-719v-1397z" />
<glyph unicode="G" horiz-adv-x="1472" d="M102 702q0 -152 57.5 -284.5t160 -230t242.5 -151.5t300 -54q250 0 496 118v535h-404v-90h295v-377q-88 -43 -177 -64.5t-206 -21.5q-160 0 -282.5 50t-203.5 137t-121 199t-40 230q0 131 46 245t129 197t197 129t245 46q125 0 246.5 -35t248.5 -106v122 q-147 66 -253.5 92.5t-225.5 26.5q-160 0 -297 -53t-239.5 -149.5t-158 -227.5t-55.5 -283z" />
<glyph unicode="H" horiz-adv-x="1472" d="M162 0h108v662h932v-662h109v1397h-109v-645h-932v645h-108v-1397z" />
<glyph unicode="I" horiz-adv-x="425" d="M160 0h108v1397h-108v-1397z" />
<glyph unicode="J" horiz-adv-x="425" d="M-92 -301l10 -102q37 -4 66 -5q66 0 111.5 21.5t97.5 73.5q45 45 64 121.5t19 191.5v1397h-108v-1426q0 -137 -51 -208.5t-146 -71.5q-29 0 -63 8z" />
<glyph unicode="K" horiz-adv-x="1087" d="M156 0h108v700l731 -700h138l-730 700l666 697h-135l-670 -697v697h-108v-1397z" />
<glyph unicode="L" horiz-adv-x="960" d="M162 0h799v90h-691v1307h-108v-1397z" />
<glyph unicode="M" horiz-adv-x="1599" d="M158 0h108v1239h4l529 -653l528 653h4v-1239h109v1397h-109l-532 -649l-533 649h-108v-1397z" />
<glyph unicode="N" horiz-adv-x="1579" d="M160 0h108v1221l1061 -1221h90v1397h-108v-1221l-1059 1221h-92v-1397z" />
<glyph unicode="O" horiz-adv-x="1685" d="M104 698q0 -147 56.5 -278t158 -230.5t235.5 -153.5t288 -54t289 54t237 153.5t158.5 230.5t56.5 278t-56.5 278.5t-157.5 231t-237.5 153.5t-289.5 54q-154 0 -288 -54t-235.5 -152.5t-158 -229.5t-56.5 -281zM221 698q0 129 47 242t133 197t201 131t244 47t242.5 -47 t198.5 -131t132 -197t47 -242t-47 -241.5t-132 -196.5t-198.5 -131t-242.5 -47t-244 47t-201 131t-133 197.5t-47 240.5z" />
<glyph unicode="P" horiz-adv-x="1044" d="M160 0h108v653h267q131 0 222 32t144 85t76.5 119.5t23.5 138.5q0 164 -111.5 266.5t-344.5 102.5h-385v-1397zM268 743v564h273q174 0 259 -79t85 -202q0 -127 -86 -205t-271 -78h-260z" />
<glyph unicode="Q" horiz-adv-x="1685" d="M104 696q0 -131 47.5 -255t136.5 -224t211 -161.5t267 -73.5q125 -104 277.5 -177t357.5 -98l121 141l-23 21q-39 -29 -69.5 -40t-67.5 -11q-96 0 -216 46t-222 118q184 25 314 104.5t206 187t107.5 218t31.5 208.5q0 150 -55 281t-156.5 229.5t-238 151.5t-291.5 53 q-156 0 -291 -54t-235.5 -152.5t-156 -229.5t-55.5 -283zM221 698q0 127 48 240t133 198t200 132t242 47q129 0 242.5 -47t199.5 -131t133 -197t47 -242q0 -127 -48 -239.5t-136 -197.5t-202.5 -132t-241.5 -47t-240 47t-198 133t-132 197.5t-47 238.5z" />
<glyph unicode="R" horiz-adv-x="1173" d="M162 0h108v670h189q70 0 112.5 -8.5t82.5 -36t85 -86t109 -156.5l244 -383h127l-316 483q-59 90 -100 139.5t-86 73.5q266 98 266 340q0 74 -25.5 138.5t-80 114.5t-144.5 79t-213 29h-358v-1397zM270 760v547h228q184 0 276 -74t92 -199q0 -129 -92 -201.5t-272 -72.5 h-232z" />
<glyph unicode="S" horiz-adv-x="960" d="M94 1044q0 -86 29 -146t78 -101t102 -65.5t143 -59.5q76 -29 127.5 -52.5t93.5 -57.5t67.5 -84t25.5 -118q0 -119 -85 -198.5t-210 -79.5q-82 0 -159 32.5t-193 116.5v-127q183 -122 355 -122h3q84 0 157.5 28.5t130 81.5t87.5 124t31 149q0 92 -31 158.5t-82 109.5 t-107.5 69.5t-146.5 61.5q-76 27 -123 48.5t-88 53t-64.5 76.5t-23.5 107q0 115 85 190.5t210 75.5q72 0 139.5 -22.5t173.5 -84.5v119q-162 88 -323 88q-82 0 -155 -28.5t-129 -80t-87 -119t-31 -143.5z" />
<glyph unicode="T" horiz-adv-x="1173" d="M8 1307h524v-1307h109v1307h524v90h-1157v-90z" />
<glyph unicode="U" horiz-adv-x="1429" d="M131 610q0 -154 45 -272.5t126 -197.5t186.5 -118.5t226.5 -39.5q113 0 216 35.5t187 114.5t133 205t49 298v762h-108v-768q0 -143 -40 -249t-107.5 -171.5t-152.5 -96t-177 -30.5q-96 0 -181 32.5t-152 98.5t-104.5 167t-37.5 234v783h-109v-787z" />
<glyph unicode="V" horiz-adv-x="1216" d="M6 1397l588 -1411h31l585 1411h-108l-492 -1182l-495 1182h-109z" />
<glyph unicode="W" horiz-adv-x="2111" d="M-2 1397l561 -1411h29l469 1179l469 -1179h26l562 1411h-111l-463 -1159l-467 1159h-33l-469 -1159l-462 1159h-111z" />
<glyph unicode="X" horiz-adv-x="1409" d="M0 0h139l566 639l565 -639h139l-635 715l600 682h-139l-530 -602l-533 602h-139l600 -682z" />
<glyph unicode="Y" horiz-adv-x="1193" d="M0 1397l543 -647v-750h108v750l543 647h-131l-465 -553l-467 553h-131z" />
<glyph unicode="Z" horiz-adv-x="1300" d="M18 31l11 -31h1222v90h-1054l1046 1268l-10 39h-1167v-90h999z" />
<glyph unicode="[" horiz-adv-x="618" d="M141 -451h463v97h-364v1654h364v97h-463v-1848z" />
<glyph unicode="\" horiz-adv-x="575" d="M25 1415l450 -1433h94l-448 1433h-96z" />
<glyph unicode="]" horiz-adv-x="618" d="M14 -354v-97h463v1848h-463v-97h365v-1654h-365z" />
<glyph unicode="^" horiz-adv-x="1351" d="M227 879l64 -54l385 461l383 -461l65 54l-448 536z" />
<glyph unicode="_" d="M-12 -154v-102h1048v102h-1048z" />
<glyph unicode="`" horiz-adv-x="681" d="M158 1386l311 -319h68l-213 319h-166z" />
<glyph unicode="a" horiz-adv-x="874" d="M74 215q0 -96 71.5 -164.5t176.5 -68.5q74 0 143.5 27.5t144.5 86.5q6 -70 19.5 -92t46.5 -22q31 0 67.5 17t102.5 67l16 12v82q-43 -35 -80 -58.5t-51 -23.5q-23 0 -22 47v573q0 70 -27 117t-71 73.5t-92 38t-97 11.5q-76 0 -144.5 -22.5t-152.5 -75.5v-101 q84 63 146.5 90t134.5 27q205 0 204 -188v-117q-106 -4 -201.5 -24.5t-171 -60.5t-119.5 -102.5t-44 -148.5zM172 215q0 115 122 184.5t316 69.5v-287q-72 -66 -131 -92.5t-125 -26.5q-78 0 -130 43.5t-52 108.5z" />
<glyph unicode="b" horiz-adv-x="1044" d="M127 51q96 -37 170 -53t156 -16q233 0 373.5 138t140.5 369q0 199 -114 324t-296 125q-104 0 -179 -36t-153 -114v609h-98v-1346zM225 121v557q84 94 159 136t161 42q139 0 228 -104.5t89 -268.5q0 -86 -29.5 -160.5t-86 -130t-132 -85t-163.5 -29.5q-111 0 -226 43z" />
<glyph unicode="c" horiz-adv-x="854" d="M86 446q0 -209 124 -336.5t327 -127.5q63 0 119.5 10t136.5 37v102q-76 -31 -130.5 -42t-117.5 -11q-162 0 -258.5 102.5t-96.5 276.5q0 172 96.5 278.5t250.5 106.5q57 0 109 -12.5t130 -45.5v109q-78 25 -131 35t-113 10q-98 0 -180 -36t-141 -101.5t-92 -156.5 t-33 -198z" />
<glyph unicode="d" horiz-adv-x="1044" d="M84 461q0 -100 36 -188.5t99.5 -154t148.5 -101t181 -35.5q80 0 139.5 19t132.5 71v-72h99v1397h-99v-533q-84 41 -143.5 57.5t-128.5 16.5q-100 0 -185 -36t-147.5 -100.5t-97.5 -151.5t-35 -189zM188 467q0 164 102.5 269.5t262.5 105.5q72 0 132 -19.5t136 -66.5v-594 q-70 -47 -124 -65.5t-124 -18.5q-82 0 -152.5 28.5t-122.5 82t-81 125t-29 153.5z" />
<glyph unicode="e" horiz-adv-x="980" d="M82 471q0 -104 34 -194.5t95 -157t146 -102t184 -35.5q195 0 354 122v111q-88 -72 -169 -104.5t-173 -32.5q-72 0 -139.5 27.5t-119.5 77.5t-81 118t-29 145v23q2 14 2 25h725q0 111 -34.5 195.5t-93 140t-131 82t-148.5 26.5q-90 0 -168 -35t-134.5 -97.5t-88 -148.5 t-31.5 -186zM199 573q27 125 108.5 197t196.5 72q240 0 291 -269h-596z" />
<glyph unicode="f" horiz-adv-x="491" d="M23 840h170v-840h98v840h178v80h-178v114q0 145 54 215t169 70q37 0 72 -7t94 -28v92q-55 23 -91 31t-77 8q-127 0 -223 -89t-96 -255v-151h-170v-80z" />
<glyph unicode="g" horiz-adv-x="874" d="M37 -225q0 -106 101.5 -176t301.5 -70q193 0 302.5 70.5t109.5 197.5q0 80 -33 129t-86 74t-109.5 32t-146.5 13q-117 6 -172 23.5t-55 72.5q0 47 43 69.5t139 49.5q76 18 129 37.5t102.5 55.5t79 95.5t29.5 147.5q0 68 -29.5 125t-97.5 119h209v80h-369q-104 0 -181 -28 t-123 -76t-66.5 -105.5t-20.5 -118.5q0 -96 59.5 -182t186.5 -123v-4q-94 -29 -139 -61t-45 -89q0 -96 149 -131v-4q-129 -20 -198.5 -77.5t-69.5 -145.5zM131 -219q0 53 34 88t85 52.5t106.5 23.5t108.5 6q139 0 216 -36t77 -126q0 -82 -85 -130t-227 -48q-152 0 -233.5 44 t-81.5 126zM188 598q0 100 70 170t172 70t175 -72t73 -172q0 -102 -71.5 -174t-174.5 -72q-104 0 -174 73t-70 177z" />
<glyph unicode="h" horiz-adv-x="1003" d="M127 0h98v645q66 102 134.5 149.5t166.5 47.5q129 0 189.5 -82t60.5 -236v-524h98v563q0 178 -94 276.5t-248 98.5q-100 0 -169.5 -41t-133.5 -137h-4v637h-98v-1397z" />
<glyph unicode="i" horiz-adv-x="385" d="M143 0h99v920h-99v-920zM143 1229h99v168h-99v-168z" />
<glyph unicode="j" horiz-adv-x="385" d="M-57 -387l22 -84q119 0 196 93t77 276v1022h-99v-1020q0 -158 -48 -220.5t-148 -66.5zM139 1229h99v168h-99v-168z" />
<glyph unicode="k" horiz-adv-x="874" d="M121 0h98v1397h-98v-1397zM233 483l580 -483h135l-581 483l503 437h-129z" />
<glyph unicode="l" horiz-adv-x="385" d="M143 0h99v1397h-99v-1397z" />
<glyph unicode="m" horiz-adv-x="1579" d="M123 0h98v645q66 106 129.5 151.5t147.5 45.5q106 0 173.5 -79t67.5 -239v-524h99v627q70 117 132 166t146 49q117 0 178.5 -88t61.5 -232v-522h98v565q0 168 -87 270.5t-232 102.5q-98 0 -174 -52t-146 -169q-88 221 -297 221q-94 0 -162.5 -42t-130.5 -138h-4v162h-98 v-920z" />
<glyph unicode="n" horiz-adv-x="1003" d="M127 0h98v645q63 102 133 149.5t168 47.5q121 0 185.5 -81t64.5 -237v-524h98v561q0 180 -94 278.5t-248 98.5q-100 0 -169.5 -41t-133.5 -137h-4v160h-98v-920z" />
<glyph unicode="o" horiz-adv-x="1110" d="M86 459q0 -100 35 -188.5t98.5 -153t150.5 -100t185 -35.5q100 0 185 35.5t148.5 100t98.5 153t35 188.5q0 102 -35 189t-98.5 152.5t-148.5 101.5t-185 36q-98 0 -184 -36t-150.5 -101.5t-99.5 -153.5t-35 -188zM190 459q0 82 28 152.5t77 121.5q104 109 260 109 q76 0 143.5 -29t116.5 -81t76 -121.5t27 -151.5t-27 -151.5t-77 -121t-115.5 -80t-143.5 -28.5q-156 0 -260 108q-49 51 -77 122t-28 151z" />
<glyph unicode="p" horiz-adv-x="1044" d="M129 -471h98v522q78 -37 140.5 -53t132.5 -16q94 0 178 36.5t147.5 102t98 153.5t34.5 189q0 102 -33.5 189t-95 151.5t-145.5 99.5t-180 35q-74 0 -136.5 -15.5t-140.5 -54.5v52h-98v-1391zM227 147v627q72 39 126.5 53.5t115.5 14.5q166 0 273.5 -108.5t107.5 -278.5 t-101.5 -273.5t-267.5 -103.5q-70 0 -127 15.5t-127 53.5z" />
<glyph unicode="q" horiz-adv-x="1044" d="M76 442q0 -100 31.5 -185t91 -146.5t140.5 -95t177 -33.5q76 0 145.5 16t155.5 55v-524h98v1391h-98v-64q-82 45 -146.5 63.5t-140.5 18.5q-96 0 -179 -37t-145.5 -104.5t-96 -158.5t-33.5 -196zM180 434q0 86 28 161t79 130t118.5 86t145.5 31q72 0 131 -17.5t135 -64.5 v-608q-80 -45 -141.5 -62.5t-138.5 -17.5q-162 0 -259.5 99t-97.5 263z" />
<glyph unicode="r" horiz-adv-x="681" d="M129 0h98v578q76 127 152 195.5t143 68.5q39 0 79 -22.5t106 -82.5l57 92q-68 59 -116 84t-95 25q-158 0 -322 -260h-4v242h-98v-920z" />
<glyph unicode="s" horiz-adv-x="724" d="M84 66q137 -84 276 -84q127 0 214.5 73.5t87.5 180.5q0 63 -23 108t-60.5 75t-79.5 49t-108 46q-106 39 -156.5 75t-50.5 103q0 66 57.5 111t139.5 45q61 0 117.5 -21.5t134.5 -72.5v106q-72 41 -129.5 59.5t-116.5 18.5q-125 0 -211 -72.5t-86 -179.5q0 -55 22.5 -97 t58.5 -72t77 -49t106 -44q109 -43 161 -81t52 -105q0 -70 -55 -115t-139 -45q-68 0 -133.5 19.5t-155.5 64.5v-96z" />
<glyph unicode="t" horiz-adv-x="618" d="M-39 840h248v-662q0 -96 63.5 -146t149.5 -50q37 0 106 16q61 18 84 31v94q-61 -29 -94 -37t-74 -8q-94 0 -115.5 42t-21.5 173v547h258v80h-258v305h-31l-67 -86v-219h-248v-80z" />
<glyph unicode="u" horiz-adv-x="1003" d="M127 350q0 -98 29.5 -169.5t80 -114.5t110 -63.5t122.5 -20.5q104 0 171 38.5t132 131.5h4v-152h98v920h-98v-646q-66 -102 -131 -149t-168 -47q-109 0 -180.5 70.5t-71.5 203.5v568h-98v-570z" />
<glyph unicode="v" horiz-adv-x="874" d="M0 920l418 -938h61l395 938h-96l-332 -775l-346 775h-100z" />
<glyph unicode="w" horiz-adv-x="1449" d="M0 920l393 -938h45l285 747l283 -747h47l397 938h-98l-320 -750l-280 750h-54l-288 -750l-314 750h-96z" />
<glyph unicode="x" horiz-adv-x="980" d="M12 0h127l361 403l360 -403h127l-422 471l422 449h-127l-360 -381l-361 381h-127l420 -449z" />
<glyph unicode="y" horiz-adv-x="854" d="M12 920l387 -742l-321 -649h100l688 1391h-100l-317 -644l-334 644h-103z" />
<glyph unicode="z" horiz-adv-x="811" d="M20 31l11 -31h757v90h-604l604 799l-8 31h-721v-91h570z" />
<glyph unicode="{" horiz-adv-x="681" d="M100 397q106 -2 149.5 -77.5t43.5 -258.5v-198q0 -174 69.5 -254t223.5 -80v111q-104 0 -142 43t-38 180v198q0 168 -47.5 265.5t-151.5 136.5q104 39 151.5 137t47.5 264v199q0 137 37.5 180t142.5 43v111q-154 0 -223.5 -80t-69.5 -254v-199q0 -182 -43 -257t-150 -79 v-131z" />
<glyph unicode="|" horiz-adv-x="454" d="M176 -512h98v2048h-98v-2048z" />
<glyph unicode="}" horiz-adv-x="681" d="M96 -360v-111q154 0 223.5 80t69.5 254v198q0 182 43 258t150 78v131q-106 4 -149.5 79t-43.5 257v199q0 174 -69.5 254t-223.5 80v-111q104 0 142 -43t38 -180v-199q0 -166 47.5 -264t151.5 -137q-104 -39 -151.5 -136.5t-47.5 -265.5v-198q0 -137 -37.5 -180 t-142.5 -43z" />
<glyph unicode="~" horiz-adv-x="1351" d="M137 596q111 82 168 108.5t121 26.5q47 0 101.5 -19.5t138.5 -58.5q94 -43 152.5 -63.5t113.5 -20.5q61 0 126.5 29t153.5 92v111q-109 -78 -168 -106.5t-116 -28.5q-41 0 -93.5 18t-138.5 57q-94 43 -156.5 64.5t-115.5 21.5q-121 0 -287 -120v-111z" />
<glyph unicode="&#xa1;" horiz-adv-x="362" d="M115 -453h133l-35 1004h-63zM115 745h133v199h-133v-199z" />
<glyph unicode="&#xa2;" horiz-adv-x="854" d="M86 440q0 -129 53.5 -234.5t163.5 -168.5l-151 -424h90l139 387q86 -18 164 -18q129 0 248 55v96q-68 -31 -124.5 -43t-121.5 -12q-33 0 -71 6t-62 14l256 727q47 -12 102 -41v109q-10 6 -32.5 13t-37.5 12l138 389h-88l-134 -373q-35 4 -69 4q-207 0 -335 -130 t-128 -368zM190 455q0 182 98.5 284.5t252.5 102.5h49l-254 -705q-76 63 -111 138t-35 180z" />
<glyph unicode="&#xa3;" horiz-adv-x="1130" d="M193 -10q109 20 177 27.5t144 7.5q90 0 213 -21l37 -6q96 -16 141 -16q47 0 103 10q53 14 94 35v108q-43 -25 -101 -43q-49 -12 -102 -12q-29 0 -78 8h-6q-6 0 -37 6q-25 6 -45 8q-115 20 -194 21q-39 0 -80 -3t-133 -11l137 520h246v96h-217q39 137 85 243.5t103 184.5 t131 121t166 43q25 0 49.5 -3t60.5 -14l-49 97q-29 10 -49 14t-49 4q-186 0 -321.5 -177t-227.5 -513h-198v-96h172z" />
<glyph unicode="&#xa4;" horiz-adv-x="1138" d="M96 293l66 -66l129 129q55 -43 122.5 -70.5t153.5 -27.5q156 0 279 98l129 -129l65 66l-129 129q45 55 72 125.5t27 152.5q0 154 -99 277l129 129l-65 65l-129 -129q-127 99 -279 99q-150 0 -276 -99l-129 129l-66 -65l129 -129q-49 -61 -73.5 -129t-24.5 -148 q0 -78 24.5 -145.5t73.5 -132.5zM225 700q0 70 27 132.5t74 109.5t109 73.5t132 26.5t133.5 -26.5t110.5 -72.5t73.5 -109.5t26.5 -133.5t-26.5 -133t-73.5 -110t-110.5 -74t-133.5 -27t-132 27t-109 74t-74 110.5t-27 132.5z" />
<glyph unicode="&#xa5;" horiz-adv-x="1138" d="M4 1466l434 -725h-370v-96h438v-156h-438v-96h438v-393h131v393h434v96h-434v156h434v96h-366l430 725h-142l-418 -725l-423 725h-148z" />
<glyph unicode="&#xa6;" horiz-adv-x="454" d="M176 358v-716h98v716h-98zM176 666h98v716h-98v-716z" />
<glyph unicode="&#xa7;" horiz-adv-x="811" d="M53 571q0 -121 75 -215t218 -219q125 -109 185.5 -181.5t60.5 -156.5q0 -78 -55.5 -129t-137.5 -51q-145 0 -174 131h-102q12 -104 88 -162.5t184 -58.5q131 0 211 74.5t80 195.5q0 68 -22.5 124.5t-77.5 119.5q96 100 134 174t38 158q0 117 -73 210t-214 214 q-125 111 -187.5 187.5t-62.5 164.5q0 72 55.5 123t133.5 51q72 0 116.5 -35t59.5 -100h104q-12 98 -86 161.5t-190 63.5q-129 0 -210 -74.5t-81 -195.5q0 -66 22.5 -120t79.5 -128q-92 -92 -132 -168t-40 -158zM158 573q0 72 29.5 131.5t101.5 129.5q14 -12 63 -58 q123 -109 193 -178q66 -66 92.5 -119t26.5 -112q0 -127 -140 -258q-45 47 -133 122q-123 109 -178 179.5t-55 162.5z" />
<glyph unicode="&#xa8;" horiz-adv-x="681" d="M70 1212q0 -37 26.5 -63.5t63.5 -26.5t63.5 27t26.5 63q0 37 -26.5 64t-63.5 27t-63.5 -27t-26.5 -64zM432 1212q0 -37 26.5 -63.5t63.5 -26.5t63.5 27t26.5 63q0 37 -26.5 64t-63.5 27t-63.5 -27t-26.5 -64z" />
<glyph unicode="&#xa9;" horiz-adv-x="1638" d="M55 727q0 -156 59.5 -295t165 -244.5t245 -165t294.5 -59.5q156 0 295 59.5t244.5 165t165 244.5t59.5 295t-59.5 295t-165 244.5t-244.5 165t-295 59.5t-295 -59.5t-244.5 -165t-165 -244.5t-59.5 -295zM152 727q0 135 51 257t144 215t215 144.5t257 51.5t257 -51.5 t215 -144.5t144.5 -215t51.5 -257t-51.5 -257t-144.5 -215t-215 -144.5t-257 -51.5t-257 51.5t-215 144.5t-144 215t-51 257zM440 729q0 -92 29 -173t80 -140.5t121.5 -92t152.5 -32.5q125 0 215 73.5t121 188.5l-90 33q-33 -96 -93.5 -150.5t-158.5 -54.5 q-123 0 -197.5 100.5t-74.5 263.5q0 143 81 229.5t201 86.5q156 0 228 -166l96 25q-57 117 -135 171t-187 54q-178 0 -286 -123q-49 -57 -76 -133t-27 -160z" />
<glyph unicode="&#xaa;" horiz-adv-x="575" d="M43 983q0 -61 50 -103t122 -42q84 0 172 59q8 -59 55 -59q37 0 131 59v74q-10 -8 -36 -27q-39 -31 -45 -31q-18 0 -19 41v303q0 70 -49 114t-145 44q-51 0 -98.5 -14.5t-104.5 -46.5v-80q70 47 107.5 62.5t84.5 15.5q119 0 119 -103v-63q-164 -8 -254 -61.5t-90 -141.5z M131 981q0 68 67.5 106.5t188.5 38.5v-161q-43 -35 -79 -50.5t-72 -15.5q-47 0 -76 22.5t-29 59.5z" />
<glyph unicode="&#xab;" d="M39 473l387 -459h123l-385 459l385 459h-123zM475 473l387 -459h123l-385 459l385 459h-123z" />
<glyph unicode="&#xac;" horiz-adv-x="1351" d="M139 899h983v-491h90v581h-1073v-90z" />
<glyph unicode="&#xad;" horiz-adv-x="641" d="M78 414h485v96h-485v-96z" />
<glyph unicode="&#xae;" horiz-adv-x="1638" d="M55 727q0 -156 59.5 -295t165 -244.5t245 -165t294.5 -59.5q156 0 295 59.5t244.5 165t165 244.5t59.5 295t-59.5 295t-165 244.5t-244.5 165t-295 59.5t-295 -59.5t-244.5 -165t-165 -244.5t-59.5 -295zM152 727q0 135 51 257t144 215t215 144.5t257 51.5t257 -51.5 t215 -144.5t144.5 -215t51.5 -257t-51.5 -257t-144.5 -215t-215 -144.5t-257 -51.5t-257 51.5t-215 144.5t-144 215t-51 257zM512 317h98v353h47q74 0 118 -11.5t81 -46t76 -103.5t94 -192h121q-47 113 -77 173.5t-52.5 93t-47 52t-73.5 48.5q117 20 168 82.5t51 140.5 q0 100 -72.5 156.5t-199.5 56.5h-332v-803zM610 750v290h148q135 0 188 -30.5t53 -110.5q0 -82 -58 -115.5t-198 -33.5h-133z" />
<glyph unicode="&#xaf;" horiz-adv-x="681" d="M68 1171h546v105h-546v-105z" />
<glyph unicode="&#xb0;" horiz-adv-x="819" d="M125 1130q0 -119 83 -202.5t202 -83.5t202.5 84t83.5 202q0 119 -83.5 202t-202.5 83t-202 -83t-83 -202zM207 1128q0 84 59.5 144.5t143.5 60.5t144 -60.5t60 -144.5t-60 -143t-144 -59t-143.5 59t-59.5 143z" />
<glyph unicode="&#xb1;" horiz-adv-x="1351" d="M139 0h1073v90h-1073v-90zM139 674h492v-492h90v492h491v90h-491v491h-90v-491h-492v-90z" />
<glyph unicode="&#xb2;" horiz-adv-x="641" d="M61 680h555v63h-376q168 166 232.5 274.5t64.5 186.5q0 88 -74 149.5t-180 61.5q-104 0 -205 -69v-84q72 57 110.5 74.5t87.5 17.5q74 0 124.5 -42t50.5 -106q0 -94 -104.5 -234.5t-285.5 -291.5z" />
<glyph unicode="&#xb3;" horiz-adv-x="641" d="M90 709q94 -39 203 -39q111 0 184.5 60.5t73.5 150.5q0 141 -143 182v4q133 43 133 162q0 82 -72 134t-186 52q-55 0 -99.5 -12t-85.5 -39v-70q53 33 94 46.5t89 13.5q76 0 126 -37t50 -92q0 -59 -55.5 -95t-149.5 -36v-64q39 0 77 -7t68.5 -23.5t50 -46t19.5 -74.5 q0 -68 -49 -108t-133 -40q-100 0 -195 43v-65z" />
<glyph unicode="&#xb4;" horiz-adv-x="681" d="M313 1067h68l311 319h-166z" />
<glyph unicode="&#xb5;" horiz-adv-x="1138" d="M207 -362h98v464q61 -66 121.5 -93t146.5 -27q88 0 151.5 27.5t121.5 92.5v-102h98v920h-98v-506q0 -182 -73 -262t-198 -80q-143 0 -206.5 95t-63.5 275v478h-98v-1282z" />
<glyph unicode="&#xb6;" horiz-adv-x="1331" d="M100 1047q0 -186 122 -304t329 -118v-1033h131v1735h266v-1735h127v1735h197v139h-692q-217 0 -348.5 -113.5t-131.5 -305.5z" />
<glyph unicode="&#xb7;" horiz-adv-x="575" d="M178 709q0 -45 33 -78t78 -33t77.5 33t32.5 78t-32.5 77.5t-77.5 32.5t-78 -32.5t-33 -77.5z" />
<glyph unicode="&#xb8;" horiz-adv-x="681" d="M217 -348q45 -10 90 -10q86 0 143.5 41t57.5 116q0 49 -32 84t-95 45l25 88h-62l-43 -143q127 -4 127 -80q0 -43 -34 -61.5t-99 -18.5q-10 0 -31 2q-25 2 -37 2z" />
<glyph unicode="&#xb9;" horiz-adv-x="641" d="M276 680h86v727h-86v-727z" />
<glyph unicode="&#xba;" horiz-adv-x="724" d="M51 1126q0 -125 89 -206.5t222 -81.5q139 0 225.5 78.5t86.5 209.5q0 121 -90 205t-222 84q-137 0 -224 -81t-87 -208zM143 1126q0 96 61.5 159t157.5 63q94 0 157 -64t63 -158q0 -96 -61.5 -158.5t-158.5 -62.5q-96 0 -157.5 61.5t-61.5 159.5z" />
<glyph unicode="&#xbb;" d="M39 14h123l387 459l-387 459h-123l385 -459zM475 14h123l387 459l-387 459h-123l385 -459z" />
<glyph unicode="&#xbc;" horiz-adv-x="1705" d="M127 -55h80l1077 1470h-80zM289 680h86v727h-86v-727zM844 274h375v-274h86v274h114v58h-114v405h-41l-420 -436v-27zM961 332l258 268v-268h-258z" />
<glyph unicode="&#xbd;" horiz-adv-x="1705" d="M127 -55h80l1077 1470h-80zM289 680h86v727h-86v-727zM971 0h555v63h-377q168 166 232.5 274.5t64.5 186.5q0 88 -74 149.5t-180 61.5q-104 0 -205 -69v-84q72 57 111 74.5t88 17.5q74 0 124 -42t50 -106q0 -94 -104.5 -234t-284.5 -292z" />
<glyph unicode="&#xbe;" horiz-adv-x="1705" d="M137 709q94 -39 203 -39q111 0 184.5 60.5t73.5 150.5q0 141 -143 182v4q133 43 133 162q0 82 -72 134t-186 52q-55 0 -99.5 -12t-85.5 -39v-70q53 33 94.5 46.5t88.5 13.5q76 0 126 -37t50 -92q0 -59 -55.5 -95t-149.5 -36v-64q39 0 77 -7t68.5 -23.5t50 -46t19.5 -74.5 q0 -68 -49 -108t-133 -40q-100 0 -195 43v-65zM233 -55h80l1078 1470h-80zM950 274h375v-274h86v274h115v58h-115v405h-41l-420 -436v-27zM1067 332l258 268v-268h-258z" />
<glyph unicode="&#xbf;" horiz-adv-x="575" d="M45 -180q0 -131 70.5 -211t185.5 -80q37 0 67.5 8t71.5 29l47 160h-20q-66 -109 -164 -109q-63 0 -108 56.5t-45 136.5q0 86 31.5 158.5t94.5 172.5q55 90 83 150.5t28 126.5q0 96 -80 188l-37 -28q39 -68 39 -129t-27.5 -117t-86.5 -137q-72 -106 -111 -187.5 t-39 -187.5zM231 745h134v199h-134v-199z" />
<glyph unicode="&#xc0;" horiz-adv-x="1366" d="M8 0h113l221 483h682l221 -483h113l-645 1407h-60zM383 573l299 658l301 -658h-600zM500 1833l311 -320h68l-213 320h-166z" />
<glyph unicode="&#xc1;" horiz-adv-x="1366" d="M8 0h113l221 483h682l221 -483h113l-645 1407h-60zM383 573l299 658l301 -658h-600zM655 1513h68l311 320h-166z" />
<glyph unicode="&#xc2;" horiz-adv-x="1366" d="M8 0h113l221 483h682l221 -483h113l-645 1407h-60zM383 573l299 658l301 -658h-600zM401 1495h78l205 223l203 -223h78l-217 336h-125z" />
<glyph unicode="&#xc3;" horiz-adv-x="1366" d="M8 0h113l221 483h682l221 -483h113l-645 1407h-60zM348 1569h66q12 98 86 98q31 0 68.5 -12.5t99.5 -36.5l16 -6q59 -23 96 -34t70 -11q74 0 121 53q47 49 47 143h-62q-8 -53 -29.5 -76.5t-62.5 -23.5q-45 0 -149 43l-19 8q-55 25 -97 37t-83 12q-84 0 -126 -56t-42 -138 zM383 573l299 658l301 -658h-600z" />
<glyph unicode="&#xc4;" horiz-adv-x="1366" d="M8 0h113l221 483h682l221 -483h113l-645 1407h-60zM383 573l299 658l301 -658h-600zM412 1659q0 -37 26.5 -63.5t63.5 -26.5t63.5 26.5t26.5 63.5t-26.5 63.5t-63.5 26.5t-63.5 -26.5t-26.5 -63.5zM774 1659q0 -37 26.5 -63.5t63.5 -26.5t63.5 26.5t26.5 63.5t-26.5 63.5 t-63.5 26.5t-63.5 -26.5t-26.5 -63.5z" />
<glyph unicode="&#xc5;" horiz-adv-x="1366" d="M8 0h113l221 483h682l221 -483h113l-645 1407h-60zM383 573l299 658l301 -658h-600zM506 1661q0 -74 52 -126t126 -52t125 52t51 126t-51 125t-125 51t-126 -51t-52 -125zM561 1661q0 51 36 86t87 35t86 -35t35 -86t-35 -87t-86 -36t-87 36t-36 87z" />
<glyph unicode="&#xc6;" horiz-adv-x="1771" d="M-29 0h119l410 659h409v-659h785v90h-676v569h643v91h-643v557h657v90h-831zM559 750l346 571h4v-571h-350z" />
<glyph unicode="&#xc7;" horiz-adv-x="1386" d="M100 696q0 -137 46.5 -259t132.5 -216t202.5 -153.5t253.5 -77.5l-35 -117q127 -4 127 -80q0 -43 -33.5 -61.5t-99.5 -18.5q-10 0 -30 2q-25 2 -37 2l-11 -65q45 -10 91 -10q86 0 143 41t57 116q0 49 -31.5 84t-95.5 45l17 58q14 -4 47 -4q250 0 495 131v112 q-143 -76 -260.5 -109.5t-236.5 -33.5q-135 0 -250 45t-199 127t-130 195.5t-46 246.5q0 131 45 244t129 198t195.5 131t240.5 46q125 0 246 -33t252 -102v118q-254 117 -491 117q-143 0 -275.5 -52t-236 -148.5t-163 -229.5t-59.5 -289z" />
<glyph unicode="&#xc8;" horiz-adv-x="1003" d="M164 0h778v90h-670v567h637v91h-637v559h654v90h-762v-1397zM319 1833l312 -320h67l-213 320h-166z" />
<glyph unicode="&#xc9;" horiz-adv-x="1003" d="M164 0h778v90h-670v567h637v91h-637v559h654v90h-762v-1397zM475 1513h68l311 320h-166z" />
<glyph unicode="&#xca;" horiz-adv-x="1003" d="M164 0h778v90h-670v567h637v91h-637v559h654v90h-762v-1397zM221 1495h78l205 223l203 -223h77l-217 336h-125z" />
<glyph unicode="&#xcb;" horiz-adv-x="1003" d="M164 0h778v90h-670v567h637v91h-637v559h654v90h-762v-1397zM231 1659q0 -37 27 -63.5t64 -26.5t63.5 26.5t26.5 63.5t-26.5 63.5t-63.5 26.5t-64 -26.5t-27 -63.5zM594 1659q0 -37 26.5 -63.5t63.5 -26.5t63.5 26.5t26.5 63.5t-26.5 63.5t-63.5 26.5t-63.5 -26.5 t-26.5 -63.5z" />
<glyph unicode="&#xcc;" horiz-adv-x="425" d="M-51 1833l311 -320h68l-213 320h-166zM160 0h108v1397h-108v-1397z" />
<glyph unicode="&#xcd;" horiz-adv-x="425" d="M160 0h108v1397h-108v-1397zM186 1513h68l311 320h-166z" />
<glyph unicode="&#xce;" horiz-adv-x="425" d="M-68 1495h78l205 223l203 -223h78l-217 336h-125zM160 0h108v1397h-108v-1397z" />
<glyph unicode="&#xcf;" horiz-adv-x="425" d="M-57 1659q0 -37 26.5 -63.5t63.5 -26.5t63.5 26.5t26.5 63.5t-26.5 63.5t-63.5 26.5t-63.5 -26.5t-26.5 -63.5zM160 0h108v1397h-108v-1397zM305 1659q0 -37 26.5 -63.5t63.5 -26.5t63.5 26.5t26.5 63.5t-26.5 63.5t-63.5 26.5t-63.5 -26.5t-26.5 -63.5z" />
<glyph unicode="&#xd0;" horiz-adv-x="1515" d="M-47 655h209v-655h508q199 0 343 60.5t232 162t128 224t40 251.5q0 125 -38 247t-126 224.5t-237.5 165t-360.5 62.5h-489v-652h-209v-90zM270 90v565h453v90h-453v562h387q141 0 259 -44t203 -126t131 -194t46 -245q0 -143 -50 -256.5t-138 -192.5t-202.5 -119 t-241.5 -40h-394z" />
<glyph unicode="&#xd1;" horiz-adv-x="1579" d="M160 0h108v1221l1061 -1221h90v1397h-108v-1221l-1059 1221h-92v-1397zM455 1569h65q12 98 86 98q31 0 69 -12.5t99 -36.5l17 -6q59 -23 96 -34t69 -11q74 0 121 53q47 49 47 143h-61q-8 -53 -29.5 -76.5t-62.5 -23.5q-45 0 -150 43l-18 8q-55 25 -97 37t-83 12 q-84 0 -126 -56t-42 -138z" />
<glyph unicode="&#xd2;" horiz-adv-x="1685" d="M104 698q0 -147 56.5 -278t158 -230.5t235.5 -153.5t288 -54t289 54t237 153.5t158.5 230.5t56.5 278t-56.5 278.5t-157.5 231t-237.5 153.5t-289.5 54q-154 0 -288 -54t-235.5 -152.5t-158 -229.5t-56.5 -281zM221 698q0 129 47 242t133 197t201 131t244 47t242.5 -47 t198.5 -131t132 -197t47 -242t-47 -241.5t-132 -196.5t-198.5 -131t-242.5 -47t-244 47t-201 131t-133 197.5t-47 240.5zM659 1833l312 -320h67l-213 320h-166z" />
<glyph unicode="&#xd3;" horiz-adv-x="1685" d="M104 698q0 -147 56.5 -278t158 -230.5t235.5 -153.5t288 -54t289 54t237 153.5t158.5 230.5t56.5 278t-56.5 278.5t-157.5 231t-237.5 153.5t-289.5 54q-154 0 -288 -54t-235.5 -152.5t-158 -229.5t-56.5 -281zM221 698q0 129 47 242t133 197t201 131t244 47t242.5 -47 t198.5 -131t132 -197t47 -242t-47 -241.5t-132 -196.5t-198.5 -131t-242.5 -47t-244 47t-201 131t-133 197.5t-47 240.5zM815 1513h68l311 320h-166z" />
<glyph unicode="&#xd4;" horiz-adv-x="1685" d="M104 698q0 -147 56.5 -278t158 -230.5t235.5 -153.5t288 -54t289 54t237 153.5t158.5 230.5t56.5 278t-56.5 278.5t-157.5 231t-237.5 153.5t-289.5 54q-154 0 -288 -54t-235.5 -152.5t-158 -229.5t-56.5 -281zM221 698q0 129 47 242t133 197t201 131t244 47t242.5 -47 t198.5 -131t132 -197t47 -242t-47 -241.5t-132 -196.5t-198.5 -131t-242.5 -47t-244 47t-201 131t-133 197.5t-47 240.5zM561 1495h78l205 223l203 -223h77l-217 336h-125z" />
<glyph unicode="&#xd5;" horiz-adv-x="1685" d="M104 698q0 -147 56.5 -278t158 -230.5t235.5 -153.5t288 -54t289 54t237 153.5t158.5 230.5t56.5 278t-56.5 278.5t-157.5 231t-237.5 153.5t-289.5 54q-154 0 -288 -54t-235.5 -152.5t-158 -229.5t-56.5 -281zM221 698q0 129 47 242t133 197t201 131t244 47t242.5 -47 t198.5 -131t132 -197t47 -242t-47 -241.5t-132 -196.5t-198.5 -131t-242.5 -47t-244 47t-201 131t-133 197.5t-47 240.5zM508 1569h65q12 98 86 98q31 0 69 -12.5t99 -36.5l17 -6q59 -23 96 -34t70 -11q74 0 120 53q47 49 48 143h-62q-8 -53 -29.5 -76.5t-62.5 -23.5 q-45 0 -150 43l-18 8q-55 25 -97 37t-83 12q-84 0 -126 -56t-42 -138z" />
<glyph unicode="&#xd6;" horiz-adv-x="1685" d="M104 698q0 -147 56.5 -278t158 -230.5t235.5 -153.5t288 -54t289 54t237 153.5t158.5 230.5t56.5 278t-56.5 278.5t-157.5 231t-237.5 153.5t-289.5 54q-154 0 -288 -54t-235.5 -152.5t-158 -229.5t-56.5 -281zM221 698q0 129 47 242t133 197t201 131t244 47t242.5 -47 t198.5 -131t132 -197t47 -242t-47 -241.5t-132 -196.5t-198.5 -131t-242.5 -47t-244 47t-201 131t-133 197.5t-47 240.5zM571 1659q0 -37 27 -63.5t64 -26.5t63.5 26.5t26.5 63.5t-26.5 63.5t-63.5 26.5t-64 -26.5t-27 -63.5zM934 1659q0 -37 26.5 -63.5t63.5 -26.5 t63.5 26.5t26.5 63.5t-26.5 63.5t-63.5 26.5t-63.5 -26.5t-26.5 -63.5z" />
<glyph unicode="&#xd7;" horiz-adv-x="1351" d="M264 375l66 -66l346 346l346 -346l65 66l-346 346l346 346l-65 66l-346 -347l-346 347l-66 -66l346 -346z" />
<glyph unicode="&#xd8;" horiz-adv-x="1685" d="M104 698q0 -147 56.5 -279t163.5 -237l-131 -145l77 -60l129 144q100 -68 208 -103.5t235 -35.5q154 0 289 54t237 153.5t158.5 230.5t56.5 278q0 150 -55 279t-158 227l137 152l-75 51l-129 -143q-98 72 -213 111.5t-248 39.5q-154 0 -288 -54t-235.5 -152.5 t-158 -229.5t-56.5 -281zM221 698q0 129 47 242t133 197t201 131t244 47q106 0 208.5 -34t176.5 -95l-832 -922q-86 86 -132 196.5t-46 237.5zM471 201l829 923q82 -94 124 -196.5t42 -229.5q0 -129 -47 -241.5t-132 -196.5t-198.5 -131t-242.5 -47q-106 0 -203.5 32.5 t-171.5 86.5z" />
<glyph unicode="&#xd9;" horiz-adv-x="1429" d="M131 610q0 -154 45 -272.5t126 -197.5t186.5 -118.5t226.5 -39.5q113 0 216 35.5t187 114.5t133 205t49 298v762h-108v-768q0 -143 -40 -249t-107.5 -171.5t-152.5 -96t-177 -30.5q-96 0 -181 32.5t-152 98.5t-104.5 167t-37.5 234v783h-109v-787zM532 1833l312 -320h67 l-213 320h-166z" />
<glyph unicode="&#xda;" horiz-adv-x="1429" d="M131 610q0 -154 45 -272.5t126 -197.5t186.5 -118.5t226.5 -39.5q113 0 216 35.5t187 114.5t133 205t49 298v762h-108v-768q0 -143 -40 -249t-107.5 -171.5t-152.5 -96t-177 -30.5q-96 0 -181 32.5t-152 98.5t-104.5 167t-37.5 234v783h-109v-787zM688 1513h68l311 320 h-166z" />
<glyph unicode="&#xdb;" horiz-adv-x="1429" d="M131 610q0 -154 45 -272.5t126 -197.5t186.5 -118.5t226.5 -39.5q113 0 216 35.5t187 114.5t133 205t49 298v762h-108v-768q0 -143 -40 -249t-107.5 -171.5t-152.5 -96t-177 -30.5q-96 0 -181 32.5t-152 98.5t-104.5 167t-37.5 234v783h-109v-787zM434 1495h78l205 223 l203 -223h77l-217 336h-125z" />
<glyph unicode="&#xdc;" horiz-adv-x="1429" d="M131 610q0 -154 45 -272.5t126 -197.5t186.5 -118.5t226.5 -39.5q113 0 216 35.5t187 114.5t133 205t49 298v762h-108v-768q0 -143 -40 -249t-107.5 -171.5t-152.5 -96t-177 -30.5q-96 0 -181 32.5t-152 98.5t-104.5 167t-37.5 234v783h-109v-787zM444 1659 q0 -37 27 -63.5t64 -26.5t63.5 26.5t26.5 63.5t-26.5 63.5t-63.5 26.5t-64 -26.5t-27 -63.5zM807 1659q0 -37 26.5 -63.5t63.5 -26.5t63.5 26.5t26.5 63.5t-26.5 63.5t-63.5 26.5t-63.5 -26.5t-26.5 -63.5z" />
<glyph unicode="&#xdd;" horiz-adv-x="1193" d="M0 1397l543 -647v-750h108v750l543 647h-131l-465 -553l-467 553h-131zM569 1513h68l311 320h-166z" />
<glyph unicode="&#xde;" horiz-adv-x="1044" d="M160 0h108v328h267q131 0 222 31.5t144 85t76.5 120t23.5 137.5q0 164 -111.5 266.5t-344.5 102.5h-277v326h-108v-1397zM268 418v563h273q174 0 259 -79t85 -202q0 -127 -86 -204.5t-271 -77.5h-260z" />
<glyph unicode="&#xdf;" d="M127 0h98v979q0 80 13.5 143.5t45 110.5t87 73.5t135.5 26.5q123 0 195.5 -70.5t72.5 -191.5q0 -102 -55 -176t-160 -74v-92q131 -8 204 -94t73 -232q0 -147 -73 -236t-194 -89q-31 0 -56.5 5t-66.5 19v-102q39 -10 67 -14t60 -4q160 0 263.5 118.5t103.5 305.5 q0 274 -246 370q49 20 85 56t58.5 80t32 86t9.5 79q0 147 -104.5 242.5t-268.5 95.5q-180 0 -279.5 -109.5t-99.5 -308.5v-997z" />
<glyph unicode="&#xe0;" horiz-adv-x="874" d="M74 215q0 -96 71.5 -164.5t176.5 -68.5q74 0 143.5 27.5t144.5 86.5q6 -70 19.5 -92t46.5 -22q31 0 67.5 17t102.5 67l16 12v82q-43 -35 -80 -58.5t-51 -23.5q-23 0 -22 47v573q0 70 -27 117t-71 73.5t-92 38t-97 11.5q-76 0 -144.5 -22.5t-152.5 -75.5v-101 q84 63 146.5 90t134.5 27q205 0 204 -188v-117q-106 -4 -201.5 -24.5t-171 -60.5t-119.5 -102.5t-44 -148.5zM172 215q0 115 122 184.5t316 69.5v-287q-72 -66 -131 -92.5t-125 -26.5q-78 0 -130 43.5t-52 108.5zM254 1386l311 -319h68l-213 319h-166z" />
<glyph unicode="&#xe1;" horiz-adv-x="874" d="M74 215q0 -96 71.5 -164.5t176.5 -68.5q74 0 143.5 27.5t144.5 86.5q6 -70 19.5 -92t46.5 -22q31 0 67.5 17t102.5 67l16 12v82q-43 -35 -80 -58.5t-51 -23.5q-23 0 -22 47v573q0 70 -27 117t-71 73.5t-92 38t-97 11.5q-76 0 -144.5 -22.5t-152.5 -75.5v-101 q84 63 146.5 90t134.5 27q205 0 204 -188v-117q-106 -4 -201.5 -24.5t-171 -60.5t-119.5 -102.5t-44 -148.5zM172 215q0 115 122 184.5t316 69.5v-287q-72 -66 -131 -92.5t-125 -26.5q-78 0 -130 43.5t-52 108.5zM410 1067h67l311 319h-165z" />
<glyph unicode="&#xe2;" horiz-adv-x="874" d="M74 215q0 -96 71.5 -164.5t176.5 -68.5q74 0 143.5 27.5t144.5 86.5q6 -70 19.5 -92t46.5 -22q31 0 67.5 17t102.5 67l16 12v82q-43 -35 -80 -58.5t-51 -23.5q-23 0 -22 47v573q0 70 -27 117t-71 73.5t-92 38t-97 11.5q-76 0 -144.5 -22.5t-152.5 -75.5v-101 q84 63 146.5 90t134.5 27q205 0 204 -188v-117q-106 -4 -201.5 -24.5t-171 -60.5t-119.5 -102.5t-44 -148.5zM156 1049h77l205 223l203 -223h78l-217 335h-125zM172 215q0 115 122 184.5t316 69.5v-287q-72 -66 -131 -92.5t-125 -26.5q-78 0 -130 43.5t-52 108.5z" />
<glyph unicode="&#xe3;" horiz-adv-x="874" d="M74 215q0 -96 71.5 -164.5t176.5 -68.5q74 0 143.5 27.5t144.5 86.5q6 -70 19.5 -92t46.5 -22q31 0 67.5 17t102.5 67l16 12v82q-43 -35 -80 -58.5t-51 -23.5q-23 0 -22 47v573q0 70 -27 117t-71 73.5t-92 38t-97 11.5q-76 0 -144.5 -22.5t-152.5 -75.5v-101 q84 63 146.5 90t134.5 27q205 0 204 -188v-117q-106 -4 -201.5 -24.5t-171 -60.5t-119.5 -102.5t-44 -148.5zM102 1122h66q12 98 86 99q31 0 68.5 -12.5t99.5 -37.5l16 -6q59 -23 96 -34t70 -11q74 0 121 54q47 49 47 143h-61q-8 -53 -30 -76.5t-63 -23.5q-45 0 -149 43 l-18 8q-55 25 -97.5 37t-83.5 12q-84 0 -126 -56.5t-42 -138.5zM172 215q0 115 122 184.5t316 69.5v-287q-72 -66 -131 -92.5t-125 -26.5q-78 0 -130 43.5t-52 108.5z" />
<glyph unicode="&#xe4;" horiz-adv-x="874" d="M74 215q0 -96 71.5 -164.5t176.5 -68.5q74 0 143.5 27.5t144.5 86.5q6 -70 19.5 -92t46.5 -22q31 0 67.5 17t102.5 67l16 12v82q-43 -35 -80 -58.5t-51 -23.5q-23 0 -22 47v573q0 70 -27 117t-71 73.5t-92 38t-97 11.5q-76 0 -144.5 -22.5t-152.5 -75.5v-101 q84 63 146.5 90t134.5 27q205 0 204 -188v-117q-106 -4 -201.5 -24.5t-171 -60.5t-119.5 -102.5t-44 -148.5zM166 1212q0 -37 26.5 -63.5t63.5 -26.5t63.5 27t26.5 63q0 37 -26.5 64t-63.5 27t-63.5 -27t-26.5 -64zM172 215q0 115 122 184.5t316 69.5v-287 q-72 -66 -131 -92.5t-125 -26.5q-78 0 -130 43.5t-52 108.5zM528 1212q0 -37 27 -63.5t63 -26.5q37 0 64 27t27 63q0 37 -27 64t-64 27t-63.5 -27t-26.5 -64z" />
<glyph unicode="&#xe5;" horiz-adv-x="874" d="M74 215q0 -96 71.5 -164.5t176.5 -68.5q74 0 143.5 27.5t144.5 86.5q6 -70 19.5 -92t46.5 -22q31 0 67.5 17t102.5 67l16 12v82q-43 -35 -80 -58.5t-51 -23.5q-23 0 -22 47v573q0 70 -27 117t-71 73.5t-92 38t-97 11.5q-76 0 -144.5 -22.5t-152.5 -75.5v-101 q84 63 146.5 90t134.5 27q205 0 204 -188v-117q-106 -4 -201.5 -24.5t-171 -60.5t-119.5 -102.5t-44 -148.5zM172 215q0 115 122 184.5t316 69.5v-287q-72 -66 -131 -92.5t-125 -26.5q-78 0 -130 43.5t-52 108.5zM260 1214q0 -74 52.5 -126t125.5 -52q74 0 125 52.5 t51 125.5q0 74 -51 125.5t-125 51.5t-126 -51.5t-52 -125.5zM315 1214q0 51 36 86t87 35t86 -34.5t35 -86.5q0 -51 -35 -86.5t-86 -35.5t-87 35.5t-36 86.5z" />
<glyph unicode="&#xe6;" horiz-adv-x="1366" d="M68 219q0 -102 69.5 -169.5t175.5 -67.5q80 0 159 32.5t187 110.5q63 -76 134 -109.5t159 -33.5q170 0 338 104v113q-166 -121 -327 -121q-109 0 -187 73.5t-78 225.5v121h592q0 193 -96 316.5t-258 123.5q-80 0 -138.5 -32t-117.5 -109q-45 76 -102.5 108.5t-147.5 32.5 q-170 0 -319 -102v-103q84 59 158.5 87t146.5 28q92 0 138 -52.5t46 -150.5v-67q-283 -72 -391 -136q-70 -41 -105.5 -95t-35.5 -128zM162 215q0 98 114.5 164.5t323.5 118.5v-316q-82 -61 -145.5 -90t-120.5 -29q-74 0 -123 43.5t-49 108.5zM698 578q4 117 70 190.5 t166 73.5t172 -72t76 -192h-484z" />
<glyph unicode="&#xe7;" horiz-adv-x="854" d="M86 446q0 -182 95 -305t257 -151l-35 -117q127 -4 127 -80q0 -43 -33.5 -61.5t-99.5 -18.5q-10 0 -30 2q-25 2 -37 2l-11 -65q45 -10 91 -10q86 0 143 41t57 116q0 49 -31.5 84t-95.5 45l17 58q12 -4 37 -4q63 0 119.5 10t136.5 37v102q-76 -31 -130.5 -42t-117.5 -11 q-162 0 -258.5 102.5t-96.5 276.5q0 172 96.5 278.5t250.5 106.5q57 0 109 -12.5t130 -45.5v109q-78 25 -131 35t-113 10q-98 0 -180 -36t-141 -101.5t-92 -156.5t-33 -198z" />
<glyph unicode="&#xe8;" horiz-adv-x="980" d="M82 471q0 -104 34 -194.5t95 -157t146 -102t184 -35.5q195 0 354 122v111q-88 -72 -169 -104.5t-173 -32.5q-72 0 -139.5 27.5t-119.5 77.5t-81 118t-29 145v23q2 14 2 25h725q0 111 -34.5 195.5t-93 140t-131 82t-148.5 26.5q-90 0 -168 -35t-134.5 -97.5t-88 -148.5 t-31.5 -186zM199 573q27 125 108.5 197t196.5 72q240 0 291 -269h-596zM307 1386l311 -319h68l-213 319h-166z" />
<glyph unicode="&#xe9;" horiz-adv-x="980" d="M82 471q0 -104 34 -194.5t95 -157t146 -102t184 -35.5q195 0 354 122v111q-88 -72 -169 -104.5t-173 -32.5q-72 0 -139.5 27.5t-119.5 77.5t-81 118t-29 145v23q2 14 2 25h725q0 111 -34.5 195.5t-93 140t-131 82t-148.5 26.5q-90 0 -168 -35t-134.5 -97.5t-88 -148.5 t-31.5 -186zM199 573q27 125 108.5 197t196.5 72q240 0 291 -269h-596zM463 1067h67l312 319h-166z" />
<glyph unicode="&#xea;" horiz-adv-x="980" d="M82 471q0 -104 34 -194.5t95 -157t146 -102t184 -35.5q195 0 354 122v111q-88 -72 -169 -104.5t-173 -32.5q-72 0 -139.5 27.5t-119.5 77.5t-81 118t-29 145v23q2 14 2 25h725q0 111 -34.5 195.5t-93 140t-131 82t-148.5 26.5q-90 0 -168 -35t-134.5 -97.5t-88 -148.5 t-31.5 -186zM199 573q27 125 108.5 197t196.5 72q240 0 291 -269h-596zM209 1049h78l205 223l202 -223h78l-217 335h-125z" />
<glyph unicode="&#xeb;" horiz-adv-x="980" d="M82 471q0 -104 34 -194.5t95 -157t146 -102t184 -35.5q195 0 354 122v111q-88 -72 -169 -104.5t-173 -32.5q-72 0 -139.5 27.5t-119.5 77.5t-81 118t-29 145v23q2 14 2 25h725q0 111 -34.5 195.5t-93 140t-131 82t-148.5 26.5q-90 0 -168 -35t-134.5 -97.5t-88 -148.5 t-31.5 -186zM199 573q27 125 108.5 197t196.5 72q240 0 291 -269h-596zM219 1212q0 -37 26.5 -63.5t63.5 -26.5t63.5 27t26.5 63q0 37 -26.5 64t-63.5 27t-63.5 -27t-26.5 -64zM582 1212q0 -37 26.5 -63.5t63.5 -26.5t63.5 27t26.5 63q0 37 -26.5 64t-63.5 27t-63.5 -27 t-26.5 -64z" />
<glyph unicode="&#xec;" horiz-adv-x="385" d="M-72 1386l312 -319h67l-213 319h-166zM143 0h99v920h-99v-920z" />
<glyph unicode="&#xed;" horiz-adv-x="385" d="M143 0h99v920h-99v-920zM166 1067h67l312 319h-166z" />
<glyph unicode="&#xee;" horiz-adv-x="385" d="M-88 1049h78l205 223l202 -223h78l-217 335h-125zM143 0h99v920h-99v-920z" />
<glyph unicode="&#xef;" horiz-adv-x="385" d="M-78 1212q0 -37 26.5 -63.5t63.5 -26.5t63.5 27t26.5 63q0 37 -26.5 64t-63.5 27t-63.5 -27t-26.5 -64zM143 0h99v920h-99v-920zM285 1212q0 -37 26.5 -63.5t63.5 -26.5t63.5 27t26.5 63q0 37 -26.5 64t-63.5 27t-63.5 -27t-26.5 -64z" />
<glyph unicode="&#xf0;" horiz-adv-x="1144" d="M78 453q0 -98 37 -184.5t103.5 -151t155.5 -100t191 -35.5q231 0 369.5 144t138.5 386q0 217 -84 398.5t-237 310.5l237 108l-31 68l-272 -125q-109 76 -242 125l-38 -74q109 -43 184 -96l-256 -119l31 -68l292 138q109 -86 182.5 -192.5t106.5 -211.5l-4 -4 q-76 90 -163 129t-204 39q-104 0 -195 -36t-158.5 -102.5t-105.5 -155.5t-38 -191zM172 453q0 84 30.5 157.5t85 129t128 86t157.5 30.5q176 0 286 -108.5t110 -282.5q0 -180 -106.5 -291t-284.5 -111q-86 0 -161 29t-130.5 82t-85 125t-29.5 154z" />
<glyph unicode="&#xf1;" horiz-adv-x="1003" d="M127 0h98v645q63 102 133 149.5t168 47.5q121 0 185.5 -81t64.5 -237v-524h98v561q0 180 -94 278.5t-248 98.5q-100 0 -169.5 -41t-133.5 -137h-4v160h-98v-920zM168 1122h65q12 98 86 99q31 0 69 -12.5t99 -37.5l17 -6q59 -23 96 -34t70 -11q74 0 121 54q47 49 47 143 h-62q-8 -53 -29.5 -76.5t-62.5 -23.5q-45 0 -149 43l-19 8q-55 25 -97 37t-83 12q-84 0 -126 -56.5t-42 -138.5z" />
<glyph unicode="&#xf2;" horiz-adv-x="1110" d="M86 459q0 -100 35 -188.5t98.5 -153t150.5 -100t185 -35.5q100 0 185 35.5t148.5 100t98.5 153t35 188.5q0 102 -35 189t-98.5 152.5t-148.5 101.5t-185 36q-98 0 -184 -36t-150.5 -101.5t-99.5 -153.5t-35 -188zM190 459q0 82 28 152.5t77 121.5q104 109 260 109 q76 0 143.5 -29t116.5 -81t76 -121.5t27 -151.5t-27 -151.5t-77 -121t-115.5 -80t-143.5 -28.5q-156 0 -260 108q-49 51 -77 122t-28 151zM373 1386l311 -319h68l-213 319h-166z" />
<glyph unicode="&#xf3;" horiz-adv-x="1110" d="M86 459q0 -100 35 -188.5t98.5 -153t150.5 -100t185 -35.5q100 0 185 35.5t148.5 100t98.5 153t35 188.5q0 102 -35 189t-98.5 152.5t-148.5 101.5t-185 36q-98 0 -184 -36t-150.5 -101.5t-99.5 -153.5t-35 -188zM190 459q0 82 28 152.5t77 121.5q104 109 260 109 q76 0 143.5 -29t116.5 -81t76 -121.5t27 -151.5t-27 -151.5t-77 -121t-115.5 -80t-143.5 -28.5q-156 0 -260 108q-49 51 -77 122t-28 151zM528 1067h68l311 319h-166z" />
<glyph unicode="&#xf4;" horiz-adv-x="1110" d="M86 459q0 -100 35 -188.5t98.5 -153t150.5 -100t185 -35.5q100 0 185 35.5t148.5 100t98.5 153t35 188.5q0 102 -35 189t-98.5 152.5t-148.5 101.5t-185 36q-98 0 -184 -36t-150.5 -101.5t-99.5 -153.5t-35 -188zM190 459q0 82 28 152.5t77 121.5q104 109 260 109 q76 0 143.5 -29t116.5 -81t76 -121.5t27 -151.5t-27 -151.5t-77 -121t-115.5 -80t-143.5 -28.5q-156 0 -260 108q-49 51 -77 122t-28 151zM274 1049h78l205 223l203 -223h78l-217 335h-125z" />
<glyph unicode="&#xf5;" horiz-adv-x="1110" d="M86 459q0 -100 35 -188.5t98.5 -153t150.5 -100t185 -35.5q100 0 185 35.5t148.5 100t98.5 153t35 188.5q0 102 -35 189t-98.5 152.5t-148.5 101.5t-185 36q-98 0 -184 -36t-150.5 -101.5t-99.5 -153.5t-35 -188zM190 459q0 82 28 152.5t77 121.5q104 109 260 109 q76 0 143.5 -29t116.5 -81t76 -121.5t27 -151.5t-27 -151.5t-77 -121t-115.5 -80t-143.5 -28.5q-156 0 -260 108q-49 51 -77 122t-28 151zM221 1122h66q12 98 86 99q31 0 68.5 -12.5t99.5 -37.5l16 -6q59 -23 96 -34t70 -11q74 0 121 54q47 49 47 143h-62 q-8 -53 -29.5 -76.5t-62.5 -23.5q-45 0 -149 43l-19 8q-55 25 -97 37t-83 12q-84 0 -126 -56.5t-42 -138.5z" />
<glyph unicode="&#xf6;" horiz-adv-x="1110" d="M86 459q0 -100 35 -188.5t98.5 -153t150.5 -100t185 -35.5q100 0 185 35.5t148.5 100t98.5 153t35 188.5q0 102 -35 189t-98.5 152.5t-148.5 101.5t-185 36q-98 0 -184 -36t-150.5 -101.5t-99.5 -153.5t-35 -188zM190 459q0 82 28 152.5t77 121.5q104 109 260 109 q76 0 143.5 -29t116.5 -81t76 -121.5t27 -151.5t-27 -151.5t-77 -121t-115.5 -80t-143.5 -28.5q-156 0 -260 108q-49 51 -77 122t-28 151zM285 1212q0 -37 26.5 -63.5t63.5 -26.5t63.5 27t26.5 63q0 37 -26.5 64t-63.5 27t-63.5 -27t-26.5 -64zM647 1212q0 -37 26.5 -63.5 t63.5 -26.5t63.5 27t26.5 63q0 37 -26.5 64t-63.5 27t-63.5 -27t-26.5 -64z" />
<glyph unicode="&#xf7;" horiz-adv-x="1351" d="M139 674h1073v90h-1073v-90zM596 379q0 -35 22.5 -57.5t57.5 -22.5t57.5 22.5t22.5 57.5t-22.5 57.5t-57.5 22.5t-57.5 -22.5t-22.5 -57.5zM596 1059q0 -35 22.5 -57.5t57.5 -22.5t57.5 22.5t22.5 57.5t-22.5 57.5t-57.5 22.5t-57.5 -22.5t-22.5 -57.5z" />
<glyph unicode="&#xf8;" horiz-adv-x="1110" d="M86 0l68 -61l116 135q57 -43 128 -67.5t157 -24.5q100 0 185 35.5t148.5 100t98.5 152.5t35 189q0 193 -125 334l111 127l-64 51l-108 -123q-57 43 -130 66.5t-151 23.5q-98 0 -184 -36t-150.5 -101.5t-99.5 -153.5t-35 -188q0 -195 119 -324zM190 459q0 82 28 152.5 t77 121.5q104 109 260 109q123 0 213 -70l-496 -561q-39 53 -60.5 111.5t-21.5 136.5zM338 150l489 563q43 -45 67 -111.5t24 -142.5q0 -82 -27 -151.5t-77 -121t-115.5 -80t-143.5 -28.5q-70 0 -115 17.5t-102 54.5z" />
<glyph unicode="&#xf9;" horiz-adv-x="1003" d="M127 350q0 -98 29.5 -169.5t80 -114.5t110 -63.5t122.5 -20.5q104 0 171 38.5t132 131.5h4v-152h98v920h-98v-646q-66 -102 -131 -149t-168 -47q-109 0 -180.5 70.5t-71.5 203.5v568h-98v-570zM319 1386l312 -319h67l-213 319h-166z" />
<glyph unicode="&#xfa;" horiz-adv-x="1003" d="M127 350q0 -98 29.5 -169.5t80 -114.5t110 -63.5t122.5 -20.5q104 0 171 38.5t132 131.5h4v-152h98v920h-98v-646q-66 -102 -131 -149t-168 -47q-109 0 -180.5 70.5t-71.5 203.5v568h-98v-570zM475 1067h68l311 319h-166z" />
<glyph unicode="&#xfb;" horiz-adv-x="1003" d="M127 350q0 -98 29.5 -169.5t80 -114.5t110 -63.5t122.5 -20.5q104 0 171 38.5t132 131.5h4v-152h98v920h-98v-646q-66 -102 -131 -149t-168 -47q-109 0 -180.5 70.5t-71.5 203.5v568h-98v-570zM221 1049h78l205 223l203 -223h77l-217 335h-125z" />
<glyph unicode="&#xfc;" horiz-adv-x="1003" d="M127 350q0 -98 29.5 -169.5t80 -114.5t110 -63.5t122.5 -20.5q104 0 171 38.5t132 131.5h4v-152h98v920h-98v-646q-66 -102 -131 -149t-168 -47q-109 0 -180.5 70.5t-71.5 203.5v568h-98v-570zM231 1212q0 -37 27 -63.5t64 -26.5t63.5 27t26.5 63q0 37 -26.5 64t-63.5 27 t-64 -27t-27 -64zM594 1212q0 -37 26.5 -63.5t63.5 -26.5t63.5 27t26.5 63q0 37 -26.5 64t-63.5 27t-63.5 -27t-26.5 -64z" />
<glyph unicode="&#xfd;" horiz-adv-x="854" d="M12 920l387 -742l-321 -649h100l688 1391h-100l-317 -644l-334 644h-103zM399 1067h68l311 319h-166z" />
<glyph unicode="&#xfe;" horiz-adv-x="1044" d="M129 -471h98v522q78 -37 140.5 -53t132.5 -16q94 0 178 36.5t147.5 102t98 153.5t34.5 189q0 102 -33.5 189t-95 151.5t-145.5 99.5t-180 35q-74 0 -136.5 -15.5t-140.5 -54.5v529h-98v-1868zM227 147v627q72 39 126.5 53.5t115.5 14.5q166 0 273.5 -108.5t107.5 -278.5 t-101.5 -273.5t-267.5 -103.5q-70 0 -127 15.5t-127 53.5z" />
<glyph unicode="&#xff;" horiz-adv-x="854" d="M12 920l387 -742l-321 -649h100l688 1391h-100l-317 -644l-334 644h-103zM156 1212q0 -37 26.5 -63.5t63.5 -26.5t63.5 27t26.5 63q0 37 -26.5 64t-63.5 27t-63.5 -27t-26.5 -64zM518 1212q0 -37 26.5 -63.5t63.5 -26.5t63.5 27t26.5 63q0 37 -26.5 64t-63.5 27 t-63.5 -27t-26.5 -64z" />
<glyph unicode="&#x152;" horiz-adv-x="1835" d="M84 696q0 -125 45 -247.5t138 -225t236.5 -163t332.5 -60.5h921v90h-674v565h646v90h-646v562h660v90h-912q-182 0 -323 -59.5t-235.5 -160t-141.5 -225.5t-47 -256zM201 696q0 109 37.5 216.5t116.5 197.5t205 143.5t294 53.5h121v-1217h-117q-162 0 -288 51.5 t-207.5 138.5t-121.5 195.5t-40 220.5z" />
<glyph unicode="&#x153;" horiz-adv-x="1705" d="M84 459q0 -111 35 -200t97.5 -150.5t144 -94t176.5 -32.5q119 0 213 51t180 164q51 -111 132 -163t202 -52q188 0 340 120v113q-80 -70 -159 -103.5t-169 -33.5q-135 0 -213 100.5t-78 317.5h639q0 203 -109.5 322.5t-269.5 119.5q-94 0 -182 -52t-133 -143 q-76 100 -169 147.5t-214 47.5q-100 0 -186.5 -35t-147.5 -98.5t-95 -152.5t-34 -193zM188 463q0 170 99.5 274.5t261.5 104.5q156 0 244 -97.5t88 -267.5q0 -180 -92.5 -289.5t-245.5 -109.5q-154 0 -254.5 108.5t-100.5 276.5zM989 573q2 121 79 195t179 74 q109 0 181.5 -71t80.5 -198h-520z" />
<glyph unicode="&#x178;" horiz-adv-x="1193" d="M0 1397l543 -647v-750h108v750l543 647h-131l-465 -553l-467 553h-131zM326 1659q0 -37 26.5 -63.5t63.5 -26.5t63.5 26.5t26.5 63.5t-26.5 63.5t-63.5 26.5t-63.5 -26.5t-26.5 -63.5zM688 1659q0 -37 26.5 -63.5t63.5 -26.5t63.5 26.5t26.5 63.5t-26.5 63.5t-63.5 26.5 t-63.5 -26.5t-26.5 -63.5z" />
<glyph unicode="&#x2c6;" horiz-adv-x="681" d="M59 1049h78l205 223l203 -223h78l-217 335h-125z" />
<glyph unicode="&#x2dc;" horiz-adv-x="681" d="M6 1122h66q12 98 86 99q31 0 68.5 -12.5t99.5 -37.5l16 -6q59 -23 96 -34t70 -11q74 0 121 54q47 49 47 143h-62q-8 -53 -29.5 -76.5t-62.5 -23.5q-45 0 -149 43l-19 8q-55 25 -97 37t-83 12q-84 0 -126 -56.5t-42 -138.5z" />
<glyph unicode="&#x2000;" horiz-adv-x="918" />
<glyph unicode="&#x2001;" horiz-adv-x="1837" />
<glyph unicode="&#x2002;" horiz-adv-x="918" />
<glyph unicode="&#x2003;" horiz-adv-x="1837" />
<glyph unicode="&#x2004;" horiz-adv-x="612" />
<glyph unicode="&#x2005;" horiz-adv-x="459" />
<glyph unicode="&#x2006;" horiz-adv-x="306" />
<glyph unicode="&#x2007;" horiz-adv-x="306" />
<glyph unicode="&#x2008;" horiz-adv-x="229" />
<glyph unicode="&#x2009;" horiz-adv-x="367" />
<glyph unicode="&#x200a;" horiz-adv-x="102" />
<glyph unicode="&#x2010;" horiz-adv-x="641" d="M78 414h485v96h-485v-96z" />
<glyph unicode="&#x2011;" horiz-adv-x="641" d="M78 414h485v96h-485v-96z" />
<glyph unicode="&#x2012;" horiz-adv-x="641" d="M78 414h485v96h-485v-96z" />
<glyph unicode="&#x2013;" d="M-12 479h1048v66h-1048v-66z" />
<glyph unicode="&#x2014;" horiz-adv-x="2048" d="M-12 479h2072v66h-2072v-66z" />
<glyph unicode="&#x2018;" horiz-adv-x="362" d="M115 963h133v198h-43q0 55 8 92t35 76v72q-63 -47 -98 -124t-35 -159v-155z" />
<glyph unicode="&#x2019;" horiz-adv-x="362" d="M115 963q66 47 99.5 123.5t33.5 158.5v156h-133v-199h43q0 -55 -8.5 -92t-34.5 -76v-71z" />
<glyph unicode="&#x201a;" horiz-adv-x="362" d="M115 0h43q0 -55 -8.5 -92t-34.5 -76v-72q66 47 99.5 124t33.5 159v156h-133v-199z" />
<glyph unicode="&#x201c;" horiz-adv-x="811" d="M115 963h133v198h-43q0 55 8 92t35 76v72q-63 -47 -98 -124t-35 -159v-155zM563 963h133v198h-43q0 55 8.5 92t34.5 76v72q-63 -47 -98 -124t-35 -159v-155z" />
<glyph unicode="&#x201d;" horiz-adv-x="811" d="M115 963q66 47 99.5 123.5t33.5 158.5v156h-133v-199h43q0 -55 -8.5 -92t-34.5 -76v-71zM563 963q66 47 99.5 123.5t33.5 158.5v156h-133v-199h43q0 -55 -8 -92t-35 -76v-71z" />
<glyph unicode="&#x201e;" horiz-adv-x="811" d="M119 0h43q0 -55 -8.5 -92t-34.5 -76v-72q66 47 99.5 124t33.5 159v156h-133v-199zM559 0h43q0 -55 -8 -92t-35 -76v-72q66 47 99.5 124t33.5 159v156h-133v-199z" />
<glyph unicode="&#x2022;" d="M262 698q0 -102 74 -175.5t176 -73.5t176 73.5t74 175.5t-74 176t-176 74t-176 -73.5t-74 -176.5z" />
<glyph unicode="&#x2026;" horiz-adv-x="2048" d="M274 0h134v199h-134v-199zM956 0h134v199h-134v-199zM1638 0h134v199h-134v-199z" />
<glyph unicode="&#x202f;" horiz-adv-x="367" />
<glyph unicode="&#x2039;" horiz-adv-x="575" d="M33 473l387 -459h123l-385 459l385 459h-123z" />
<glyph unicode="&#x203a;" horiz-adv-x="575" d="M33 14h123l387 459l-387 459h-123l385 -459z" />
<glyph unicode="&#x205f;" horiz-adv-x="459" />
<glyph unicode="&#x2122;" horiz-adv-x="1925" d="M205 1378h266v-729h104v729h265v84h-635v-84zM934 649h92v729h4l225 -729h70l240 729h4v-729h92v813h-156l-211 -649h-4l-203 649h-153v-813z" />
<glyph unicode="&#xe000;" horiz-adv-x="921" d="M0 0v922h922v-922h-922z" />
</font>
</defs>
</svg>
