<?xml version="1.0" encoding="utf-8"?>
<!-- Generator: Adobe Illustrator 16.0.0, SVG Export Plug-In . SVG Version: 6.00 Build 0)  -->
<!DOCTYPE svg PUBLIC "-//W3C//DTD SVG 1.1//EN" "http://www.w3.org/Graphics/SVG/1.1/DTD/svg11.dtd">
<svg version="1.1" id="Capa_1" xmlns="http://www.w3.org/2000/svg" xmlns:xlink="http://www.w3.org/1999/xlink" x="0px" y="0px"
	 width="512px" height="512px" viewBox="0 0 512 512" enable-background="new 0 0 512 512" xml:space="preserve">
<g>
	<g>
		<path fill="#E0B49B" d="M404.054,383.277h-205.5l-12.701-50.805h268.561l57.588-230.353H128.264l-20.241-80.965H0v30.159h84.475
			l83.292,333.168c-24.247,5.207-42.482,26.8-42.482,52.58c0,29.655,24.127,53.782,53.784,53.782
			c29.657,0,53.784-24.128,53.784-53.782c0-8.473-1.975-16.489-5.48-23.625H355.75c-3.505,7.136-5.48,15.152-5.48,23.625
			c0,29.655,24.129,53.782,53.784,53.782c29.656,0,53.784-24.128,53.784-53.782C457.837,407.406,433.709,383.277,404.054,383.277z"
			/>
	</g>
</g>
</svg>
