<?xml version="1.0" encoding="utf-8"?>
<!-- Generator: Adobe Illustrator 16.0.0, SVG Export Plug-In . SVG Version: 6.00 Build 0)  -->
<!DOCTYPE svg PUBLIC "-//W3C//DTD SVG 1.1//EN" "http://www.w3.org/Graphics/SVG/1.1/DTD/svg11.dtd">
<svg version="1.1" id="Layer_1" xmlns="http://www.w3.org/2000/svg" xmlns:xlink="http://www.w3.org/1999/xlink" x="0px" y="0px"
	 width="783.23px" height="141.148px" viewBox="0 0 783.23 141.148" enable-background="new 0 0 783.23 141.148"
	 xml:space="preserve">
<g>
	<g>
		<path fill="#414042" d="M80.675,65.618l-1.52-0.451c-7.784-2.307-15.134-4.478-15.134-10.542c0-5.764,5.426-9.642,13.505-9.642
			c7.803,0,13.886,4.699,15.134,11.693l0.113,0.626l8.137-2.177l-0.113-0.542c-2.114-10.311-11.365-17.24-23.009-17.24
			c-12.754,0-22.364,7.588-22.364,17.652c0,11.175,10.841,14.567,18.013,16.811l0.144,0.042c1.117,0.352,2.263,0.688,3.414,1.024
			c7.826,2.297,15.914,4.676,15.914,12.251c0,6.52-5.789,10.892-14.408,10.892c-10.293,0-15.729-6.63-16.546-13.208l-0.078-0.667
			l-8.274,2.187l0.103,0.538c2.188,11.685,11.585,18.942,24.519,18.942c13.884,0,23.581-7.757,23.581-18.866
			C101.806,71.922,88.576,67.972,80.675,65.618z"/>
		<polygon fill="#414042" points="120.519,46.674 141.506,46.674 141.506,102.559 149.942,102.559 149.942,46.674 171.021,46.674 
			171.021,38.592 120.519,38.592 		"/>
		<polygon fill="#414042" points="204.829,72.608 232.553,72.608 232.553,64.897 204.829,64.897 204.829,46.679 239.351,46.679 
			239.351,38.588 196.304,38.588 196.304,102.554 239.907,102.554 239.907,94.473 204.829,94.473 		"/>
		<path fill="#414042" d="M296.349,83.922c-1.17,3.109-2.44,6.517-3.109,8.321c-0.624-1.819-1.825-5.242-3.069-8.34l-19.079-45.312
			h-9.236l27.315,63.962h8.201l27.34-63.962h-9.186L296.349,83.922z"/>
		<polygon fill="#414042" points="356.488,72.608 384.21,72.608 384.21,64.897 356.488,64.897 356.488,46.679 391.036,46.679 
			391.036,38.588 347.965,38.588 347.965,102.554 391.565,102.554 391.565,94.473 356.488,94.473 		"/>
		<path fill="#414042" d="M439.84,65.618l-1.514-0.451c-7.769-2.307-15.101-4.478-15.101-10.542c0-5.764,5.425-9.642,13.5-9.642
			c7.808,0,13.88,4.699,15.121,11.693l0.104,0.626l8.139-2.177l-0.105-0.542c-2.118-10.311-11.362-17.24-22.998-17.24
			c-12.959,0-22.365,7.424-22.365,17.652c0,11.161,10.82,14.558,17.983,16.802l0.158,0.051c1.115,0.347,2.259,0.688,3.401,1.019
			c7.831,2.299,15.927,4.677,15.927,12.257c0,6.52-5.779,10.892-14.389,10.892c-10.321,0-15.739-6.63-16.542-13.202l-0.083-0.673
			l-8.277,2.187l0.102,0.538c2.191,11.685,11.589,18.942,24.532,18.942c13.864,0,23.551-7.757,23.551-18.866
			C460.984,71.896,447.744,67.966,439.84,65.618z"/>
	</g>
	<path fill="#414042" d="M618.03,82.264l-0.211,0.419c-4.104,7.841-12.4,12.713-21.648,12.713c-14.149,0-24.416-10.432-24.416-24.8
		c0-14.673,10.041-24.911,24.416-24.911c8.484,0,16.372,4.193,20.602,10.944l0.221,0.356l8.609-2.162l-0.375-0.662
		c-5.938-10.538-16.806-16.822-29.057-16.822c-18.892,0-33.128,14.299-33.128,33.257c0,18.93,14.236,33.211,33.128,33.211
		c13.115,0,24.594-7.134,29.955-18.622l0.293-0.622L618.03,82.264z"/>
	<path fill="#414042" d="M725.212,103.02c2.427,0,4.416-1.879,4.416-4.415c0-2.392-1.989-4.487-4.416-4.487
		c-2.502,0-4.473,1.989-4.473,4.487C720.739,101.037,722.71,103.02,725.212,103.02z"/>
	<path fill="#414042" d="M0,0v141.148h783.23V0H0z M773.771,132.961H9.496V8.158h764.275V132.961z"/>
	<path fill="#414042" d="M527.533,83.453c1.154-1.859,2.067-3.864,2.735-5.967c0.782-2.49,0.928-5.045,0.955-7.596l-7.172-1.474
		l-0.024,0.844c-0.019,0.582-0.019,0.764-0.077,1.548c-0.02,0.283-0.096,0.662-0.111,0.803c-0.178,1.45-0.303,2.475-0.686,3.671
		c-0.26,0.849-0.653,1.978-0.989,2.736l-11.772-12.01c-0.801-0.803-1.465-1.58-1.921-2.123c-0.604-0.807-0.994-1.403-1.269-1.937
		c-0.302-0.572-0.527-1.143-0.691-1.758c-0.153-0.543-0.227-1.125-0.227-1.721c0-0.759,0.053-1.767,0.313-2.426
		c0.246-0.628,0.598-1.157,1.076-1.629c0.462-0.465,1.01-0.816,1.677-1.08c1.312-0.518,3.1-0.548,4.28-0.033
		c0.559,0.235,1.364,0.759,1.364,0.759c2.359,2.051,3.205,3.765,3.596,5.375c0.086,0.414,0.129,0.683,0.129,0.683l6.691-1.797
		c-0.056-0.303-0.129-0.611-0.21-0.903c-0.102-0.29-0.164-0.601-0.273-0.904c-0.212-0.624-0.4-1.072-0.4-1.072v0.005
		c-1.307-3.333-3.478-7.144-9.379-8.917c-1.085-0.259-2.238-0.404-3.457-0.404c-2.086,0-3.921,0.323-5.612,0.981
		c-1.691,0.649-3.152,1.546-4.339,2.676c-1.191,1.149-2.07,2.292-2.706,3.815c-0.643,1.557-0.956,3.157-0.956,4.896
		c0,1.792,0.353,3.584,1.03,5.318c0.466,1.182,1.137,2.407,1.997,3.666c-0.917,0.485-1.796,1.037-2.627,1.644
		c-1.345,1.012-2.46,2.089-3.41,3.291c-0.98,1.281-1.742,2.646-2.241,4.034c-0.576,1.495-0.854,3.038-0.854,4.704
		c0,2.199,0.453,4.198,1.327,5.952c0.859,1.727,2.017,3.22,3.44,4.436c1.431,1.214,3.063,2.136,4.827,2.731
		c1.86,0.649,3.647,0.972,5.453,0.972c3.267,0,6.322-0.61,9.114-1.812c2.264-0.979,4.531-2.397,6.402-4.002l2.722,2.749l2.633,2.373
		l0.183-0.087l7.897-2.479L527.533,83.453z M507.722,88.189c-5.025,0-7.294-3.834-7.342-3.921c-0.989-2.2-1.12-4.284-0.375-6.192
		c1.191-3.065,4.306-4.957,5.545-5.616l11.847,11.945C513.871,86.917,510.614,88.189,507.722,88.189z"/>
	<path fill="#414042" d="M680.949,37.339c-18.905,0-33.159,14.298-33.159,33.256c0,18.935,14.254,33.215,33.159,33.215
		c18.931,0,33.218-14.28,33.218-33.215C714.167,51.637,699.88,37.339,680.949,37.339z M680.949,95.467
		c-14.158,0-24.436-10.464-24.436-24.873c0-14.667,10.047-24.91,24.436-24.91c14.153,0,24.427,10.473,24.427,24.91
		C705.376,85.003,695.103,95.467,680.949,95.467z"/>
</g>
</svg>
